<svg width="24px" height="28px" viewBox="1163 366 24 28" version="1.1" xmlns="http://www.w3.org/2000/svg" xmlns:xlink="http://www.w3.org/1999/xlink">
    <path d="M1185.4693,375.250541 C1184.11797,374.483956 1182.41955,375.484167 1182.14735,375.656141 L1176.31279,378.989365 C1175.45136,378.300183 1174.22408,378.329461 1173.39601,379.058947 C1172.56794,379.788434 1172.37562,381.009747 1172.93894,381.961546 C1173.50226,382.913345 1174.6603,383.323743 1175.69116,382.936907 C1176.72203,382.550071 1177.33125,381.476503 1177.13905,380.385442 L1182.9575,377.059519 L1182.99294,377.037616 C1183.37546,376.794256 1184.26293,376.430027 1184.67767,376.666086 C1184.97645,376.835627 1185.14717,377.403468 1185.16086,378.239816 L1185.15362,378.239816 L1185.15362,385.591728 C1185.15241,386.277523 1184.78923,386.910926 1184.20011,387.25469 L1175.83604,392.121894 C1175.24595,392.463722 1174.51993,392.463722 1173.92984,392.121894 L1165.56576,387.25469 C1164.97664,386.910926 1164.61346,386.277523 1164.61226,385.591728 L1164.61226,375.861375 C1164.61346,375.175581 1164.97664,374.542177 1165.56576,374.198414 L1173.13579,369.797649 C1173.85602,370.629933 1175.06302,370.826586 1176.007,370.265447 C1176.95097,369.704307 1177.36353,368.544926 1176.98838,367.50751 C1176.61324,366.470094 1175.55705,365.849615 1174.47594,366.031513 C1173.39482,366.213411 1172.59616,367.145967 1172.57609,368.249878 L1164.76446,372.792603 C1163.67521,373.425489 1163.00293,374.594732 1163,375.861375 L1163,385.589295 C1163.00119,386.855348 1163.67125,388.025073 1164.75882,388.659689 L1173.1229,393.526894 C1174.21155,394.157702 1175.5511,394.157702 1176.63975,393.526894 L1185.00383,388.659689 C1186.09066,388.025509 1186.7606,386.856912 1186.76265,385.591728 L1186.76265,378.51968 L1186.76829,378.51968 C1186.80936,376.860774 1186.36885,375.761597 1185.4693,375.250541 L1185.4693,375.250541 Z" fill-rule="evenodd"></path>
</svg>
