<svg width="33px" height="20px" viewBox="1878 370 33 20" version="1.1" xmlns="http://www.w3.org/2000/svg" xmlns:xlink="http://www.w3.org/1999/xlink">
    <g id="Group-5" opacity="0.5" stroke="none" stroke-width="1" fill="none" fill-rule="evenodd" transform="translate(1878.000000, 370.000000)">
        <path d="M6.17809541,3.14116617 C6.17809541,4.87130826 4.79627554,6.27327468 3.09215175,6.27327468 C1.38751063,6.27327468 0.00607876579,4.87130826 0.00607876579,3.14116617 C0.00607876579,1.41102408 1.38738129,0.00905764827 3.09202242,0.00905764827 C4.79634021,0.00905764827 6.17809541,1.41102408 6.17809541,3.14116617" id="Shape" fill="#1CBF32"></path>
        <path d="M29.6294565,17.2768077 L12.3595535,17.2768077 C10.0800164,17.2768077 8.2256048,15.3947859 8.2256048,13.0812132 C8.2256048,10.7676404 10.0801457,8.88542168 12.3595535,8.88542168 L20.1701209,8.88542168 C21.5162442,8.88542168 22.6115214,7.77369381 22.6115214,6.40730162 C22.6115214,5.04090944 21.5161795,3.92918157 20.1701209,3.92918157 L3.09176375,3.92918157 C2.62441013,3.92918157 2.24552195,3.54455969 2.24552195,3.07034586 C2.24552195,2.59600076 2.6244748,2.21144452 3.09169908,2.21144452 L20.1699916,2.21144452 C22.4495287,2.21144452 24.3037463,4.09372884 24.3037463,6.40723599 C24.3037463,8.72074314 22.4494641,10.6028306 20.1699916,10.6028306 L12.3594242,10.6028306 C11.0130422,10.6028306 9.91782972,11.7145584 9.91782972,13.0812132 C9.91782972,14.4474741 11.0131716,15.5591363 12.3594242,15.5591363 L29.6294565,15.5591363 C30.0968101,15.5591363 30.4756983,15.9437582 30.4756983,16.417972 C30.4756983,16.8922515 30.0968748,17.2768077 29.6295211,17.2768077 L29.6294565,17.2768077 Z" id="Shape" fill="#1CBF32"></path>
        <path d="M26.5437715,16.4181033 C26.5437715,14.6879612 27.925074,13.2859948 29.6297152,13.2859948 C31.3343563,13.2859948 32.7156588,14.6879612 32.7156588,16.4181033 C32.7156588,18.1482454 31.3343563,19.5502118 29.6297152,19.5502118 C27.925074,19.5502118 26.5437715,18.1482454 26.5437715,16.4181033" id="Shape" fill="#1CBF32"></path>
    </g>
</svg>