<svg id="Layer_1" data-name="Layer 1" xmlns="http://www.w3.org/2000/svg" viewBox="0 0 559.51 151.75"><defs><style>.cls-1{font-size:83.64px;fill:#45ae50;font-family:SF UI Display;}.cls-2{letter-spacing:-1px;}.cls-3,.cls-4{fill:#ababab;}.cls-3{letter-spacing:-2px;}.cls-5{fill:#dadada;}.cls-6{fill:#009639;}.cls-7{fill:#13a642;}.cls-8{fill:#18a743;}.cls-9{fill:#49ae50;}.cls-10{fill:#ededed;}.cls-11{fill:#c6c6c6;}.cls-12{fill:#c7c6c6;}</style></defs><title>Logo mit schriftzug x</title><text class="cls-1" transform="translate(186.75 94.9)">g<tspan class="cls-2" x="46.72" y="0">r</tspan><tspan x="71.02" y="0">ap</tspan><tspan x="160.55" y="0">h</tspan><tspan class="cls-3" x="205.43" y="0">.</tspan><tspan class="cls-4" x="223.53" y="0">cool</tspan></text><polygon class="cls-5" points="60.05 59.33 66.78 55.44 66.78 63.22 60.05 67.1 60.05 59.33"/><polyline class="cls-6" points="65.71 151.75 65.71 132.78 16.43 104.33 16.43 47.42 0 37.94 0 113.81"/><polygon class="cls-7" points="16.43 47.42 82.14 9.48 82.14 28.45 32.85 56.91 32.85 94.84 16.43 104.33 16.43 47.42"/><polyline class="cls-8" points="65.71 132.78 114.99 104.33 114.99 66.39 65.71 94.84 65.71 75.87 131.42 37.94 131.42 113.81 66.97 151.02 65.78 151.7"/><path class="cls-7" d="M65.63,75.92V91.51a3.34,3.34,0,0,1,2.32,1,2.47,2.47,0,0,1,.54.77l46.42-26.8v37.94L65.63,132.82l0.08,18.92,1.18-.68,64.45-37.21V38Z"/><polygon class="cls-6" points="65.71 75.87 49.36 66.34 49.36 85.31 65.71 94.84 65.71 75.87"/><polygon class="cls-9" points="32.85 94.84 65.63 113.77 98.49 94.8 114.91 104.37 65.63 132.82 16.43 104.33 32.85 94.84"/><polygon class="cls-9" points="82.14 9.48 65.71 0 0 37.94 16.43 47.42 82.14 9.48"/><polygon class="cls-9" points="49.36 66.34 114.91 28.41 131.34 37.98 65.71 75.87 49.36 66.34"/><polygon class="cls-6" points="98.56 75.87 98.49 94.8 114.91 104.37 114.91 66.43 98.56 75.87"/><polygon class="cls-5" points="98.56 75.87 98.49 94.8 65.63 113.77 65.71 94.84 98.56 75.87"/><polygon class="cls-10" points="49.36 47.38 65.71 56.88 82.21 47.38 65.71 37.98 49.36 47.38"/><polygon class="cls-11" points="49.36 47.38 49.36 66.34 65.71 56.88 49.36 47.38"/><polygon class="cls-10" points="49.36 66.34 32.85 75.87 49.36 85.31 49.36 66.34"/><polygon class="cls-11" points="32.85 75.87 49.36 85.31 65.71 94.84 65.63 113.77 32.85 94.84 32.85 75.87"/><polygon class="cls-12" points="16.39 66.31 16.39 85.35 32.88 94.87 32.88 75.83 16.39 66.31"/><polygon class="cls-5" points="32.88 75.83 49.36 66.31 49.36 85.35 32.88 94.87 32.88 75.83"/><polygon class="cls-10" points="16.39 66.31 32.88 56.79 49.36 66.31 32.88 75.83 16.39 66.31"/></svg>