<svg id="Layer_1" data-name="Layer 1" xmlns="http://www.w3.org/2000/svg" viewBox="0 0 557.04 150.76"><defs><style>.cls-1{isolation:isolate;}.cls-2{fill:#45ae50;}.cls-3{fill:#ababab;}.cls-4{fill:#009539;}.cls-5{fill:#13a542;}.cls-6{fill:#48ad4f;}.cls-7{fill:#c6c6c5;}.cls-8{fill:#d9d9d9;}.cls-9{fill:#ececec;}</style></defs><title>Logo mit schriftzug</title><g class="cls-1"><path class="cls-2" d="M190.61,98.27H198c1.06,3.67,5.43,6,11.23,6,7.6,0,12.41-4,12.41-10.21v-6.9h-0.16c-2.78,4.78-8,7.55-14.13,7.55-11.15,0-18.62-8.86-18.62-22.17s7.47-22.25,18.78-22.25c6.21,0,11.39,2.74,14.33,7.55H222V50.66h6.78V93.46c0,10.53-7.55,16.95-19.93,16.95C198.86,110.4,191.63,105.58,190.61,98.27Zm31-25.77c0-9.47-5.23-15.92-12.94-15.92S196,62.87,196,72.51s5,15.84,12.7,15.84S221.65,81.94,221.65,72.51Z" transform="translate(0 0)"/></g><g class="cls-1"><path class="cls-2" d="M237.62,50.6h6.7v7.15h0.16c1.31-4.61,5.51-7.55,10.66-7.55a16,16,0,0,1,2.94.25v7A14.82,14.82,0,0,0,254.2,57c-5.72,0-9.47,4.17-9.47,10.37V94.62h-7.1v-44Z" transform="translate(0 0)"/></g><g class="cls-1"><path class="cls-2" d="M259.92,82.06c0-7.55,5.8-12,16.5-12.66l12.33-.74V65c0-5.47-3.59-8.49-10.09-8.49-5.1,0-8.9,2.61-9.76,6.78h-6.82c0.2-7.43,7.43-13.11,16.66-13.11,10.41,0,17.11,5.55,17.11,14.21V94.59h-6.74V87h-0.16c-2.49,4.9-8,8-14.17,8C265.84,95,259.92,89.85,259.92,82.06Zm28.83-4.21V74.3L277.23,75c-6.61.41-10,2.82-10,7.06,0,4.08,3.55,6.74,9.11,6.74C283.48,88.83,288.75,84.18,288.75,77.85Z" transform="translate(0 0)"/><path class="cls-2" d="M345.31,72.58C345.31,86,337.71,95,326.6,95c-6.25,0-11.27-2.74-14-7.55h-0.16v21.84h-7.1V50.57H312v7.15h0.16c2.57-4.57,8.17-7.55,14.25-7.55C337.67,50.16,345.31,59.15,345.31,72.58Zm-7.27,0c0-9.72-5.15-16.09-12.9-16.09-7.59,0-12.78,6.53-12.78,16.09s5.19,16.09,12.78,16.09C332.89,88.67,338,82.34,338,72.58Z" transform="translate(0 0)"/></g><g class="cls-1"><path class="cls-2" d="M351.86,33H359V57.59h0.16c2.74-5,7.23-7.55,14-7.55,9.64,0,15.52,6.53,15.52,16.33V94.46h-7.1V67.63c0-7-3.55-11.27-10.54-11.27-7.43,0-12,5.06-12,12.78V94.46h-7.11V33Z" transform="translate(0 0)"/></g><g class="cls-1"><path class="cls-3" d="M397.47,90.15a4.65,4.65,0,1,1,4.65,4.65A4.58,4.58,0,0,1,397.47,90.15Z" transform="translate(0 0)"/></g><g class="cls-1"><path class="cls-3" d="M443.83,64.68c-0.9-4.7-4.82-8.41-11.43-8.41-7.68,0-12.9,6.37-12.9,16.09,0,10,5.31,16.09,13,16.09,6.13,0,10.21-2.86,11.43-8.17h7c-1.18,8.57-8.41,14.5-18.46,14.5-12.09,0-20.17-8.57-20.17-22.42,0-13.52,8-22.42,20.09-22.42,10.9,0,17.56,7,18.46,14.74h-7Z" transform="translate(0 0)"/><path class="cls-3" d="M455.55,72.36c0-13.68,7.92-22.42,20.29-22.42s20.29,8.74,20.29,22.42-7.92,22.42-20.29,22.42S455.55,86,455.55,72.36Zm33.36,0c0-10.13-4.86-16.09-13.07-16.09s-13.07,6-13.07,16.09,4.9,16.09,13.07,16.09S488.91,82.45,488.91,72.36Z" transform="translate(0 0)"/><path class="cls-3" d="M501.46,72.36c0-13.68,7.92-22.42,20.29-22.42S542,58.68,542,72.36s-7.92,22.42-20.29,22.42S501.46,86,501.46,72.36Zm33.36,0c0-10.13-4.86-16.09-13.07-16.09s-13.07,6-13.07,16.09,4.9,16.09,13.07,16.09S534.82,82.45,534.82,72.36Z" transform="translate(0 0)"/><path class="cls-3" d="M549.93,32.88H557V94.37h-7.11V32.88Z" transform="translate(0 0)"/></g><polygon class="cls-4" points="65.28 131.91 16.32 103.65 16.32 47.11 0 37.69 0 113.07 65.28 150.76 65.28 131.91"/><polygon class="cls-4" points="65.28 94.22 65.28 75.38 48.96 65.96 48.96 84.8 65.28 94.22"/><polygon class="cls-4" points="114.24 103.65 97.92 94.22 97.92 75.38 114.24 65.96 114.24 103.65"/><polygon class="cls-5" points="65.28 75.38 130.56 37.69 130.56 113.07 65.28 150.76 65.28 131.91 114.24 103.65 114.24 65.96 65.28 94.22 65.28 75.38"/><polygon class="cls-6" points="32.64 94.22 16.32 103.65 65.28 131.91 114.24 103.65 97.92 94.22 65.28 113.07 32.64 94.22"/><polygon class="cls-5" points="32.64 56.53 81.6 28.27 81.6 9.42 16.32 47.11 16.32 103.65 32.64 94.22 32.64 56.53"/><polygon class="cls-6" points="65.28 0 81.6 9.42 16.32 47.11 0 37.69 65.28 0"/><polygon class="cls-6" points="114.24 28.27 130.56 37.69 65.28 75.38 48.96 65.96 114.24 28.27"/><polygon class="cls-7" points="32.64 94.22 65.28 113.07 65.28 94.22 48.96 84.8 32.64 94.22"/><polygon class="cls-7" points="48.96 47.11 48.96 65.96 65.28 56.53 48.96 47.11"/><polygon class="cls-7" points="16.32 65.96 16.32 84.8 32.64 94.22 32.64 75.38 16.32 65.96"/><polygon class="cls-8" points="65.28 94.22 97.92 75.38 97.92 94.22 65.28 113.07 65.28 94.22"/><polygon class="cls-8" points="32.64 75.38 48.96 65.96 48.96 84.8 32.64 94.22 32.64 75.38"/><polygon class="cls-9" points="16.32 65.96 32.64 56.53 48.96 65.96 32.64 75.38 16.32 65.96"/><polygon class="cls-9" points="48.96 47.11 65.28 37.69 81.6 47.11 65.28 56.53 48.96 47.11"/></svg>