<svg width="187px" height="36px" viewBox="1 0 187 36" version="1.1" xmlns="http://www.w3.org/2000/svg" xmlns:xlink="http://www.w3.org/1999/xlink">
    <defs>
        <polygon id="path-1" points="6.89026779 34.2454477 179.050315 34.2454477 179.050315 0.43932504 6.89026779 0.43932504"></polygon>
    </defs>
    <g id="Page-1" stroke="none" stroke-width="1" fill="none" fill-rule="evenodd" transform="translate(1.164993, 0.000000)">
        <path d="M51.3215577,17.9872413 L53.1004679,16.2083312 L49.4537021,16.2083312 L49.4537021,11.8500013 L47.5413736,11.8500013 L47.5413736,25.5476094 C47.5413736,27.5044106 48.6531925,29.1054297 50.9213029,29.1054297 L52.2999583,29.1054297 L52.2999583,27.4599378 L51.277085,27.4599378 C50.0318479,27.4599378 49.4981748,26.7483738 49.4981748,25.5476094 L49.4981748,17.9872413 L51.3215577,17.9872413 Z M151.251835,24.9694636 L151.251835,9.98214565 L147.827433,9.98214565 L147.827433,25.1473546 C147.827433,27.1041558 149.028197,29.060957 151.829981,29.060957 L153.786782,29.060957 L153.786782,26.170228 L152.452599,26.170228 C151.607617,26.170228 151.251835,25.7699732 151.251835,24.9694636 Z M182.33829,15.3633488 L180.114652,23.8576448 L177.312869,15.3633488 L174.822395,15.3633488 L172.020611,23.8576448 L169.796973,15.3633488 L166.150208,15.3633488 L170.375119,29.1054297 L173.176903,29.1054297 L176.067632,20.4777155 L178.958361,29.1054297 L181.760144,29.1054297 L185.940583,15.3633488 L182.33829,15.3633488 Z M161.925296,25.5476094 C161.525041,25.9478642 160.991368,26.170228 160.324277,26.170228 C159.657186,26.170228 159.123513,25.9478642 158.723258,25.5476094 C158.011694,24.8360454 157.922748,23.635281 157.922748,22.2121529 C157.922748,20.7890248 158.011694,19.5882604 158.723258,18.8766964 C159.123513,18.4764416 159.612713,18.2540778 160.324277,18.2540778 C160.991368,18.2540778 161.525041,18.4764416 161.925296,18.8766964 C162.63686,19.5882604 162.725806,20.7890248 162.725806,22.2121529 C162.725806,23.635281 162.63686,24.8360454 161.925296,25.5476094 Z M160.324277,15.1854578 C158.27853,15.1854578 156.944348,15.9859674 156.099365,16.8754225 C154.854128,18.1651323 154.542819,19.7216787 154.542819,22.2121529 C154.542819,24.7026271 154.854128,26.2591735 156.099365,27.5488833 C156.944348,28.4383384 158.323003,29.238848 160.324277,29.238848 C162.370024,29.238848 163.748679,28.4383384 164.593661,27.5488833 C165.838898,26.2591735 166.150208,24.7026271 166.150208,22.2121529 C166.150208,19.7216787 165.838898,18.1651323 164.593661,16.8754225 C163.748679,15.9859674 162.325551,15.1854578 160.324277,15.1854578 Z M140.222592,13.9402207 L140.222592,29.1054297 L143.646994,29.1054297 L143.646994,18.2540778 L146.181941,18.2540778 L146.181941,15.6301854 L143.646994,15.6301854 L143.646994,14.1181117 C143.646994,13.3176022 144.047249,12.8728746 144.847759,12.8728746 L146.181941,12.8728746 L146.181941,9.98214565 L144.22514,9.98214565 C141.467829,9.98214565 140.222592,11.9834196 140.222592,13.9402207 Z M132.484333,16.6530587 L132.484333,15.3188761 L129.148877,15.3188761 L129.148877,29.1054297 L132.573279,29.1054297 L132.573279,20.8334975 C132.573279,19.0990601 133.72957,18.2985506 134.796916,18.2985506 C135.641899,18.2985506 136.086626,18.5653871 136.620299,19.0990601 L139.199719,16.5196404 C138.265791,15.5857126 137.287391,15.2299306 135.953208,15.2299306 C134.441134,15.1854578 133.151424,15.8970219 132.484333,16.6530587 Z M118.831198,20.922443 C118.87567,20.2998245 118.920143,19.9440425 119.142507,19.4548422 C119.498289,18.6543326 120.254326,18.0317141 121.45509,18.0317141 C122.611382,18.0317141 123.367419,18.6543326 123.767673,19.4548422 C123.990037,19.9440425 124.078983,20.3442973 124.078983,20.922443 L118.831198,20.922443 Z M121.45509,15.1854578 C117.89727,15.1854578 115.451268,17.7204048 115.451268,22.2121529 C115.451268,27.7712471 118.564361,29.238848 121.810872,29.238848 C124.301346,29.238848 125.635529,28.4828112 127.014184,27.0596831 L124.923965,25.0139364 C124.03451,25.9033915 123.322946,26.3036462 121.810872,26.3036462 C119.898544,26.3036462 118.786725,25.0139364 118.786725,23.2350262 L127.369966,23.2350262 L127.369966,21.7229526 C127.414439,17.9872413 125.235274,15.1854578 121.45509,15.1854578 Z M111.982394,15.3633488 L109.225083,23.8576448 L106.423299,15.3633488 L102.821006,15.3633488 L107.8909,29.1054297 L110.559266,29.1054297 L115.584687,15.3633488 L111.982394,15.3633488 Z M98.6405676,25.5476094 C98.2403128,25.9478642 97.7066398,26.170228 97.0395485,26.170228 C96.3724571,26.170228 95.8387841,25.9478642 95.4385293,25.5476094 C94.7269653,24.8360454 94.6380198,23.635281 94.6380198,22.2121529 C94.6380198,20.7890248 94.7269653,19.5882604 95.4385293,18.8766964 C95.8387841,18.4764416 96.3279844,18.2540778 97.0395485,18.2540778 C97.7066398,18.2540778 98.2403128,18.4764416 98.6405676,18.8766964 C99.3521316,19.5882604 99.4410772,20.7890248 99.4410772,22.2121529 C99.4410772,23.635281 99.3521316,24.8360454 98.6405676,25.5476094 Z M97.0395485,15.1854578 C94.9938018,15.1854578 93.6596192,15.9859674 92.8146369,16.8754225 C91.5693998,18.1651323 91.2580905,19.7216787 91.2580905,22.2121529 C91.2580905,24.7026271 91.5693998,26.2591735 92.8146369,27.5488833 C93.6596192,28.4383384 95.0382745,29.238848 97.0395485,29.238848 C99.0852951,29.238848 100.46395,28.4383384 101.308933,27.5488833 C102.55417,26.2591735 102.865479,24.7026271 102.865479,22.2121529 C102.865479,19.7216787 102.55417,18.1651323 101.308933,16.8754225 C100.46395,15.9859674 99.0408224,15.1854578 97.0395485,15.1854578 Z M87.9671067,15.8970219 L85.565578,15.8970219 L79.5617563,21.7229526 L79.5617563,10.0266184 L77.6494279,10.0266184 L77.6494279,29.1054297 L79.5617563,29.1054297 L79.5617563,24.3023723 L81.9188122,21.9453164 L86.3216148,29.1054297 L88.7231435,29.1054297 L83.2529948,20.6111338 L87.9671067,15.8970219 Z M71.4232424,17.4535683 C72.6684795,17.4535683 73.468989,17.8093503 74.4473896,18.9211691 L75.7370995,17.675932 C74.4029168,16.2083312 73.2466253,15.7636036 71.4232424,15.7636036 C68.0877858,15.7636036 65.5973116,18.0317141 65.5973116,22.5234622 C65.5973116,27.0152103 68.1322586,29.2833207 71.4232424,29.2833207 C73.2466253,29.2833207 74.4029168,28.7941204 75.7815722,27.3265196 L74.4473896,26.0812825 C73.468989,27.1931013 72.6684795,27.5933561 71.4232424,27.5933561 C70.1335325,27.5933561 69.0661864,27.1041558 68.3546224,26.0812825 C67.7320038,25.2363002 67.50964,24.2134268 67.50964,22.5234622 C67.50964,20.8779703 67.7320038,19.855097 68.3546224,18.9656419 C69.0661864,17.9427686 70.1335325,17.4535683 71.4232424,17.4535683 Z M61.9505458,24.4357906 C61.9505458,25.5476094 61.7281821,26.3036462 61.2834545,26.703901 C60.4384722,27.5044106 59.4600716,27.5933561 58.3482528,27.5933561 C56.2580334,27.5933561 55.3241055,26.881792 55.3241055,25.3252457 C55.3241055,23.813172 56.3025061,23.0126625 58.2593073,23.0126625 L61.9505458,23.0126625 L61.9505458,24.4357906 Z M58.6150893,15.7191309 C56.4803971,15.7191309 55.1462145,16.1193857 53.9899229,17.6314593 L55.23516,18.8766964 C55.9911968,17.7648775 56.8806519,17.3646228 58.5706166,17.3646228 C60.9721452,17.3646228 61.9505458,18.3430233 61.9505458,20.2553517 L61.9505458,21.5450616 L57.9924708,21.5450616 C55.057269,21.5450616 53.4562499,23.0571352 53.4562499,25.3697184 C53.4562499,26.4370645 53.8120319,27.4154651 54.4346505,28.0380836 C55.2796328,28.883066 56.3469789,29.238848 58.1703618,29.238848 C59.9492719,29.238848 60.8831997,28.883066 61.9950186,27.8157199 L61.9950186,29.1054297 L63.907347,29.1054297 L63.907347,20.1219335 C63.8628742,17.2756772 62.1284368,15.7191309 58.6150893,15.7191309 Z M42.0712249,21.6784799 L39.9365328,21.5005888 C38.2910409,21.3671706 37.6239496,20.7000793 37.6239496,19.5882604 C37.6239496,18.2540778 38.6468229,17.4090955 40.5591513,17.4090955 C41.9378067,17.4090955 43.138571,17.7204048 44.0724989,18.4764416 L45.317736,17.2312045 C44.1169716,16.2528039 42.4714797,15.8080764 40.5591513,15.8080764 C37.7573678,15.8080764 35.7116212,17.2756772 35.7116212,19.6772059 C35.7116212,21.8563709 37.0902765,23.0126625 39.6696963,23.2350262 L41.8488612,23.4129173 C43.3609348,23.5463355 44.0280261,24.1689541 44.0280261,25.3252457 C44.0280261,26.881792 42.6938435,27.6378288 40.5146786,27.6378288 C38.8691867,27.6378288 37.4460586,27.1931013 36.4231852,26.1257552 L35.1334754,27.4154651 C36.6010762,28.7941204 38.3355136,29.3277935 40.5591513,29.3277935 C43.7611896,29.3277935 45.9403545,27.8601926 45.9403545,25.3252457 C45.9848273,22.7458259 44.3838081,21.9008436 42.0712249,21.6784799 Z" id="Fill-1" fill="#222426"></path>
        <polygon id="Fill-3" fill="#BCBBBB" points="26.0165609 32.3519407 26.0165609 22.5679349 29.3075447 22.5679349 29.3075447 35.5984518 0 35.5984518 0 22.5679349 3.24651102 22.5679349 3.24651102 32.3519407"></polygon>
        <mask id="mask-2" fill="white">
            <use xlink:href="#path-1"></use>
        </mask>
        <g id="Clip-6"></g>
        <path d="M6.49302203,29.060957 L22.7700499,29.060957 L22.7700499,25.8144459 L6.49302203,25.8144459 L6.49302203,29.060957 Z M21.124558,-0.913678991 L18.5006655,1.04312217 L28.2401986,14.1181117 L30.864091,12.1613106 L21.124558,-0.913678991 Z M13.0305168,6.78010739 L25.5718333,17.1867317 L27.6620528,14.6962575 L15.1207362,4.28963319 L13.0305168,6.78010739 Z M8.93902348,14.0291662 L23.7039777,20.922443 L25.0826331,17.9872413 L10.3176788,11.0494917 L8.93902348,14.0291662 Z M6.84880406,21.6784799 L22.8145226,25.0139364 L23.4816139,21.8118981 L7.51589537,18.4764416 L6.84880406,21.6784799 Z" id="Fill-5" fill="#F48024" mask="url(#mask-2)"></path>
    </g>
</svg>