<?xml version="1.0" encoding="UTF-8" standalone="no"?>
<svg width="17px" height="17px" viewBox="0 0 17 17" version="1.1" xmlns="http://www.w3.org/2000/svg" xmlns:xlink="http://www.w3.org/1999/xlink">
    <!-- Generator: Sketch 41.2 (35397) - http://www.bohemiancoding.com/sketch -->
    <title>Combined Shape</title>
    <desc>Created with Sketch.</desc>
    <defs></defs>
    <g id="subpages" stroke="none" stroke-width="1" fill="none" fill-rule="evenodd">
        <g id="pricing" transform="translate(-324.000000, -1581.000000)" fill="#FFFFFF">
            <g id="node-+-op" transform="translate(0.000000, 1421.000000)">
                <g id="node" transform="translate(186.000000, 150.000000)">
                    <g id="title" transform="translate(128.000000, 0.000000)">
                        <g id="Graph">
                            <g id="Group-10" transform="translate(10.000000, 10.000000)">
                                <path d="M3.4,14.45 C5.27776815,14.45 6.8,12.9277681 6.8,11.05 C6.8,9.17223185 5.27776815,7.65 3.4,7.65 C1.52223185,7.65 0,9.17223185 0,11.05 C0,12.9277681 1.52223185,14.45 3.4,14.45 Z M11.475,17 C12.6486051,17 13.6,16.0486051 13.6,14.875 C13.6,13.7013949 12.6486051,12.75 11.475,12.75 C10.3013949,12.75 9.35,13.7013949 9.35,14.875 C9.35,16.0486051 10.3013949,17 11.475,17 Z M11.9,10.2 C14.7166522,10.2 17,7.91665222 17,5.1 C17,2.28334778 14.7166522,0 11.9,0 C9.08334778,0 6.8,2.28334778 6.8,5.1 C6.8,7.91665222 9.08334778,10.2 11.9,10.2 Z" id="Combined-Shape"></path>
                            </g>
                        </g>
                    </g>
                </g>
            </g>
        </g>
    </g>
</svg>