<?xml version="1.0" encoding="UTF-8" standalone="no"?>
<svg width="12px" height="12px" viewBox="0 0 12 12" version="1.1" xmlns="http://www.w3.org/2000/svg" xmlns:xlink="http://www.w3.org/1999/xlink">
    <!-- Generator: Sketch 41.2 (35397) - http://www.bohemiancoding.com/sketch -->
    <title>Combined Shape</title>
    <desc>Created with Sketch.</desc>
    <defs></defs>
    <g id="subpages" stroke="none" stroke-width="1" fill="none" fill-rule="evenodd">
        <g id="pricing" transform="translate(-719.000000, -937.000000)" fill="#27AE60">
            <g id="pricing-table" transform="translate(119.000000, 735.000000)">
                <g id="col-1-copy-2" transform="translate(568.000000, 11.000000)">
                    <g id="Group-2" transform="translate(26.000000, 185.000000)">
                        <g id="nodes">
                            <g id="Graph">
                                <g id="Group-10" transform="translate(6.666667, 6.666667)">
                                    <path d="M2.26666667,9.63333333 C3.5185121,9.63333333 4.53333333,8.6185121 4.53333333,7.36666667 C4.53333333,6.11482123 3.5185121,5.1 2.26666667,5.1 C1.01482123,5.1 0,6.11482123 0,7.36666667 C0,8.6185121 1.01482123,9.63333333 2.26666667,9.63333333 Z M7.65,11.3333333 C8.4324034,11.3333333 9.06666667,10.6990701 9.06666667,9.91666667 C9.06666667,9.13426327 8.4324034,8.5 7.65,8.5 C6.8675966,8.5 6.23333333,9.13426327 6.23333333,9.91666667 C6.23333333,10.6990701 6.8675966,11.3333333 7.65,11.3333333 Z M7.93333333,6.8 C9.81110148,6.8 11.3333333,5.27776815 11.3333333,3.4 C11.3333333,1.52223185 9.81110148,0 7.93333333,0 C6.05556518,0 4.53333333,1.52223185 4.53333333,3.4 C4.53333333,5.27776815 6.05556518,6.8 7.93333333,6.8 Z" id="Combined-Shape"></path>
                                </g>
                            </g>
                        </g>
                    </g>
                </g>
            </g>
        </g>
    </g>
</svg>