<svg width="26px" height="29px" viewBox="1521 366 26 29" version="1.1" xmlns="http://www.w3.org/2000/svg" xmlns:xlink="http://www.w3.org/1999/xlink">
    <path d="M1535.90456,390.651206 C1535.42903,390.130759 1534.74245,389.80377 1533.97907,389.80377 C1533.24548,389.80377 1532.58334,390.10605 1532.11079,390.59143 L1526.09742,387.143759 C1526.10591,387.114094 1526.11388,387.08428 1526.1214,387.054318 L1541.83673,387.054318 C1541.85088,387.110986 1541.8663,387.167285 1541.88426,387.222918 L1535.90456,390.651206 Z M1532.11079,370.373992 C1532.13366,370.397443 1532.15698,370.420451 1532.18074,370.443089 L1524.32435,383.955979 C1524.29276,383.946879 1524.26103,383.938298 1524.22907,383.930382 L1524.22907,377.03504 C1524.88868,376.871323 1525.48332,376.453043 1525.85015,375.822219 C1526.21691,375.191321 1526.28433,374.470759 1526.09734,373.821663 L1532.11079,370.373992 Z M1541.86072,373.821736 C1541.67372,374.470833 1541.74115,375.191321 1542.10798,375.822145 C1542.47473,376.453043 1543.06938,376.871323 1543.72892,377.03504 L1543.72892,383.930382 C1543.69644,383.938446 1543.66403,383.947175 1543.63185,383.956497 L1535.7759,370.444494 C1535.80011,370.421413 1535.82395,370.397961 1535.84727,370.373992 L1541.86072,373.821736 Z M1526.12476,385.824038 C1526.06754,385.590854 1525.9771,385.361591 1525.85015,385.143277 C1525.7241,384.926517 1525.57079,384.735428 1525.39765,384.570453 L1533.2533,371.058895 C1533.48372,371.125328 1533.72704,371.161652 1533.97907,371.161652 C1534.23035,371.161652 1534.47307,371.12555 1534.70289,371.059413 L1542.55899,384.571859 C1542.38645,384.736464 1542.23358,384.927109 1542.10798,385.143277 C1541.98096,385.361591 1541.89052,385.590854 1541.83338,385.824038 L1526.12476,385.824038 Z M1545.65813,384.198336 C1545.4368,384.071461 1545.20436,383.98128 1544.9679,383.924538 L1544.9679,377.04081 C1545.20444,376.984142 1545.43695,376.893887 1545.65843,376.766864 C1546.90121,376.054367 1547.32712,374.47579 1546.6094,373.241367 C1545.89176,372.006943 1544.30211,371.583928 1543.05932,372.296499 C1542.83784,372.423448 1542.64288,372.578288 1542.47518,372.753323 L1536.47179,369.311423 C1536.54062,369.079645 1536.57817,368.83455 1536.57817,368.580652 C1536.57817,367.155583 1535.41443,366.000022 1533.97907,366.000022 C1532.54363,366.000022 1531.37996,367.155583 1531.37996,368.580652 C1531.37996,368.83455 1531.41751,369.079645 1531.48627,369.311423 L1525.48295,372.753323 C1525.31518,372.578288 1525.12022,372.423448 1524.89881,372.296499 C1523.65602,371.583928 1522.06637,372.006943 1521.34865,373.241367 C1520.63093,374.47579 1521.05692,376.054367 1522.2997,376.766864 C1522.52111,376.893887 1522.75362,376.984142 1522.99023,377.04081 L1522.99023,383.924538 C1522.75377,383.98128 1522.52134,384.071461 1522.3,384.198336 C1521.05692,384.911055 1520.63093,386.489632 1521.34865,387.724055 C1522.06637,388.958553 1523.65602,389.381494 1524.89911,388.668775 C1525.12044,388.5419 1525.31533,388.387134 1525.48303,388.212099 L1531.48627,391.653999 C1531.41743,391.885629 1531.37996,392.13065 1531.37996,392.384474 C1531.37996,393.809839 1532.54363,394.965474 1533.97907,394.965474 C1535.41443,394.965474 1536.57817,393.809839 1536.57817,392.384474 C1536.57817,392.101798 1536.53168,391.829997 1536.44713,391.575507 L1542.41901,388.151657 C1542.5987,388.351624 1542.81251,388.527474 1543.05895,388.668775 C1544.30211,389.381494 1545.89176,388.958553 1546.6094,387.724055 C1547.32712,386.489632 1546.90121,384.911055 1545.65813,384.198336 L1545.65813,384.198336 Z" id="Fill-1" stroke="none" fill-rule="evenodd"></path>
</svg>