<?xml version="1.0" encoding="UTF-8" standalone="no"?>
<svg width="8px" height="13px" viewBox="0 0 8 13" version="1.1" xmlns="http://www.w3.org/2000/svg" xmlns:xlink="http://www.w3.org/1999/xlink">
    <!-- Generator: Sketch 41.2 (35397) - http://www.bohemiancoding.com/sketch -->
    <title>?</title>
    <desc>Created with Sketch.</desc>
    <defs></defs>
    <g id="subpages" stroke="none" stroke-width="1" fill="none" fill-rule="evenodd">
        <g id="pricing" transform="translate(-770.000000, -3148.000000)" fill="#27AE60">
            <g id="FAQ" transform="translate(185.000000, 3143.000000)">
                <g id="1-copy" transform="translate(576.000000, 0.000000)">
                    <g id="Group-17">
                        <path d="M9.36491493,8.61569187 L10.7238139,8.61569187 C10.8112284,7.47930271 11.574119,6.77203953 12.7740824,6.77203953 C13.9581522,6.77203953 14.7210429,7.49519627 14.7210429,8.48059666 C14.7210429,9.33090183 14.3634379,9.83154881 13.4416117,10.39577 C12.3529032,11.0474057 11.8443095,11.7626157 11.8522562,12.8115903 L11.8522562,13.5426938 L13.2429423,13.5426938 L13.2429423,13.0261533 C13.2429423,12.1917417 13.5290263,11.7467221 14.538267,11.1507138 C15.5554545,10.538812 16.1991434,9.65671971 16.1991434,8.40907566 C16.1991434,6.77203953 14.8322977,5.53234226 12.8297099,5.53234226 C10.5966654,5.53234226 9.45232948,6.89918797 9.36491493,8.61569187 Z M12.6548807,17.2299985 C13.2985697,17.2299985 13.751536,16.7690854 13.751536,16.1253965 C13.751536,15.4737607 13.2985697,15.0128476 12.6548807,15.0128476 C12.0111918,15.0128476 11.5502787,15.4737607 11.5502787,16.1253965 C11.5502787,16.7690854 12.0111918,17.2299985 12.6548807,17.2299985 Z" id="?"></path>
                    </g>
                </g>
            </g>
        </g>
    </g>
</svg>