<?xml version="1.0" encoding="UTF-8"?>
<svg width="13px" height="9px" viewBox="0 0 13 9" version="1.1" xmlns="http://www.w3.org/2000/svg" xmlns:xlink="http://www.w3.org/1999/xlink">
    <!-- Generator: Sketch 41.2 (35397) - http://www.bohemiancoding.com/sketch -->
    <title>seats</title>
    <desc>Created with Sketch.</desc>
    <defs></defs>
    <g id="subpages" stroke="none" stroke-width="1" fill="none" fill-rule="evenodd">
        <g id="pricing" transform="translate(-666.000000, -459.000000)" fill="#27AE60">
            <g id="free">
                <g id="Group-12" transform="translate(278.000000, 342.000000)">
                    <g id="right" transform="translate(382.000000, 40.000000)">
                        <g id="seats" transform="translate(0.000000, 69.000000)">
                            <g id="play">
                                <path d="M14.9796429,12.335 C15.8342572,12.335 16.5216644,11.6414 16.5216644,10.7867857 C16.5216644,9.93217145 15.8342572,9.23857144 14.9796429,9.23857144 C14.1250286,9.23857144 13.4314286,9.93217145 13.4314286,10.7867857 C13.4314286,11.6414 14.1250286,12.335 14.9796429,12.335 Z M10.335,11.7157143 C11.3630143,11.7157143 12.1866643,10.8858715 12.1866643,9.85785716 C12.1866643,8.82984286 11.3630143,8 10.335,8 C9.30698574,8 8.47714288,8.82984286 8.47714288,9.85785716 C8.47714288,10.8858715 9.30698574,11.7157143 10.335,11.7157143 Z M14.9796429,13.5735715 C13.8463501,13.5735715 11.5735715,14.1433143 11.5735715,15.2766072 L11.5735715,16.6700001 L18.3857144,16.6700001 L18.3857144,15.2766072 C18.3857144,14.1433143 16.1129358,13.5735715 14.9796429,13.5735715 Z M10.335,12.9542858 C8.89206431,12.9542858 6,13.67885 6,15.1217858 L6,16.6700001 L10.335,16.6700001 L10.335,15.2766072 C10.335,14.7502143 10.5393643,13.8274786 11.8027072,13.1276858 C11.2639286,13.0162143 10.7437286,12.9542858 10.335,12.9542858 Z" id="seats"></path>
                            </g>
                        </g>
                    </g>
                </g>
            </g>
        </g>
    </g>
</svg>