<?xml version="1.0" encoding="UTF-8"?>
<svg width="10px" height="10px" viewBox="0 0 10 10" version="1.1" xmlns="http://www.w3.org/2000/svg" xmlns:xlink="http://www.w3.org/1999/xlink">
    <!-- Generator: Sketch 41.2 (35397) - http://www.bohemiancoding.com/sketch -->
    <title>support</title>
    <desc>Created with Sketch.</desc>
    <defs></defs>
    <g id="subpages" stroke="none" stroke-width="1" fill="none" fill-rule="evenodd">
        <g id="pricing" transform="translate(-836.000000, -458.000000)" fill="#27AE60">
            <g id="free">
                <g id="Group-12" transform="translate(278.000000, 342.000000)">
                    <g id="right" transform="translate(382.000000, 40.000000)">
                        <g id="seats" transform="translate(169.000000, 69.000000)">
                            <g id="play">
                                <path d="M9.01111111,11.3277778 C9.81111111,12.9 11.1,14.1833333 12.6722222,14.9888889 L13.8944444,13.7666667 C14.0444444,13.6166667 14.2666667,13.5666667 14.4611111,13.6333333 C15.0833333,13.8388889 15.7555556,13.95 16.4444444,13.95 C16.75,13.95 17,14.2 17,14.5055556 L17,16.4444444 C17,16.75 16.75,17 16.4444444,17 C11.2277778,17 7,12.7722222 7,7.55555556 C7,7.25 7.25,7 7.55555556,7 L9.5,7 C9.80555556,7 10.0555556,7.25 10.0555556,7.55555556 C10.0555556,8.25 10.1666667,8.91666667 10.3722222,9.53888889 C10.4333333,9.73333333 10.3888889,9.95 10.2333333,10.1055556 L9.01111111,11.3277778 Z" id="support"></path>
                            </g>
                        </g>
                    </g>
                </g>
            </g>
        </g>
    </g>
</svg>