<?xml version="1.0" encoding="utf-8"?>
<!-- Generator: Adobe Illustrator 19.2.1, SVG Export Plug-In . SVG Version: 6.00 Build 0)  -->
<svg version="1.1" id="Layer_1" xmlns="http://www.w3.org/2000/svg" xmlns:xlink="http://www.w3.org/1999/xlink" x="0px" y="0px"
	 viewBox="0 0 519.5 520" style="enable-background:new 0 0 519.5 520;" xml:space="preserve">
<style type="text/css">
	.st0{fill:#36AD64;}
</style>
<path class="st0" d="M510.3,502.3c-0.3,0-0.7,0-1,0.1v-0.1h-63.1c3.3-2.6,6.2-5.5,8.7-8.8c12.4-16.8,7.7-36,6.9-38.9
	c-0.9-4.1-14.4-65.9-26-115.9c-12.7-55.2-43.4-65.7-44.6-66.1L320,249.3v-21c1.8-1.5,3.5-3.2,5.1-4.9c25.3-27.1,23.5-69.2,23.2-73.3
	v-7.9c15-4.1,19.7-18.5,20-26.6V65.4c0-29-14.8-44.6-27.2-52.6c-13.2-8.5-26.4-10.2-26.9-10.3l-0.4-0.1h-80
	C230.5,2,216.3,1,206.3,9.7c-3.3,2.9-7.2,7.8-8.5,15.8c-13.6,3.2-32.5,13.4-32.5,35.9V104c-0.3,3.4-1.4,19.9,7.9,30.3
	c4.1,4.6,9.6,7.3,16.1,7.9c0,0.7,0,1.4,0,2.1c0,0.9,0,1.9,0,3.1c-0.2,15.9-0.6,53.3,23,77.2v24.6l-71.1,23.4
	c-1.3,0.4-31.9,10.9-44.7,66.1c-11.5,49.9-25.1,111.7-26,115.9c-0.8,2.9-5.5,22.1,6.9,38.9c2.4,3.3,5.3,6.2,8.7,8.8H24.3v0.1
	c-3.4,0.5-6,3.4-6,6.9s2.6,6.4,6,6.9v0.1h101.3c5.8,0.7,12,1,18.7,1H264h4.3H388c6.6,0,12.9-0.3,18.7-1h102.7v-0.1
	c0.3,0,0.7,0.1,1,0.1c3.9,0,7-3.1,7-7C517.3,505.5,514.2,502.3,510.3,502.3z M317.9,263.3c-1.1,5.1-3.3,12.6-7.4,20.1
	c-9.4,17.1-24.4,25.8-44.4,25.9c-37.8-0.1-48.7-31.8-51.8-46l12-3.9v-24.1c11.8,6.6,26.2,10,43,10c13.9,0,26.2-2.6,36.7-7.8v21.9
	L317.9,263.3z M189.4,100.6v26.8c-0.1,0.2-0.2,0.4-0.3,0.6c-2.2-0.5-3.9-1.5-5.3-3c-4.8-5.4-4.8-16.2-4.4-19.9v-0.4V61.3
	c0-19.8,24.7-22.9,25.8-23l6.2-0.7v-6.3c0-5.1,1.3-8.7,4.1-11.2c3.8-3.3,9.9-4.1,13.9-4.1c1.3,0,2.3,0.1,3,0.2l0.5,0.1h80
	c1.9,0.3,11.4,2.1,20.7,8.1c13.8,8.9,20.8,22.7,20.8,40.9v49.8c-0.1,1.9-0.9,8.1-6,11.7v-22.5c0-19.5-16.1-28.1-24.6-29.8l-0.7-0.2
	H217.3C197.3,74.3,190.3,91.5,189.4,100.6z M203.3,147.6c0-1.2,0-2.3,0-3.3c0-0.7,0-1.4,0-2v-40.6c0.4-2.9,2.6-13.4,14-13.4h104.1
	c2.9,0.8,12.9,4.4,12.9,16v46v0.5c0,0.4,2.3,39.7-19.5,63.1c-2.7,2.8-5.6,5.3-8.8,7.5l0,0l0,0c-9.8,6.6-22.1,10-36.7,10
	c-20.4,0-36.2-5.6-47-16.5C202.8,195,203.1,161.8,203.3,147.6z M88.8,485.3c-9-12.1-4.8-26.8-4.8-26.9l0.1-0.5
	c0.1-0.6,14.1-64.6,26-115.9c10.8-46.8,34.4-55.6,35.4-55.9l55.5-18.3c1.4,6.1,4,14.3,8.5,22.5c8.3,15.1,24.8,33,56.4,33.1l0,0
	c0.1,0,0.1,0,0.2,0s0.1,0,0.2,0l0,0c31.6-0.1,48.1-18.1,56.4-33.1c4.5-8.2,7.1-16.4,8.5-22.5l55.5,18.3c1,0.3,24.6,9.1,35.4,55.9
	c11.9,51.4,25.8,115.3,26,115.9l0.1,0.5c0,0.1,4.3,14.6-4.7,26.8c-6.8,9.1-19.7,14.9-37.9,17.1H399V358.6c0.1-2,0.2-8.6-4.4-13.8
	c-2.4-2.7-7-6-15.1-6H266.3H266H152.8c-8.1,0-12.7,3.3-15.1,6c-4.6,5.2-4.6,11.8-4.4,13.8v143.7h-6.7
	C108.5,500.1,95.6,494.4,88.8,485.3z M147.3,357.6c0-0.7,0.1-2.5,1-3.5c1-1.1,3.3-1.3,4.6-1.3H266h0.3h113.2c1.3,0,3.6,0.2,4.6,1.3
	c0.9,1,1,2.8,1,3.5v0.2v144.5H147.3v-144V358V357.6z"/>
</svg>
