<?xml version="1.0" encoding="utf-8"?>
<!-- Generator: Adobe Illustrator 19.2.1, SVG Export Plug-In . SVG Version: 6.00 Build 0)  -->
<svg version="1.1" id="Layer_1" xmlns="http://www.w3.org/2000/svg" xmlns:xlink="http://www.w3.org/1999/xlink" x="0px" y="0px"
	 viewBox="0 0 525 525" style="enable-background:new 0 0 525 525;" xml:space="preserve">
<style type="text/css">
	.st0{fill:#36AD64;}
</style>
<g>
	<path class="st0" d="M427.4,99.6C383.2,55.4,324.3,31,261.8,31S140.4,55.4,96.2,99.6S27.6,202.7,27.6,265.2S52,386.6,96.2,430.8
		s103.1,68.6,165.6,68.6s121.4-24.4,165.6-68.6S496,327.7,496,265.2S471.6,143.8,427.4,99.6z M261.8,485.4
		c-121.4,0-220.2-98.8-220.2-220.2S140.4,45,261.8,45S482,143.8,482,265.2S383.2,485.4,261.8,485.4z"/>
	<path class="st0" d="M350.4,343.9L350.4,343.9l-62.7-62.8c2.7-4.5,4.3-9.9,4.3-15.6c0-14.3-9.9-26.2-23.2-29.4v-138
		c0.1-0.5,0.2-1.1,0.2-1.7c0-3.9-3.1-7-7-7s-7,3.1-7,7h-0.2v139.7c-13.3,3.2-23.2,15.1-23.2,29.4c0,16.7,13.6,30.2,30.2,30.2
		c5.9,0,11.4-1.7,16.1-4.7l62.7,62.7l0,0c1.3,1.6,3.2,2.6,5.4,2.6c3.9,0,7-3.1,7-7C353,347.1,352,345.2,350.4,343.9z M245.6,265.5
		c0-8.9,7.3-16.2,16.2-16.2c8.9,0,16.2,7.3,16.2,16.2s-7.3,16.2-16.2,16.2S245.6,274.5,245.6,265.5z"/>
</g>
</svg>
