<?xml version="1.0" encoding="utf-8"?>
<!-- Generator: Adobe Illustrator 19.2.1, SVG Export Plug-In . SVG Version: 6.00 Build 0)  -->
<svg version="1.1" id="Layer_1" xmlns="http://www.w3.org/2000/svg" xmlns:xlink="http://www.w3.org/1999/xlink" x="0px" y="0px"
	 viewBox="0 0 525 525" style="enable-background:new 0 0 525 525;" xml:space="preserve">
<style type="text/css">
	.st0{fill:#36AD64;}
</style>
<g>
	<path class="st0" d="M330.6,19.9H160.5c-16.8,0-30.5,13.7-30.5,30.5v138.3l0,0c0,0.1,0,0.2,0,0.3c0,3.8,3.1,7,7,7s7-3.1,7-7
		c0-0.1,0-0.2,0-0.3h0.1V50.4c0-9.1,7.4-16.5,16.5-16.5h160.2V101H228l0,0c-0.1,0-0.2,0-0.2,0c-3.9,0-7,3.1-7,7s3.1,7,7,7
		c0.1,0,0.2,0,0.3,0h92.6v46H228l0,0c-0.1,0-0.2,0-0.2,0c-3.9,0-7,3.1-7,7s3.1,7,7,7c0.1,0,0.2,0,0.3,0h92.6v38h178.1v267.5
		c0,9.1-7.4,16.5-16.5,16.5H262l0,0c-3.8,0.1-6.8,3.2-6.8,7s3,6.9,6.8,7l0,0h220.3c16.8,0,30.5-13.7,30.5-30.5V202.1L330.6,19.9z
		 M334.7,43.8L489.9,199H334.7V43.8z"/>
	<path class="st0" d="M162,350.1h-6.9v-52.9c0.1-2.4,0.4-20-11.6-32.7c-8-8.5-19.3-12.8-33.7-12.8H108h-6h-1.9
		c-14.4,0-25.7,4.3-33.7,12.8c-12,12.7-11.7,30.3-11.6,32.7v52.9H46c-15.6,0-28.3,12.7-28.3,28.3v104.1c0,15.6,12.7,28.3,28.3,28.3
		h116c15.6,0,28.3-12.7,28.3-28.3V378.4C190.3,362.8,177.6,350.1,162,350.1z M68.8,296.7c0-0.1-0.6-13.7,7.9-22.6
		c5.2-5.5,13.1-8.3,23.5-8.3h1.9h5.9h1.9c10.3,0,18.2,2.8,23.5,8.3c8.5,8.9,7.9,22.5,7.9,22.6v53.4H68.8v-53V296.7z M176.3,482.5
		c0,7.9-6.4,14.3-14.3,14.3H46c-7.9,0-14.3-6.4-14.3-14.3V378.4c0-7.9,6.4-14.3,14.3-14.3h116c7.9,0,14.3,6.4,14.3,14.3V482.5z"/>
	<path class="st0" d="M345.7,435h0.1h0.1h0.1l0,0c3.8-0.1,6.8-3.2,6.8-7s-3-6.9-6.8-7l0,0h0c-0.1,0-0.1,0-0.2,0s-0.1,0-0.2,0H228
		l0,0c-0.1,0-0.2,0-0.2,0c-3.9,0-7,3.1-7,7s3.1,7,7,7c0.1,0,0.2,0,0.3,0H345.7z"/>
	<path class="st0" d="M227.8,375c0.1,0,0.2,0,0.3,0h182.3l0,0c0.2,0,0.3,0,0.5,0c3.9,0,7-3.1,7-7s-3.1-7-7-7c-0.2,0-0.3,0-0.5,0l0,0
		H228l0,0c-0.1,0-0.2,0-0.2,0c-3.9,0-7,3.1-7,7S223.9,375,227.8,375z"/>
	<path class="st0" d="M227.8,315c0.1,0,0.2,0,0.3,0h148.6h0.1h0.1h0.1l0,0c3.8-0.1,6.8-3.2,6.8-7s-3-6.9-6.8-7l0,0h0
		c-0.1,0-0.1,0-0.2,0s-0.1,0-0.2,0H228l0,0c-0.1,0-0.2,0-0.2,0c-3.9,0-7,3.1-7,7S223.9,315,227.8,315z"/>
	<path class="st0" d="M228,231L228,231c-0.1,0-0.2,0-0.2,0c-3.9,0-7,3.1-7,7s3.1,7,7,7c0.1,0,0.2,0,0.3,0h182.3l0,0
		c0.2,0,0.3,0,0.5,0c3.9,0,7-3.1,7-7s-3.1-7-7-7c-0.2,0-0.3,0-0.5,0l0,0H228z"/>
</g>
</svg>
