<svg id="Layer_1" data-name="Layer 1" xmlns="http://www.w3.org/2000/svg" viewBox="0 0 515.01 514.01"><title>Feature 1 - Flexible Data Layer</title><path d="M319.83,161H294.5a7,7,0,0,0,0,14h25.31a25.7,25.7,0,0,1,25.67,25.67v38.56s0,0.08,0,.13a7,7,0,0,0,14,0h0V200.67A39.71,39.71,0,0,0,319.83,161Z" transform="translate(-2.49 -4)" fill="#008d36"/><path d="M477.83,4H200.17A39.71,39.71,0,0,0,160.5,43.67V82H122.17A39.71,39.71,0,0,0,82.5,121.67V161H42.17A39.71,39.71,0,0,0,2.5,200.67v59.67h0v0a7,7,0,0,0,14,0c0-.1,0-0.21,0-0.31V200.67A25.7,25.7,0,0,1,42.17,175H82.5V399.33A39.71,39.71,0,0,0,122.17,439h95.51a7,7,0,0,0,0-14H122.17A25.7,25.7,0,0,1,96.5,399.33V175h64V321.33A39.71,39.71,0,0,0,200.17,361H345.5v64h-42a7,7,0,0,0,0,14h42v39.33A25.7,25.7,0,0,1,319.83,504H189.5a7,7,0,0,0,0,14H319.83a39.71,39.71,0,0,0,39.67-39.67V439h40.33a39.71,39.71,0,0,0,39.67-39.67V361h38.33a39.71,39.71,0,0,0,39.67-39.67V43.67A39.71,39.71,0,0,0,477.83,4ZM96.5,161V121.67A25.7,25.7,0,0,1,122.17,96H160.5v65h-64Zm329,238.33A25.7,25.7,0,0,1,399.83,425H359.5V361h66v38.33Zm78-78A25.7,25.7,0,0,1,477.83,347H439.5V121.67A39.71,39.71,0,0,0,399.83,82H372.3a7,7,0,1,0,0,14h27.53a25.7,25.7,0,0,1,25.67,25.67V347h-66V305.48s0-.06,0-0.1a7,7,0,0,0-14,0h0V347H200.17a25.7,25.7,0,0,1-25.67-25.67V175h38.17a7,7,0,0,0,0-14H174.5V96h118a7,7,0,0,0,0-14h-118V43.67A25.7,25.7,0,0,1,200.17,18H477.83A25.7,25.7,0,0,1,503.5,43.67V321.33Z" transform="translate(-2.49 -4)" fill="#008d36"/><path d="M98.2,504h-56A25.7,25.7,0,0,1,16.5,478.33V370.43c0-.05,0-0.1,0-0.15a7,7,0,0,0-14,0c0,0.05,0,.1,0,0.15v107.9A39.71,39.71,0,0,0,42.17,518h56A7,7,0,1,0,98.2,504Z" transform="translate(-2.49 -4)" fill="#008d36"/></svg>