<?xml version="1.0" encoding="utf-8"?>
<!-- Generator: Adobe Illustrator 19.2.1, SVG Export Plug-In . SVG Version: 6.00 Build 0)  -->
<svg version="1.1" id="Layer_1" xmlns="http://www.w3.org/2000/svg" xmlns:xlink="http://www.w3.org/1999/xlink" x="0px" y="0px"
	 viewBox="0 0 1043.8 172.9" style="enable-background:new 0 0 1043.8 172.9;" xml:space="preserve">
<style type="text/css">
	.st0{fill:#575757;}
	.st1{fill:#36AD64;}
</style>
<title>Logo Black + Lettering</title>
<path class="st0" d="M251.5,91.3h28.1v3.2c0,17.1-11.5,28.3-29.1,28.3c-19.4,0-31.9-15.4-31.9-39.3c0-23.6,12.2-38.2,31.9-38.2
	c13.8,0,24.4,7.8,28.1,20.7h8.9c-3.4-17.3-18-28.7-37-28.7c-24.7,0-40.7,18.1-40.7,46.2c0,28.6,16.1,47.3,40.7,47.3
	c23.5,0,37.6-14.3,37.6-38.2v-8.7h-36.7V91.3z"/>
<path class="st0" d="M376.2,65.2c0-16.1-11.3-26.5-29-26.5h-32.4v90.6h8.5V92.2h24.5l20.8,37.1h10l-21.9-38.5
	C369,87.6,376.2,78,376.2,65.2z M346.5,84.6h-23.1V46.3h22.8c13.2,0,21.1,7.1,21.1,19.1S359.7,84.6,346.5,84.6L346.5,84.6z"/>
<path class="st0" d="M429.8,38.7l-33.9,90.6h9.1l10-27.8h38l10,27.8h9l-33.7-90.6H429.8z M417.7,94.1l16.3-44.8h0.4l16.3,44.8H417.7
	z"/>
<path class="st0" d="M527.2,38.7H495v90.6h8.5V95.1h23.5c17.3,0,29.1-11.4,29.1-28.3S544.4,38.7,527.2,38.7z M525.2,87.5h-21.6V46.3
	h21.6c14,0,22.3,7.7,22.3,20.5S539.1,87.4,525.2,87.5L525.2,87.5z"/>
<polygon class="st0" points="642.9,79 589.9,79 589.9,38.7 581.4,38.7 581.4,129.3 589.9,129.3 589.9,86.8 642.9,86.8 642.9,129.3 
	651.5,129.3 651.5,38.7 642.9,38.7 "/>
<path class="st0" d="M718,45.2c14.1,0,25.6,9.2,28.1,22.2h8.6c-2.5-17.7-17.6-30.2-36.7-30.2c-24.6,0-40.4,18.1-40.4,46.5
	c0,28.7,15.7,47,40.4,47c19.7,0,33.5-10.6,36.7-28.3h-8.6c-2.7,12.6-13.6,20.3-28.1,20.3c-19.3,0-31.6-15.1-31.6-39
	C686.4,60.2,698.8,45.2,718,45.2z"/>
<path class="st0" d="M817.7,37.2c-25.2,0-41.1,18.1-41.1,46.8s15.9,46.7,41.1,46.7s41.2-18,41.2-46.7S842.9,37.2,817.7,37.2z
	 M817.7,122.7c-19.8,0-32.3-15-32.3-38.7s12.5-38.8,32.3-38.8s32.4,15,32.4,38.8S837.5,122.7,817.7,122.7L817.7,122.7z"/>
<path class="st0" d="M922.5,37.2c-25.2,0-41.1,18.1-41.1,46.8s15.9,46.7,41.1,46.7s41.2-18,41.2-46.7S947.7,37.2,922.5,37.2z
	 M922.5,122.7c-19.8,0-32.3-15-32.3-38.7s12.5-38.8,32.3-38.8s32.4,15,32.4,38.8S942.3,122.7,922.5,122.7L922.5,122.7z"/>
<polygon class="st0" points="998.4,121.5 998.4,38.7 989.8,38.7 989.8,129.3 1043.8,129.3 1043.8,121.5 "/>
<path class="st1" d="M139.8,57.1c-8.4-4.7-19,1.4-20.7,2.5L82.8,80.2c-6.1-4.8-15-3.8-19.9,2.4c-4.8,6.1-3.8,15,2.4,19.9
	s15,3.8,19.9-2.4c2-2.5,3-5.6,3-8.8c0-0.8-0.1-1.7-0.2-2.5l36.2-20.5l0.2-0.1c2.4-1.5,7.9-3.8,10.5-2.3c1.9,1,2.9,4.6,3,9.7l0,0V121
	c0,4.2-2.3,8.1-5.9,10.3l-52,30c-3.7,2.1-8.2,2.1-11.9,0l-52-30c-3.7-2.1-5.9-6-5.9-10.3V60.9c0-4.2,2.3-8.1,5.9-10.3L63,23.5
	c5.1,5.9,14.1,6.5,20,1.4c5.9-5.1,6.5-14.1,1.4-20c-5.1-5.9-14.1-6.5-20-1.4c-3,2.6-4.8,6.4-4.9,10.4L10.9,42
	C4.2,45.9,0,53.1,0,60.9V121c0,7.8,4.2,15,10.9,19l52,30c6.8,3.9,15.1,3.9,21.9,0l52-30c6.8-3.9,10.9-11.1,10.9-18.9V77.3l0,0
	C148.1,67.1,145.4,60.3,139.8,57.1z"/>
</svg>
