<?xml version="1.0" encoding="UTF-8"?>
<svg width="173px" height="33px" viewBox="0 0 173 33" version="1.1" xmlns="http://www.w3.org/2000/svg" xmlns:xlink="http://www.w3.org/1999/xlink">
    <!-- Generator: Sketch 41.2 (35397) - http://www.bohemiancoding.com/sketch -->
    <title>Group 15</title>
    <desc>Created with Sketch.</desc>
    <defs></defs>
    <g id="final" stroke="none" stroke-width="1" fill="none" fill-rule="evenodd">
        <g id="Guide" transform="translate(-1207.000000, -53.000000)">
            <g id="Group-15" transform="translate(1207.000000, 53.000000)">
                <rect id="Rectangle" fill-opacity="0.2" fill="#1CBF32" x="0" y="0" width="173" height="33" rx="2"></rect>
                <text id="API-ENDPOINTS" font-family="OpenSans-Semibold, Open Sans" font-size="16" font-weight="500" letter-spacing="0.600000083" fill="#27AE60">
                    <tspan x="36" y="22">API ENDPOINTS</tspan>
                </text>
                <path d="M15.3717403,22.159272 C15.3717403,23.706552 14.1316364,24.959832 12.6006234,24.959832 C11.0712727,24.959832 9.83116883,23.706552 9.83116883,22.159272 C9.83116883,20.613672 11.0712727,19.360392 12.6006234,19.360392 C14.1316364,19.360392 15.3717403,20.613672 15.3717403,22.159272 L15.3717403,22.159272 Z" id="Stroke-1" fill="#27AE60" transform="translate(12.601455, 22.160112) rotate(-180.000000) translate(-12.601455, -22.160112) "></path>
                <path d="M15.3717403,12.36168 C15.3717403,13.90728 14.1316364,15.16056 12.6006234,15.16056 C11.0712727,15.16056 9.83116883,13.90728 9.83116883,12.36168 C9.83116883,10.8144 11.0712727,9.56112 12.6006234,9.56112 C14.1316364,9.56112 15.3717403,10.8144 15.3717403,12.36168 L15.3717403,12.36168 Z" id="Stroke-3" fill="#27AE60" transform="translate(12.601455, 12.360840) rotate(-180.000000) translate(-12.601455, -12.360840) "></path>
                <path d="M26.4545455,16.56168 C26.4545455,18.10728 25.2144416,19.36056 23.6850909,19.36056 C22.1540779,19.36056 20.913974,18.10728 20.913974,16.56168 C20.913974,15.0144 22.1540779,13.76112 23.6850909,13.76112 C25.2144416,13.76112 26.4545455,15.0144 26.4545455,16.56168 L26.4545455,16.56168 Z" id="Stroke-5" fill="#27AE60" transform="translate(23.684260, 16.560840) rotate(-180.000000) translate(-23.684260, -16.560840) "></path>
                <path d="M15.077174,20.909688 L21.2078753,17.811768" id="Stroke-7" stroke="#27AE60" stroke-linecap="round" stroke-linejoin="round" transform="translate(18.142525, 19.360728) rotate(-180.000000) translate(-18.142525, -19.360728) "></path>
                <path d="M15.1932052,13.3428 L21.0861922,15.57552" id="Stroke-9" stroke="#27AE60" stroke-linecap="round" stroke-linejoin="round" transform="translate(18.139699, 14.459160) rotate(-180.000000) translate(-18.139699, -14.459160) "></path>
            </g>
        </g>
    </g>
</svg>