<?xml version="1.0" encoding="utf-8"?>
<!-- Generator: Adobe Illustrator 21.0.0, SVG Export Plug-In . SVG Version: 6.00 Build 0)  -->
<svg version="1.1" id="Layer_1" xmlns="http://www.w3.org/2000/svg" xmlns:xlink="http://www.w3.org/1999/xlink" x="0px" y="0px"
	 viewBox="0 0 90 90" style="enable-background:new 0 0 90 90;" xml:space="preserve">
<style type="text/css">
	.st0{fill:#218F50;}
</style>
<path class="st0" d="M81,56.5c-0.7-0.4-1.4-0.7-2.1-0.8V34.3c0.7-0.2,1.5-0.5,2.1-0.8c3.8-2.2,5.1-7.1,2.9-11
	c-2.2-3.8-7.1-5.1-11-2.9c-0.7,0.4-1.3,0.9-1.8,1.4L52.7,10.3C52.9,9.6,53,8.8,53,8c0-4.4-3.6-8-8-8s-8,3.6-8,8
	c0,0.8,0.1,1.6,0.3,2.3L18.8,21c-0.5-0.5-1.1-1-1.8-1.4c-3.8-2.2-8.8-0.9-11,2.9c-2.2,3.8-0.9,8.8,2.9,11c0.7,0.4,1.4,0.7,2.1,0.8
	v21.4c-0.7,0.2-1.4,0.5-2.1,0.8c-3.8,2.2-5.1,7.1-2.9,11s7.1,5.1,11,2.9c0.7-0.4,1.3-0.9,1.8-1.4l18.5,10.7C37.1,80.4,37,81.2,37,82
	c0,4.4,3.6,8,8,8s8-3.6,8-8c0-0.9-0.1-1.7-0.4-2.5L71,68.8c0.6,0.6,1.2,1.2,2,1.6c3.8,2.2,8.8,0.9,11-2.9
	C86.2,63.7,84.9,58.8,81,56.5z M20.8,61.6c-0.2-0.7-0.5-1.4-0.8-2.1c-0.4-0.7-0.9-1.3-1.4-1.8l24.2-42c0.7,0.2,1.5,0.3,2.2,0.3
	c0.8,0,1.5-0.1,2.2-0.3l24.2,42c-0.5,0.5-1,1.1-1.4,1.8c-0.4,0.7-0.7,1.4-0.8,2.1H20.8z M69.3,24.3c-0.6,2-0.4,4.2,0.8,6.2
	c1.1,2,3,3.3,5,3.8v21.4c-0.1,0-0.2,0.1-0.3,0.1l-24.2-42c0.1-0.1,0.1-0.1,0.2-0.2L69.3,24.3z M39.2,13.6c0.1,0.1,0.2,0.2,0.2,0.2
	l-24.2,42c-0.1,0-0.2-0.1-0.3-0.1V34.3c2-0.5,3.9-1.8,5-3.8c1.1-2,1.3-4.2,0.8-6.2L39.2,13.6z M50.9,76.6C49.5,75,47.4,74,45,74
	c-2.3,0-4.3,0.9-5.8,2.5L20.7,65.7c0-0.1,0.1-0.2,0.1-0.3h48.4c0,0.2,0.1,0.4,0.1,0.5L50.9,76.6z"/>
</svg>
