<?xml version="1.0" encoding="utf-8"?>
<!-- Generator: Adobe Illustrator 21.0.0, SVG Export Plug-In . SVG Version: 6.00 Build 0)  -->
<svg version="1.1" id="Layer_1" xmlns="http://www.w3.org/2000/svg" xmlns:xlink="http://www.w3.org/1999/xlink" x="0px" y="0px"
	 viewBox="0 0 90 90" style="enable-background:new 0 0 90 90;" xml:space="preserve">
<style type="text/css">
	.st0{fill:#2DAB61;}
	.st1{fill:#94DE9D;}
	.st2{fill:#27AE60;}
	.st3{fill:#239B55;}
</style>
<rect x="42.6" y="21.3" class="st0" width="4.1" height="14.4"/>
<rect x="10.7" y="54" class="st1" width="4.1" height="14.4"/>
<path class="st1" d="M44.6,79.7L44.6,79.7c-1.1,0-2.1-0.9-2.1-2.1V54.5c0-1.1,0.9-2.1,2.1-2.1l0,0c1.1,0,2.1,0.9,2.1,2.1v23.2
	C46.7,78.8,45.8,79.7,44.6,79.7z"/>
<path class="st1" d="M42.6,77.7L42.6,77.7c0-1.1,0.9-2.1,2.1-2.1h27.9c1.1,0,2.1,0.9,2.1,2.1l0,0c0,1.1-0.9,2.1-2.1,2.1h-28
	C43.5,79.7,42.6,78.8,42.6,77.7z"/>
<rect x="46.7" y="42.3" class="st1" width="32" height="4.1"/>
<rect x="13.1" y="42.4" class="st1" width="32" height="4.1"/>
<rect x="73.8" y="52.1" class="st1" width="4.1" height="14.4"/>
<path class="st2" d="M23.6,58.1h-21c-1.5,0-2.6-1.2-2.6-2.6v-21c0-1.5,1.2-2.6,2.6-2.6h21c1.5,0,2.6,1.2,2.6,2.6v21
	C26.3,56.9,25.1,58.1,23.6,58.1z"/>
<path class="st3" d="M24,36.4H2.3c-1.2,0-2.3-1-2.3-2.3l0,0c0-1.2,1-2.3,2.3-2.3H24c1.2,0,2.3,1,2.3,2.3l0,0
	C26.3,35.4,25.2,36.4,24,36.4z"/>
<path class="st2" d="M23.6,90h-21C1.2,90,0,88.8,0,87.4v-21c0-1.5,1.2-2.6,2.6-2.6h21c1.5,0,2.6,1.2,2.6,2.6v21
	C26.3,88.8,25.1,90,23.6,90z"/>
<path class="st3" d="M24,68.3H2.3C1,68.3,0,67.3,0,66l0,0c0-1.3,1-2.3,2.3-2.3H24c1.3,0,2.3,1,2.3,2.3l0,0
	C26.3,67.3,25.2,68.3,24,68.3z"/>
<path class="st2" d="M55.5,26.3h-21c-1.5,0-2.6-1.2-2.6-2.6v-21c0-1.5,1.2-2.6,2.6-2.6h21c1.5,0,2.6,1.2,2.6,2.6v21
	C58.1,25.1,56.9,26.3,55.5,26.3z"/>
<path class="st3" d="M55.9,4.5H34.1c-1.2,0-2.3-1-2.3-2.3l0,0c0-1.2,1-2.3,2.3-2.3h21.7c1.2,0,2.3,1,2.3,2.3l0,0
	C58.1,3.5,57.1,4.5,55.9,4.5z"/>
<path class="st2" d="M55.5,58.1h-21c-1.5,0-2.6-1.2-2.6-2.6v-21c0-1.5,1.2-2.6,2.6-2.6h21c1.5,0,2.6,1.2,2.6,2.6v21
	C58.1,56.9,56.9,58.1,55.5,58.1z"/>
<path class="st3" d="M55.9,36.4H34.1c-1.2,0-2.3-1-2.3-2.3l0,0c0-1.2,1-2.3,2.3-2.3h21.7c1.2,0,2.3,1,2.3,2.3l0,0
	C58.1,35.4,57.1,36.4,55.9,36.4z"/>
<path class="st2" d="M86.7,58.1h-21c-1.5,0-2.6-1.2-2.6-2.6v-21c0-1.5,1.2-2.6,2.6-2.6h21c1.5,0,2.6,1.2,2.6,2.6v21
	C89.3,56.9,88.1,58.1,86.7,58.1z"/>
<path class="st3" d="M87,36.4H65.3c-1.2,0-2.3-1-2.3-2.3l0,0c0-1.2,1-2.3,2.3-2.3H87c1.2,0,2.3,1,2.3,2.3l0,0
	C89.3,35.4,88.3,36.4,87,36.4z"/>
<path class="st2" d="M86.7,90h-21c-1.5,0-2.6-1.2-2.6-2.6v-21c0-1.5,1.2-2.6,2.6-2.6h21c1.5,0,2.6,1.2,2.6,2.6v21
	C89.3,88.8,88.1,90,86.7,90z"/>
<path class="st3" d="M87,68.3H65.3c-1.3,0-2.3-1-2.3-2.3l0,0c0-1.3,1-2.3,2.3-2.3H87c1.3,0,2.3,1,2.3,2.3l0,0
	C89.3,67.3,88.3,68.3,87,68.3z"/>
</svg>
