<?xml version="1.0" encoding="utf-8"?>
<!-- Generator: Adobe Illustrator 21.0.0, SVG Export Plug-In . SVG Version: 6.00 Build 0)  -->
<svg version="1.1" id="Layer_1" xmlns="http://www.w3.org/2000/svg" xmlns:xlink="http://www.w3.org/1999/xlink" x="0px" y="0px"
	 viewBox="0 0 90 90" style="enable-background:new 0 0 90 90;" xml:space="preserve">
<style type="text/css">
	.st0{fill:#27AE60;}
</style>
<g>
	<path class="st0" d="M47.8,43c-0.8-2.3-1.5-4.6-2.2-7.2h-0.3c-0.5,2.2-1.4,4.8-2.1,7l-6.8,19.3H30l12-30.9c0.3-0.8,0.4-1.2,0.4-1.6
		s-0.1-1-0.5-1.9c-2.1-5.9-4.6-10.5-8.7-10.5c-0.3,0-0.8,0-1.2,0.1l0.6-4.7c0.6-0.2,1.5-0.3,2.3-0.3c6.6,0,9.7,6.3,13.2,15.8
		l12.9,34h-6.4L47.8,43z"/>
</g>
<rect x="8.9" y="40.5" transform="matrix(0.7071 -0.7071 0.7071 0.7071 -32.0176 22.2963)" class="st0" width="4.1" height="18.6"/>
<rect x="1.6" y="37.4" transform="matrix(0.7071 -0.7071 0.7071 0.7071 -24.7383 19.2486)" class="st0" width="18.6" height="4.1"/>
<rect x="77.5" y="29.1" transform="matrix(0.7071 -0.7071 0.7071 0.7071 -3.8103 67.5175)" class="st0" width="4.1" height="18.6"/>
<rect x="70.4" y="46.6" transform="matrix(0.7071 -0.7071 0.7071 0.7071 -11.077 70.5879)" class="st0" width="18.6" height="4.1"/>
</svg>
