<?xml version="1.0" encoding="utf-8"?>
<!-- Generator: Adobe Illustrator 21.0.0, SVG Export Plug-In . SVG Version: 6.00 Build 0)  -->
<svg version="1.1" id="Layer_1" xmlns="http://www.w3.org/2000/svg" xmlns:xlink="http://www.w3.org/1999/xlink" x="0px" y="0px"
	 viewBox="0 0 90 90" style="enable-background:new 0 0 90 90;" xml:space="preserve">
<style type="text/css">
	.st0{fill:#27AE60;}
	.st1{fill:#94DE9D;}
</style>
<g>
	<path class="st0" d="M86,47.4L85.8,45c0,0,3.5-4,3.4-4.2l-1.9-3.5c-0.1-0.2-5.4,0.4-5.4,0.4L80,36.3c0,0-0.4-5.3-0.7-5.3l-3.8-1.2
		c-0.3-0.1-3.5,4.1-3.5,4.1L69.6,34c0,0-4.1-3.5-4.3-3.3l-3.5,1.8c-0.2,0.1,0.5,5.3,0.5,5.3l-1.5,1.8c0,0-5.4,0.4-5.4,0.6L54.1,44
		c-0.1,0.3,4.2,3.5,4.2,3.5l0.2,2.4c0,0-3.5,4-3.4,4.2l1.9,3.5c0.1,0.2,5.4-0.4,5.4-0.4l1.9,1.5c0,0,0.4,5.3,0.7,5.3l3.8,1.2
		c0.3,0.1,3.5-4.1,3.5-4.1l2.4-0.2c0,0,4.1,3.5,4.3,3.3l3.5-1.8c0.2-0.1-0.5-5.3-0.5-5.3l1.5-1.8c0,0,5.4-0.4,5.4-0.6l1.2-3.7
		C90.3,50.6,86,47.4,86,47.4z M77.8,49.2c-0.9,3-4.2,4.7-7.3,3.7c-3.1-1-4.8-4.2-3.9-7.2s4.2-4.7,7.3-3.7
		C77,42.9,78.7,46.2,77.8,49.2z"/>
</g>
<g>
	<path class="st1" d="M64.4,75.5l0.4-2c0,0,3.8-2.3,3.8-2.5L68,67.8c0-0.2-4.4-1-4.4-1L62.4,65c0,0,1-4.3,0.8-4.5l-2.8-1.9
		c-0.2-0.1-3.8,2.4-3.8,2.4l-2-0.4c0,0-2.4-3.8-2.6-3.8l-3.3,0.5c-0.2,0-1,4.4-1,4.4L46,62.8c0,0-4.4-1.1-4.5-0.9l-1.9,2.7
		c-0.1,0.2,2.5,3.8,2.5,3.8l-0.4,2c0,0-3.8,2.3-3.8,2.5l0.6,3.3c0,0.2,4.4,1,4.4,1l1.1,1.7c0,0-1,4.3-0.8,4.5l2.8,1.9
		c0.2,0.1,3.8-2.4,3.8-2.4l2,0.5c0,0,2.4,3.8,2.6,3.8l3.3-0.5c0.2,0,1-4.4,1-4.4l1.7-1.1c0,0,4.4,1.1,4.5,0.9l1.9-2.7
		C67,79.2,64.4,75.5,64.4,75.5z M57.3,74.8c-1.5,2.2-4.6,2.7-6.8,1.1s-2.8-4.6-1.3-6.8c1.5-2.2,4.6-2.7,6.8-1.1
		C58.3,69.6,58.9,72.6,57.3,74.8z"/>
</g>
<path class="st0" d="M52,24.7l-1.5-3.6c0,0,3.5-8,3.2-8.3L49,8.3c-0.3-0.3-8.3,3.3-8.3,3.3L37,10.1c0,0-3.3-8.1-3.7-8.1h-6.6
	c-0.5,0-3.5,8.1-3.5,8.1l-3.7,1.5c0,0-8.2-3.5-8.5-3.2L6.4,13c-0.3,0.3,3.4,8.1,3.4,8.1l-1.5,3.6c0,0-8.3,3.2-8.3,3.6v6.5
	c0,0.5,8.3,3.4,8.3,3.4l1.5,3.6c0,0-3.5,8-3.2,8.3l4.7,4.6c0.3,0.3,8.3-3.3,8.3-3.3l3.7,1.5c0,0,3.3,8.1,3.7,8.1h6.6
	c0.5,0,3.5-8.1,3.5-8.1l3.7-1.5c0,0,8.1,3.5,8.5,3.2L54,50c0.3-0.3-3.4-8.1-3.4-8.1l1.5-3.6c0,0,8.3-3.2,8.3-3.6v-6.5
	C60.3,27.7,52,24.7,52,24.7z M40.6,30.2v6.2c0,1.1-0.6,2.1-1.5,2.7l-7.3,4.2c-1,0.5-2.1,0.5-3.1,0L21.3,39c-1-0.6-1.5-1.6-1.5-2.7
	v-8.5c0-1.1,0.6-2.1,1.5-2.7l6.8-4c0-0.6,0.3-1.1,0.7-1.5c0.8-0.7,2.1-0.6,2.8,0.2c0.7,0.8,0.6,2.1-0.2,2.8
	c-0.8,0.7-2.1,0.6-2.8-0.2L22,26.5c-0.5,0.3-0.8,0.9-0.8,1.4v8.5c0,0.6,0.3,1.1,0.8,1.4l7.3,4.2c0.5,0.3,1.2,0.3,1.7,0l7.3-4.2
	c0.5-0.3,0.8-0.9,0.8-1.4V30l0,0c0-0.7-0.2-1.2-0.4-1.4c-0.4-0.2-1.1,0.1-1.5,0.3l0,0l-5.1,2.9c0.1,0.6,0,1.1-0.4,1.6
	c-0.7,0.9-1.9,1-2.8,0.3s-1-1.9-0.3-2.8s1.9-1,2.8-0.3l5.1-2.9c0.2-0.1,1.7-1,2.9-0.4C40.2,27.8,40.6,28.8,40.6,30.2L40.6,30.2z"/>
</svg>
