<?xml version="1.0" encoding="utf-8"?>
<!-- Generator: Adobe Illustrator 21.0.0, SVG Export Plug-In . SVG Version: 6.00 Build 0)  -->
<svg version="1.1" id="Layer_1" xmlns="http://www.w3.org/2000/svg" xmlns:xlink="http://www.w3.org/1999/xlink" x="0px" y="0px"
	 viewBox="0 0 90 90" style="enable-background:new 0 0 90 90;" xml:space="preserve">
<style type="text/css">
	.st0{fill:#94DE9D;}
	.st1{fill:#239B55;}
	.st2{fill:#27AE60;}
	.st3{fill:#FFFFFF;}
</style>
<polygon class="st0" points="19.4,49.1 10.5,62.7 27.8,79.9 41.4,71.1 "/>
<polygon class="st1" points="70.6,48.1 42.4,19.8 17.3,23.7 1.8,39.3 22,40.1 50.3,68.4 51.2,88.7 66.7,73.1 "/>
<path class="st2" d="M89.2,1.3c-16.7-4.6-32.3,4-39.6,11.3c-2.2,2.2-34.8,34.8-34.8,34.8L43,75.7c0,0,29.6-29.6,34.8-34.8
	C85.2,33.6,93.8,18,89.2,1.3z"/>
<path class="st1" d="M25,65.5c-0.8-0.8-0.8-2.2,0-3.1l30-30c0.8-0.8,2.2-0.8,3.1,0c0.8,0.8,0.8,2.2,0,3.1l-30,30
	C27.2,66.4,25.8,66.4,25,65.5z"/>
<circle class="st3" cx="70.6" cy="19.8" r="8"/>
<g>
	<path class="st0" d="M0.5,78.4c-0.7-0.7-0.7-1.8,0-2.4l6.6-6.6c0.7-0.7,1.8-0.7,2.4,0c0.7,0.7,0.7,1.8,0,2.4l-6.6,6.6
		C2.3,79.1,1.2,79.1,0.5,78.4z"/>
	<path class="st0" d="M11.6,89.5c-0.7-0.7-0.7-1.8,0-2.4l6.6-6.6c0.7-0.7,1.8-0.7,2.4,0c0.7,0.7,0.7,1.8,0,2.4L14,89.5
		C13.4,90.2,12.3,90.2,11.6,89.5z"/>
	<path class="st0" d="M3.3,86.5c-0.7-0.7-0.7-1.8,0-2.4l9.2-9.2c0.7-0.7,1.8-0.7,2.4,0c0.7,0.7,0.7,1.8,0,2.4l-9.2,9.2
		C5,87.1,4,87.1,3.3,86.5z"/>
</g>
</svg>
