<?xml version="1.0" encoding="UTF-8"?>
<svg width="46px" height="46px" viewBox="0 0 46 46" version="1.1" xmlns="http://www.w3.org/2000/svg" xmlns:xlink="http://www.w3.org/1999/xlink">
    <g id="final" stroke="none" stroke-width="1" fill="none" fill-rule="evenodd">
        <g id="go-to-dashboard" transform="translate(-47.000000, -46.000000)">
            <g id="Group" transform="translate(47.000000, 46.000000)">
                <rect id="Block---Project" fill="#27AE60" x="0" y="0" width="46" height="46" rx="2"></rect>
                <path d="M32.4813746,19.2729577 C31.2081912,18.5507047 29.6079863,19.4930729 29.3515286,19.6551021 L23.8543808,22.7955651 C23.042772,22.1462386 21.8864686,22.1738232 21.1062857,22.8611232 C20.3261028,23.5484232 20.144904,24.6991075 20.6756447,25.5958639 C21.2063855,26.4926203 22.2974568,26.8792853 23.2687079,26.5148201 C24.239959,26.150355 24.8139465,25.1388711 24.6328589,24.1109063 L30.1148316,20.9773219 L30.1482167,20.9566861 C30.5086232,20.7273994 31.3447663,20.3842337 31.7355228,20.6066417 C32.0170193,20.7663781 32.1778744,21.3013803 32.1907732,22.0893622 L32.1839444,22.0893622 L32.1839444,29.0161123 C32.1828064,29.6622471 31.8406307,30.2590211 31.2855837,30.5829045 L23.4052005,35.1686378 C22.8492358,35.4906978 22.1652027,35.4906978 21.6092379,35.1686378 L13.7288547,30.5829045 C13.1738077,30.2590211 12.831632,29.6622471 12.830494,29.0161123 L12.830494,19.8484672 C12.831632,19.2023323 13.1738077,18.6055584 13.7288547,18.281675 L20.8611099,14.1354078 C21.5396892,14.9195607 22.6768857,15.1048408 23.5662737,14.5761522 C24.4556617,14.0474637 24.8443592,12.9551298 24.4909075,11.9777078 C24.1374559,11.0002857 23.1423529,10.4156884 22.1237559,10.5870673 C21.1051589,10.7584462 20.3526883,11.6370727 20.3337782,12.6771446 L12.9738979,16.9571624 C11.9476395,17.5534485 11.3142344,18.655074 11.3114754,19.8484672 L11.3114754,29.0138194 C11.3125965,30.2066571 11.943904,31.3087361 12.9685866,31.9066528 L20.8489699,36.4923861 C21.8746598,37.0867144 23.1367436,37.0867144 24.1624335,36.4923861 L32.0428168,31.9066528 C33.0667971,31.3091473 33.6979964,30.2081307 33.699928,29.0161123 L33.699928,22.3530418 L33.7052393,22.3530418 C33.7439355,20.7900711 33.328899,19.7544596 32.4813746,19.2729577 L32.4813746,19.2729577 Z" id="Logo---Graphcool" fill="#FFFFFF"></path>
            </g>
        </g>
    </g>
</svg>