<svg id="Layer_1" data-name="Layer 1" xmlns="http://www.w3.org/2000/svg" viewBox="0 0 164.78 89.29"><defs><style>.cls-1{fill:#6e7f82;}.cls-2{fill:#fff;opacity:0.7;}.cls-3,.cls-4{fill:#313339;}.cls-4{font-size:7.62px;font-family:Myriad Pro;font-weight:700;}.cls-5{fill:#dadada;}.cls-6{fill:#ededed;}.cls-7{fill:#c84894;}.cls-8{fill:#3c3c3b;}.cls-9{fill:#222223;}.cls-10{fill:#303031;}.cls-11{fill:#474747;}.cls-12{fill:#36a9e1;}.cls-13{fill:#333;}.cls-14{fill:#009639;}.cls-15{fill:#13a642;}.cls-16{fill:#18a743;}.cls-17{fill:#49ae50;}.cls-18{fill:#c6c6c6;}.cls-19{fill:#c7c6c6;}.cls-20{fill:#2e2f36;}.cls-21{fill:#c94994;}</style></defs><title>Step_2</title><rect class="cls-1" x="108.62" y="5.05" width="56.16" height="84.24"/><rect class="cls-2" x="110.26" y="37.35" width="23.89" height="23.89" transform="translate(171.47 -74.9) rotate(90)"/><rect class="cls-2" x="110.26" y="9.06" width="23.89" height="23.89" transform="translate(143.18 -103.19) rotate(90)"/><rect class="cls-2" x="110.26" y="65.64" width="23.89" height="23.89" transform="translate(199.76 -46.61) rotate(90)"/><rect class="cls-2" x="139.01" y="37.35" width="23.89" height="23.89" transform="translate(200.23 -103.66) rotate(90)"/><rect class="cls-2" x="139.01" y="9.06" width="23.89" height="23.89" transform="translate(171.93 -131.95) rotate(90)"/><rect class="cls-2" x="139.01" y="65.64" width="23.89" height="23.89" transform="translate(228.52 -75.36) rotate(90)"/><path class="cls-3" d="M151.33,25.92l0.29,0.28c0.91,0.83,1.75,1.13,2.35.82a1.77,1.77,0,0,0,.76-1.77,6.87,6.87,0,0,0-.17-1.44,8,8,0,0,0,.8-0.25c1.16-.44,1.8-1,1.8-1.72s-0.64-1.29-1.8-1.72a8,8,0,0,0-.8-0.25,6.87,6.87,0,0,0,.17-1.44,1.77,1.77,0,0,0-.76-1.77c-0.6-.31-1.44,0-2.35.82l-0.29.28L151,17.46c-0.91-.83-1.75-1.13-2.35-0.82a1.77,1.77,0,0,0-.76,1.77,6.87,6.87,0,0,0,.17,1.44,8,8,0,0,0-.8.25c-1.16.44-1.8,1-1.8,1.72s0.64,1.29,1.8,1.72a8,8,0,0,0,.8.25,6.88,6.88,0,0,0-.17,1.44h0A1.77,1.77,0,0,0,148.7,27c0.6,0.31,1.44,0,2.35-.82Zm2.88-.67a1.41,1.41,0,0,1-.48,1.31c-0.39.2-1-.07-1.77-0.74l-0.28-.27a11.77,11.77,0,0,0,1.06-1.43,12.34,12.34,0,0,0,1.32-.2A6.33,6.33,0,0,1,154.22,25.25Zm-4.53-2.59c-0.14-.28-0.27-0.56-0.39-0.83,0.12-.28.25-0.56,0.39-0.83s0.35-.66.54-1c0.35,0,.72,0,1.1,0s0.75,0,1.1,0c0.19,0.31.37,0.63,0.54,1s0.27,0.56.39,0.83c-0.12.28-.25,0.56-0.39,0.83s-0.35.66-.54,1c-0.35,0-.72,0-1.1,0s-0.75,0-1.1,0C150,23.32,149.86,23,149.69,22.66Zm-0.09.9c-0.3,0-.59-0.09-0.86-0.14,0.08-.3.18-0.62,0.3-0.93l0.2,0.4Q149.41,23.24,149.6,23.57ZM149,21.17c-0.12-.32-0.22-0.63-0.3-0.93,0.27-.06.56-0.1,0.86-0.14q-0.19.33-.36,0.67Zm1.53-1.67a10.83,10.83,0,0,1,.76-1,10.86,10.86,0,0,1,.76,1l-0.76,0Zm2.5,0.6c0.3,0,.59.09,0.86,0.14-0.08.3-.18,0.62-0.3,0.93l-0.2-.4Q153.26,20.42,153.07,20.09Zm0.56,2.4c0.12,0.32.22,0.63,0.3,0.93-0.27.06-.56,0.1-0.86,0.14q0.19-.33.36-0.67Zm-1.53,1.67a10.83,10.83,0,0,1-.76,1,10.86,10.86,0,0,1-.76-1l0.76,0Zm4.55-2.33c0,0.54-.83,1.12-2.21,1.48a12.59,12.59,0,0,0-.51-1.48,12.57,12.57,0,0,0,.51-1.48C155.81,20.71,156.64,21.29,156.64,21.83Zm-4.68-4c0.73-.67,1.38-0.94,1.77-0.74a1.41,1.41,0,0,1,.48,1.31,6.33,6.33,0,0,1-.16,1.33,12.35,12.35,0,0,0-1.32-.2,11.77,11.77,0,0,0-1.06-1.43Zm-3.51.57a1.41,1.41,0,0,1,.48-1.31c0.39-.2,1,0.07,1.77.74L151,18.11a11.77,11.77,0,0,0-1.06,1.43,12.34,12.34,0,0,0-1.32.2A6.33,6.33,0,0,1,148.45,18.41ZM146,21.83c0-.54.83-1.12,2.21-1.48a12.58,12.58,0,0,0,.51,1.48,12.57,12.57,0,0,0-.51,1.48C146.86,22.94,146,22.37,146,21.83Zm2.91,4.73a1.41,1.41,0,0,1-.48-1.31h0a6.34,6.34,0,0,1,.16-1.33,12.35,12.35,0,0,0,1.32.2A11.77,11.77,0,0,0,151,25.55l-0.28.27C150,26.49,149.32,26.76,148.93,26.56Zm2.4-3.61a1.13,1.13,0,1,1,1.13-1.13A1.13,1.13,0,0,1,151.33,23Z" transform="translate(-0.02 -1.99)"/><path class="cls-3" d="M148,76.69h0a0.55,0.55,0,0,0-.55.55v2.38a0.55,0.55,0,0,0,.55.55h0a0.55,0.55,0,0,0,.55-0.55V77.24A0.55,0.55,0,0,0,148,76.69Z" transform="translate(-0.02 -1.99)"/><path class="cls-3" d="M148.81,80.53a0.5,0.5,0,0,0,.5.5h0.54v1.28a0.55,0.55,0,0,0,.55.55h0a0.55,0.55,0,0,0,.55-0.55V81h0.75v1.28a0.55,0.55,0,0,0,.55.55h0a0.55,0.55,0,0,0,.55-0.55V81h0.54a0.5,0.5,0,0,0,.5-0.5V76.78h-5.05v3.75Z" transform="translate(-0.02 -1.99)"/><path class="cls-3" d="M152.59,74.51l0.43-.66a0.09,0.09,0,0,0-.15-0.1l-0.44.68a2.92,2.92,0,0,0-2.18,0l-0.44-.68a0.09,0.09,0,0,0-.15.1l0.43,0.66a2.15,2.15,0,0,0-1.29,1.9c0,0.05,0,.1,0,0.15h5.07s0-.1,0-0.15A2.16,2.16,0,0,0,152.59,74.51Zm-2.43,1.18a0.24,0.24,0,1,1,.24-0.24A0.24,0.24,0,0,1,150.16,75.68Zm2.35,0a0.24,0.24,0,1,1,.24-0.24A0.24,0.24,0,0,1,152.51,75.68Z" transform="translate(-0.02 -1.99)"/><path class="cls-3" d="M154.69,76.69h0a0.55,0.55,0,0,0-.55.55v2.38a0.55,0.55,0,0,0,.55.55h0a0.55,0.55,0,0,0,.55-0.55V77.24A0.55,0.55,0,0,0,154.69,76.69Z" transform="translate(-0.02 -1.99)"/><path class="cls-3" d="M117.48,18A1.43,1.43,0,1,1,116,16.52,1.43,1.43,0,0,1,117.48,18" transform="translate(-0.02 -1.99)"/><path class="cls-3" d="M128.35,24.41h-8a1.92,1.92,0,1,1,0-3.83H124a1.13,1.13,0,0,0,0-2.26H116a0.39,0.39,0,0,1,0-.78H124a1.92,1.92,0,0,1,0,3.83h-3.62a1.13,1.13,0,0,0,0,2.26h8a0.39,0.39,0,1,1,0,.78h0Z" transform="translate(-0.02 -1.99)"/><path class="cls-3" d="M126.92,24a1.43,1.43,0,1,1,1.43,1.43A1.43,1.43,0,0,1,126.92,24" transform="translate(-0.02 -1.99)"/><text class="cls-4" transform="translate(116.04 78.38)">iOS</text><polygon class="cls-5" points="16.58 44.59 17.77 43.91 17.77 45.27 16.58 45.96 16.58 44.59"/><polygon class="cls-6" points="14.7 42.49 17.58 44.16 20.48 42.49 17.58 40.83 14.7 42.49"/><polygon class="cls-6" points="14.7 45.82 11.8 47.5 14.7 49.16 14.7 45.82"/><rect class="cls-7" x="73.96" y="46.47" width="13.27" height="1.66"/><rect class="cls-7" x="84.27" y="47.12" width="5.45" height="1.66" transform="translate(114.58 141.38) rotate(-135)"/><rect class="cls-7" x="84.27" y="49.8" width="5.45" height="1.66" transform="translate(184.29 22.93) rotate(135)"/><rect class="cls-7" x="71.52" y="49.8" width="5.45" height="1.66" transform="translate(57.53 -39.67) rotate(45)"/><rect class="cls-7" x="71.52" y="47.12" width="5.45" height="1.66" transform="translate(-12.18 64.55) rotate(-45)"/><path class="cls-8" d="M35.27,48.94v8.87l7.54,4.35,0.14,0.08h0l7.69-4.44V48.94L43,44.5,41,45.61v2.22l5.75,3.32-1.92,1.11V50L43,48.95,41,50,37.2,47.83l-1.92,1.12h0Zm8.35,2.6,1.25,0.72h0l-1.25-.72h0Z" transform="translate(-0.02 -1.99)"/><rect class="cls-8" x="35.25" y="34.72" width="15.37" height="19.94"/><path class="cls-8" d="M35.27,48.94v8.87l7.54,4.35,0.14,0.08h0l7.69-4.44V48.94L43,44.5,41,45.61v2.22l5.75,3.32-1.92,1.11V50L43,48.95,41,50,37.2,47.83l-1.92,1.12h0Zm8.35,2.6,1.25,0.72h0l-1.25-.72h0Z" transform="translate(-0.02 -1.99)"/><path class="cls-8" d="M35.27,30.17V39l7.54,4.35,0.14,0.08h0L50.64,39V30.17L43,25.73,41,26.84v2.22l5.75,3.32-1.92,1.11V31.27L43,30.17,41,31.27,37.2,29.05l-1.92,1.12h0Zm8.35,2.6,1.25,0.72h0l-1.25-.72h0Z" transform="translate(-0.02 -1.99)"/><path class="cls-8" d="M27.8,44.62V53.5l7.54,4.35,0.14,0.08h0l7.69-4.44V44.62l-7.69-4.44-1.92,1.11v2.22l5.75,3.32L37.4,47.94V45.73l-1.91-1.1-1.93,1.1-3.83-2.22-1.92,1.12h0Zm8.35,2.6,1.25,0.72h0l-1.25-.72h0Z" transform="translate(-0.02 -1.99)"/><rect class="cls-8" x="27.78" y="30.4" width="15.37" height="19.94"/><path class="cls-8" d="M27.8,44.62V53.5l7.54,4.35,0.14,0.08h0l7.69-4.44V44.62l-7.69-4.44-1.92,1.11v2.22l5.75,3.32L37.4,47.94V45.73l-1.91-1.1-1.93,1.1-3.83-2.22-1.92,1.12h0Zm8.35,2.6,1.25,0.72h0l-1.25-.72h0Z" transform="translate(-0.02 -1.99)"/><path class="cls-8" d="M27.8,25.85v8.87l7.54,4.35,0.14,0.08h0l7.69-4.44V25.85l-7.69-4.44-1.92,1.11v2.22l5.75,3.32L37.4,29.17V27l-1.91-1.1L33.56,27l-3.83-2.22-1.92,1.12h0Zm8.35,2.6,1.25,0.72h0l-1.25-.72h0Z" transform="translate(-0.02 -1.99)"/><polygon class="cls-9" points="50.62 31.53 50.62 33.01 42.94 37.45 42.94 35.97 50.62 31.53"/><polygon class="cls-9" points="50.62 33.46 50.62 34.94 42.94 39.38 42.94 37.9 50.62 33.46"/><polygon class="cls-9" points="50.62 35.41 50.62 36.89 42.94 41.33 42.94 39.85 50.62 35.41"/><polygon class="cls-9" points="50.62 37.41 50.62 38.89 42.94 43.33 42.94 41.85 50.62 37.41"/><polygon class="cls-10" points="27.78 23.86 42.94 32.61 42.79 60.17 27.93 52.52 27.78 51.5 27.78 23.86"/><polygon class="cls-9" points="40.97 40.75 40.97 42.23 42.94 43.36 42.94 41.88 40.97 40.75"/><polygon class="cls-9" points="40.97 38.72 40.97 40.2 42.94 41.33 42.94 39.85 40.97 38.72"/><polygon class="cls-9" points="40.97 36.76 40.97 38.24 42.94 39.38 42.94 37.9 40.97 36.76"/><polygon class="cls-9" points="40.97 34.83 40.97 36.31 42.94 37.45 42.94 35.97 40.97 34.83"/><polygon class="cls-11" points="35.25 28.17 42.94 32.61 50.62 28.17 42.94 23.73 35.25 28.17"/><polygon class="cls-11" points="27.78 23.86 35.46 28.29 43.15 23.86 35.46 19.41 27.78 23.86"/><polygon class="cls-12" points="47.01 33.63 43.76 35.51 43.76 36.99 47.01 35.11 47.01 33.63"/><polygon class="cls-12" points="47.01 35.6 43.76 37.47 43.76 38.95 47.01 37.08 47.01 35.6"/><polygon class="cls-12" points="47.01 37.53 43.76 39.4 43.76 40.88 47.01 39.01 47.01 37.53"/><polygon class="cls-12" points="47.01 39.54 43.76 41.42 43.76 42.9 47.01 41.02 47.01 39.54"/><path class="cls-8" d="M26.3,54.29v8.87l7.54,4.35L34,67.6h0l7.69-4.44V54.29L34,49.85,32.06,51v2.22l5.75,3.32L35.9,57.61V55.39L34,54.29l-1.93,1.1-3.83-2.22-1.92,1.12h0Zm8.35,2.6,1.25,0.72h0l-1.25-.72h0Z" transform="translate(-0.02 -1.99)"/><rect class="cls-8" x="26.28" y="40.07" width="15.37" height="19.94"/><path class="cls-8" d="M26.3,54.29v8.87l7.54,4.35L34,67.6h0l7.69-4.44V54.29L34,49.85,32.06,51v2.22l5.75,3.32L35.9,57.61V55.39L34,54.29l-1.93,1.1-3.83-2.22-1.92,1.12h0Zm8.35,2.6,1.25,0.72h0l-1.25-.72h0Z" transform="translate(-0.02 -1.99)"/><path class="cls-8" d="M26.3,35.52v8.87l7.54,4.35L34,48.82h0l7.69-4.44V35.52L34,31.08l-1.92,1.11v2.22l5.75,3.32L35.9,38.83V36.62L34,35.52l-1.93,1.1L28.23,34.4l-1.92,1.12h0Zm8.35,2.6,1.25,0.72h0l-1.25-.72h0Z" transform="translate(-0.02 -1.99)"/><path class="cls-8" d="M18.82,50v8.87l7.54,4.35,0.14,0.08h0l7.69-4.44V50l-7.69-4.44-1.92,1.11v2.22l5.75,3.32-1.92,1.11V51.07L26.51,50l-1.93,1.1-3.83-2.22L18.83,50h0Zm8.35,2.6,1.25,0.72h0l-1.25-.72h0Z" transform="translate(-0.02 -1.99)"/><rect class="cls-8" x="18.8" y="35.75" width="15.37" height="19.94"/><path class="cls-8" d="M18.82,50v8.87l7.54,4.35,0.14,0.08h0l7.69-4.44V50l-7.69-4.44-1.92,1.11v2.22l5.75,3.32-1.92,1.11V51.07L26.51,50l-1.93,1.1-3.83-2.22L18.83,50h0Zm8.35,2.6,1.25,0.72h0l-1.25-.72h0Z" transform="translate(-0.02 -1.99)"/><path class="cls-8" d="M18.82,31.2v8.87l7.54,4.35L26.5,44.5h0l7.69-4.44V31.2l-7.69-4.44-1.92,1.11v2.22l5.75,3.32-1.92,1.11V32.3l-1.91-1.1-1.93,1.1-3.83-2.22L18.83,31.2h0Zm8.35,2.6,1.25,0.72h0l-1.25-.72h0Z" transform="translate(-0.02 -1.99)"/><polygon class="cls-9" points="41.65 36.88 41.65 38.36 33.96 42.79 33.96 41.31 41.65 36.88"/><polygon class="cls-9" points="41.65 38.81 41.65 40.29 33.96 44.72 33.96 43.24 41.65 38.81"/><polygon class="cls-9" points="41.65 40.76 41.65 42.24 33.96 46.68 33.96 45.2 41.65 40.76"/><polygon class="cls-9" points="41.65 42.76 41.65 44.24 33.96 48.68 33.96 47.2 41.65 42.76"/><polygon class="cls-10" points="18.8 29.2 33.96 37.96 33.82 65.52 18.96 57.87 18.8 56.85 18.8 29.2"/><polygon class="cls-9" points="32 46.1 32 47.58 33.96 48.71 33.96 47.23 32 46.1"/><polygon class="cls-9" points="32 44.06 32 45.54 33.96 46.68 33.96 45.2 32 44.06"/><polygon class="cls-9" points="32 42.11 32 43.59 33.96 44.72 33.96 43.24 32 42.11"/><polygon class="cls-9" points="32 40.18 32 41.66 33.96 42.79 33.96 41.31 32 40.18"/><polygon class="cls-11" points="26.28 33.52 33.96 37.96 41.65 33.52 33.96 29.08 26.28 33.52"/><polygon class="cls-11" points="18.8 29.2 26.49 33.64 34.18 29.2 26.49 24.76 18.8 29.2"/><polygon class="cls-12" points="38.04 38.98 34.79 40.86 34.79 42.34 38.04 40.46 38.04 38.98"/><polygon class="cls-12" points="38.04 40.95 34.79 42.82 34.79 44.3 38.04 42.42 38.04 40.95"/><polygon class="cls-12" points="38.04 42.88 34.79 44.75 34.79 46.23 38.04 44.35 38.04 42.88"/><polygon class="cls-12" points="38.04 44.89 34.79 46.77 34.79 48.24 38.04 46.37 38.04 44.89"/><polygon class="cls-13" points="12.55 50.9 24.11 57.58 24.1 70.91 12.55 64.24 12.55 50.9"/><path class="cls-8" d="M16.7,59.64v8.87l7.54,4.35,0.14,0.08h0l7.69-4.44V59.64L24.39,55.2l-1.92,1.11v2.22l5.75,3.32L26.3,63V60.74l-1.91-1.1-1.93,1.1-3.83-2.22-1.92,1.12h0ZM25,62.24L26.3,63h0L25,62.24h0Z" transform="translate(-0.02 -1.99)"/><rect class="cls-8" x="16.68" y="45.42" width="15.37" height="19.94"/><path class="cls-8" d="M16.7,59.64v8.87l7.54,4.35,0.14,0.08h0l7.69-4.44V59.64L24.39,55.2l-1.92,1.11v2.22l5.75,3.32L26.3,63V60.74l-1.91-1.1-1.93,1.1-3.83-2.22-1.92,1.12h0ZM25,62.24L26.3,63h0L25,62.24h0Z" transform="translate(-0.02 -1.99)"/><path class="cls-8" d="M16.7,40.86v8.87l7.54,4.35,0.14,0.08h0l7.69-4.44V40.86l-7.69-4.44-1.92,1.11v2.22l5.75,3.32L26.3,44.18V42l-1.91-1.1L22.46,42l-3.83-2.22-1.92,1.12h0ZM25,43.46l1.25,0.72h0L25,43.46h0Z" transform="translate(-0.02 -1.99)"/><path class="cls-8" d="M9.23,55.32v8.87l7.54,4.35,0.14,0.08h0l7.69-4.44V55.32l-7.69-4.44L15,52v2.22l5.75,3.32-1.92,1.11V56.42l-1.91-1.1L15,56.42l-3.83-2.22L9.24,55.32h0Zm8.35,2.6,1.25,0.72h0l-1.25-.72h0Z" transform="translate(-0.02 -1.99)"/><rect class="cls-8" x="9.21" y="41.1" width="15.37" height="19.94"/><path class="cls-8" d="M9.23,55.32v8.87l7.54,4.35,0.14,0.08h0l7.69-4.44V55.32l-7.69-4.44L15,52v2.22l5.75,3.32-1.92,1.11V56.42l-1.91-1.1L15,56.42l-3.83-2.22L9.24,55.32h0Zm8.35,2.6,1.25,0.72h0l-1.25-.72h0Z" transform="translate(-0.02 -1.99)"/><path class="cls-8" d="M9.23,36.55v8.87l7.54,4.35,0.14,0.08h0l7.69-4.44V36.55l-7.69-4.44L15,33.22v2.22l5.75,3.32-1.92,1.11V37.65l-1.91-1.1L15,37.65l-3.83-2.22L9.24,36.55h0Zm8.35,2.6,1.25,0.72h0l-1.25-.72h0Z" transform="translate(-0.02 -1.99)"/><polygon class="cls-5" points="10.56 62.15 11.75 61.47 11.75 62.83 10.56 63.52 10.56 62.15"/><polygon class="cls-6" points="2.88 63.38 5.78 61.7 8.68 63.38 5.78 65.05 2.88 63.38"/><polygon class="cls-9" points="32.05 42.23 32.05 43.7 24.37 48.14 24.37 46.66 32.05 42.23"/><polygon class="cls-9" points="32.05 44.16 32.05 45.63 24.37 50.07 24.37 48.59 32.05 44.16"/><polygon class="cls-9" points="32.05 46.11 32.05 47.59 24.37 52.03 24.37 50.55 32.05 46.11"/><polygon class="cls-9" points="32.05 48.11 32.05 49.59 24.37 54.03 24.37 52.55 32.05 48.11"/><polygon class="cls-10" points="9.21 34.55 24.37 43.31 24.22 70.87 9.36 63.22 9.21 62.2 9.21 34.55"/><polygon class="cls-9" points="22.4 51.45 22.4 52.92 24.37 54.06 24.37 52.58 22.4 51.45"/><polygon class="cls-9" points="22.4 49.41 22.4 50.89 24.37 52.03 24.37 50.55 22.4 49.41"/><polygon class="cls-9" points="22.4 47.46 22.4 48.94 24.37 50.07 24.37 48.59 22.4 47.46"/><polygon class="cls-9" points="22.4 45.53 22.4 47.01 24.37 48.14 24.37 46.66 22.4 45.53"/><polygon class="cls-11" points="16.68 38.87 24.37 43.31 32.05 38.87 24.37 34.43 16.68 38.87"/><polygon class="cls-11" points="9.21 34.55 16.89 38.99 24.58 34.55 16.89 30.11 9.21 34.55"/><polyline class="cls-14" points="11.56 78.4 11.56 75.07 2.89 70.06 2.89 60.05 0 58.39 0 71.73"/><polygon class="cls-15" points="2.89 60.05 14.45 53.38 14.45 56.72 5.78 61.72 5.78 68.39 2.89 70.06 2.89 60.05"/><polyline class="cls-16" points="11.56 75.07 20.23 70.06 20.23 63.39 11.56 68.39 11.56 65.06 23.11 58.39 23.11 71.73 11.78 78.28 11.57 78.4"/><path class="cls-15" d="M11.56,67.06V69.8A0.59,0.59,0,0,1,12,70a0.43,0.43,0,0,1,.1.13l8.17-4.71v6.67l-8.67,5V80.4l0.21-.12,11.34-6.54V60.39Z" transform="translate(-0.02 -1.99)"/><polygon class="cls-14" points="11.56 65.06 8.68 63.38 8.68 66.72 11.56 68.39 11.56 65.06"/><polygon class="cls-17" points="5.78 68.39 11.54 71.72 17.32 68.39 20.21 70.07 11.54 75.08 2.89 70.06 5.78 68.39"/><polygon class="cls-5" points="17.34 65.06 17.32 68.39 11.54 71.72 11.56 68.39 17.34 65.06"/><polygon class="cls-6" points="8.68 63.38 5.78 65.06 8.68 66.72 8.68 63.38"/><polygon class="cls-18" points="5.78 65.06 8.68 66.72 11.56 68.39 11.54 71.72 5.78 68.39 5.78 65.06"/><polygon class="cls-19" points="2.9 63.38 2.9 66.73 5.8 68.4 5.8 65.05 2.9 63.38"/><polygon class="cls-5" points="5.78 65.05 8.68 63.38 8.68 66.73 5.78 68.4 5.78 65.05"/><polygon class="cls-17" points="14.45 53.38 11.56 51.71 0 58.39 2.89 60.05 14.45 53.38"/><polygon class="cls-17" points="8.68 63.38 20.21 56.71 23.1 58.39 11.56 65.06 8.68 63.38"/><polygon class="cls-18" points="8.68 60.05 8.68 63.38 11.56 61.72 8.68 60.05"/><polygon class="cls-6" points="8.68 60.05 11.56 61.72 14.46 60.05 11.56 58.39 8.68 60.05"/><polygon class="cls-14" points="17.34 65.06 17.32 68.39 20.21 70.07 20.21 63.4 17.34 65.06"/><polygon class="cls-6" points="2.88 63.38 5.78 61.72 8.68 63.38 5.78 65.05 2.88 63.38"/><polygon class="cls-12" points="28.44 44.33 25.19 46.21 25.19 47.69 28.44 45.81 28.44 44.33"/><polygon class="cls-12" points="28.44 46.29 25.19 48.17 25.19 49.65 28.44 47.77 28.44 46.29"/><polygon class="cls-12" points="28.44 48.23 25.19 50.1 25.19 51.58 28.44 49.7 28.44 48.23"/><polygon class="cls-12" points="28.44 50.24 25.19 52.11 25.19 53.59 28.44 51.72 28.44 50.24"/><line class="cls-20" x1="156.45" y1="48.91" x2="156.8" y2="46.07"/><path class="cls-20" d="M155,44.83l-1.5-.51-2.34-.8h0l-2,.73-1,.34-2.72,1,0.42,3.65,0.45,3.94,2.59,1.44,2.26,1.25h0l2.28-1.26,2.64-1.46,0.36-2.82,0.25-1.94,0.36-2.83Zm-1.13,8.05-0.88-2h-3.59l-0.8,2-1.49,0,4-8.91,4.19,8.94Z" transform="translate(-0.02 -1.99)"/><polygon class="cls-20" points="151.11 47.66 151.17 47.66 152.47 47.66 151.12 44.83 149.92 47.66 151.11 47.66"/><path class="cls-3" d="M126.62,54.63H124.9L125,53.18h-0.85l-0.12,1.45h-3.56l-0.12-1.45h-0.85l0.12,1.45h-1.72l-1-6.28,2.42-3.86h5.8l2.42,3.86Zm-1.93-8.21h-1.55l0.1,0.72h-1.93l0.1-.72h-1.55l-1,1.93,0.48,3.86h5.8l0.48-3.86Zm-0.85,4.51a1.79,1.79,0,0,1,0-1.8A1.79,1.79,0,0,1,123.84,50.93Zm-3,.07a1.79,1.79,0,0,1,0-1.8A1.79,1.79,0,0,1,120.79,51Z" transform="translate(-0.02 -1.99)"/><rect class="cls-21" x="62.87" y="13.45" width="24.92" height="1.29" transform="translate(25.43 70.29) rotate(-60)"/><rect class="cls-21" x="68.26" y="20.85" width="24.92" height="1.29"/><rect class="cls-21" x="74.68" y="19.41" width="1.29" height="14.39" transform="translate(14.6 76.55) rotate(-60)"/><rect class="cls-21" x="85.51" y="0.66" width="1.29" height="14.39" transform="translate(36.26 76.54) rotate(-60)"/><rect class="cls-21" x="68.14" y="7.2" width="14.39" height="1.29" transform="translate(6.15 36.72) rotate(-30)"/><rect class="cls-21" x="85.52" y="1.64" width="1.29" height="24.92" transform="translate(4.47 42.98) rotate(-30)"/><rect class="cls-21" x="69.25" y="8.04" width="1.29" height="14.39"/><rect class="cls-21" x="90.91" y="8.04" width="1.29" height="14.39"/><rect class="cls-21" x="79.9" y="26.04" width="12.52" height="1.13" transform="translate(-1.78 44.65) rotate(-30)"/><path class="cls-21" d="M93.93,24.84a2.72,2.72,0,1,1-1-3.71,2.72,2.72,0,0,1,1,3.71" transform="translate(-0.02 -1.99)"/><path class="cls-21" d="M72.26,12.33a2.72,2.72,0,1,1-1-3.71,2.72,2.72,0,0,1,1,3.71" transform="translate(-0.02 -1.99)"/><path class="cls-21" d="M67.56,24.84a2.72,2.72,0,1,1,3.71,1,2.72,2.72,0,0,1-3.71-1" transform="translate(-0.02 -1.99)"/><path class="cls-21" d="M89.23,12.33a2.72,2.72,0,1,1,3.71,1,2.72,2.72,0,0,1-3.71-1" transform="translate(-0.02 -1.99)"/><path class="cls-21" d="M80.74,32.46a2.72,2.72,0,1,1,2.72-2.72,2.71,2.71,0,0,1-2.72,2.72" transform="translate(-0.02 -1.99)"/><path class="cls-21" d="M80.74,7.42a2.72,2.72,0,1,1,2.72-2.72,2.71,2.71,0,0,1-2.72,2.72" transform="translate(-0.02 -1.99)"/></svg>