<svg width="37px" height="29px" viewBox="1 15 37 29" version="1.1" xmlns="http://www.w3.org/2000/svg" xmlns:xlink="http://www.w3.org/1999/xlink">
    <g id="Group-33" stroke="none" stroke-width="1" fill="none" fill-rule="evenodd" transform="translate(2.000000, 15.000000)" stroke-linejoin="round">
        <path d="M11.87835,28.2368421 L23.24985,28.2368421 L23.24985,21.3684211 C23.24985,20.6052632 18.74985,18.3157895 14.99985,16.7894737 L14.99985,13.7368421 C14.99985,13.7368421 16.49985,13.2026316 16.49985,9.92105263 C17.54235,9.92105263 17.99985,6.86842105 16.54785,6.86842105 C16.54785,6.54484211 17.69685,4.872 17.24985,3.05263158 C16.49985,2.63011835e-13 8.99985,2.63011835e-13 8.24985,3.05263158 C5.09235,2.39478947 7.49985,6.42884211 7.49985,6.86842105 C5.99985,6.86842105 6.45585,9.92105263 7.49985,9.92105263 C7.49985,13.2026316 8.99985,13.7368421 8.99985,13.7368421 L8.99985,16.7894737 C5.24985,18.3157895 0.74985,20.6052632 0.74985,21.3684211 L0.74985,28.2368421 L11.87835,28.2368421 Z" id="Stroke-1" stroke="#004675" stroke-width="1.5"></path>
        <path d="M27,28.2368421 L35.25,28.2368421 L35.25,21.3684211 C35.25,20.6052632 31.5,19.5368421 28.5,18.3157895 L28.5,16.0263158 C28.5,16.0263158 30,15.5989474 30,12.9736842 C30.8355,12.9736842 31.161,9.92105263 30,9.92105263 C30,9.66310526 31.2165,8.29247368 30.75,6.86842105 C30,4.57894737 24,4.57894737 23.25,6.86842105 C20.7225,6.34184211 22.5,9.57 22.5,9.92105263 C21.3,9.92105263 21.6645,12.9736842 22.5,12.9736842 C22.5,15.5989474 24,16.0263158 24,16.0263158 L24,17.5526316" id="Stroke-3" stroke="#004675" stroke-width="1.5" stroke-linecap="round"></path>
    </g>
</svg>