<?xml version="1.0" encoding="utf-8"?>
<svg width="20px" height="20px" viewBox="0 0 20 20">
<path d="M18.33,19H1.67c-0.23,0-0.45-0.12-0.57-0.32c-0.12-0.2-0.13-0.45-0.03-0.66L9.4,1.34
	c0.23-0.46,0.98-0.46,1.2,0l8.33,16.68c0.1,0.21,0.09,0.46-0.03,0.66C18.78,18.88,18.56,19,18.33,19z M2.76,17.65h14.47L10,3.15
	L2.76,17.65z"/>
<path d="M10,13.69c-0.37,0-0.67-0.3-0.67-0.67V8.47c0-0.37,0.3-0.67,0.67-0.67s0.67,0.3,0.67,0.67v4.55
	C10.67,13.39,10.37,13.69,10,13.69z"/>
<path d="M10,14.53c-0.42,0-0.76,0.34-0.76,0.76c0,0.42,0.34,0.76,0.76,0.76c0.42,0,0.76-0.34,0.76-0.76
	C10.76,14.87,10.42,14.53,10,14.53"/>
</svg>
