<?xml version="1.0" encoding="utf-8"?>
<!-- Generator: Adobe Illustrator 19.2.1, SVG Export Plug-In . SVG Version: 6.00 Build 0)  -->
<svg version="1.1" id="Layer_1" xmlns="http://www.w3.org/2000/svg" xmlns:xlink="http://www.w3.org/1999/xlink" x="0px" y="0px"
	 viewBox="0 0 519.5 520" style="enable-background:new 0 0 519.5 520;" xml:space="preserve">
<style type="text/css">
	.st0{fill:#36AD64;}
</style>
<g>
	<path class="st0" d="M478.8,6H201.2c-21.9,0-39.7,17.8-39.7,39.7V84h-38.3c-21.9,0-39.7,17.8-39.7,39.7V163H43.2
		c-21.9,0-39.7,17.8-39.7,39.7v59.7h14v-59.7c0-14.2,11.5-25.7,25.7-25.7h40.3v224.3c0,21.9,17.8,39.7,39.7,39.7h95.3l0,0
		c0.1,0,0.1,0,0.2,0c3.9,0,7-3.1,7-7s-3.1-7-7-7c-0.1,0-0.1,0-0.2,0l0,0h-95.3c-14.2,0-25.7-11.5-25.7-25.7V123.7
		c0-14.2,11.5-25.7,25.7-25.7h38.3v225.3c0,21.9,17.8,39.7,39.7,39.7h225.3v38.3c0,14.2-11.5,25.7-25.7,25.7h-96.3l0,0
		c-3.9,0-7,3.1-7,7s3.1,7,7,7c0.1,0,0.1,0,0.2,0h41.8v39.3c0,14.2-11.5,25.7-25.7,25.7H190.5l0,0c-3.8,0.1-6.8,3.2-6.8,7
		s3,6.9,6.8,7l0,0l0,0h0.1h0.1h130c21.9,0,39.7-17.8,39.7-39.7V441h40.3c21.9,0,39.7-17.8,39.7-39.7V363h38.3
		c21.9,0,39.7-17.8,39.7-39.7V45.7C518.5,23.8,500.7,6,478.8,6z M504.5,323.3c0,14.2-11.5,25.7-25.7,25.7H201.2
		c-14.2,0-25.7-11.5-25.7-25.7V45.7c0-14.2,11.5-25.7,25.7-25.7h277.7c14.2,0,25.7,11.5,25.7,25.7v277.6H504.5z"/>
	<path class="st0" d="M99.2,506L99.2,506L99.2,506h-56c-14.2,0-25.7-11.5-25.7-25.7v-108h-14v108c0,21.9,17.8,39.7,39.7,39.7h56l0,0
		l0,0c3.9,0,7-3.1,7-7C106.2,509.1,103.1,506,99.2,506z"/>
</g>
</svg>
