<svg width="25px" height="25px" viewBox="0 0 25 25">
<path d="M11.09,24.06c-0.04,0-0.08,0-0.11-0.01c-0.23-0.05-0.39-0.25-0.39-0.49v-9.12H8.95
	c-0.28,0-0.5-0.22-0.5-0.5V2.19c0-0.28,0.22-0.5,0.5-0.5h8.55c0.17,0,0.33,0.09,0.43,0.24c0.09,0.15,0.1,0.33,0.02,0.49l-3.91,7.82
	h3.47c0.17,0,0.33,0.09,0.43,0.24c0.09,0.15,0.1,0.33,0.02,0.49l-6.41,12.82C11.45,23.96,11.27,24.06,11.09,24.06z M9.45,13.45
	h1.64c0.28,0,0.5,0.22,0.5,0.5v7.5l5.1-10.2h-3.47c-0.17,0-0.33-0.09-0.43-0.24c-0.09-0.15-0.1-0.33-0.02-0.49l3.91-7.82H9.45
	V13.45z"/>
</svg>
