<?xml version="1.0" encoding="utf-8"?>
<!-- Generator: Adobe Illustrator 19.0.0, SVG Export Plug-In . SVG Version: 6.00 Build 0)  -->
<svg version="1.1" id="Ebene_1" xmlns="http://www.w3.org/2000/svg" xmlns:xlink="http://www.w3.org/1999/xlink" x="0px" y="0px"
	 width="18px" height="21px" viewBox="66 46 18 21" style="enable-background:new 66 46 18 21;" xml:space="preserve">
<g id="XMLID_78_">
	<path id="XMLID_19_" d="M82.18,53.28c-0.92-0.52-2.07,0.16-2.26,0.27l-3.96,2.26c-0.59-0.47-1.42-0.45-1.98,0.05
		c-0.56,0.49-0.69,1.32-0.31,1.97c0.38,0.65,1.17,0.93,1.87,0.66c0.7-0.26,1.11-0.99,0.98-1.73l3.95-2.26l0.02-0.01
		c0.26-0.16,0.86-0.41,1.14-0.25c0.2,0.12,0.32,0.5,0.33,1.07h0v4.99c0,0.47-0.25,0.9-0.65,1.13l-5.68,3.3
		c-0.4,0.23-0.89,0.23-1.3,0l-5.67-3.3c-0.4-0.24-0.65-0.66-0.65-1.13v-6.61c0-0.47,0.25-0.9,0.65-1.13l5.14-2.99
		c0.49,0.57,1.31,0.7,1.95,0.32c0.64-0.38,0.92-1.17,0.67-1.87c-0.25-0.71-0.97-1.12-1.7-1c-0.73,0.12-1.28,0.76-1.29,1.51
		l-5.3,3.08c-0.74,0.43-1.2,1.22-1.2,2.08v6.6c0,0.86,0.46,1.65,1.2,2.08l5.68,3.3c0.74,0.43,1.65,0.43,2.39,0l5.68-3.3
		c0.74-0.43,1.19-1.22,1.2-2.08v-4.8h0C83.09,54.37,82.79,53.63,82.18,53.28z"/>
</g>
</svg>
