<svg width="25px" height="25px" viewBox="0 0 25 25">
<path d="M20.96,5.3c0-0.69-0.56-1.26-1.26-1.26H5.3c-0.69,0-1.26,0.56-1.26,1.26v3.79
	c0,0.29,0.11,0.54,0.28,0.76c-0.17,0.21-0.28,0.47-0.28,0.76v3.79c0,0.29,0.11,0.54,0.28,0.76c-0.17,0.21-0.28,0.47-0.28,0.76v3.79
	c0,0.69,0.56,1.26,1.26,1.26h14.4c0.69,0,1.26-0.56,1.26-1.26v-3.79c0-0.29-0.11-0.55-0.28-0.76c0.17-0.21,0.28-0.47,0.28-0.76V10.6
	c0-0.29-0.11-0.54-0.28-0.76c0.17-0.21,0.28-0.47,0.28-0.76V5.3z M5.04,5.3c0-0.14,0.12-0.26,0.26-0.26h14.4
	c0.14,0,0.26,0.12,0.26,0.26v3.79c0,0.14-0.12,0.26-0.26,0.26H5.3c-0.14,0-0.26-0.12-0.26-0.26V5.3z M19.96,10.6v3.79
	c0,0.14-0.12,0.26-0.26,0.26H5.3c-0.14,0-0.26-0.12-0.26-0.26V10.6c0-0.14,0.12-0.26,0.26-0.26h14.4
	C19.84,10.35,19.96,10.46,19.96,10.6z M19.96,19.7c0,0.14-0.12,0.26-0.26,0.26H5.3c-0.14,0-0.26-0.12-0.26-0.26v-3.79
	c0-0.14,0.12-0.26,0.26-0.26h14.4c0.14,0,0.26,0.12,0.26,0.26V19.7z"/>
<path d="M10.23,7.69h7.58c0.28,0,0.5-0.22,0.5-0.5s-0.22-0.5-0.5-0.5h-7.58c-0.28,0-0.5,0.22-0.5,0.5
	S9.95,7.69,10.23,7.69z"/>
<path d="M7.19,8.45c0.69,0,1.26-0.56,1.26-1.26S7.89,5.94,7.19,5.94S5.94,6.5,5.94,7.19
	S6.5,8.45,7.19,8.45z M7.19,6.94c0.14,0,0.26,0.12,0.26,0.26c0,0.28-0.52,0.28-0.52,0C6.94,7.05,7.05,6.94,7.19,6.94z"/>
<path d="M10.23,13h7.58c0.28,0,0.5-0.22,0.5-0.5s-0.22-0.5-0.5-0.5h-7.58c-0.28,0-0.5,0.22-0.5,0.5
	S9.95,13,10.23,13z"/>
<path d="M7.19,13.76c0.69,0,1.26-0.56,1.26-1.26s-0.56-1.26-1.26-1.26s-1.26,0.56-1.26,1.26
	S6.5,13.76,7.19,13.76z M7.19,12.24c0.14,0,0.26,0.12,0.26,0.26c0,0.28-0.52,0.28-0.52,0C6.94,12.36,7.05,12.24,7.19,12.24z"/>
<path d="M17.81,17.31h-7.58c-0.28,0-0.5,0.22-0.5,0.5s0.22,0.5,0.5,0.5h7.58c0.28,0,0.5-0.22,0.5-0.5
	S18.08,17.31,17.81,17.31z"/>
<path d="M7.19,16.55c-0.69,0-1.26,0.56-1.26,1.26s0.56,1.26,1.26,1.26s1.26-0.56,1.26-1.26
	S7.89,16.55,7.19,16.55z M6.94,17.81c0-0.14,0.12-0.26,0.26-0.26s0.26,0.12,0.26,0.26C7.45,18.09,6.94,18.09,6.94,17.81z"/>
</svg>
