<?xml version="1.0" encoding="UTF-8" standalone="no"?>
<svg width="12px" height="15px" viewBox="0 0 12 15" version="1.1" xmlns="http://www.w3.org/2000/svg" xmlns:xlink="http://www.w3.org/1999/xlink">
    <!-- Generator: Sketch 43.1 (39012) - http://www.bohemiancoding.com/sketch -->
    <title>Group 7</title>
    <desc>Created with Sketch.</desc>
    <defs></defs>
    <g id="Page-1" stroke="none" stroke-width="1" fill="none" fill-rule="evenodd" opacity="0.4" stroke-linejoin="round">
        <g id="permission-example-box" transform="translate(-972.000000, -431.000000)" stroke="#000000">
            <g id="auth" transform="translate(973.000000, 428.000000)">
                <g id="Group-7" transform="translate(0.000000, 4.000000)">
                    <path d="M6.11111111,8.66666667 C6.11111111,9.26520833 5.61388889,9.75 5,9.75 C4.38666667,9.75 3.88888889,9.26520833 3.88888889,8.66666667 C3.88888889,8.06758333 4.38666667,7.58333333 5,7.58333333 C5.61388889,7.58333333 6.11111111,8.06758333 6.11111111,8.66666667 L6.11111111,8.66666667 Z" id="Stroke-1"></path>
                    <path d="M9.72222222,7.3125 C9.72222222,6.11595833 8.72722222,5.14583333 7.5,5.14583333 L2.5,5.14583333 C1.27277778,5.14583333 0.277777778,6.11595833 0.277777778,7.3125 L0.277777778,10.5625 C0.277777778,11.7590417 1.27277778,12.7291667 2.5,12.7291667 L7.5,12.7291667 C8.72722222,12.7291667 9.72222222,11.7590417 9.72222222,10.5625 L9.72222222,7.3125 L9.72222222,7.3125 Z" id="Stroke-3"></path>
                    <path d="M1.94444444,3.25 C1.94444444,1.60441667 3.31277778,0.270833333 5,0.270833333 C6.68722222,0.270833333 8.05555556,1.60441667 8.05555556,3.25 L8.05555556,5.14583333 L1.94444444,5.14583333 L1.94444444,3.25 L1.94444444,3.25 Z" id="Stroke-5"></path>
                </g>
            </g>
        </g>
    </g>
</svg>