<?xml version="1.0" encoding="utf-8"?>
<svg width="32px" height="32px" viewBox="-50 51 32 32">
<path d="M-39.08,64.46c0.74,0.74,1.6,1.29,2.57,1.65v3.91l-1.22,1.22l1.22,1.22v0.28l-1.22,1.22l1.22,1.22v0.28l-1.22,1.22
	l1.22,1.22v1.36l2.51,2.51l2.51-2.51V66.14c0.97-0.36,1.83-0.91,2.57-1.65c2.8-2.8,2.8-7.36,0-10.16c-2.8-2.8-7.36-2.8-10.16,0
	C-41.88,57.09-41.88,61.65-39.08,64.46z M-35.36,58.02c-0.75-0.75-0.75-1.96,0-2.71s1.96-0.75,2.71,0s0.75,1.96,0,2.71
	C-33.39,58.77-34.61,58.77-35.36,58.02z"/>
</svg>
