<?xml version="1.0" encoding="utf-8"?>
<svg width="32px" height="32px" viewBox="-49 51 32 32">
<path d="M-41.03,70.86c0-1.7-1.21-2.54-3.64-2.54v-2.61c1.23,0,2.14-0.21,2.74-0.62c0.6-0.42,0.9-1.05,0.9-1.89
	v-4.26c0-1.42,0.49-2.47,1.48-3.14c0.99-0.67,2.47-1,4.45-1v2.49c-1.03,0.04-1.79,0.25-2.26,0.63c-0.47,0.38-0.7,0.94-0.7,1.69v4.06
	c0,1.81-1.04,2.9-3.13,3.25v0.16c2.09,0.33,3.13,1.41,3.13,3.24v4.09c0,0.75,0.23,1.31,0.7,1.7s1.22,0.58,2.27,0.6v2.5
	c-2.11-0.02-3.62-0.38-4.55-1.07c-0.93-0.7-1.39-1.83-1.39-3.38C-41.03,74.76-41.03,70.86-41.03,70.86z"/>
<path d="M-24.76,75.06c0,1.42-0.45,2.47-1.36,3.13c-0.91,0.67-2.36,1.01-4.35,1.03v-2.5
	c0.87-0.01,1.54-0.18,2.02-0.53c0.48-0.34,0.72-0.93,0.72-1.77v-3.58c0-1.1,0.24-1.96,0.72-2.56c0.48-0.6,1.29-1,2.41-1.19v-0.17
	c-2.09-0.36-3.13-1.44-3.13-3.25V59.6c0-0.75-0.21-1.31-0.62-1.69c-0.42-0.38-1.12-0.59-2.13-0.64v-2.49c2.03,0,3.49,0.35,4.38,1.05
	c0.89,0.7,1.33,1.84,1.33,3.42v3.92c0,0.91,0.29,1.56,0.87,1.94c0.58,0.38,1.44,0.57,2.58,0.57v2.61c-1.12,0-1.98,0.19-2.56,0.58
	c-0.58,0.39-0.88,1.04-0.88,1.96V75.06z"/>
</svg>
