<?xml version="1.0" encoding="utf-8"?>
<!-- Generator: Adobe Illustrator 19.0.0, SVG Export Plug-In . SVG Version: 6.00 Build 0)  -->
<svg version="1.1" id="Ebene_1" xmlns="http://www.w3.org/2000/svg" xmlns:xlink="http://www.w3.org/1999/xlink" x="0px" y="0px"
	 width="50px" height="50px" viewBox="12 -10 50 50" style="enable-background:new 12 -10 50 50;" xml:space="preserve">
<g id="XMLID_1_">
	<ellipse id="XMLID_12_" cx="37" cy="14.96" rx="4.15" ry="4.36"/>
	<path id="XMLID_15_" d="M57.87,10.61c-1.44-1.26-3.47-2.39-5.88-3.26C51.5,7.17,51,7.01,50.48,6.85c0.08-0.36,0.17-0.72,0.24-1.07
		c1.15-5.88,0.33-10.47-2.14-11.97c-1.21-0.74-2.87-0.73-4.78,0c-1.76,0.68-3.7,1.96-5.62,3.72c-0.39,0.35-0.78,0.73-1.16,1.12
		c-0.26-0.26-0.51-0.52-0.77-0.76c-4.28-3.99-8.47-5.53-10.94-4.03C24.1-5.4,23.27-3.9,22.93-1.79c-0.32,1.94-0.23,4.35,0.26,6.97
		c0.1,0.53,0.22,1.07,0.35,1.62c-0.59,0.18-1.17,0.37-1.72,0.57c-5.05,1.85-8.07,4.68-8.07,7.56c0,1.51,0.84,3.06,2.43,4.49
		c1.5,1.35,3.6,2.53,6.08,3.42c0.4,0.14,0.83,0.28,1.26,0.41c-0.14,0.59-0.26,1.18-0.37,1.75c-1,5.52-0.17,9.68,2.2,11.12
		c0.63,0.38,1.38,0.57,2.22,0.57c0.82,0,1.72-0.18,2.7-0.54c1.86-0.69,3.88-2.01,5.85-3.82c0.32-0.29,0.64-0.61,0.97-0.94
		c0.42,0.42,0.84,0.83,1.26,1.21c2.98,2.69,5.84,4.12,8.09,4.12c0.82,0,1.55-0.19,2.19-0.57c1.24-0.75,2.1-2.3,2.48-4.46
		c0.36-2.03,0.28-4.53-0.23-7.23c-0.08-0.43-0.18-0.87-0.29-1.31c0.29-0.09,0.59-0.18,0.87-0.28c5.43-1.89,8.8-4.92,8.8-7.92
		C60.26,13.48,59.43,11.98,57.87,10.61z M44.49-4.22c1.32-0.51,2.42-0.57,3.1-0.16c0.72,0.44,1.25,1.54,1.5,3.1
		c0.29,1.81,0.18,4.11-0.32,6.64c-0.06,0.32-0.14,0.65-0.22,0.97c-1.93-0.47-4.03-0.81-6.22-1.02c-1.28-1.91-2.6-3.66-3.93-5.16
		c0.36-0.36,0.71-0.71,1.07-1.04C41.23-2.47,42.96-3.63,44.49-4.22z M43.49,18.93c-0.73,1.33-1.48,2.59-2.23,3.77
		c-1.38,0.1-2.81,0.16-4.26,0.16s-2.86-0.05-4.2-0.14c-0.8-1.22-1.56-2.48-2.28-3.79l0,0c-0.72-1.3-1.38-2.62-1.98-3.93
		c0.6-1.32,1.26-2.64,1.97-3.94c0.72-1.31,1.47-2.56,2.26-3.76c1.39-0.11,2.81-0.17,4.24-0.17c1.44,0,2.86,0.06,4.24,0.17
		c0.77,1.19,1.52,2.45,2.24,3.75c0.73,1.33,1.4,2.64,2,3.91C44.88,16.28,44.22,17.6,43.49,18.93z M46.56,17.38
		c0.62,1.49,1.15,2.93,1.57,4.3c-1.35,0.32-2.81,0.58-4.34,0.77c0.48-0.8,0.96-1.62,1.43-2.48C45.69,19.11,46.13,18.24,46.56,17.38z
		 M37.08,28.41c-0.94-1.07-1.88-2.25-2.79-3.52c0.89,0.04,1.78,0.06,2.71,0.06c0.95,0,1.88-0.03,2.81-0.07
		C38.9,26.18,37.99,27.36,37.08,28.41z M30.26,22.49c-1.53-0.18-2.96-0.42-4.29-0.72c0.41-1.39,0.92-2.84,1.51-4.31
		c0.42,0.84,0.85,1.69,1.31,2.52l0,0C29.27,20.84,29.76,21.67,30.26,22.49z M27.48,12.55C26.9,11.12,26.4,9.7,26,8.33
		c1.33-0.31,2.74-0.56,4.21-0.76c-0.49,0.8-0.97,1.61-1.43,2.45l0,0C28.33,10.86,27.9,11.71,27.48,12.55z M37.02,1.65
		c0.91,1.04,1.83,2.21,2.73,3.47c-0.91-0.05-1.83-0.08-2.76-0.08c-0.92,0-1.83,0.03-2.73,0.07C35.17,3.87,36.09,2.7,37.02,1.65z
		 M45.2,10.01c-0.46-0.83-0.94-1.64-1.42-2.44c1.48,0.2,2.9,0.45,4.24,0.77c-0.4,1.35-0.91,2.76-1.49,4.2
		C46.11,11.71,45.68,10.87,45.2,10.01z M25.14,4.81c-0.44-2.38-0.53-4.53-0.25-6.22c0.24-1.46,0.74-2.49,1.42-2.9
		c0.72-0.44,1.89-0.37,3.3,0.18c1.64,0.64,3.48,1.89,5.32,3.61c0.23,0.21,0.46,0.45,0.69,0.68c-1.35,1.53-2.68,3.26-3.95,5.15
		c-2.19,0.21-4.28,0.55-6.21,1.01C25.34,5.81,25.23,5.3,25.14,4.81z M22.89,20.89c-2.24-0.8-4.12-1.85-5.43-3.03
		c-1.12-1.01-1.74-2.04-1.74-2.9c0-2.16,3.38-4.36,6.74-5.59c0.51-0.19,1.05-0.36,1.6-0.53c0.58,1.99,1.35,4.07,2.27,6.16
		c-0.93,2.13-1.71,4.24-2.3,6.25C23.65,21.14,23.26,21.02,22.89,20.89z M34.81,30.77c-3.92,3.59-7.14,4.36-8.47,3.55
		c-1.78-1.08-1.91-5.26-1.25-8.92c0.1-0.53,0.21-1.07,0.34-1.62c1.89,0.44,4,0.75,6.27,0.95c1.28,1.9,2.63,3.65,3.99,5.18
		C35.4,30.21,35.1,30.51,34.81,30.77z M48.92,24.87c1.01,5.36,0.03,8.67-1.3,9.48c-1.78,1.08-5.29-0.89-7.98-3.32
		c-0.39-0.35-0.78-0.72-1.17-1.12c1.3-1.5,2.61-3.25,3.9-5.21c2.25-0.21,4.38-0.55,6.29-1.02C48.76,24.09,48.85,24.49,48.92,24.87z
		 M50.83,20.9c-0.25,0.09-0.52,0.17-0.78,0.25c-0.58-1.94-1.38-4.02-2.36-6.18c0.93-2.1,1.7-4.16,2.27-6.09
		c0.48,0.14,0.94,0.3,1.39,0.46c2.18,0.79,4,1.79,5.25,2.88c1.08,0.95,1.68,1.92,1.68,2.74C58.27,16.57,55.94,19.12,50.83,20.9z"/>
</g>
</svg>
