<?xml version="1.0" encoding="utf-8"?>
<!-- Generator: Adobe Illustrator 19.2.1, SVG Export Plug-In . SVG Version: 6.00 Build 0)  -->
<svg version="1.1" id="Capa_1" xmlns="http://www.w3.org/2000/svg" xmlns:xlink="http://www.w3.org/1999/xlink" x="0px" y="0px"
	 viewBox="0 0 59.5 35.3" style="enable-background:new 0 0 59.5 35.3;" xml:space="preserve">
<style type="text/css">
	.st0{fill:none;stroke:#000000;stroke-miterlimit:10;}
</style>
<g>
	<path d="M17.2,4.3H5.6c-1.1,0-2,0.9-2,2v23.4c0,1.1,0.9,2,2,2h11.5c1.1,0,2-0.9,2-2V6.3C19.2,5.2,18.3,4.3,17.2,4.3z M8.5,5.5h5.7
		c0.1,0,0.3,0.2,0.3,0.5s-0.1,0.5-0.3,0.5H8.5C8.4,6.5,8.3,6.3,8.3,6C8.3,5.8,8.4,5.5,8.5,5.5z M11.4,29.8c-0.7,0-1.3-0.6-1.3-1.3
		s0.6-1.3,1.3-1.3c0.7,0,1.3,0.6,1.3,1.3S12.1,29.8,11.4,29.8z M17.7,25.4H5.1V7.7h12.5C17.7,7.7,17.7,25.4,17.7,25.4z"/>
</g>
<path d="M32.6,4.3h-10c-0.6,0-1.1,0.5-1.1,1.1v25.2c0,0.6,0.5,1.1,1.1,1.1h10c0.6,0,1.1-0.5,1.1-1.1V5.5C33.7,4.8,33.2,4.3,32.6,4.3
	z M23.1,8.5c0-0.5,0.4-0.8,0.8-0.8h7.5c0.5,0,0.8,0.4,0.8,0.8v16.1c0,0.5-0.4,0.8-0.8,0.8h-7.5c-0.5,0-0.8-0.4-0.8-0.8V8.5z
	 M28.9,29.9h-5.5c-0.2,0-0.4-0.2-0.4-0.4s0.2-0.4,0.4-0.4h5.5c0.2,0,0.4,0.2,0.4,0.4S29.1,29.9,28.9,29.9z M31.5,30.2
	c-0.4,0-0.7-0.3-0.7-0.7s0.3-0.7,0.7-0.7c0.4,0,0.7,0.3,0.7,0.7S31.9,30.2,31.5,30.2z"/>
<rect x="24.5" y="9.8" class="st0" width="6.3" height="1.9"/>
<rect x="24.5" y="13.6" class="st0" width="6.3" height="1.9"/>
<rect x="24.5" y="17.3" class="st0" width="6.3" height="1.9"/>
<g>
	<g id="chevron-right">
		<polygon points="12.8,12.9 11.9,13.7 14.7,16.4 11.9,19.2 12.8,20 16.4,16.4 		"/>
	</g>
</g>
<g>
	<g id="chevron-right_1_">
		<rect x="6.7" y="15.9" width="8.3" height="1.2"/>
	</g>
</g>
</svg>
