<?xml version="1.0" encoding="utf-8"?>
<!-- Generator: Adobe Illustrator 19.2.1, SVG Export Plug-In . SVG Version: 6.00 Build 0)  -->
<svg version="1.1" id="Layer_1" xmlns="http://www.w3.org/2000/svg" xmlns:xlink="http://www.w3.org/1999/xlink" x="0px" y="0px"
	 viewBox="0 0 60 60" style="enable-background:new 0 0 60 60;" xml:space="preserve">
<path d="M50.5,51.3v-1.4H51c-0.3-2.9-1.5-9.5-5.5-10.6c-4.9-1.4-8.2-2.9-8.9-5.7c-0.1-1.8-0.1-3.2,0-5h-9.9c0,1.6,0,2.9,0,4.5
	c-0.3,3.1-3.7,4.7-8.9,6.2c-4,1.1-5.2,7.6-5.5,10.5c0.2-0.1,0.5,0.2,0.3,0.4c0,0,0,0.3,0,0.4c0,0.2,0,0.4,0,0.7H50.5z"/>
<path d="M36.5,30.9c0,0,0.2-0.1,0.3-0.2c0.1-0.1-0.1,0-0.1,0l-0.2,0.1L36.5,30.9L36.5,30.9z"/>
<polygon points="26.7,30.9 26.6,30.9 26.6,30.9 26.7,30.9 26.7,30.9 "/>
<path d="M40.3,21.3C40.3,21.3,40.3,21.3,40.3,21.3c0-0.1-0.3-0.4-0.7-0.5H23.5c0,0,0,0,0,0c-0.1,0-0.1,0-0.2,0.1c0,0,0,0,0,0
	c-0.1,0-0.1,0.1-0.2,0.1c-0.2,0.2-0.3,0.3-0.3,0.3c-0.2,0.4-0.4,0.9-0.3,1.7c0.3,2.3,1.2,2.8,1.8,2.9c0.2,2,1.5,4.4,2.3,5
	c0,0,0.1,0,0.1,0.1v0h0v0h9.8v0h0.1v0c0,0,0,0,0,0c0.8-0.4,2.1-2.9,2.3-5c0.6,0,1.5-0.6,1.8-2.9C40.8,22.2,40.6,21.6,40.3,21.3
	L40.3,21.3z"/>
<path d="M40,20.9c-0.1,1.3-0.2-3.7,1.4-6.3l-1-0.8l-1.9,1.5l-0.9,3.2l0.3,2l0.7,1.1l1.5,0.3L40,20.9z"/>
<path d="M36.6,7.4c-6.4-3-8.6-0.1-9.2,1.4C27.1,8.7,26,8.5,24.8,9c-3.5,1.6-2.1,9.6-1.7,11.6c0.2,0.6,0.3,0.9,0.3,0.9l5.8,1.5v-0.6
	l3.8,0.4c0,0,6.9,0.7,6.7-2s1.1-5.1,1.1-5.1s0.2-0.2,0.4-0.5C42,13.8,43.3,10.5,36.6,7.4z"/>
<circle cx="15.8" cy="50.2" r="3.7"/>
<circle cx="47.3" cy="50.2" r="3.7"/>
<path d="M47.3,53.9v-0.1h0.2v-6.1H15.7v5.8c0.1,0,0.2,0.2,0.2,0.3h0.1v0.1H47.3z"/>
<polygon points="52.6,48.9 52.5,48.9 52.5,48.9 52.6,48.9 52.6,48.9 "/>
</svg>
