<?xml version="1.0" encoding="UTF-8"?>
<svg width="133px" height="22px" viewBox="0 0 133 22" version="1.1" xmlns="http://www.w3.org/2000/svg" xmlns:xlink="http://www.w3.org/1999/xlink">
    <!-- Generator: Sketch 42 (36781) - http://www.bohemiancoding.com/sketch -->
    <title>Group</title>
    <desc>Created with Sketch.</desc>
    <defs></defs>
    <g id="Page-1" stroke="none" stroke-width="1" fill="none" fill-rule="evenodd">
        <g id="Group" fill-rule="nonzero" fill="#27AE60">
            <path d="M46.4588279,3.4651907 L46.4588279,12.9900279 C46.4588279,14.3489116 46.6805953,15.3416558 47.12413,15.9697488 C47.7872,16.8784 48.718921,17.3323535 49.920781,17.3323535 C51.128595,17.3323535 52.064037,16.8784 52.727107,15.9697488 C53.170642,15.362493 53.392409,14.3690047 53.392409,12.9900279 L53.392409,3.4651907 L55.77827,3.4651907 L55.77827,13.6449116 C55.77827,15.3111442 55.259572,16.6834233 54.222177,17.762493 C53.053805,18.9643535 51.620502,19.5649116 49.920781,19.5649116 C48.220316,19.5649116 46.7899907,18.9643535 45.6290605,17.762493 C44.5916651,16.6834233 44.0729674,15.3111442 44.0729674,13.6449116 L44.0729674,3.4651907 L46.4588279,3.4651907 Z" id="Fill-6"></path>
            <polygon id="Fill-8" points="65.189619 5.7080186 65.189619 19.2782512 62.803014 19.2782512 62.803014 5.7080186 59.167665 5.7080186 59.167665 3.4650419 68.814549 3.4650419 68.814549 5.7080186"></polygon>
            <path d="M90.463516,11.3308651 C90.463516,13.0789581 91.050679,14.5159814 92.225005,15.6426791 C93.392633,16.7693767 94.741098,17.3319814 96.269656,17.3319814 C97.929191,17.3319814 99.329005,16.7589581 100.469098,15.6121674 C101.609191,14.4512372 102.179237,13.0380279 102.179237,11.3717953 C102.179237,9.6854698 101.616633,8.2722605 100.489935,7.1321674 C99.369191,5.9846326 97.98426,5.4108651 96.331423,5.4108651 C94.686028,5.4108651 93.296633,5.9846326 92.163237,7.1321674 C91.029842,8.2648186 90.463516,9.6646326 90.463516,11.3308651 M88.056074,11.3003535 C88.056074,9.074493 88.871702,7.1626791 90.504447,5.5649116 C92.129005,3.9671442 94.081749,3.1686326 96.361935,3.1686326 C98.61533,3.1686326 100.547237,3.9738419 102.159144,5.5850047 C103.777749,7.1969116 104.585935,9.1325395 104.585935,11.3918884 C104.585935,13.6661209 103.774028,15.5950512 102.148726,17.1786791 C100.516726,18.7697488 98.547609,19.5645395 96.239144,19.5645395 C94.197842,19.5645395 92.364912,18.858307 90.740353,17.4450977 C88.95133,15.8815628 88.056074,13.8328186 88.056074,11.3003535" id="Fill-10"></path>
            <path d="M111.232112,10.7263628 L111.989693,10.7263628 C114.249786,10.7263628 115.37946,9.863107 115.37946,8.1358512 C115.37946,6.5172465 114.281042,5.7083163 112.081972,5.7083163 L111.232112,5.7083163 L111.232112,10.7263628 Z M114.202158,12.5392 L119.097414,19.2785488 L116.178716,19.2785488 L111.662251,12.8056186 L111.232112,12.8056186 L111.232112,19.2785488 L108.846251,19.2785488 L108.846251,3.4653395 L111.641414,3.4653395 C113.731088,3.4653395 115.240298,3.8575256 116.168298,4.643386 C117.192298,5.5170605 117.705042,6.6705488 117.705042,8.1045953 C117.705042,9.2245953 117.384298,10.1868279 116.742065,10.9927814 C116.100577,11.7987349 115.253693,12.3137116 114.202158,12.5392 L114.202158,12.5392 Z" id="Fill-12"></path>
            <polygon id="Fill-14" points="125.231219 12.4470695 120.069544 3.46548807 122.814103 3.46548807 126.429358 9.78437179 130.055033 3.46548807 132.799591 3.46548807 127.617079 12.4470695 127.617079 19.2779532 125.231219 19.2779532"></polygon>
            <polygon id="Fill-17" points="33.893693 2.4717767 26.0693209 19.2784744 28.6397395 19.2784744 33.8520186 7.8180093 38.8298791 19.2784744 41.4419721 19.2784744"></polygon>
            <path d="M38.4406698,12.5958326 C36.9173209,12.9418791 35.3470884,13.1242047 33.753786,13.1242047 C32.1969488,13.1242047 30.6602047,12.9522977 29.1688558,12.6211349 L28.1433674,14.8231814 C29.9621581,15.269693 31.8427163,15.5093209 33.753786,15.5093209 C35.689414,15.5093209 37.5930419,15.2637395 39.433414,14.8060651 L38.4406698,12.5958326 Z" id="Fill-19"></path>
            <polygon id="Fill-21" points="72.204093 19.2783256 74.589953 19.2783256 74.589953 3.4651163 72.204093 3.4651163"></polygon>
            <polygon id="Fill-23" points="81.411163 19.2783256 83.797023 19.2783256 83.797023 3.4651163 81.411163 3.4651163"></polygon>
            <path d="M77.999293,9.5795721 C76.016781,9.5795721 74.069247,9.299014 72.203572,8.7669209 L72.203572,11.2331535 C74.079665,11.7094326 76.023479,11.9646884 77.999293,11.9646884 C79.975851,11.9646884 81.920409,11.7094326 83.797247,11.2324093 L83.797247,8.7669209 C81.930828,9.299014 79.982549,9.5795721 77.999293,9.5795721" id="Fill-24"></path>
            <path d="M10,20.2560317 C5.01797776,20.2560317 0.964785991,16.103871 0.964785991,11.0002 C0.964785991,5.89652903 5.01797776,1.7443683 10,1.7443683 C14.9820222,1.7443683 19.035214,5.89652903 19.035214,11.0002 C19.035214,16.103871 14.9820222,20.2560317 10,20.2560317 M10,0.78264051 C4.4915366,0.78264051 0.0259815,5.35723347 0.0259815,11.0002 C0.0259815,16.6431665 4.4915366,21.2177595 10,21.2177595 C15.5084634,21.2177595 19.9740185,16.6431665 19.9740185,11.0002 C19.9740185,5.35723347 15.5084634,0.78264051 10,0.78264051" id="Fill-1"></path>
            <path d="M10.7040722,8.17565147 C10.7040722,8.57349769 10.3883322,8.89694731 9.99996883,8.89694731 C9.61191717,8.89694731 9.29586546,8.57349769 9.29586546,8.17565147 C9.29586546,7.77780525 9.61191717,7.45435563 9.99996883,7.45435563 C10.3883322,7.45435563 10.7040722,7.77780525 10.7040722,8.17565147 L10.7040722,8.17565147 Z M11.3514483,9.13035468 L12.094201,10.4484199 C11.5303573,10.9937821 10.7835527,11.3009475 9.99996883,11.3009475 C9.21669669,11.3009475 8.46989206,10.9937821 7.90604832,10.4484199 L8.64880101,9.13035468 C8.94552806,9.56970974 9.44017704,9.8586751 9.99996883,9.8586751 C10.5597606,9.8586751 11.0547213,9.56970974 11.3514483,9.13035468 L11.3514483,9.13035468 Z M4.24153159,15.0271637 L5.32527104,15.0271637 L7.42667206,11.2987124 C8.14137282,11.9175133 9.05025526,12.2626753 9.99996883,12.2626753 C10.9499941,12.2626753 11.8585648,11.9175133 12.5735773,11.2987124 L14.6746666,15.0271637 L15.7587178,15.0271637 L9.99996883,4.80928492 L4.24153159,15.0271637 Z" id="Fill-4"></path>
        </g>
    </g>
</svg>