<svg width="30px" height="29px" viewBox="88 0 30 29" version="1.1" xmlns="http://www.w3.org/2000/svg" xmlns:xlink="http://www.w3.org/1999/xlink">
    <path d="M88,14.4320207 C88,20.8081565 92.1534117,26.216842 97.9162037,28.1260504 C98.641671,28.258056 98.9060438,27.8124264 98.9060438,27.4296988 C98.9060438,27.0877245 98.8935818,26.1796324 98.8864606,24.9756351 C94.8532183,25.8474036 94.0022407,23.0407343 94.0022407,23.0407343 C93.342644,21.3733885 92.3919703,20.9295308 92.3919703,20.9295308 C91.0754474,20.0347278 92.4916664,20.0524467 92.4916664,20.0524467 C93.9470518,20.1543302 94.7125756,21.5399459 94.7125756,21.5399459 C96.0059548,23.7450595 98.1058044,23.108066 98.9327481,22.7386276 C99.0644894,21.8066149 99.4383499,21.1705075 99.8531569,20.8099284 C96.6335062,20.4458056 93.2482888,19.2072565 93.2482888,13.6771968 C93.2482888,12.1019891 93.8135302,10.8138272 94.7410602,9.80473745 C94.591516,9.4397287 94.0939255,7.97260616 94.8825931,5.98543474 C94.8825931,5.98543474 96.10031,5.59739145 98.870438,7.46496049 C100.026735,7.14424892 101.267596,6.98477908 102.500445,6.97857747 C103.731514,6.98477908 104.972375,7.14424892 106.130452,7.46496049 C108.8988,5.59739145 110.113846,5.98543474 110.113846,5.98543474 C110.905184,7.97260616 110.407594,9.4397287 110.25805,9.80473745 C111.18736,10.8138272 111.749041,12.1019891 111.749041,13.6771968 C111.749041,19.2214316 108.358482,20.4413759 105.12815,20.7984112 C105.648884,21.2440408 106.112649,22.1246687 106.112649,23.4713029 C106.112649,25.4000021 106.094846,26.9566049 106.094846,27.4296988 C106.094846,27.8159702 106.355659,28.2651435 107.091808,28.1242785 C112.849259,26.2115264 117,20.8063847 117,14.4320207 C117,6.46118643 110.50729,0 102.498665,0 C94.4918199,0 88,6.46118643 88,14.4320207 Z" id="Fill-1" stroke="none" fill-rule="evenodd"></path>
</svg>