<svg width="112px" height="16px" viewBox="128 -8 112 16">
<path d="M128.41-7.14h2.76v5.39h4.78v-5.39h2.75V7.14h-2.75V0.88h-4.78v6.26h-2.76V-7.14z M146.29-7.14h2.76l5.5,14.28h-2.83
	l-1.11-2.94h-5.82l-1.17,2.94h-2.83L146.29-7.14z M147.69-3.35l-1.91,4.9h3.8L147.69-3.35z M169.78-4.63l-1.91,1.82
	c-1.29-1.36-2.75-2.05-4.37-2.05c-1.37,0-2.52,0.47-3.45,1.4c-0.94,0.93-1.4,2.08-1.4,3.45c0,0.95,0.21,1.8,0.62,2.53
	c0.41,0.74,1,1.32,1.76,1.74c0.76,0.42,1.6,0.63,2.52,0.63c0.79,0,1.51-0.15,2.16-0.44c0.66-0.29,1.37-0.83,2.16-1.61l1.85,1.92
	c-1.06,1.03-2.05,1.74-2.99,2.14c-0.94,0.4-2.01,0.6-3.21,0.6c-2.22,0-4.04-0.7-5.45-2.11c-1.41-1.41-2.12-3.21-2.12-5.41
	c0-1.42,0.32-2.69,0.97-3.8c0.65-1.11,1.57-1.99,2.77-2.67s2.49-1.01,3.88-1.01c1.18,0,2.31,0.25,3.4,0.75
	C168.05-6.25,168.99-5.55,169.78-4.63L169.78-4.63z M172.18-7.14h2.75v4.91l3.87-4.91h3.27l-4.99,6.37l5.48,7.91h-3.23l-4.41-6.34
	v6.34h-2.75V-7.14z M184.5-7.14h7.8v2.66h-5.1v2.58h5.1v2.61h-5.1v3.76h5.1v2.67h-7.8V-7.14z M195.02-7.14h2.88
	c1.58,0,2.7,0.14,3.37,0.42c0.67,0.28,1.21,0.75,1.61,1.4c0.41,0.65,0.62,1.43,0.62,2.32c0,0.94-0.23,1.73-0.67,2.36
	c-0.45,0.63-1.13,1.11-2.04,1.43l3.38,6.35h-2.97l-3.21-6.05h-0.25v6.05h-2.72V-7.14z M197.73-1.56h0.85c0.87,0,1.47-0.12,1.79-0.34
	c0.33-0.23,0.49-0.6,0.49-1.13c0-0.31-0.08-0.58-0.24-0.81c-0.16-0.23-0.38-0.4-0.65-0.5c-0.27-0.1-0.77-0.15-1.5-0.15h-0.75V-1.56z
	 M206.51-7.14h2.82c1.13,0,2,0.13,2.61,0.4c0.61,0.27,1.09,0.68,1.44,1.24c0.35,0.56,0.53,1.17,0.53,1.85
	c0,0.63-0.16,1.21-0.47,1.73c-0.31,0.52-0.77,0.94-1.37,1.27c0.75,0.25,1.32,0.55,1.72,0.89c0.4,0.34,0.71,0.75,0.94,1.23
	c0.22,0.48,0.34,1,0.34,1.57c0,1.14-0.42,2.11-1.26,2.91c-0.84,0.79-1.96,1.19-3.37,1.19h-3.92V-7.14z M207.91-5.74v4.57h0.82
	c0.99,0,1.72-0.09,2.18-0.28c0.47-0.19,0.84-0.48,1.11-0.88c0.27-0.4,0.41-0.84,0.41-1.32c0-0.65-0.23-1.17-0.69-1.54
	c-0.45-0.37-1.18-0.56-2.18-0.56H207.91z M207.91,0.27v5.48h1.77c1.04,0,1.8-0.1,2.29-0.31c0.48-0.21,0.88-0.52,1.17-0.95
	c0.29-0.44,0.44-0.91,0.44-1.41c0-0.63-0.21-1.19-0.62-1.66c-0.41-0.47-0.98-0.8-1.71-0.97c-0.49-0.12-1.33-0.18-2.54-0.18H207.91z
	 M223.73-7.14l6.66,14.28h-1.53l-2.24-4.7h-6.16l-2.23,4.7h-1.59l6.75-14.28H223.73z M223.55-4.11l-2.46,5.18h4.88L223.55-4.11z
	 M229.05-7.14h1.65l3.65,5.88l3.59-5.88h1.65l-4.53,7.45v6.83h-1.41V0.32L229.05-7.14z"/>
</svg>
