<svg width="27px" height="27px" viewBox="-1 0 27 27" version="1.1" xmlns="http://www.w3.org/2000/svg" xmlns:xlink="http://www.w3.org/1999/xlink">
    <g id="Group-17" stroke="none" stroke-width="1" fill="none" fill-rule="evenodd" transform="translate(0.000000, 1.000000)">
        <polygon id="Fill-1" fill="rgba(42,189,60,.3)" points="0.424 25.7197 5.768 25.7197 5.768 8.5397 0.424 8.5397"></polygon>
        <path d="M3.0977,6.1928 C1.3827,6.1928 -0.0003,4.8058 -0.0003,3.0958 C-0.0003,1.3868 1.3827,-0.0002 3.0977,-0.0002 C4.8057,-0.0002 6.1927,1.3868 6.1927,3.0958 C6.1927,4.8058 4.8057,6.1928 3.0977,6.1928" id="Fill-2" fill="rgba(42,189,60,.3)"></path>
        <path d="M25.7666,25.7197 L20.4276,25.7197 L20.4276,17.3647 C20.4276,15.3727 20.3936,12.8097 17.6536,12.8097 C14.8746,12.8097 14.4506,14.9817 14.4506,17.2227 L14.4506,25.7197 L9.1176,25.7197 L9.1176,8.5397 L14.2366,8.5397 L14.2366,10.8887 L14.3096,10.8887 C15.0216,9.5377 16.7636,8.1137 19.3616,8.1137 C24.7676,8.1137 25.7666,11.6707 25.7666,16.2977 L25.7666,25.7197 Z" id="Fill-5" fill="rgba(42,189,60,.3)"></path>
    </g>
</svg>