<?xml version="1.0" encoding="UTF-8"?>
<svg width="77px" height="34px" viewBox="0 0 77 34" version="1.1" xmlns="http://www.w3.org/2000/svg" xmlns:xlink="http://www.w3.org/1999/xlink">
    <!-- Generator: Sketch 42 (36781) - http://www.bohemiancoding.com/sketch -->
    <title>standupjack</title>
    <desc>Created with Sketch.</desc>
    <defs></defs>
    <g id="Page-1" stroke="none" stroke-width="1" fill="none" fill-rule="evenodd">
        <path d="M55.5,30 L53.5,31.6 C52.5,32.1 51.7,32.4 50.8,32.6 C49.8,33 49,33.1 48.1,33.1 C46.7,33.3 45.4,33.1 44.4,32.3 C43.4,31.6 42.7,30.7 42.2,29.6 L41.8,30.2 C41.2,30.9 40.8,31.5 40.1,32 L38.1,33 C37.4,33.4 36.7,33.5 36.1,33.5 C34.7,33.5 33.7,33 33.1,32.3 C32.4,31.7 32.1,30.8 32.1,29.7 C31.4,30.7 30.5,31.5 29.4,32.3 C28.4,33 27.4,33.3 26.2,33.3 C25.2,33.3 24.2,33.1 23.6,32.3 C23,31.7 22.6,30.8 22.4,29.7 C22.4,28.5 22.4,27.3 22.8,25.7 C23.2,24.4 23.8,23 24.8,21.7 C26.8,18.7 28.8,16.7 30.4,15.7 C32.2,14.4 33.7,13.7 34.9,13.7 C35.9,13.7 36.7,14.1 37.2,14.7 C37.6,15.5 37.9,16.3 37.8,17.2 L38.8,15.5 L39.5,14.2 C39.9,13.6 40.3,13.5 40.7,13.9 C41,14.4 41.2,15.1 41.3,15.9 C41.5,16.9 41.3,17.9 40.7,19.2 L39.7,21.2 L38.4,23.2 L37.4,25.4 C36.9,26.2 36.4,26.8 36.2,27.4 L35.6,29.4 C35.4,29.9 35.3,30.4 35.4,30.8 C35.4,31.2 35.4,31.6 35.7,31.8 C35.9,32 36.2,32.1 36.7,32.1 C37.1,32.1 37.7,31.8 38.2,31.4 L39.8,29.9 L41.5,27.9 L42.2,26.9 L42.2,25.7 C42.4,24.3 42.8,22.7 43.6,21.3 C44.4,19.8 45.3,18.5 46.2,17.3 C47.2,16.3 48.2,15.5 49,14.9 C50,14.3 51,13.9 51.7,13.9 C52.7,13.7 53.4,13.9 54,14.1 C55.2,14.9 56,15.7 56.7,16.8 C56.9,17.3 57,17.8 56.9,18.3 C56.9,18.9 56.7,19.5 56.4,20.1 L55.6,21.9 L54.6,23.9 C54.6,24.1 54.6,24.3 54.4,24.4 C54.2,24.4 54,24.4 53.7,24.2 C53.2,24.2 52.7,23.6 52.5,22.9 C52.3,22.2 52.3,21.3 52.5,20.2 C52.8,19.8 52.9,19.2 53.2,18.9 L53.7,17.6 L54.1,16.6 C54.1,16.2 54.1,16 53.9,15.9 C53.7,15.7 53.4,15.9 52.9,16.1 C52.4,16.1 51.9,16.7 51.2,17.3 C50.5,17.9 49.9,18.6 49.2,19.5 L47.4,22.5 C46.7,23.9 46.4,25.1 46.1,26.2 C45.8,27.5 45.8,28.5 45.9,29.2 C46.1,30.2 46.4,30.8 46.9,31.2 C47.3,31.8 47.9,32 48.6,32 C49.6,32 50.4,31.8 51.4,31.4 C52.4,31 53.1,30.4 54,29.8 L56.2,27.6 L56.9,26.6 L57.9,24.6 C58.4,23.2 58.9,21.6 59.9,20.1 L62.3,15.1 L65,9.9 L67.2,5 C68,3.6 68.8,2.4 69.5,1.5 C70,0.9 70.5,0.8 70.7,1.5 C71.1,2.2 71.2,3.1 71.1,4.1 C71.1,5.1 70.5,6.6 69.5,8.4 L68.5,10 C68.1,10.6 67.7,11.2 67.5,12 C67,12.6 66.5,13.3 66.2,14 L65.2,16 L67.5,14 L69.5,13.2 C70.5,12.9 71.2,12.9 71.8,13.2 C72.4,13.6 72.8,14.2 73.4,15.2 C73.9,16.2 74,17.2 73.9,18.2 C73.9,19.2 73.3,20 72.4,20.8 C71.6,21.6 70.7,22.4 69.6,23 C68.6,23.7 67.3,24.3 65.8,24.7 C65.8,26.7 66.2,28.3 66.8,29.5 C67.4,30.8 68.2,31.5 69.1,31.5 C69.5,31.5 70.1,31.5 70.6,31 L72.2,29.5 L73.9,27.5 C74.4,26.5 74.9,25.8 75.1,25.1 C75.1,24.9 75.4,24.8 75.5,24.7 C75.7,24.7 75.9,24.9 76,25.1 L76,26.4 C76,26.9 75.7,27.4 75.3,28.1 L74.3,29.7 L72.7,31.3 C72.2,31.8 71.5,32.3 70.7,32.6 C70,32.9 69.2,33.1 68.2,33.1 C67.4,33.1 66.6,32.9 65.8,32.5 C65.1,32.1 64.4,31.5 63.8,30.8 C63.3,30.1 62.8,29.1 62.6,28 C62.3,26.8 62.1,25.4 62.2,23.8 L62.2,22.8 L63.2,22.5 C64.6,22 65.9,21.5 67,20.7 C68.2,20 69,19.3 69.8,18.5 C70.5,17.8 71,17.2 71.3,16.5 C71.6,15.9 71.7,15.5 71.5,15.1 C71.2,14.8 70.5,14.7 69.7,15.1 C68.7,15.1 67.7,15.9 66.3,16.8 C65.5,17.5 64.6,18.3 63.9,19.2 C62.9,20.2 62.3,21.2 61.6,22.5 C60.9,23.8 60.1,25.2 59.4,26.9 L57,32.4 C57,32.6 56.8,32.7 56.6,32.8 C56.4,32.8 56.3,32.8 56.1,32.5 C55.8,32.1 55.6,31.5 55.6,30.7 L55.6,30 L55.5,30 Z M4.5,21.5 L5.2,21.5 L5.2,22.5 C4.6,24.2 4.2,25.5 4.2,26.7 C4,27.9 4.2,28.7 4.2,29.5 C4.4,30.2 4.7,30.7 5.2,31.1 C5.4,31.5 5.8,31.7 6.2,31.8 C7.2,32.1 8.2,31.8 9.2,31.2 C10.2,30.6 11.2,29.6 12.2,28.2 C13,27.2 13.8,25.6 14.7,24 L17.1,19 L19.4,14.7 L21.7,10 L23.9,6 C24.5,4.7 25.1,3.8 25.4,3.3 C25.8,2.8 26.2,2.8 26.6,3.3 C26.9,4 27.1,4.7 27.1,5.7 C27.1,6.7 26.9,7.9 26.3,9.4 L24.5,13 L22,17.6 C21.3,19.3 20.4,20.9 19.6,22.6 C18.8,24.2 18,25.6 17.3,26.6 C16.3,28.1 15.5,29.4 14.5,30.3 C13.5,31.3 12.5,32 11.7,32.3 C10.7,32.9 9.7,33.3 8.7,33.3 L5.7,33.3 C4,32.9 2.7,32 1.7,30.5 C0.9,29 0.7,27.3 1.3,25.2 C1.6,24.2 2,23.2 2.6,22.7 C3.2,22.1 3.8,21.7 4.6,21.5 L4.5,21.5 Z M33.5,24.3 C35,21.7 35.9,19.7 36.1,18.3 C36.5,16.8 36.3,16 35.6,16 C35.2,16 34.6,16 34.1,16.5 L32,18 C31.4,18.6 30.7,19.3 30,20.3 C29.2,21.3 28.5,22.1 28,23.3 C27.2,24.3 26.7,25.3 26.3,26.3 C26,27.3 25.7,28.1 25.6,28.9 L25.6,30.7 C25.8,31.2 26.1,31.4 26.6,31.4 C27.1,31.4 27.6,31.4 28.1,30.9 C28.8,30.6 29.4,30.1 29.9,29.4 C30.5,28.8 31.1,28 31.7,27.1 C32.3,26.1 32.9,25.3 33.5,24.1 L33.5,24.3 Z" id="standupjack" stroke="#27AE60" fill="#27AE60"></path>
    </g>
</svg>