<svg width="31px" height="25px" viewBox="42 2 31 25" version="1.1" xmlns="http://www.w3.org/2000/svg" xmlns:xlink="http://www.w3.org/1999/xlink">
    <path d="M51.74888,26.7298199 C63.44704,26.7298199 69.84544,17.2146895 69.84544,8.96321123 C69.84544,8.69295036 69.84544,8.42390688 69.82684,8.15608079 C71.071552,7.27213297 72.146136,6.17769818 73,4.92390688 C71.839236,5.42888079 70.607792,5.76001123 69.34696,5.90634166 C70.674628,5.12599384 71.668364,3.89861992 72.14316,2.45260253 C70.894728,3.17999384 69.528744,3.69251558 68.10448,3.96825471 C65.69578,1.45373297 61.666896,1.33235905 59.105552,3.69714166 C57.453872,5.22216775 56.7529,7.4946721 57.26564,9.66321123 C52.151756,9.41145471 47.38718,7.04009818 44.1576,3.13921123 C42.469464,5.99228949 43.33176,9.64239384 46.12672,11.4746895 C45.114508,11.4452286 44.124492,11.1771591 43.24,10.6931243 L43.24,10.7722547 C43.240868,13.7446373 45.375032,16.3046895 48.3426,16.8932982 C47.406276,17.1439591 46.423824,17.1806025 45.47076,17.0004286 C46.303916,19.544046 48.691784,21.2866199 51.41284,21.3367764 C49.160628,23.0744808 46.378564,24.0178373 43.51404,24.0150373 C43.007996,24.0140634 42.502448,23.9839938 42,23.9249504 C44.908544,25.7574895 48.292876,26.7294547 51.74888,26.7249504" id="Page-1" stroke="none" fill-rule="evenodd"></path>
</svg>