<?xml version="1.0" encoding="UTF-8" standalone="no"?>
<svg width="42px" height="50px" viewBox="0 0 42 50" version="1.1" xmlns="http://www.w3.org/2000/svg" xmlns:xlink="http://www.w3.org/1999/xlink">
    <!-- Generator: Sketch 41.2 (35397) - http://www.bohemiancoding.com/sketch -->
    <title>Group 10</title>
    <desc>Created with Sketch.</desc>
    <defs>
        <polygon id="path-1" points="6.01911675e-14 34.9156063 6.01911675e-14 49.4627289 41.9771154 49.4627289 41.9771154 0.0814995641 6.01911675e-14 0.0814995641 6.01911675e-14 34.9156063 6.12337115 34.9156063 6.12337115 16.0544884 -1.34615384e-05 16.0544884 -1.34615384e-05 34.9156063"></polygon>
    </defs>
    <g id="Overview-pages" stroke="none" stroke-width="1" fill="none" fill-rule="evenodd">
        <g id="Start" transform="translate(-900.000000, -866.000000)">
            <g id="Group-21" transform="translate(258.000000, 845.000000)">
                <g id="Group-14" transform="translate(616.000000, 0.000000)">
                    <g id="Group-10" transform="translate(26.000000, 21.500000)">
                        <g id="Group-3" transform="translate(0.000000, 0.052546)">
                            <mask id="mask-2" fill="white">
                                <use xlink:href="#path-1"></use>
                            </mask>
                            <g id="Clip-2"></g>
                            <path d="M3.06046731,16.0544892 C1.37023654,16.0536849 0.000390384615,17.4204112 -1.34615384e-05,19.1020099 L0.002275,31.8650025 C0.00267884615,33.5523652 1.37508269,34.9141318 3.06315962,34.9156063 C4.75473654,34.9137296 6.12485192,33.5514269 6.12310192,31.8651366 L6.12337115,19.1004014 C6.12269808,17.4192048 4.75096731,16.0532828 3.06046731,16.0544892" id="Fill-1" fill="#FFFFFF" mask="url(#mask-2)"></path>
                        </g>
                        <path d="M27.2634923,10.646524 C26.6262231,10.6471942 26.1062038,10.1333984 26.1074154,9.49561072 C26.1074154,8.86465933 26.6254154,8.34456343 27.2640308,8.34228466 C27.8979346,8.34416129 28.4179538,8.86452528 28.4174154,9.496415 C28.4178192,10.1317899 27.9006269,10.646658 27.2634923,10.646524 M14.7096654,10.6488027 C14.0746846,10.6473282 13.5574923,10.1333984 13.5573577,9.49855972 C13.5576269,8.86613383 14.07455,8.34630602 14.7107423,8.34630602 C15.3498962,8.34576983 15.8669538,8.86613383 15.8677615,9.49829163 C15.8680308,10.1327282 15.3498962,10.6484006 14.7096654,10.6488027 M27.7428577,4.64598452 L29.8790692,0.761216652 C29.9929538,0.558272014 29.9185115,0.298224063 29.7124154,0.185760026 C29.5034923,0.0736981255 29.2457038,0.150238012 29.1355885,0.354255013 L26.9770308,4.27789603 C25.1616077,3.4756347 23.12905,3.02376787 20.9803192,3.0259126 C18.8360308,3.02417001 16.8071077,3.47362402 14.9969346,4.27360658 L12.8368962,0.358678509 C12.7254346,0.152248692 12.4650885,0.0767811683 12.2619538,0.190451613 C12.0542423,0.300770924 11.9783192,0.560282694 12.0934154,0.762825196 L14.2308385,4.64424194 C10.0313769,6.80129948 7.19435769,10.9077783 7.19651154,15.6224209 L34.7670885,15.6196059 C34.7678962,10.9056336 31.9358577,6.80773365 27.7428577,4.64598452" id="Fill-4" fill="#FFFFFF"></path>
                        <path d="M7.31399038,36.4597415 C7.312375,38.2607746 8.77227885,39.7146303 10.5793558,39.7139601 L12.8032019,39.7140942 L12.8057596,46.4671641 C12.8054904,48.1482267 14.1770865,49.515087 15.8642212,49.515221 C17.5555288,49.515221 18.9256442,48.1471543 18.9241635,46.4648854 L18.9244327,39.7132899 L23.0565865,39.7126197 L23.0563173,46.4654215 C23.0577981,48.1467522 24.4312788,49.5148189 26.1180096,49.5120039 C27.8090481,49.5130763 29.1801058,48.1450096 29.1798365,46.4626066 L29.1779519,39.7116813 L31.409875,39.7110111 C33.2107596,39.7116813 34.6757788,38.2543405 34.6756442,36.4571946 L34.6721442,16.677599 L7.30900962,16.6825586 L7.31399038,36.4597415 Z" id="Fill-6" fill="#FFFFFF"></path>
                        <path d="M38.9141712,16.1029064 C37.224075,16.1015659 35.8540942,17.4682922 35.8546327,19.1514995 L35.8557096,31.914358 C35.8565173,33.599576 37.2256904,34.9629511 38.9172673,34.9618787 C40.6073635,34.9616106 41.9755942,33.5993079 41.977075,31.9132856 L41.9737096,19.1506952 C41.9734404,17.4670858 40.6045365,16.1025043 38.9141712,16.1029064" id="Fill-8" fill="#FFFFFF"></path>
                        <path d="M41.9748269,19.1499579 C41.9745577,17.4667507 40.6044423,16.1025713 38.9142115,16.1028394 C37.2241154,16.101633 35.8541346,17.4682252 35.8545385,19.1515665 L35.8566923,31.9146931 C35.8565577,33.599643 37.226,34.9614095 38.9173077,34.9619457 C40.6074038,34.9616776 41.9767115,33.599643 41.9771154,31.9133527 L41.9748269,19.1499579 Z M7.30907692,16.6824514 L7.31378846,36.4615109 C7.31230769,38.2606674 8.77369231,39.7127805 10.5795577,39.7131827 L12.8032692,39.714121 L12.8058269,46.4671909 C12.8054231,48.1482535 14.1779615,49.5152478 15.8642885,49.5152478 C17.5555962,49.5152478 18.9257115,48.1471811 18.9261154,46.4650462 L18.9245,39.7133167 L23.0566538,39.7125124 L23.0584038,46.4653143 C23.058,48.1455726 24.4313462,49.5147116 26.1179423,49.5120307 C27.8091154,49.5131031 29.1800385,48.1450364 29.1797692,46.4626334 L29.1778846,39.7115741 L31.4094038,39.7099656 C33.2108269,39.7106358 34.67625,38.2563779 34.6766538,36.4572214 L34.6732885,16.6778939 L7.30907692,16.6824514 Z M27.2635192,10.646524 C26.6261154,10.6471942 26.1073077,10.1325942 26.1074423,9.49561072 C26.1095962,8.86506146 26.6254423,8.34456343 27.2640577,8.34228466 C27.8979615,8.34416129 28.4179808,8.86452528 28.4174423,9.496415 C28.4189231,10.1319239 27.9006538,10.646658 27.2635192,10.646524 L27.2635192,10.646524 Z M14.7096923,10.6488027 C14.0747115,10.6473282 13.5575192,10.1333984 13.5573846,9.49855972 C13.5576538,8.86613383 14.0736346,8.34617197 14.7106346,8.34630602 C15.3499231,8.34576983 15.8669808,8.86613383 15.8677885,9.49829163 C15.8680577,10.1327282 15.3497885,10.6484006 14.7096923,10.6488027 L14.7096923,10.6488027 Z M27.74275,4.64598452 L29.8790962,0.761216652 C29.9929808,0.558272014 29.9182692,0.299698561 29.7115,0.185089799 C29.50325,0.0751726242 29.2457308,0.149835876 29.1356154,0.354255013 L26.9778654,4.27950458 C25.1617692,3.47509852 23.1302885,3.02349978 20.9803462,3.0259126 C18.8360577,3.02417001 16.8051154,3.47375806 14.9969615,4.27360658 L12.8369231,0.358678509 C12.7243846,0.152114647 12.4661923,0.0774513949 12.2621154,0.189915432 C12.0541346,0.301307105 11.9783462,0.560282694 12.0934423,0.762825196 L14.2307308,4.64464407 C10.0314038,6.80129948 7.19425,10.9077783 7.19653846,15.6224209 L34.7671154,15.6196059 C34.7679231,10.9056336 31.9358846,6.80773365 27.74275,4.64598452 L27.74275,4.64598452 Z M3.06048077,16.1069948 C1.37025,16.1061905 0.000403846154,17.4730508 0,19.1546495 L0.00228846154,31.9175081 C0.00269230769,33.6048707 1.37307692,34.9663692 3.06344231,34.9661011 C4.75475,34.9662352 6.12486538,33.6039324 6.12311538,31.9176421 L6.12338462,19.1529069 C6.12271154,17.4717103 4.75084615,16.1057884 3.06048077,16.1069948 L3.06048077,16.1069948 Z" id="Fill-10" fill="#A4C439"></path>
                    </g>
                </g>
            </g>
        </g>
    </g>
</svg>