<?xml version="1.0" encoding="UTF-8" standalone="no"?>
<svg width="41px" height="45px" viewBox="0 0 41 45" version="1.1" xmlns="http://www.w3.org/2000/svg" xmlns:xlink="http://www.w3.org/1999/xlink">
    <!-- Generator: Sketch 41.2 (35397) - http://www.bohemiancoding.com/sketch -->
    <title>Group 19</title>
    <desc>Created with Sketch.</desc>
    <defs>
        <polygon id="path-1" points="40.0735784 44.4330576 0 44.4330576 0 1.8722767e-05 40.0735784 1.8722767e-05"></polygon>
    </defs>
    <g id="Overview-pages" stroke="none" stroke-width="1" fill="none" fill-rule="evenodd">
        <g id="quickstart-1" transform="translate(-525.000000, -392.000000)">
            <g id="Group-8" transform="translate(501.000000, 366.000000)">
                <g id="Group-19" transform="translate(24.500000, 26.000000)">
                    <polygon id="Fill-1" fill="#0A2C49" points="24.8655699 12.59239 20.2552263 12.59239 13.5986646 29.648269 17.7688533 29.648269 18.8566296 26.7591588 25.1462374 26.7591588 24.0076375 23.5622464 19.8664638 23.5622464 22.5603033 16.2234835 27.3523222 29.648269 31.5221316 29.648269"></polygon>
                    <mask id="mask-2" fill="white">
                        <use xlink:href="#path-1"></use>
                    </mask>
                    <g id="Clip-11"></g>
                    <path d="M39.1219637,34.8247396 C38.801851,34.8247396 38.5192871,34.9812619 38.3467145,35.2212878 C38.3467145,35.2212878 37.5170385,36.1557411 37.0698668,36.5981601 C35.177447,38.466505 32.9738275,39.9330593 30.5210208,40.9573819 C27.9823071,42.0176522 25.2848645,42.5551828 22.5028423,42.5551828 C19.7204409,42.5551828 17.0229982,42.0176522 14.4846638,40.9573819 C12.0314778,39.9328721 9.82804796,38.4663177 7.93581776,36.5981601 C6.04339792,34.7294407 4.55775637,32.5540424 3.52004503,30.1324397 C2.44668134,27.6258357 1.90184496,24.9625221 1.90184496,22.2160795 C1.90184496,19.4696368 2.44668134,16.806136 3.52004503,14.2997192 C4.55775637,11.8779293 6.04339792,9.70271821 7.93581776,7.8343733 C9.82823761,5.96602839 12.0316674,4.49947406 14.4846638,3.47477703 C17.0229982,2.41469397 19.7204409,1.87716333 22.5028423,1.87716333 C25.2848645,1.87716333 27.9824967,2.41469397 30.5210208,3.47477703 C32.307811,4.22087929 33.9612842,5.20288841 35.459442,6.40301777 C35.3794138,6.63574176 35.3346587,6.88531624 35.3346587,7.14500102 C35.3346587,8.41234511 36.3754043,9.43985056 37.6588894,9.43985056 C38.9427537,9.43985056 39.9834993,8.41234511 39.9834993,7.14500102 C39.9834993,5.87728248 38.9427537,4.85015148 37.6588894,4.85015148 C37.3402938,4.85015148 37.0363005,4.91362166 36.7596154,5.02857945 C32.8782489,1.88652471 27.9138469,1.8722767e-05 22.5028423,1.8722767e-05 C10.0747699,1.8722767e-05 -5.68920705e-05,9.94648863 -5.68920705e-05,22.2164539 C-5.68920705e-05,34.4864192 10.0747699,44.4330763 22.5028423,44.4330763 C29.4546738,44.4330763 35.667667,41.3183568 39.7949969,36.4275957 C39.966811,36.2577802 40.0735784,36.0231839 40.0735784,35.764248 C40.0733888,35.2446912 39.6478361,34.8247396 39.1219637,34.8247396" id="Fill-10" fill="#0A2C49" mask="url(#mask-2)"></path>
                </g>
            </g>
        </g>
    </g>
</svg>