<?xml version="1.0" encoding="UTF-8" standalone="no"?>
<svg width="44px" height="43px" viewBox="0 0 44 43" version="1.1" xmlns="http://www.w3.org/2000/svg" xmlns:xlink="http://www.w3.org/1999/xlink">
    <!-- Generator: Sketch 41.2 (35397) - http://www.bohemiancoding.com/sketch -->
    <title>Fill 1</title>
    <desc>Created with Sketch.</desc>
    <defs></defs>
    <g id="Overview-pages" stroke="none" stroke-width="1" fill="none" fill-rule="evenodd" opacity="0.200000018">
        <g id="Quickstart-2" transform="translate(-979.000000, -338.000000)" fill="#221E1B">
            <g id="Group-26" transform="translate(636.000000, 298.000000)">
                <g id="Group-25" transform="translate(252.000000, 0.000000)">
                    <g id="Page-1" transform="translate(91.000000, 40.000000)">
                        <path d="M21.8149554,0 C9.76808036,0 0.000669642857,9.79996875 0.000669642857,21.8896875 C0.000669642857,31.5606563 6.25111607,39.76425 14.9203125,42.6600313 C16.0118304,42.86025 16.4095982,42.1843438 16.4095982,41.6038438 C16.4095982,41.0851563 16.3908482,39.7078125 16.3801339,37.8816562 C10.3118304,39.2039063 9.03147321,34.9469063 9.03147321,34.9469063 C8.0390625,32.4193125 6.60870536,31.74475 6.60870536,31.74475 C4.62790179,30.3875625 6.75870536,30.4144375 6.75870536,30.4144375 C8.9484375,30.5689687 10.1002232,32.6705938 10.1002232,32.6705938 C12.0462054,36.0151875 15.2069196,35.0490313 16.4497768,34.4900313 C16.6479911,33.0750625 17.2104911,32.11025 17.8345982,31.5633438 C12.9904018,31.0110625 7.89709821,29.1325 7.89709821,20.7448125 C7.89709821,18.355625 8.74754464,16.4018125 10.1430804,14.8712813 C9.91808036,14.3176562 9.16941964,12.0924062 10.3560268,9.078375 C10.3560268,9.078375 12.1881696,8.4898125 16.3560268,11.3224375 C18.0957589,10.836 19.9627232,10.594125 21.8176339,10.5860625 C23.6698661,10.594125 25.5368304,10.836 27.2792411,11.3224375 C31.4444196,8.4898125 33.2725446,9.078375 33.2725446,9.078375 C34.4631696,12.0924062 33.7145089,14.3176562 33.4895089,14.8712813 C34.8877232,16.4018125 35.7328125,18.355625 35.7328125,20.7448125 C35.7328125,29.154 30.6314732,31.0043438 25.7712054,31.545875 C26.5546875,32.2217812 27.2524554,33.5574687 27.2524554,35.5999688 C27.2524554,38.5253125 27.2256696,40.8862813 27.2256696,41.6038438 C27.2256696,42.1897188 27.6180804,42.871 28.7256696,42.6573438 C37.3881696,39.7561875 43.6332589,31.5579688 43.6332589,21.8896875 C43.6332589,9.79996875 33.8645089,0 21.8149554,0" id="Fill-1"></path>
                    </g>
                </g>
            </g>
        </g>
    </g>
</svg>