<?xml version="1.0" encoding="UTF-8" standalone="no"?>
<svg width="48px" height="32px" viewBox="0 0 48 32" version="1.1" xmlns="http://www.w3.org/2000/svg" xmlns:xlink="http://www.w3.org/1999/xlink">
    <!-- Generator: Sketch 41.2 (35397) - http://www.bohemiancoding.com/sketch -->
    <title>Group 9</title>
    <desc>Created with Sketch.</desc>
    <defs></defs>
    <g id="Overview-pages" stroke="none" stroke-width="1" fill="none" fill-rule="evenodd">
        <g id="Start" transform="translate(-743.000000, -876.000000)" fill="#000000">
            <g id="Group-21" transform="translate(258.000000, 845.000000)">
                <g id="Group-12" transform="translate(462.000000, 0.000000)">
                    <g id="Group-9" transform="translate(23.000000, 31.500000)">
                        <path d="M0.403584,30.214925 L1.264896,30.214925 L1.264896,9.010925 L0.403584,9.010925 L0.403584,30.214925 Z M1.66848,2.4951125 C1.66848,3.0252125 1.348608,3.4173625 0.799872,3.4173625 C0.342912,3.4173625 0,3.0252125 0,2.4951125 C0,1.9874875 0.365568,1.572475 0.845568,1.572475 C1.348608,1.572475 1.66848,1.9874875 1.66848,2.4951125 L1.66848,2.4951125 Z" id="Fill-1"></path>
                        <path d="M6.566016,15.32795 C6.566016,23.433675 10.459008,29.73055 17.6352,29.73055 C24.861312,29.73055 29.005824,23.239925 29.005824,15.235725 C29.005824,7.8131625 25.684992,1.039275 18.107136,1.039275 C10.52928,1.039275 6.566016,7.4171375 6.566016,15.32795 M29.912832,15.107075 C29.912832,25.797425 24.031872,30.6570625 17.594496,30.6570625 C11.018496,30.6570625 5.693184,25.400625 5.693184,15.5492125 C5.693184,5.4339125 11.203968,0 18.0576,0 C24.772224,-0.000775 29.912832,5.3444 29.912832,15.107075" id="Fill-3"></path>
                        <path d="M33.07392,27.9174375 C34.518912,28.8892875 37.012992,29.8278125 39.158016,29.8278125 C43.229184,29.8278125 46.84992,26.953725 46.84992,22.7233875 C46.84992,18.797625 44.438016,16.7493 40.34304,14.9896625 C36.678144,13.4148625 33.38304,11.7056 33.38304,7.508975 C33.38304,3.1360375 36.797184,0.0430125 41.43744,0.0430125 C43.932672,0.0430125 45.81504,0.7498125 46.69056,1.3682625 L46.342656,2.1308625 C45.598464,1.60115 43.587072,0.926125 41.39904,0.926125 C36.494976,0.926125 34.358784,4.6655 34.358784,7.4183 C34.358784,11.22045 37.279488,12.4918375 41.044224,14.3030125 C45.42144,16.4672 47.741184,18.3756375 47.741184,22.528475 C47.741184,26.99015 44.589696,30.611725 38.986368,30.611725 C36.665856,30.611725 33.995904,29.8169625 32.682624,28.80055 L33.07392,27.9174375 Z" id="Fill-4"></path>
                    </g>
                </g>
            </g>
        </g>
    </g>
</svg>