<?xml version="1.0" encoding="UTF-8" standalone="no"?>
<svg width="47px" height="44px" viewBox="0 0 47 44" version="1.1" xmlns="http://www.w3.org/2000/svg" xmlns:xlink="http://www.w3.org/1999/xlink">
    <!-- Generator: Sketch 41.2 (35397) - http://www.bohemiancoding.com/sketch -->
    <title>Group 35</title>
    <desc>Created with Sketch.</desc>
    <defs></defs>
    <g id="Overview-pages" stroke="none" stroke-width="1" fill="none" fill-rule="evenodd">
        <g id="Start" transform="translate(-590.000000, -870.000000)" fill="#1A7F91">
            <g id="Group-21" transform="translate(258.000000, 845.000000)">
                <g id="Group-17" transform="translate(308.000000, 0.000000)">
                    <g id="Group-35" transform="translate(24.000000, 25.000000)">
                        <path d="M27.4125435,22.1861205 C27.4125435,24.5950745 25.5527662,26.5479914 23.2587013,26.5479914 C20.9646364,26.5479914 19.1048591,24.5950745 19.1048591,22.1861205 C19.1048591,19.7771665 20.9646364,17.8242496 23.2587013,17.8242496 C25.5527662,17.8242496 27.4125435,19.7771665 27.4125435,22.1861205 Z" id="Fill-1"></path>
                        <path d="M16.7673075,18.2985891 C14.0918644,23.1702303 12.1176571,28.3962676 11.3508436,32.6368474 C10.6883584,36.3005338 10.8165333,40.479816 12.59616,41.5576112 C13.9310663,42.3659576 17.151004,41.5992588 21.0660502,38.0055648 C23.9404623,35.3671576 26.9433805,31.2712576 29.750062,26.1605121 C32.3812069,21.3694707 34.2577927,16.5515627 35.034211,12.5944302 C35.5308471,10.06262 35.6408887,7.76643631 35.3523297,5.95402579 C35.1040116,4.39410939 34.570281,3.29466439 33.8494216,2.85819037 C33.1716184,2.44780046 32.069795,2.50292487 30.7468119,3.01373858 C29.2145097,3.60523912 27.4843148,4.75893906 25.7431075,6.35015639 C22.6183073,9.2057572 19.4306616,13.4492063 16.7673075,18.2985891 L16.7673075,18.2985891 Z M13.8225979,43.9376118 C12.9810157,43.9376118 12.2334947,43.74685 11.6033845,43.3652396 C9.22453209,41.9245276 8.40033799,37.7683733 9.3984955,32.2475856 C10.217142,27.7208632 12.2226479,22.3967497 15.0458066,17.2560944 L15.0458894,17.2560944 C17.8162216,12.2116894 21.1519969,7.77947836 24.4385061,4.77598068 C26.3600524,3.01999877 28.3043689,1.73335684 30.0611427,1.05517012 C31.9741606,0.316555229 33.627434,0.314903235 34.8421971,1.05047498 C37.3151934,2.54805037 38.1346679,7.13276647 36.9805147,13.0155146 C36.1624478,17.1852325 34.2059597,22.2238121 31.4715628,27.2030937 C28.5569098,32.5102526 25.4109955,36.7890021 22.373798,39.5766973 C20.4019919,41.3866733 18.3779387,42.7073985 16.5204798,43.3962797 C15.5474108,43.7571967 14.640582,43.9375248 13.8225979,43.9376118 L13.8225979,43.9376118 Z" id="Fill-6"></path>
                        <path d="M23.2586847,14.3608805 C17.9032447,14.3608805 12.605682,15.1758349 8.72425273,16.596723 C5.37092372,17.8244148 1.987207,20.0287825 1.987207,22.1861118 C1.987207,23.0515824 2.60382077,24.0826871 3.72344631,25.0895335 C5.03036612,26.2647963 6.90637233,27.3113775 9.14876982,28.1161591 C12.7613465,29.4128869 17.6405193,30.0982902 23.2586847,30.0982902 C28.5256113,30.0982902 33.437573,29.3984537 37.0898938,28.12781 C42.201901,26.3492219 44.5301624,23.8009787 44.5301624,22.1861118 C44.5301624,21.3644625 43.9341659,20.3896996 42.8518833,19.4414554 C41.5984525,18.3431407 39.7822281,17.3455976 37.599778,16.5566404 C33.682993,15.1407083 28.5899471,14.3608805 23.2586847,14.3608805 M23.2586847,32.1850186 C17.4244934,32.1850186 12.3230846,31.4608369 8.50607396,30.0908128 C6.02786123,29.2013448 3.92705223,28.0199957 2.43085096,26.6744906 C0.840588561,25.2443861 0,23.692295 0,22.1861118 C0,19.3024271 3.01691143,16.4763883 8.07004762,14.6263297 C12.213457,13.1095391 17.6075648,12.2741521 23.2586847,12.2741521 C28.8043171,12.2741521 34.1271338,13.0943233 38.2466139,14.5835518 C40.6551916,15.4542392 42.6879388,16.5800292 44.1251034,17.8392828 C45.6901945,19.2105241 46.5173694,20.7136641 46.5173694,22.1861118 C46.5173694,25.183871 43.1444996,28.2196261 37.7149532,30.1086369 C33.8663129,31.4477079 28.7323636,32.1850186 23.2586847,32.1850186" id="Fill-3"></path>
                        <path d="M16.773534,26.1719195 C19.4568431,31.0390395 22.7826824,35.4449926 25.898209,38.2602499 C28.5901293,40.6927666 32.1022692,42.6631598 33.8801571,41.5824954 C35.2138214,40.7718014 36.1892088,37.4595549 35.1796249,32.103184 C34.4383139,28.1703097 32.5585816,23.392919 29.7438685,18.2872164 C27.1048576,13.5006963 24.0671633,9.38731995 21.1901016,6.7049176 C19.3492855,4.98858352 17.509877,3.74167638 15.8704313,3.09913794 C14.4594315,2.54606798 13.2857374,2.48242276 12.5655404,2.92028793 C11.8883168,3.33198204 11.3836491,4.36195638 11.1442734,5.82057951 C10.8671408,7.51004695 10.9549091,9.66033358 11.3981391,12.0389431 C12.1935187,16.3077807 14.1025622,21.326971 16.773534,26.1720065 L16.773534,26.1719195 Z M32.6895717,43.9614527 C30.438563,43.9614527 27.5784753,42.5315221 24.6020532,39.84199 C21.2762139,36.8367534 17.8852936,32.3533306 15.0536892,27.2174574 L15.0536892,27.2173704 C12.2753254,22.1776606 10.2843924,16.9294518 9.44786104,12.4396819 C8.95875971,9.81457759 8.8681762,7.40318907 9.18596371,5.46627042 C9.53198613,3.35693584 10.3564286,1.8520569 11.5699497,1.11431148 C14.0407932,-0.387611256 18.232558,1.15665468 22.5095242,5.14447952 C25.5411741,7.97104003 28.7211193,12.2672659 31.4635478,17.2417655 C34.3866465,22.5437075 36.3457014,27.5426392 37.1289921,31.6980109 C37.6374687,34.3958029 37.7164602,36.8968338 37.3571069,38.9306114 C36.9751492,41.0923751 36.1171726,42.6337717 34.8757478,43.3884718 C34.242988,43.7731254 33.5063138,43.9614527 32.6895717,43.9614527 L32.6895717,43.9614527 Z" id="Fill-8"></path>
                    </g>
                </g>
            </g>
        </g>
    </g>
</svg>