<?xml version="1.0" encoding="UTF-8" standalone="no"?>
<svg width="55px" height="31px" viewBox="0 0 55 31" version="1.1" xmlns="http://www.w3.org/2000/svg" xmlns:xlink="http://www.w3.org/1999/xlink">
    <!-- Generator: Sketch 41.2 (35397) - http://www.bohemiancoding.com/sketch -->
    <title>Group 70</title>
    <desc>Created with Sketch.</desc>
    <defs></defs>
    <g id="Overview-pages" stroke="none" stroke-width="1" fill="none" fill-rule="evenodd">
        <g id="quickstart-1" transform="translate(-675.000000, -399.000000)" fill="#F26B00">
            <g id="Group-9" transform="translate(655.000000, 366.000000)">
                <g id="Group-70" transform="translate(20.000000, 33.000000)">
                    <path d="M10.2968257,4.88308559 C10.2968257,7.57267011 7.99379257,9.75209064 5.15358626,9.75209064 C2.31251771,9.75209064 0.0101312763,7.57267011 0.0101312763,4.88308559 C0.0101312763,2.19350106 2.31230215,0.0140805259 5.1533707,0.0140805259 C7.99390035,0.0140805259 10.2968257,2.19350106 10.2968257,4.88308559" id="Shape"></path>
                    <path d="M49.3824275,26.8575829 L20.5992559,26.8575829 C16.8000273,26.8575829 13.7093413,23.9318945 13.7093413,20.3353405 C13.7093413,16.7387864 16.8002428,13.8127919 20.5992559,13.8127919 L33.6168682,13.8127919 C35.860407,13.8127919 37.685869,12.0845604 37.685869,9.96044162 C37.685869,7.83632285 35.8602992,6.10809134 33.6168682,6.10809134 L5.15293958,6.10809134 C4.37401688,6.10809134 3.74253658,5.51017915 3.74253658,4.7729922 C3.74253658,4.03560118 4.37412466,3.43779102 5.1528318,3.43779102 L33.6166526,3.43779102 C37.4158812,3.43779102 40.5062438,6.36388756 40.5062438,9.96033958 C40.5062438,13.5567916 37.4157734,16.482582 33.6166526,16.482582 L20.5990403,16.482582 C18.3550704,16.482582 16.5297162,18.2108136 16.5297162,20.3353405 C16.5297162,22.4592551 18.355286,24.1873846 20.5990403,24.1873846 L49.3824275,24.1873846 C50.1613502,24.1873846 50.7928305,24.7852968 50.7928305,25.5224838 C50.7928305,26.2597728 50.1614579,26.8575829 49.3825352,26.8575829 L49.3824275,26.8575829 Z" id="Shape"></path>
                    <path d="M44.2396192,25.5226878 C44.2396192,22.8331033 46.54179,20.6536828 49.3828586,20.6536828 C52.2239271,20.6536828 54.526098,22.8331033 54.526098,25.5226878 C54.526098,28.2122724 52.2239271,30.3916929 49.3828586,30.3916929 C46.54179,30.3916929 44.2396192,28.2122724 44.2396192,25.5226878" id="Shape"></path>
                </g>
            </g>
        </g>
    </g>
</svg>