<?xml version="1.0" encoding="UTF-8" standalone="no"?>
<svg width="52px" height="45px" viewBox="0 0 52 45" version="1.1" xmlns="http://www.w3.org/2000/svg" xmlns:xlink="http://www.w3.org/1999/xlink">
    <!-- Generator: Sketch 41.2 (35397) - http://www.bohemiancoding.com/sketch -->
    <title>Page 1</title>
    <desc>Created with Sketch.</desc>
    <defs></defs>
    <g id="Overview-pages" stroke="none" stroke-width="1" fill="none" fill-rule="evenodd">
        <g id="Start" transform="translate(-1049.000000, -873.000000)">
            <g id="Group-21" transform="translate(258.000000, 845.000000)">
                <g id="Group-14" transform="translate(770.000000, 0.000000)">
                    <g id="Group-25">
                        <g id="Page-1" transform="translate(21.000000, 28.000000)">
                            <polygon id="Fill-1" fill="#41B883" points="31.9799391 6.10859729e-05 25.9999391 10.4254005 19.8899391 6.10859729e-05 -6.09374999e-05 6.10859729e-05 25.9999391 44.9593371 51.9999391 6.10859729e-05"></polygon>
                            <polygon id="Fill-2" fill="#41B883" points="41.6000813 6.10859729e-05 25.9998781 26.9756267 10.2700812 6.10859729e-05 8.125e-05 6.10859729e-05 25.9998781 44.9593371 51.9998781 6.10859729e-05"></polygon>
                            <polygon id="Fill-3" fill="#35495E" points="31.9799391 6.10859729e-05 25.9999391 10.4254005 19.8899391 6.10859729e-05 10.2699391 6.10859729e-05 25.9999391 27.1059434 41.6001422 6.10859729e-05"></polygon>
                        </g>
                    </g>
                </g>
            </g>
        </g>
    </g>
</svg>