<?xml version="1.0" encoding="utf-8"?>
<!-- Generator: Adobe Illustrator 19.0.0, SVG Export Plug-In . SVG Version: 6.00 Build 0)  -->
<svg version="1.1" id="Ebene_1" xmlns="http://www.w3.org/2000/svg" xmlns:xlink="http://www.w3.org/1999/xlink" x="0px" y="0px"
	 width="45px" height="45px" viewBox="10 -10 45 45" style="enable-background:new 10 -10 45 45;" xml:space="preserve">
<g>
	<path d="M46.78-1.87H18.22c-2.07,0-3.76,1.69-3.76,3.78v21.18c0,2.08,1.69,3.78,3.76,3.78h28.56c2.07,0,3.76-1.69,3.76-3.78V1.91
		C50.54-0.17,48.85-1.87,46.78-1.87z M18.22-0.37h28.56c1.24,0,2.26,1.02,2.26,2.28v3.82H15.96V1.91
		C15.96,0.65,16.97-0.37,18.22-0.37z M46.78,25.37H18.22c-1.24,0-2.26-1.02-2.26-2.28V7.23h33.08v15.86
		C49.04,24.35,48.03,25.37,46.78,25.37z"/>
	<circle cx="20.47" cy="2.67" r="1.51"/>
	<circle cx="24.98" cy="2.67" r="1.51"/>
	<circle cx="29.49" cy="2.67" r="1.51"/>
	<path d="M23.26,11.97c-0.29-0.29-0.77-0.3-1.06,0c-0.29,0.29-0.29,0.77,0,1.06l3.23,3.25l-3.23,3.25c-0.29,0.29-0.29,0.77,0,1.06
		c0.15,0.15,0.34,0.22,0.53,0.22c0.19,0,0.39-0.07,0.53-0.22l3.76-3.78c0.29-0.29,0.29-0.76,0-1.06L23.26,11.97z"/>
	<path d="M37.76,15.73h-6.01c-0.41,0-0.75,0.34-0.75,0.75s0.34,0.75,0.75,0.75h6.01c0.41,0,0.75-0.34,0.75-0.75
		S38.18,15.73,37.76,15.73z"/>
</g>
</svg>
