<?xml version="1.0" encoding="utf-8"?>
<!-- Generator: Adobe Illustrator 19.0.0, SVG Export Plug-In . SVG Version: 6.00 Build 0)  -->
<svg version="1.1" id="Ebene_1" xmlns="http://www.w3.org/2000/svg" xmlns:xlink="http://www.w3.org/1999/xlink" x="0px" y="0px"
	 width="45px" height="45px" viewBox="10 -10 45 45" style="enable-background:new 10 -10 45 45;" xml:space="preserve">
<g>
	<path d="M29.7,21.02c0.14,0.14,0.33,0.22,0.53,0.22c0.09,0,0.18-0.02,0.27-0.05l12.73-4.96c0.95-0.24,1.64-0.91,1.9-1.84
		c0.29-1.04-0.04-2.18-0.84-2.98l-1.6-1.6l1.83-1.62c0.31-0.27,0.34-0.74,0.07-1.05l-2.93-3.38c0.48-0.1,0.93-0.32,1.31-0.66
		l5.49-4.99c0.58-0.51,0.93-1.21,0.97-1.99c0.05-0.76-0.21-1.52-0.72-2.09c-1.05-1.19-2.88-1.31-4.08-0.25l-5.49,4.99
		c-0.57,0.5-0.92,1.23-0.97,1.98c-0.05,0.76,0.21,1.52,0.71,2.09c0,0,0.01,0.01,0.01,0.01c0,0,0,0,0,0l4.08,4.7l-1.34,1.19
		l-2.33-2.33c-0.79-0.79-1.93-1.11-2.96-0.83c-0.92,0.25-1.59,0.92-1.85,1.84l-4.97,12.79C29.43,20.5,29.49,20.81,29.7,21.02z
		 M40.15-0.1l5.49-4.99c0.57-0.51,1.45-0.45,1.96,0.12c0.24,0.27,0.37,0.64,0.34,1C47.92-3.59,47.75-3.25,47.47-3l-5.49,4.99
		c-0.28,0.25-0.64,0.36-1,0.34c-0.37-0.02-0.71-0.19-0.95-0.47c-0.24-0.27-0.37-0.64-0.34-1.01C39.7,0.5,39.87,0.15,40.15-0.1z
		 M35.92,7.94c0.01-0.03,0.02-0.05,0.03-0.08c0.15-0.56,0.57-0.75,0.8-0.82C36.87,7.01,36.99,7,37.11,7c0.41,0,0.82,0.17,1.14,0.49
		l2.26,2.26l-2.31,2.04c-0.31,0.27-0.34,0.75-0.07,1.06c0.15,0.17,0.36,0.25,0.56,0.25c0.18,0,0.35-0.06,0.5-0.19l2.39-2.1
		l1.66,1.66c0.42,0.42,0.59,1.01,0.45,1.52c-0.08,0.28-0.28,0.65-0.9,0.81l-11.23,4.37L35.92,7.94z"/>
	<path d="M48.71,18.5h-7.1V20h6.35v5.62h-8.47v-5.66h-1.5v5.66h-9.9v-6.37c0-0.41-0.34-0.75-0.75-0.75h-4.95v-5.62h7.09v-1.5h-1.39
		V5.76h3.52h2.14v-1.5h-1.39v-6.37c0-0.41-0.34-0.75-0.75-0.75H15.94c-0.41,0-0.75,0.34-0.75,0.75v7.12v7.12v0.71v6.41v0.71v6.41
		c0,0.41,0.34,0.75,0.75,0.75h32.77c0.41,0,0.75-0.34,0.75-0.75v-7.12C49.46,18.84,49.12,18.5,48.71,18.5z M20.89,18.5h-4.2v-5.62
		h4.2V18.5z M26.59,11.38h-9.9V5.76h9.9V11.38z M30.86,4.26h-8.47v-5.62h8.47V4.26z M16.69-1.37h4.2v5.62h-4.2V-1.37z M26.59,25.62
		h-9.9V20h9.9V25.62z"/>
</g>
</svg>
