<?xml version="1.0" encoding="utf-8"?>
<!-- Generator: Adobe Illustrator 19.0.0, SVG Export Plug-In . SVG Version: 6.00 Build 0)  -->
<svg version="1.1" id="Ebene_1" xmlns="http://www.w3.org/2000/svg" xmlns:xlink="http://www.w3.org/1999/xlink" x="0px" y="0px"
	 width="45px" height="45px" viewBox="10 -10 45 45" style="enable-background:new 10 -10 45 45;" xml:space="preserve">
<g>
	<path d="M50.47,27.59H14.53c-0.41,0-0.75,0.34-0.75,0.75s0.34,0.75,0.75,0.75h35.94c0.41,0,0.75-0.34,0.75-0.75
		S50.89,27.59,50.47,27.59z"/>
	<path d="M14.53,25.82h3.13h29.69h3.13c0.41,0,0.75-0.34,0.75-0.75s-0.34-0.75-0.75-0.75H48.1V21.8c0-0.41-0.34-0.75-0.75-0.75
		h-0.81V4.57h2.38c0.41,0,0.75-0.34,0.75-0.75V0.56c0-0.01,0-0.01,0-0.02c0-0.09-0.02-0.18-0.05-0.27
		c-0.01-0.02-0.02-0.03-0.02-0.04c-0.03-0.07-0.07-0.13-0.12-0.18c-0.02-0.02-0.05-0.04-0.07-0.06c-0.03-0.03-0.06-0.06-0.09-0.08
		L32.88-9.89c-0.24-0.14-0.53-0.14-0.77,0l-16.4,9.81c-0.03,0.02-0.06,0.05-0.09,0.08c-0.02,0.02-0.05,0.04-0.07,0.06
		c-0.05,0.05-0.09,0.11-0.12,0.18c-0.01,0.02-0.02,0.03-0.03,0.04c-0.03,0.08-0.05,0.17-0.05,0.27c0,0.01,0,0.01,0,0.02v3.27
		c0,0.41,0.34,0.75,0.75,0.75h2.38v16.48h-0.81c-0.41,0-0.75,0.34-0.75,0.75v2.52h-2.38c-0.41,0-0.75,0.34-0.75,0.75
		S14.11,25.82,14.53,25.82z M45.03,21.05h-1.63V4.57h1.63V21.05z M38.72,21.05V4.57h3.19v16.48H38.72z M35.58,21.05V4.57h1.63v16.48
		H35.58z M30.91,21.05V4.57h3.19v16.48H30.91z M27.78,21.05V4.57h1.63v16.48H27.78z M23.09,21.05V4.57h3.19v16.48H23.09z M32.5-8.38
		l13.69,8.18H18.81L32.5-8.38z M16.84,1.31h31.32v1.77h-2.38H19.22h-2.38V1.31z M19.97,4.57h1.63v16.48h-1.63V4.57z M18.4,22.55
		h0.81h26.57h0.81v1.77H18.4V22.55z"/>
</g>
</svg>
