<?xml version="1.0" encoding="utf-8"?>
<!-- Generator: Adobe Illustrator 21.0.0, SVG Export Plug-In . SVG Version: 6.00 Build 0)  -->
<svg version="1.1" id="Layer_1" xmlns="http://www.w3.org/2000/svg" xmlns:xlink="http://www.w3.org/1999/xlink" x="0px" y="0px"
	 viewBox="0 0 90 90" style="enable-background:new 0 0 90 90;" xml:space="preserve">
<style type="text/css">
	.st0{fill:#27AE60;}
	.st1{fill:#FFFFFF;}
	.st2{fill:#2DAB61;}
	.st3{fill:#239B55;}
</style>
<g>
	<path class="st0" d="M1.8,67.7c0,0.3-0.2,0.5-0.5,0.5S0.8,68,0.8,67.7s0.2-0.5,0.5-0.5C1.7,67.2,1.8,67.4,1.8,67.7L1.8,67.7
		L1.8,67.7z M1.1,83.4v-12h0.5v12H1.1L1.1,83.4z"/>
	<path class="st0" d="M17.9,74.9c0,6-3.4,8.8-7,8.8c-3.8,0-6.8-3-6.8-8.5c0-5.7,3.1-8.8,7.1-8.8C15,66.3,17.9,69.3,17.9,74.9
		L17.9,74.9L17.9,74.9z M4.6,75c0,4.6,2.2,8.1,6.3,8.1s6.5-3.7,6.5-8.2c0-4.2-1.9-8-6.2-8S4.6,70.5,4.6,75L4.6,75L4.6,75z"/>
	<path class="st0" d="M19.7,82.1c0.8,0.5,2.2,1.1,3.5,1.1c2.3,0,4.4-1.6,4.4-4c0-2.2-1.4-3.4-3.7-4.4c-2.1-0.9-4-1.9-4-4.2
		c0-2.5,1.9-4.2,4.6-4.2c1.4,0,2.5,0.4,3,0.7l-0.2,0.4c-0.4-0.3-1.6-0.7-2.8-0.7c-2.8,0-4,2.1-4,3.7c0,2.1,1.7,2.9,3.8,3.9
		c2.5,1.2,3.8,2.3,3.8,4.6c0,2.5-1.8,4.6-5,4.6c-1.3,0-2.8-0.4-3.6-1L19.7,82.1L19.7,82.1z"/>
</g>
<path class="st1" d="M58.1,74.7c0,2.4,2.4,4.7,6.1,5.9c-0.7,3.7-0.1,6.7,1.9,7.9c2.1,1.2,5.2,0.4,8.2-2.2c2.9,2.5,5.8,3.5,7.8,2.3
	c2.1-1.2,2.7-4.4,2-8.3c3.9-1.3,6-3.2,6-5.6s-2.4-4.4-6-5.7c0.8-4,0.1-6.9-2-8.2c-2-1.2-5-0.2-7.9,2.4c-3-2.7-6-3.5-8.1-2.3
	c-2,1.2-2.6,4.2-1.9,8C60.5,70.2,58.1,72.3,58.1,74.7z"/>
<path class="st0" d="M83.2,70.2c-0.3-0.1-0.6-0.2-0.9-0.3c0.1-0.2,0.1-0.4,0.1-0.6c0.7-3.4,0.2-6.1-1.3-6.9c-1.5-0.9-3.9,0-6.3,2.2
	c-0.2,0.2-0.5,0.4-0.7,0.6c-0.2-0.2-0.3-0.3-0.5-0.4c-2.6-2.3-5.1-3.2-6.7-2.3c-1.5,0.9-1.9,3.4-1.3,6.6c0.1,0.3,0.1,0.6,0.2,0.9
	c-0.4,0.1-0.7,0.2-1,0.3c-3,1-4.9,2.7-4.9,4.4c0,1.8,2.1,3.5,5.2,4.6c0.2,0.1,0.5,0.2,0.8,0.2c-0.1,0.3-0.2,0.7-0.2,1
	C65,83.6,65.5,86.1,67,87s4.1,0,6.6-2.2c0.2-0.2,0.4-0.4,0.6-0.5c0.3,0.2,0.5,0.5,0.8,0.7c2.4,2.1,4.8,2.9,6.3,2.1
	c1.5-0.9,2-3.5,1.4-6.8c0-0.2-0.1-0.5-0.2-0.8c0.2-0.1,0.4-0.1,0.5-0.2c3.3-1.1,5.4-2.8,5.4-4.6C88.2,73,86.3,71.3,83.2,70.2
	L83.2,70.2L83.2,70.2z"/>
<path class="st1" d="M82.5,78.1c-0.2,0.1-0.3,0.1-0.5,0.1c-0.4-1.1-0.8-2.3-1.4-3.6c0.6-1.2,1-2.4,1.4-3.5c0.3,0.1,0.6,0.2,0.8,0.3
	c2.6,0.9,4.2,2.2,4.2,3.3C87,75.8,85.3,77.2,82.5,78.1L82.5,78.1L82.5,78.1z M81.3,80.4c0.3,1.4,0.3,2.7,0.1,3.7
	c-0.2,0.9-0.5,1.5-0.9,1.8c-0.9,0.5-2.8-0.2-4.9-1.9c-0.2-0.2-0.5-0.4-0.7-0.7c0.8-0.9,1.6-1.9,2.4-3c1.4-0.1,2.7-0.3,3.8-0.6
	C81.2,80,81.3,80.2,81.3,80.4L81.3,80.4L81.3,80.4z M69.5,85.8c-0.9,0.3-1.6,0.3-2,0.1c-0.9-0.5-1.3-2.5-0.8-5.2
	c0.1-0.3,0.1-0.6,0.2-0.9c1.2,0.3,2.4,0.4,3.8,0.6c0.8,1.1,1.6,2.1,2.4,3c-0.2,0.2-0.4,0.3-0.5,0.5C71.6,84.8,70.5,85.5,69.5,85.8
	L69.5,85.8L69.5,85.8z M65.5,78.1c-1.4-0.5-2.5-1.1-3.3-1.8c-0.7-0.6-1.1-1.2-1.1-1.7c0-1,1.5-2.4,4.1-3.2c0.3-0.1,0.6-0.2,1-0.3
	c0.4,1.2,0.8,2.4,1.4,3.6c-0.6,1.2-1,2.5-1.4,3.6C65.9,78.3,65.7,78.2,65.5,78.1L65.5,78.1L65.5,78.1z M66.8,68.8
	c-0.5-2.7-0.2-4.8,0.7-5.3c0.9-0.5,3,0.2,5.3,2.2c0.1,0.1,0.3,0.3,0.4,0.4c-0.8,0.9-1.6,1.9-2.4,3c-1.3,0.1-2.6,0.3-3.8,0.6
	C66.9,69.3,66.9,69.1,66.8,68.8L66.8,68.8L66.8,68.8z M79.1,71.8c-0.3-0.5-0.6-1-0.9-1.4c0.9,0.1,1.8,0.3,2.6,0.5
	c-0.2,0.8-0.5,1.6-0.9,2.4C79.6,72.8,79.3,72.3,79.1,71.8L79.1,71.8L79.1,71.8z M74.1,66.9c0.6,0.6,1.1,1.3,1.7,2
	c-0.6,0-1.1,0-1.7,0s-1.1,0-1.7,0C72.9,68.2,73.5,67.5,74.1,66.9L74.1,66.9L74.1,66.9z M69.1,71.8c-0.3,0.5-0.5,1-0.8,1.5
	c-0.4-0.8-0.7-1.7-0.9-2.5c0.8-0.2,1.7-0.3,2.6-0.4C69.6,70.8,69.3,71.3,69.1,71.8L69.1,71.8L69.1,71.8z M69.9,79
	c-0.9-0.1-1.8-0.2-2.6-0.4c0.3-0.8,0.6-1.6,0.9-2.5c0.3,0.5,0.5,1,0.8,1.5l0,0C69.3,78.1,69.6,78.6,69.9,79L69.9,79L69.9,79z
	 M74.1,82.5c-0.6-0.6-1.1-1.3-1.7-2c0.5,0,1.1,0,1.7,0s1.1,0,1.7,0C75.2,81.2,74.7,81.9,74.1,82.5L74.1,82.5L74.1,82.5z M79.9,76.1
	c0.4,0.9,0.7,1.7,1,2.5c-0.8,0.2-1.7,0.3-2.6,0.5c0.3-0.5,0.6-0.9,0.9-1.4C79.4,77.1,79.6,76.6,79.9,76.1L79.9,76.1L79.9,76.1z
	 M78,77c-0.4,0.8-0.9,1.5-1.4,2.2c-0.8,0.1-1.7,0.1-2.6,0.1s-1.7,0-2.6-0.1c-0.5-0.7-0.9-1.4-1.4-2.2l0,0c-0.4-0.8-0.8-1.5-1.2-2.3
	c0.4-0.8,0.8-1.5,1.2-2.3l0,0c0.4-0.8,0.9-1.5,1.4-2.2c0.8-0.1,1.7-0.1,2.6-0.1l0,0c0.9,0,1.7,0,2.6,0.1c0.5,0.7,0.9,1.4,1.4,2.2
	c0.4,0.8,0.9,1.5,1.2,2.3C78.9,75.4,78.5,76.2,78,77L78,77L78,77z M80.5,63.4c1,0.5,1.3,2.8,0.7,5.7c0,0.2-0.1,0.4-0.1,0.6
	c-1.2-0.3-2.5-0.5-3.8-0.6c-0.8-1.1-1.6-2.1-2.4-3c0.2-0.2,0.4-0.4,0.7-0.6C77.7,63.6,79.6,62.9,80.5,63.4L80.5,63.4L80.5,63.4z"/>
<path class="st2" d="M74.1,72.1c1.4,0,2.5,1.1,2.5,2.5s-1.1,2.5-2.5,2.5s-2.5-1.1-2.5-2.5C71.5,73.3,72.7,72.1,74.1,72.1"/>
<g>
	<path class="st0" d="M0.3,5.3l13.8-4.9l14.2,4.8L26,23.5l-11.9,6.6L2.4,23.6L0.3,5.3z"/>
	<path class="st3" d="M28.4,5.2L14.2,0.3v29.8l11.9-6.6L28.4,5.2L28.4,5.2z"/>
	<path class="st1" d="M14.2,3.8L14.2,3.8L5.6,23h3.2l1.7-4.3h3.7l0,0h4l1.9,4.4l3.1,0.1L14.2,3.8L14.2,3.8z M14.2,10l2.9,6.1h-2.8
		h-0.1h-2.5L14.2,10L14.2,10z"/>
</g>
<g>
	<path class="st1" d="M69.4,1.6c-0.1,0-0.3,0-0.4,0.1c-0.4,0.2-0.5,0.7-0.3,1.1l0.9,1.5c-2.1,1.3-3.4,3.5-3.4,5.9l0,0l0,0l0,0v0.4
		c-0.4-0.5-1-0.7-1.6-0.7c-1.2,0-2.2,1-2.2,2.2v6.7c0,1.2,1,2.2,2.2,2.2c0.7,0,1.2-0.3,1.6-0.7v0.9c0,1.3,1,2.3,2.3,2.3H69v3
		c0,1.2,1,2.2,2.2,2.2s2.2-1,2.2-2.2v-3h1v3c0,1.2,1,2.2,2.2,2.2s2.2-1,2.2-2.2v-3h0.6c1.3,0,2.3-1,2.3-2.3v-0.9
		c0.4,0.5,1,0.7,1.6,0.7c1.2,0,2.2-1,2.2-2.2v-6.7c0-1.2-1-2.2-2.2-2.2c-0.7,0-1.2,0.3-1.6,0.7v-0.4l0,0l0,0c0,0,0,0,0-0.1
		c0-2.5-1.4-4.7-3.4-5.9l0.9-1.5c0.2-0.4,0.1-0.9-0.3-1.1c-0.1-0.1-0.3-0.1-0.4-0.1c-0.3,0-0.6,0.1-0.7,0.4l-0.9,1.6
		C76,3.2,75.1,3,74.1,3s-2,0.2-2.8,0.5L70.1,2C70,1.8,69.7,1.6,69.4,1.6L69.4,1.6z"/>
	<path class="st0" d="M64.5,10.6c-0.9,0-1.6,0.7-1.6,1.6v6.7c0,0.9,0.7,1.6,1.6,1.6c0.9,0,1.6-0.7,1.6-1.6v-6.7
		C66.1,11.3,65.4,10.6,64.5,10.6L64.5,10.6z M83.1,10.6c-0.9,0-1.6,0.7-1.6,1.6v6.7c0,0.9,0.7,1.6,1.6,1.6s1.6-0.7,1.6-1.6v-6.7
		C84.7,11.3,84,10.6,83.1,10.6L83.1,10.6z"/>
	<path class="st0" d="M71.2,18.2c-0.9,0-1.6,0.7-1.6,1.6v6.7c0,0.9,0.7,1.6,1.6,1.6s1.6-0.7,1.6-1.6v-6.7
		C72.8,18.9,72.1,18.2,71.2,18.2L71.2,18.2z M76.5,18.2c-0.9,0-1.6,0.7-1.6,1.6v6.7c0,0.9,0.7,1.6,1.6,1.6s1.6-0.7,1.6-1.6v-6.7
		C78.1,18.9,77.4,18.2,76.5,18.2L76.5,18.2z"/>
	<path class="st0" d="M69.4,2.2L69.4,2.2c-0.2,0.1-0.3,0.2-0.2,0.3l1.1,2c-2.2,1.1-3.6,3.3-3.6,5.7h14.2c0-2.5-1.5-4.6-3.6-5.7
		l1.1-2c0.1-0.1,0-0.2-0.1-0.3h-0.1c-0.1,0-0.2,0-0.2,0.1l-1.1,2.1c-0.9-0.4-2-0.6-3.1-0.6S71.7,4,70.7,4.4l-1.1-2.1
		C69.6,2.2,69.5,2.2,69.4,2.2L69.4,2.2z M66.7,10.8v10.3c0,1,0.8,1.7,1.7,1.7h10.8c1,0,1.7-0.8,1.7-1.7V10.8H66.7L66.7,10.8z"/>
	<path class="st1" d="M70.5,6.5c-0.3,0-0.6,0.3-0.6,0.6c0,0.3,0.3,0.6,0.6,0.6s0.6-0.3,0.6-0.6S70.9,6.5,70.5,6.5L70.5,6.5z
		 M77.1,6.5c-0.3,0-0.6,0.3-0.6,0.6c0,0.3,0.3,0.6,0.6,0.6s0.6-0.3,0.6-0.6S77.4,6.5,77.1,6.5L77.1,6.5z"/>
</g>
<polygon class="st0" points="51.8,36.9 40.8,47.8 36.6,43.5 33.3,46.9 40.8,54.4 55.1,40.2 "/>
</svg>
