<?xml version="1.0" encoding="utf-8"?>
<!-- Generator: Adobe Illustrator 21.0.0, SVG Export Plug-In . SVG Version: 6.00 Build 0)  -->
<svg version="1.1" id="Layer_1" xmlns="http://www.w3.org/2000/svg" xmlns:xlink="http://www.w3.org/1999/xlink" x="0px" y="0px"
	 viewBox="0 0 90 90" style="enable-background:new 0 0 90 90;" xml:space="preserve">
<style type="text/css">
	.st0{fill:#94DE9D;}
	.st1{fill:#27AE60;}
</style>
<g>
	<path class="st0" d="M78.6,17.8l2-2l-9-9V6.1h-0.7l-1.5-1.5V3.3h-3.5v3.5l-0.8,0.8V1.4H31v64.9h34.1v-0.7h0.8v0.7h3.5v-0.7H81V17.8
		H78.6z M65.8,17.8H65v-6.6l0.8,0.8V17.8z M71.6,17.8L71.6,17.8L71.6,17.8L71.6,17.8z"/>
	<path class="st1" d="M66.5-0.1H30.1v67.3h52.7v-51L66.5-0.1z M67.1,3.7L79,15.6H67.1V3.7z M32.4,64.9V2.1h32.5v15.7h15.7v47.1
		C80.6,64.9,32.4,64.9,32.4,64.9z"/>
</g>
<g>
	<path class="st0" d="M67.1,29.3l2-2l-9-9v-0.7h-0.7L57.9,16v-1.2h-3.5v3.5l-0.8,0.8v-6.2H19.5v64.9h34.1v-0.7h0.8v0.7h3.5v-0.7
		h11.6V29.3H67.1z M54.3,29.3h-0.8v-6.6l0.8,0.8V29.3z M60.1,29.3L60.1,29.3L60.1,29.3L60.1,29.3z"/>
	<path class="st1" d="M55,11.4H18.7v67.3h52.7v-51L55,11.4z M55.7,15.2l11.9,11.9H55.7V15.2z M20.9,76.4V13.6h32.5v15.7h15.7v47.1
		C69.1,76.4,20.9,76.4,20.9,76.4z"/>
</g>
<g>
	<path class="st0" d="M55.6,40.8l2-2l-9-9v-0.7h-0.7l-1.5-1.5v-1.2h-3.5v3.5l-0.8,0.8v-6.2H8v64.9h34.1v-0.7h0.8v0.7h3.5v-0.7H58
		V40.8H55.6z M42.8,40.8H42v-6.6l0.8,0.8V40.8z M48.7,40.8L48.7,40.8L48.7,40.8L48.7,40.8z"/>
	<path class="st1" d="M43.5,22.8H7.2v67.3h52.7V39.2L43.5,22.8z M44.2,26.7L56,38.5H44.2V26.7z M9.4,87.9V25.1h32.5v15.7h15.7v47.1
		C57.6,87.9,9.4,87.9,9.4,87.9z"/>
</g>
<path class="st1" d="M24.6,61v-6.7c0-1.6,1.7-2.6,3.1-1.8l5.8,3.3l5.8,3.4c1.4,0.8,1.4,2.8,0,3.6l-5.8,3.3l-5.8,3.4
	c-1.4,0.8-3.1-0.2-3.1-1.8V61z"/>
</svg>
