<?xml version="1.0" encoding="UTF-8"?>
<svg width="29px" height="29px" viewBox="0 0 29 29" version="1.1" xmlns="http://www.w3.org/2000/svg" xmlns:xlink="http://www.w3.org/1999/xlink">
    <g id="final" stroke="none" stroke-width="1" fill="none" fill-rule="evenodd" opacity="0.2">
        <g id="Guide" transform="translate(-647.000000, -4267.000000)" fill="#000000">
            <g id="Group-48" transform="translate(18.000000, 3747.000000)">
                <g id="Group-26" transform="translate(629.000000, 520.000000)">
                    <path d="M14.4986648,0 C6.49181988,0 0,6.46118643 0,14.4320207 C0,20.8081565 4.15341171,26.216842 9.91620369,28.1260504 C10.641671,28.258056 10.9060438,27.8124264 10.9060438,27.4296988 C10.9060438,27.0877245 10.8935818,26.1796324 10.8864606,24.9756351 C6.85321833,25.8474036 6.00224071,23.0407343 6.00224071,23.0407343 C5.34264403,21.3733885 4.39197029,20.9295308 4.39197029,20.9295308 C3.07544737,20.0347278 4.49166641,20.0524467 4.49166641,20.0524467 C5.94705178,20.1543302 6.71257559,21.5399459 6.71257559,21.5399459 C8.00595476,23.7450595 10.1058044,23.108066 10.9327481,22.7386276 C11.0644894,21.8066149 11.4383499,21.1705075 11.8531569,20.8099284 C8.63350625,20.4458056 5.24828877,19.2072565 5.24828877,13.6771968 C5.24828877,12.1019891 5.81353019,10.8138272 6.74106019,9.80473745 C6.59151601,9.4397287 6.09392553,7.97260616 6.88259308,5.98543474 C6.88259308,5.98543474 8.10031002,5.59739145 10.870438,7.46496049 C12.026735,7.14424892 13.2675957,6.98477908 14.5004451,6.97857747 C15.7315142,6.98477908 16.9723748,7.14424892 18.1304521,7.46496049 C20.8987998,5.59739145 22.1138463,5.98543474 22.1138463,5.98543474 C22.9051843,7.97260616 22.4075938,9.4397287 22.2580497,9.80473745 C23.18736,10.8138272 23.7490408,12.1019891 23.7490408,13.6771968 C23.7490408,19.2214316 20.3584825,20.4413759 17.12815,20.7984112 C17.6488843,21.2440408 18.1126493,22.1246687 18.1126493,23.4713029 C18.1126493,25.4000021 18.0948464,26.9566049 18.0948464,27.4296988 C18.0948464,27.8159702 18.3556586,28.2651435 19.0918076,28.1242785 C24.8492587,26.2115264 29,20.8063847 29,14.4320207 C29,6.46118643 22.50729,0 14.4986648,0" id="Fill-1"></path>
                </g>
            </g>
        </g>
    </g>
</svg>