<?xml version="1.0" encoding="utf-8"?>
<!-- Generator: Adobe Illustrator 19.0.0, SVG Export Plug-In . SVG Version: 6.00 Build 0)  -->
<svg version="1.1" id="Ebene_1" xmlns="http://www.w3.org/2000/svg" xmlns:xlink="http://www.w3.org/1999/xlink" x="0px" y="0px"
	 width="428.6px" height="317.09px" viewBox="0 0 428.6 317.09" style="enable-background:new 0 0 428.6 317.09;"
	 xml:space="preserve">
<style type="text/css">
	.st0{clip-path:url(#XMLID_94_);}
	.st1{opacity:0.03;}
	.st2{fill-rule:evenodd;clip-rule:evenodd;fill:#FDFDFD;}
	.st3{opacity:0.06;fill-rule:evenodd;clip-rule:evenodd;}
	.st4{fill-rule:evenodd;clip-rule:evenodd;fill:#172A3A;}
	.st5{fill-rule:evenodd;clip-rule:evenodd;fill:#0F202E;}
	.st6{fill-rule:evenodd;clip-rule:evenodd;fill:#27AE60;}
	.st7{opacity:0.1;fill-rule:evenodd;clip-rule:evenodd;fill:#FFFFFF;}
	.st8{opacity:0.06;fill-rule:evenodd;clip-rule:evenodd;fill:#FFFFFF;}
	.st9{opacity:0.1;fill-rule:evenodd;clip-rule:evenodd;}
	.st10{fill-rule:evenodd;clip-rule:evenodd;fill:#EDEDED;}
	.st11{opacity:0.2;fill-rule:evenodd;clip-rule:evenodd;}
</style>
<g id="BASE">
	<defs>
		<path id="XMLID_398_" d="M0,2c0-1.1,0.89-2,2.01-2h424.59c1.11,0,2.01,0.9,2.01,2v313.09c0,1.1-0.89,2-2.01,2H2.01
			c-1.11,0-2.01-0.9-2.01-2V2z"/>
	</defs>
	<use xlink:href="#XMLID_398_"  style="overflow:visible;fill-rule:evenodd;clip-rule:evenodd;fill:#FDFDFD;"/>
	<clipPath id="XMLID_94_">
		<use xlink:href="#XMLID_398_"  style="overflow:visible;"/>
	</clipPath>
	<g id="Databrowser" class="st0">
		<path id="XMLID_426_" class="st1" d="M76.76,323.33H431.9c1.13,0,2.04-1.16,2.04-2.58V64.37H76.76V323.33z"/>
		<g id="XMLID_423_">
			<path id="XMLID_593_" class="st2" d="M94.14,102.1c0-1.66,1.35-3,3.01-3h48.49c1.66,0,3.01,1.35,3.01,3v6.39
				c0,1.66-1.35,3-3.01,3H97.15c-1.66,0-3.01-1.35-3.01-3V102.1z"/>
			<path id="XMLID_588_" class="st2" d="M94.14,121.92c0-1.66,1.35-3,3.01-3h48.49c1.66,0,3.01,1.35,3.01,3v6.39
				c0,1.66-1.35,3-3.01,3H97.15c-1.66,0-3.01-1.35-3.01-3V121.92z"/>
			<path id="XMLID_583_" class="st2" d="M94.14,141.74c0-1.66,1.35-3,3.01-3h48.49c1.66,0,3.01,1.35,3.01,3v6.39
				c0,1.66-1.35,3-3.01,3H97.15c-1.66,0-3.01-1.35-3.01-3V141.74z"/>
			<path id="XMLID_578_" class="st2" d="M94.14,161.56c0-1.66,1.35-3,3.01-3h48.49c1.66,0,3.01,1.35,3.01,3v6.39
				c0,1.66-1.35,3-3.01,3H97.15c-1.66,0-3.01-1.35-3.01-3V161.56z"/>
			<path id="XMLID_573_" class="st2" d="M94.14,181.38c0-1.66,1.35-3,3.01-3h48.49c1.66,0,3.01,1.35,3.01,3v6.39
				c0,1.66-1.35,3-3.01,3H97.15c-1.66,0-3.01-1.35-3.01-3V181.38z"/>
			<path id="XMLID_568_" class="st2" d="M94.14,201.19c0-1.66,1.35-3,3.01-3h48.49c1.66,0,3.01,1.35,3.01,3v6.39
				c0,1.66-1.35,3-3.01,3H97.15c-1.66,0-3.01-1.35-3.01-3V201.19z"/>
			<path id="XMLID_563_" class="st2" d="M94.14,221.01c0-1.66,1.35-3,3.01-3h48.49c1.66,0,3.01,1.35,3.01,3v6.39
				c0,1.66-1.35,3-3.01,3H97.15c-1.66,0-3.01-1.35-3.01-3V221.01z"/>
			<path id="XMLID_558_" class="st2" d="M94.14,240.83c0-1.66,1.35-3,3.01-3h48.49c1.66,0,3.01,1.35,3.01,3v6.39
				c0,1.66-1.35,3-3.01,3H97.15c-1.66,0-3.01-1.35-3.01-3V240.83z"/>
			<path id="XMLID_548_" class="st2" d="M156.08,102.1c0-1.66,1.34-3,3-3h73.28c1.66,0,3,1.35,3,3v6.39c0,1.66-1.34,3-3,3h-73.28
				c-1.66,0-3-1.35-3-3V102.1z"/>
			<path id="XMLID_543_" class="st2" d="M156.08,121.92c0-1.66,1.34-3,3-3h73.28c1.66,0,3,1.35,3,3v6.39c0,1.66-1.34,3-3,3h-73.28
				c-1.66,0-3-1.35-3-3V121.92z"/>
			<path id="XMLID_538_" class="st2" d="M156.08,141.74c0-1.66,1.34-3,3-3h73.28c1.66,0,3,1.35,3,3v6.39c0,1.66-1.34,3-3,3h-73.28
				c-1.66,0-3-1.35-3-3V141.74z"/>
			<path id="XMLID_533_" class="st2" d="M156.08,161.56c0-1.66,1.34-3,3-3h73.28c1.66,0,3,1.35,3,3v6.39c0,1.66-1.34,3-3,3h-73.28
				c-1.66,0-3-1.35-3-3V161.56z"/>
			<path id="XMLID_528_" class="st2" d="M156.08,181.38c0-1.66,1.34-3,3-3h73.28c1.66,0,3,1.35,3,3v6.39c0,1.66-1.34,3-3,3h-73.28
				c-1.66,0-3-1.35-3-3V181.38z"/>
			<path id="XMLID_523_" class="st2" d="M156.08,201.19c0-1.66,1.34-3,3-3h73.28c1.66,0,3,1.35,3,3v6.39c0,1.66-1.34,3-3,3h-73.28
				c-1.66,0-3-1.35-3-3V201.19z"/>
			<path id="XMLID_518_" class="st2" d="M156.08,221.01c0-1.66,1.34-3,3-3h73.28c1.66,0,3,1.35,3,3v6.39c0,1.66-1.34,3-3,3h-73.28
				c-1.66,0-3-1.35-3-3V221.01z"/>
			<path id="XMLID_513_" class="st2" d="M156.08,240.83c0-1.66,1.34-3,3-3h73.28c1.66,0,3,1.35,3,3v6.39c0,1.66-1.34,3-3,3h-73.28
				c-1.66,0-3-1.35-3-3V240.83z"/>
			<path id="XMLID_503_" class="st2" d="M242.79,102.1c0-1.66,1.35-3,3-3h110.45c1.65,0,3,1.35,3,3v6.39c0,1.66-1.35,3-3,3H245.79
				c-1.65,0-3-1.35-3-3V102.1z"/>
			<path id="XMLID_498_" class="st2" d="M242.79,121.92c0-1.66,1.35-3,3-3h110.45c1.65,0,3,1.35,3,3v6.39c0,1.66-1.35,3-3,3H245.79
				c-1.65,0-3-1.35-3-3V121.92z"/>
			<path id="XMLID_493_" class="st2" d="M242.79,141.74c0-1.66,1.35-3,3-3h110.45c1.65,0,3,1.35,3,3v6.39c0,1.66-1.35,3-3,3H245.79
				c-1.65,0-3-1.35-3-3V141.74z"/>
			<path id="XMLID_488_" class="st2" d="M242.79,161.56c0-1.66,1.35-3,3-3h110.45c1.65,0,3,1.35,3,3v6.39c0,1.66-1.35,3-3,3H245.79
				c-1.65,0-3-1.35-3-3V161.56z"/>
			<path id="XMLID_483_" class="st2" d="M242.79,181.38c0-1.66,1.35-3,3-3h110.45c1.65,0,3,1.35,3,3v6.39c0,1.66-1.35,3-3,3H245.79
				c-1.65,0-3-1.35-3-3V181.38z"/>
			<path id="XMLID_478_" class="st2" d="M242.79,201.19c0-1.66,1.35-3,3-3h110.45c1.65,0,3,1.35,3,3v6.39c0,1.66-1.35,3-3,3H245.79
				c-1.65,0-3-1.35-3-3V201.19z"/>
			<path id="XMLID_473_" class="st2" d="M242.79,221.01c0-1.66,1.35-3,3-3h110.45c1.65,0,3,1.35,3,3v6.39c0,1.66-1.35,3-3,3H245.79
				c-1.65,0-3-1.35-3-3V221.01z"/>
			<path id="XMLID_468_" class="st2" d="M242.79,240.83c0-1.66,1.35-3,3-3h110.45c1.65,0,3,1.35,3,3v6.39c0,1.66-1.35,3-3,3H245.79
				c-1.65,0-3-1.35-3-3V240.83z"/>
			<path id="XMLID_458_" class="st2" d="M366.66,102.1c0-1.66,1.35-3,3.01-3h43.54c1.66,0,3.01,1.35,3.01,3v6.39
				c0,1.66-1.35,3-3.01,3h-43.54c-1.66,0-3.01-1.35-3.01-3V102.1z"/>
			<path id="XMLID_453_" class="st2" d="M366.66,121.92c0-1.66,1.35-3,3.01-3h43.54c1.66,0,3.01,1.35,3.01,3v6.39
				c0,1.66-1.35,3-3.01,3h-43.54c-1.66,0-3.01-1.35-3.01-3V121.92z"/>
			<path id="XMLID_448_" class="st2" d="M366.66,141.74c0-1.66,1.35-3,3.01-3h43.54c1.66,0,3.01,1.35,3.01,3v6.39
				c0,1.66-1.35,3-3.01,3h-43.54c-1.66,0-3.01-1.35-3.01-3V141.74z"/>
			<path id="XMLID_443_" class="st2" d="M366.66,161.56c0-1.66,1.35-3,3.01-3h43.54c1.66,0,3.01,1.35,3.01,3v6.39
				c0,1.66-1.35,3-3.01,3h-43.54c-1.66,0-3.01-1.35-3.01-3V161.56z"/>
			<path id="XMLID_438_" class="st2" d="M366.66,181.38c0-1.66,1.35-3,3.01-3h43.54c1.66,0,3.01,1.35,3.01,3v6.39
				c0,1.66-1.35,3-3.01,3h-43.54c-1.66,0-3.01-1.35-3.01-3V181.38z"/>
			<path id="XMLID_433_" class="st2" d="M366.66,201.19c0-1.66,1.35-3,3.01-3h43.54c1.66,0,3.01,1.35,3.01,3v6.39
				c0,1.66-1.35,3-3.01,3h-43.54c-1.66,0-3.01-1.35-3.01-3V201.19z"/>
			<path id="XMLID_428_" class="st2" d="M366.66,221.01c0-1.66,1.35-3,3.01-3h43.54c1.66,0,3.01,1.35,3.01,3v6.39
				c0,1.66-1.35,3-3.01,3h-43.54c-1.66,0-3.01-1.35-3.01-3V221.01z"/>
			<path id="XMLID_425_" class="st2" d="M366.66,240.83c0-1.66,1.35-3,3.01-3h43.54c1.66,0,3.01,1.35,3.01,3v6.39
				c0,1.66-1.35,3-3.01,3h-43.54c-1.66,0-3.01-1.35-3.01-3V240.83z"/>
			<path id="XMLID_553_" class="st2" d="M94.14,260.65c0-1.66,1.35-3,3.01-3h48.49c1.66,0,3.01,1.35,3.01,3v6.39
				c0,1.66-1.35,3-3.01,3H97.15c-1.66,0-3.01-1.35-3.01-3V260.65z"/>
			<path id="XMLID_508_" class="st2" d="M156.08,260.65c0-1.66,1.34-3,3-3h73.28c1.66,0,3,1.35,3,3v6.39c0,1.66-1.34,3-3,3h-73.28
				c-1.66,0-3-1.35-3-3V260.65z"/>
			<path id="XMLID_463_" class="st2" d="M242.79,260.65c0-1.66,1.35-3,3-3h110.45c1.65,0,3,1.35,3,3v6.39c0,1.66-1.35,3-3,3H245.79
				c-1.65,0-3-1.35-3-3V260.65z"/>
			<path id="XMLID_424_" class="st2" d="M366.66,260.65c0-1.66,1.35-3,3.01-3h43.54c1.66,0,3.01,1.35,3.01,3v6.39
				c0,1.66-1.35,3-3.01,3h-43.54c-1.66,0-3.01-1.35-3.01-3V260.65z"/>
			<path id="XMLID_439_" class="st2" d="M94.14,280.47c0-1.66,1.35-3,3.01-3h48.49c1.66,0,3.01,1.35,3.01,3v6.39
				c0,1.66-1.35,3-3.01,3H97.15c-1.66,0-3.01-1.35-3.01-3V280.47z"/>
			<path id="XMLID_436_" class="st2" d="M156.08,280.47c0-1.66,1.34-3,3-3h73.28c1.66,0,3,1.35,3,3v6.39c0,1.66-1.34,3-3,3h-73.28
				c-1.66,0-3-1.35-3-3V280.47z"/>
			<path id="XMLID_434_" class="st2" d="M242.79,280.47c0-1.66,1.35-3,3-3h110.45c1.65,0,3,1.35,3,3v6.39c0,1.66-1.35,3-3,3H245.79
				c-1.65,0-3-1.35-3-3V280.47z"/>
			<path id="XMLID_431_" class="st2" d="M366.66,280.47c0-1.66,1.35-3,3.01-3h43.54c1.66,0,3.01,1.35,3.01,3v6.39
				c0,1.66-1.35,3-3.01,3h-43.54c-1.66,0-3.01-1.35-3.01-3V280.47z"/>
			<path id="XMLID_430_" class="st2" d="M94.14,300.29c0-1.66,1.35-3,3.01-3h48.49c1.66,0,3.01,1.35,3.01,3v6.39
				c0,1.66-1.35,3-3.01,3H97.15c-1.66,0-3.01-1.35-3.01-3V300.29z"/>
			<path id="XMLID_429_" class="st2" d="M156.08,300.29c0-1.66,1.34-3,3-3h73.28c1.66,0,3,1.35,3,3v6.39c0,1.66-1.34,3-3,3h-73.28
				c-1.66,0-3-1.35-3-3V300.29z"/>
			<path id="XMLID_427_" class="st2" d="M242.79,300.29c0-1.66,1.35-3,3-3h110.45c1.65,0,3,1.35,3,3v6.39c0,1.66-1.35,3-3,3H245.79
				c-1.65,0-3-1.35-3-3V300.29z"/>
			<path id="XMLID_397_" class="st2" d="M366.66,300.29c0-1.66,1.35-3,3.01-3h43.54c1.66,0,3.01,1.35,3.01,3v6.39
				c0,1.66-1.35,3-3.01,3h-43.54c-1.66,0-3.01-1.35-3.01-3V300.29z"/>
			<path id="XMLID_445_" class="st2" d="M94.14,300.29c0-1.66,1.35-3,3.01-3h48.49c1.66,0,3.01,1.35,3.01,3v6.39
				c0,1.66-1.35,3-3.01,3H97.15c-1.66,0-3.01-1.35-3.01-3V300.29z"/>
			<path id="XMLID_444_" class="st2" d="M156.08,300.29c0-1.66,1.34-3,3-3h73.28c1.66,0,3,1.35,3,3v6.39c0,1.66-1.34,3-3,3h-73.28
				c-1.66,0-3-1.35-3-3V300.29z"/>
			<path id="XMLID_442_" class="st2" d="M242.79,300.29c0-1.66,1.35-3,3-3h110.45c1.65,0,3,1.35,3,3v6.39c0,1.66-1.35,3-3,3H245.79
				c-1.65,0-3-1.35-3-3V300.29z"/>
			<path id="XMLID_441_" class="st2" d="M366.66,300.29c0-1.66,1.35-3,3.01-3h43.54c1.66,0,3.01,1.35,3.01,3v6.39
				c0,1.66-1.35,3-3.01,3h-43.54c-1.66,0-3.01-1.35-3.01-3V300.29z"/>
		</g>
		<g id="XMLID_418_">
			<path id="XMLID_422_" class="st3" d="M94.14,84.23c0-1.37,1.11-2.48,2.48-2.48h49.54c1.37,0,2.48,1.1,2.48,2.48
				c0,1.37-1.11,2.48-2.48,2.48H96.63C95.26,86.71,94.14,85.61,94.14,84.23z"/>
			<path id="XMLID_421_" class="st3" d="M156.08,84.23c0-1.37,1.11-2.48,2.48-2.48h74.32c1.37,0,2.48,1.1,2.48,2.48
				c0,1.37-1.11,2.48-2.48,2.48h-74.32C157.19,86.71,156.08,85.61,156.08,84.23z"/>
			<path id="XMLID_420_" class="st3" d="M242.79,84.23c0-1.37,1.12-2.48,2.49-2.48h111.47c1.37,0,2.49,1.1,2.49,2.48
				c0,1.37-1.12,2.48-2.49,2.48H245.28C243.9,86.71,242.79,85.61,242.79,84.23z"/>
			<path id="XMLID_419_" class="st3" d="M366.66,84.23c0-1.37,1.1-2.48,2.47-2.48h44.6c1.37,0,2.47,1.1,2.47,2.48
				c0,1.37-1.1,2.48-2.47,2.48h-44.6C367.77,86.71,366.66,85.61,366.66,84.23z"/>
		</g>
	</g>
	<g id="Sidebar" class="st0">
		<rect id="XMLID_638_" y="23.54" class="st4" width="81.76" height="293.55"/>
		<rect id="XMLID_633_" y="43.36" class="st5" width="81.76" height="85.47"/>
		<path id="XMLID_623_" class="st6" d="M-1.24,23.3c0-0.55,0.44-1,1-1h19.06c0.55,0,1,0.45,1,1v20.29c0,0.55-0.44,1-1,1H-0.24
			c-0.55,0-1-0.45-1-1V23.3z"/>
		<path id="XMLID_603_" class="st7" d="M27.25,32.97c0-1.11,0.9-2,2-2h38.11c1.11,0,2,0.89,2,2v0.95c0,1.11-0.9,2-2,2H29.26
			c-1.11,0-2-0.89-2-2V32.97z"/>
		<g id="XMLID_412_">
			<path id="XMLID_608_" class="st7" d="M12.39,57.74c0-1.11,0.9-2,1.99-2h35.65c1.1,0,1.99,0.89,1.99,2v0.95c0,1.11-0.9,2-1.99,2
				H14.38c-1.1,0-1.99-0.89-1.99-2V57.74z"/>
			<path id="XMLID_417_" class="st7" d="M12.39,71.37c0-1.11,0.9-2,1.99-2H42.6c1.1,0,1.99,0.89,1.99,2v0.95c0,1.11-0.89,2-1.99,2
				H14.38c-1.1,0-1.99-0.89-1.99-2V71.37z"/>
			<path id="XMLID_416_" class="st7" d="M12.39,85c0-1.11,0.89-2,2-2h40.59c1.11,0,2,0.89,2,2v0.95c0,1.11-0.89,2-2,2H14.39
				c-1.11,0-2-0.89-2-2V85z"/>
			<path id="XMLID_415_" class="st7" d="M12.39,98.62c0-1.11,0.89-2,2.01-2H46.3c1.11,0,2.01,0.89,2.01,2v0.95c0,1.11-0.89,2-2.01,2
				H14.4c-1.11,0-2.01-0.89-2.01-2V98.62z"/>
			<path id="XMLID_414_" class="st7" d="M12.39,112.25c0-1.11,0.89-2,2-2h34.41c1.1,0,2,0.89,2,2v0.95c0,1.11-0.89,2-2,2H14.38
				c-1.1,0-2-0.89-2-2V112.25z"/>
		</g>
		<g id="XMLID_403_">
			<rect id="XMLID_628_" y="294.41" class="st5" width="81.76" height="24.77"/>
			<g id="XMLID_406_">
				<path id="XMLID_411_" class="st8" d="M12.39,279.06c0-1.11,0.9-2,1.99-2h43.09c1.1,0,1.99,0.89,1.99,2v0.95c0,1.11-0.9,2-1.99,2
					H14.38c-1.1,0-1.99-0.89-1.99-2V279.06z"/>
				<path id="XMLID_410_" class="st8" d="M12.39,265.44c0-1.11,0.89-2,2-2h40.59c1.11,0,2,0.89,2,2v0.95c0,1.11-0.89,2-2,2H14.39
					c-1.11,0-2-0.89-2-2V265.44z"/>
				<path id="XMLID_409_" class="st8" d="M12.39,251.81c0-1.11,0.9-2,1.99-2h46.81c1.1,0,1.99,0.89,1.99,2v0.95c0,1.11-0.9,2-1.99,2
					H14.38c-1.1,0-1.99-0.89-1.99-2V251.81z"/>
				<path id="XMLID_407_" class="st8" d="M12.39,238.19c0-1.11,0.89-2,2-2h34.41c1.1,0,2,0.89,2,2v0.95c0,1.11-0.89,2-2,2H14.38
					c-1.1,0-2-0.89-2-2V238.19z"/>
			</g>
			<path id="XMLID_405_" class="st7" d="M12.39,305.08c0-1.11,0.9-2,2.01-2h15.8c1.11,0,2.01,0.89,2.01,2v0.95c0,1.11-0.9,2-2.01,2
				H14.4c-1.11,0-2.01-0.89-2.01-2V305.08z"/>
			<path id="XMLID_404_" class="st7" d="M39.64,305.08c0-1.11,0.89-2,2-2h25.74c1.1,0,2,0.89,2,2v0.95c0,1.11-0.89,2-2,2H41.64
				c-1.1,0-2-0.89-2-2V305.08z"/>
		</g>
	</g>
	<g id="Head" class="st0">
		<path id="XMLID_598_" class="st9" d="M94.14,38.93c0-1.66,1.34-3.01,3-3.01h60.88c1.66,0,3,1.34,3,3.01v2.65
			c0,1.66-1.34,3.01-3,3.01H97.15c-1.66,0-3-1.34-3-3.01V38.93z"/>
		<path id="XMLID_413_" class="st3" d="M361.71,38.93c0-1.66,1.35-3.01,3.01-3.01h48.49c1.66,0,3.01,1.34,3.01,3.01v2.65
			c0,1.66-1.35,3.01-3.01,3.01h-48.49c-1.66,0-3.01-1.34-3.01-3.01V38.93z"/>
		<path id="XMLID_408_" class="st3" d="M94.14,54.5c0-1.37,1.1-2.48,2.48-2.48h37.16c1.37,0,2.48,1.1,2.48,2.48
			c0,1.37-1.1,2.48-2.48,2.48H96.62C95.25,56.98,94.14,55.88,94.14,54.5z"/>
	</g>
	<g id="Browser" class="st0">
		<rect id="XMLID_618_" class="st10" width="428.6" height="23.54"/>
		<g id="XMLID_399_">
			<ellipse id="XMLID_402_" class="st11" cx="11.49" cy="11.64" rx="4.06" ry="4.2"/>
			<ellipse id="XMLID_401_" class="st11" cx="24.65" cy="11.64" rx="4.06" ry="4.2"/>
			<ellipse id="XMLID_400_" class="st11" cx="37.85" cy="11.64" rx="4.1" ry="4.2"/>
		</g>
	</g>
</g>
</svg>
