<svg width="45px" height="45px" viewBox="0 0 45 45">
<path d="M38.87,21.82c-0.87,0-1.55-0.27-2.1-0.82c-1.77-1.79-1.72-6.14-1.69-8.48l0.01-0.79
	c0-0.3,0.01-0.65,0.02-1.02c0.07-2.43,0.17-6.1-1.94-8.27c-1.09-1.12-2.63-1.69-4.58-1.69c-0.41,0-0.75,0.34-0.75,0.75
	s0.34,0.75,0.75,0.75c1.55,0,2.7,0.4,3.51,1.24c1.67,1.72,1.58,5.01,1.51,7.18c-0.01,0.39-0.02,0.75-0.02,1.07l-0.01,0.77
	c-0.03,2.74-0.08,7.32,2.12,9.55c0.2,0.2,0.41,0.37,0.63,0.52c-0.22,0.15-0.43,0.32-0.63,0.52c-2.21,2.23-2.15,6.81-2.12,9.55
	l0.01,0.77c0,0.32,0.01,0.68,0.02,1.07c0.06,2.18,0.16,5.46-1.51,7.18c-0.81,0.83-1.96,1.24-3.51,1.24c-0.41,0-0.75,0.34-0.75,0.75
	s0.34,0.75,0.75,0.75c1.95,0,3.49-0.57,4.58-1.69c2.11-2.17,2.01-5.84,1.94-8.27c-0.01-0.38-0.02-0.72-0.02-1.02l-0.01-0.79
	c-0.03-2.34-0.08-6.69,1.69-8.48c0.55-0.55,1.23-0.82,2.09-0.82c0,0,0,0,0.01,0c0.41,0,0.75-0.34,0.75-0.75S39.29,21.82,38.87,21.82
	z"/>
<path d="M17.41,2.11c0.41,0,0.75-0.34,0.75-0.75s-0.34-0.75-0.75-0.75c-1.95,0-3.49,0.57-4.59,1.69
	c-2.11,2.17-2.01,5.84-1.94,8.27c0.01,0.38,0.02,0.72,0.02,1.02l0.01,0.79c0.03,2.34,0.08,6.69-1.69,8.48
	c-0.55,0.55-1.24,0.82-2.1,0.82c-0.41,0-0.75,0.34-0.75,0.75s0.34,0.75,0.75,0.75c0,0,0,0,0.01,0c0.86,0,1.55,0.27,2.1,0.82
	c1.77,1.79,1.72,6.14,1.69,8.48l-0.01,0.79c0,0.3-0.01,0.65-0.02,1.03c-0.07,2.43-0.17,6.1,1.94,8.27c1.09,1.12,2.63,1.69,4.59,1.69
	c0.41,0,0.75-0.34,0.75-0.75s-0.34-0.75-0.75-0.75c-1.55,0-2.7-0.41-3.51-1.24c-1.67-1.72-1.58-5.01-1.51-7.18
	c0.01-0.39,0.02-0.75,0.02-1.07l0.01-0.77c0.03-2.74,0.08-7.32-2.12-9.55c-0.2-0.2-0.41-0.37-0.63-0.52
	c0.22-0.15,0.43-0.32,0.63-0.52c2.21-2.23,2.15-6.81,2.12-9.55l-0.01-0.77c0-0.32-0.01-0.68-0.02-1.07
	c-0.06-2.18-0.16-5.46,1.51-7.18C14.71,2.51,15.86,2.11,17.41,2.11z"/>
</svg>
