<svg width="45px" height="45px" viewBox="0 0 45 45">
<path d="M22.5,27.71c-0.8,0-1.44,0.65-1.44,1.44c0,0.52,0.28,0.97,0.69,1.22v3.59c0,0.41,0.34,0.75,0.75,0.75
	s0.75-0.34,0.75-0.75v-3.59c0.41-0.25,0.69-0.7,0.69-1.22C23.94,28.35,23.3,27.71,22.5,27.71z"/>
<path d="M34.31,20.83h-3.42v-4.07c0-4.59-3.76-8.32-8.39-8.32c-4.63,0-8.39,3.73-8.39,8.32v4.07h-3.42
	c-0.41,0-0.75,0.34-0.75,0.75v19.27c0,0.41,0.34,0.75,0.75,0.75h23.61c0.41,0,0.75-0.34,0.75-0.75V21.58
	C35.06,21.16,34.72,20.83,34.31,20.83z M15.61,16.76c0-3.76,3.09-6.82,6.89-6.82c3.8,0,6.89,3.06,6.89,6.82v4.07H15.61V16.76z
	 M33.56,40.1H11.44V22.33h3.42h15.28h3.42V40.1z"/>
</svg>
