<svg width="45px" height="45px" viewBox="0 0 45 45">
<path d="M33.05,35.18h-5.51c-2.4,0-3.27-0.99-3.57-1.58c-0.39-0.77-0.28-1.68,0.31-2.5c1-1.39,1.21-2.23,1.21-2.69
	c0-1.82-1.37-3.18-3.18-3.18c-1.81,0-3.18,1.37-3.18,3.18c0,0.46,0.21,1.3,1.22,2.69c0.59,0.82,0.71,1.73,0.31,2.5
	c-0.3,0.59-1.16,1.58-3.57,1.58h-5.51c-1.02,0-1.84-0.83-1.84-1.84V11.88c0-1.01,0.83-1.84,1.84-1.84h6.43
	c0.71-0.12,1.2-0.39,1.34-0.74c0.14-0.34-0.07-0.72-0.21-0.91c-0.99-1.37-1.5-2.57-1.5-3.55c0-2.62,2.05-4.67,4.67-4.67
	s4.67,2.05,4.67,4.67c0,0.99-0.5,2.19-1.49,3.56c-0.14,0.19-0.35,0.57-0.21,0.91c0.15,0.35,0.64,0.62,1.34,0.74h6.43
	c1.01,0,1.84,0.83,1.84,1.84v5.51c0,1.37,0.4,2.06,0.77,2.25c0.35,0.18,0.75-0.04,0.96-0.19c1.37-0.99,2.57-1.5,3.56-1.5
	c2.62,0,4.67,2.05,4.67,4.67c0,2.62-2.05,4.66-4.67,4.66c-0.99,0-2.18-0.5-3.56-1.49c-0.21-0.15-0.61-0.38-0.96-0.2
	c-0.37,0.19-0.77,0.88-0.77,2.25v5.51C34.89,34.35,34.06,35.18,33.05,35.18z M22.32,23.75c2.62,0,4.67,2.05,4.67,4.67
	c0,0.99-0.5,2.18-1.49,3.56c-0.15,0.21-0.37,0.61-0.19,0.96c0.19,0.37,0.88,0.77,2.25,0.77h5.51c0.2,0,0.36-0.16,0.36-0.36v-5.51
	c0-2.4,0.99-3.27,1.58-3.57c0.77-0.39,1.68-0.28,2.5,0.31c1.08,0.78,2.04,1.21,2.69,1.21c1.81,0,3.18-1.37,3.18-3.18
	c0-1.81-1.37-3.18-3.18-3.18c-0.65,0-1.61,0.43-2.69,1.21c-0.82,0.59-1.73,0.71-2.5,0.31c-0.59-0.3-1.58-1.16-1.58-3.57v-5.51
	c0-0.2-0.16-0.36-0.36-0.36l-6.61-0.01c-1.28-0.2-2.18-0.78-2.53-1.64c-0.31-0.73-0.17-1.59,0.38-2.35
	c0.78-1.08,1.21-2.04,1.21-2.69c0-1.81-1.37-3.18-3.18-3.18c-1.81,0-3.18,1.37-3.18,3.18c0,0.65,0.43,1.6,1.21,2.69
	c0.55,0.76,0.69,1.62,0.38,2.35c-0.36,0.86-1.26,1.44-2.53,1.64l-0.12,0.01h-6.49c-0.2,0-0.36,0.16-0.36,0.36v21.46
	c0,0.2,0.16,0.36,0.36,0.36h5.51c1.37,0,2.06-0.4,2.25-0.77c0.18-0.35-0.04-0.75-0.19-0.96c-0.99-1.38-1.5-2.57-1.5-3.56
	C17.65,25.8,19.7,23.75,22.32,23.75z"/>
</svg>
