<svg width="45px" height="45px" viewBox="0 0 45 45">
<path d="M23.25,24.95v-3.32c0-0.41-0.34-0.75-0.75-0.75s-0.75,0.34-0.75,0.75v3.32l-8.67,17.34
    c-0.12,0.23-0.1,0.51,0.03,0.73c0.14,0.22,0.38,0.36,0.64,0.36h17.5c0.26,0,0.5-0.13,0.64-0.36c0.14-0.22,0.15-0.5,0.03-0.73
    L23.25,24.95z M22.5,26.8l1.47,2.95h-2.95L22.5,26.8z M24.72,31.25l1.18,2.37l-3.4,2.28l-3.41-2.28l1.18-2.37H24.72z M21.16,36.8
    l-5.49,3.67l2.75-5.49L21.16,36.8z M22.51,37.7l6.27,4.18H16.26L22.51,37.7z M23.86,36.79l2.73-1.82l2.73,5.46L23.86,36.79z"/>
<path d="M22.5,1.63c-11.51,0-20.88,9.36-20.88,20.88c0,5.4,2.06,10.52,5.8,14.43c0.29,0.3,0.76,0.31,1.06,0.02
    c0.3-0.29,0.31-0.76,0.02-1.06c-3.47-3.63-5.38-8.38-5.38-13.39c0-10.68,8.69-19.38,19.38-19.38c10.68,0,19.37,8.69,19.37,19.38
    c0,5.01-1.91,9.77-5.38,13.39c-0.29,0.3-0.28,0.77,0.02,1.06c0.15,0.14,0.33,0.21,0.52,0.21c0.2,0,0.39-0.08,0.54-0.23
    c3.74-3.91,5.8-9.03,5.8-14.43C43.37,10.99,34.01,1.63,22.5,1.63z"/>
<path d="M22.5,8.63c-7.65,0-13.88,6.22-13.88,13.88c0,2.91,0.9,5.7,2.6,8.07c0.15,0.2,0.38,0.31,0.61,0.31
    c0.15,0,0.3-0.05,0.44-0.14c0.34-0.24,0.41-0.71,0.17-1.05c-1.52-2.12-2.32-4.61-2.32-7.2c0-6.82,5.55-12.38,12.38-12.38
    s12.37,5.55,12.37,12.38c0,2.59-0.8,5.08-2.32,7.2c-0.24,0.34-0.16,0.81,0.17,1.05c0.34,0.24,0.8,0.16,1.05-0.17
    c1.7-2.38,2.6-5.17,2.6-8.07C36.38,14.85,30.15,8.63,22.5,8.63z"/>
<path d="M28.58,23.47c0.4,0.03,0.77-0.34,0.78-0.76c0-0.07,0.01-0.14,0.01-0.22c0-3.79-3.08-6.88-6.88-6.88
    c-3.79,0-6.88,3.08-6.88,6.88c0,0.07,0,0.14,0.01,0.21l0.01,0.09c0.02,0.4,0.35,0.72,0.75,0.72c0.01,0,0.02,0,0.03,0
    c0.41-0.02,0.74-0.36,0.72-0.78l-0.01-0.24c0-2.96,2.41-5.38,5.38-5.38c2.96,0,5.38,2.41,5.38,5.38l-0.01,0.24
    C27.84,23.15,28.17,23.46,28.58,23.47z"/>
</svg>
