<svg width="45px" height="45px" viewBox="0 0 45 45">
<path d="M30.58,15.17c0-0.41-0.34-0.75-0.75-0.75H15.17c-0.41,0-0.75,0.34-0.75,0.75v14.67
	c0,0.41,0.34,0.75,0.75,0.75h14.67c0.41,0,0.75-0.34,0.75-0.75V15.17z M29.08,29.08H15.92V15.92h13.17V29.08z"/>
<path d="M38.53,6.88c-0.08-0.18-0.22-0.33-0.41-0.41c-0.09-0.04-0.19-0.06-0.29-0.06h-6.67
	c-0.41,0-0.75,0.34-0.75,0.75s0.34,0.75,0.75,0.75h4.86l-4.05,4.05c-0.29,0.29-0.29,0.77,0,1.06c0.15,0.15,0.34,0.22,0.53,0.22
	s0.38-0.07,0.53-0.22l4.05-4.05v4.86c0,0.41,0.34,0.75,0.75,0.75s0.75-0.34,0.75-0.75V7.17C38.58,7.07,38.56,6.97,38.53,6.88z"/>
<path d="M13.83,37.08H8.98l4.05-4.05c0.29-0.29,0.29-0.77,0-1.06s-0.77-0.29-1.06,0l-4.05,4.05v-4.86
	c0-0.41-0.34-0.75-0.75-0.75s-0.75,0.34-0.75,0.75v6.67c0,0.1,0.02,0.19,0.06,0.29c0.08,0.18,0.22,0.33,0.41,0.41
	c0.09,0.04,0.19,0.06,0.29,0.06h6.67c0.41,0,0.75-0.34,0.75-0.75S14.25,37.08,13.83,37.08z"/>
<path d="M7.17,14.58c0.41,0,0.75-0.34,0.75-0.75V8.98l4.05,4.05c0.15,0.15,0.34,0.22,0.53,0.22s0.38-0.07,0.53-0.22
	c0.29-0.29,0.29-0.77,0-1.06L8.98,7.92h4.86c0.41,0,0.75-0.34,0.75-0.75s-0.34-0.75-0.75-0.75H7.17c-0.1,0-0.19,0.02-0.29,0.06
	C6.7,6.55,6.55,6.7,6.47,6.88C6.44,6.97,6.42,7.07,6.42,7.17v6.67C6.42,14.25,6.75,14.58,7.17,14.58z"/>
<path d="M37.83,30.42c-0.41,0-0.75,0.34-0.75,0.75v4.85l-4.05-4.05c-0.29-0.29-0.77-0.29-1.06,0
	c-0.29,0.29-0.29,0.77,0,1.06l4.05,4.06h-4.86c-0.41,0-0.75,0.34-0.75,0.75s0.34,0.75,0.75,0.75h6.67c0.1,0,0.19-0.02,0.29-0.06
	c0.18-0.08,0.33-0.22,0.41-0.41c0.04-0.09,0.06-0.19,0.06-0.29v-6.67C38.58,30.75,38.25,30.42,37.83,30.42z"/>
</svg>
