<svg width="93px" height="25px" viewBox="0 0 93 25" version="1.1" xmlns="http://www.w3.org/2000/svg" xmlns:xlink="http://www.w3.org/1999/xlink">
    <g id="Group-26" opacity="0.8" stroke="none" stroke-width="1" fill="none" fill-rule="evenodd" transform="translate(0.500000, 0.000000)">
        <path d="M17.691753,10.7990267 L9.97293389,10.7990267 C9.7738237,10.7990267 9.61220208,10.9602863 9.61220208,11.1591412 L9.61220208,14.9244084 C9.61220208,15.1230725 9.7738237,15.2849046 9.97293389,15.2849046 L12.984069,15.2849046 L12.984069,19.9631489 C12.984069,19.9631489 12.307936,20.1931107 10.4386719,20.1931107 C8.23334969,20.1931107 5.15259293,19.3891031 5.15259293,12.6297519 C5.15259293,5.86925573 8.36054304,4.97975191 11.372252,4.97975191 C13.9792374,4.97975191 15.1023642,5.43757634 15.8169422,5.65837786 C16.0414911,5.72688931 16.2492083,5.50379771 16.2492083,5.30513359 L17.1102977,1.66696565 C17.1102977,1.57383588 17.0787385,1.46181298 16.9723933,1.38585878 C16.6822395,1.17917939 14.9116699,0.190820611 10.4386719,0.190820611 C5.28571559,0.190820611 1.91268191e-05,2.37822519 1.91268191e-05,12.8934924 C1.91268191e-05,23.4089504 6.0517447,24.9759351 11.1513372,24.9759351 C15.3737738,24.9759351 17.9352374,23.1757443 17.9352374,23.1757443 C18.0408175,23.1175382 18.0522936,22.9702099 18.0522936,22.9028435 L18.0522936,11.1591412 C18.0522936,10.9602863 17.8908632,10.7990267 17.691753,10.7990267" id="Fill-1" fill="#1B1815"></path>
        <path d="M57.4712333,1.45066794 C57.4712333,1.25028626 57.3120981,1.08864504 57.1129879,1.08864504 L52.7668008,1.08864504 C52.5682644,1.08864504 52.4070254,1.25028626 52.4070254,1.45066794 C52.4070254,1.45162214 52.4079817,9.83101145 52.4079817,9.83101145 L45.6334536,9.83101145 L45.6334536,1.45066794 C45.6334536,1.25028626 45.4737447,1.08864504 45.2748258,1.08864504 L40.9290212,1.08864504 C40.7312499,1.08864504 40.5700108,1.25028626 40.5700108,1.45066794 L40.5700108,24.1420802 C40.5700108,24.342271 40.7312499,24.5052481 40.9290212,24.5052481 L45.2748258,24.5052481 C45.4737447,24.5052481 45.6334536,24.342271 45.6334536,24.1420802 L45.6334536,14.4361641 L52.4079817,14.4361641 C52.4079817,14.4361641 52.3963143,24.1415076 52.3963143,24.1420802 C52.3963143,24.342271 52.5575534,24.5052481 52.7562811,24.5052481 L57.1126054,24.5052481 C57.3117156,24.5052481 57.4708507,24.342271 57.4712333,24.1420802 L57.4712333,1.45066794 Z" id="Fill-4" fill="#1B1815"></path>
        <path d="M25.8931227,4.42826336 C25.8931227,2.86681298 24.6384033,1.60498092 23.0904699,1.60498092 C21.5440665,1.60498092 20.2883909,2.86681298 20.2883909,4.42826336 C20.2883909,5.98818702 21.5440665,7.2534542 23.0904699,7.2534542 C24.6384033,7.2534542 25.8931227,5.98818702 25.8931227,4.42826336" id="Fill-6" fill="#1B1815"></path>
        <path d="M25.5823119,19.3554962 L25.5823119,8.8810687 C25.5823119,8.68221374 25.4214553,8.51961832 25.2227277,8.51961832 L20.8903119,8.51961832 C20.6915842,8.51961832 20.5137048,8.72419847 20.5137048,8.9228626 L20.5137048,23.9297328 C20.5137048,24.3705725 20.789131,24.5018702 21.1456549,24.5018702 L25.0490561,24.5018702 C25.4773056,24.5018702 25.5823119,24.2919466 25.5823119,23.9226718 L25.5823119,19.3554962 Z" id="Fill-8" fill="#1B1815"></path>
        <path d="M73.9886761,8.55368321 L69.6757696,8.55368321 C69.4779983,8.55368321 69.3169505,8.71627863 69.3169505,8.91646947 L69.3169505,20.0428053 C69.3169505,20.0428053 68.2213663,20.8428053 66.6661647,20.8428053 C65.1111543,20.8428053 64.6983975,20.1386069 64.6983975,18.6193321 L64.6983975,8.91646947 C64.6983975,8.71627863 64.5377322,8.55368321 64.3397696,8.55368321 L59.9625971,8.55368321 C59.765017,8.55368321 59.6032042,8.71627863 59.6032042,8.91646947 L59.6032042,19.3540649 C59.6032042,23.8666603 62.1239277,24.9706679 65.59162,24.9706679 C68.4363518,24.9706679 70.7300399,23.402729 70.7300399,23.402729 C70.7300399,23.402729 70.8392541,24.2290649 70.8886012,24.3269656 C70.9381397,24.4246756 71.0668632,24.5235305 71.2059152,24.5235305 L73.9905888,24.511126 C74.1881688,24.511126 74.3499817,24.3483397 74.3499817,24.1489122 L74.3486428,8.91646947 C74.3486428,8.71627863 74.1874037,8.55368321 73.9886761,8.55368321" id="Fill-10" fill="#1B1815"></path>
        <path d="M84.0752615,20.8289122 C82.579353,20.7834924 81.5646753,20.1062023 81.5646753,20.1062023 L81.5646753,12.9203244 C81.5646753,12.9203244 82.5655817,12.3081107 83.7937148,12.1985687 C85.3468125,12.0598282 86.8434861,12.527958 86.8434861,16.2245229 C86.8434861,20.1226145 86.1679268,20.8918893 84.0752615,20.8289122 M85.7764008,8.04398855 C83.3268291,8.04398855 81.6606919,9.13444656 81.6606919,9.13444656 L81.6606919,1.45066794 C81.6606919,1.25028626 81.5002179,1.08864504 81.302064,1.08864504 L76.9436358,1.08864504 C76.7454819,1.08864504 76.5844341,1.25028626 76.5844341,1.45066794 L76.5844341,24.1420802 C76.5844341,24.342271 76.7454819,24.5052481 76.9442096,24.5052481 L79.9679684,24.5052481 C80.1041514,24.5052481 80.2072449,24.4350191 80.2835609,24.3125 C80.358538,24.1905534 80.4671784,23.266126 80.4671784,23.266126 C80.4671784,23.266126 82.2492241,24.9514313 85.623195,24.9514313 C89.5839767,24.9514313 91.8554778,22.9468511 91.8554778,15.9523855 C91.8554778,8.95791985 88.227694,8.04398855 85.7764008,8.04398855" id="Fill-12" fill="#1B1815"></path>
        <path d="M38.0733871,8.51751908 L34.8132208,8.51751908 C34.8132208,8.51751908 34.8084391,4.22114504 34.8084391,4.22019084 C34.8084391,4.05740458 34.7242811,3.97629771 34.5358819,3.97629771 L30.0931044,3.97629771 C29.9203892,3.97629771 29.8278154,4.05206107 29.8278154,4.21770992 L29.8278154,8.65835878 C29.8278154,8.65835878 27.6012624,9.19461832 27.4507343,9.23793893 C27.3009713,9.28145038 27.1906096,9.41942748 27.1906096,9.5839313 L27.1906096,12.3743893 C27.1906096,12.5751527 27.3512748,12.7369847 27.5500025,12.7369847 L29.8278154,12.7369847 L29.8278154,19.4505344 C29.8278154,24.4369847 33.3333788,24.9266794 35.6987925,24.9266794 C36.7796491,24.9266794 38.072622,24.5804962 38.2860773,24.5018702 C38.4151834,24.454542 38.4903518,24.321145 38.4903518,24.1764885 L38.4937946,21.1066412 C38.4937946,20.9064504 38.3245222,20.7442366 38.1336366,20.7442366 C37.943516,20.7442366 37.4575035,20.8215267 36.9571459,20.8215267 C35.3558486,20.8215267 34.8132208,20.0785878 34.8132208,19.1169466 C34.8132208,18.1560687 34.8130295,12.7369847 34.8130295,12.7369847 L38.0733871,12.7369847 C38.2721148,12.7369847 38.4331626,12.5751527 38.4331626,12.3743893 L38.4331626,8.87916031 C38.4331626,8.67877863 38.2721148,8.51751908 38.0733871,8.51751908" id="Fill-15" fill="#1B1815"></path>
    </g>
</svg>