<svg width="109px" height="31px" viewBox="25 38 109 31" version="1.1" xmlns="http://www.w3.org/2000/svg" xmlns:xlink="http://www.w3.org/1999/xlink">
    <g id="Page-1" stroke="none" stroke-width="1" fill="none" fill-rule="evenodd" transform="translate(25.000000, 38.000000)">
        <path d="M19.6380011,2.76414206 C19.1776686,1.36028492 17.6558895,0.591927778 16.2388895,1.04807063 C14.8221378,1.50421349 14.0467232,3.01214206 14.5070558,4.41599921 L21.4823109,25.6810151 C21.9610171,26.9928563 23.3909282,27.7297214 24.7634841,27.3382849 C26.1951333,26.9298722 27.0681264,25.4231738 26.6110216,24.029896 C26.5936412,23.9769992 19.6380011,2.76414206 19.6380011,2.76414206" id="Fill-1" fill="#EAAA00"></path>
        <path d="M8.83011731,6.24386746 C8.36978474,4.84001032 6.84800569,4.07165317 5.43100569,4.52779603 C4.01425399,4.98393889 3.23883941,6.49186746 3.69917198,7.8957246 L10.6744271,29.1607405 C11.1531333,30.4725817 12.5830444,31.2094468 13.9556002,30.8180103 C15.3872494,30.4095976 16.2602426,28.9028992 15.8031378,27.5096214 C15.7857574,27.4567246 8.83011731,6.24386746 8.83011731,6.24386746" id="Fill-3" fill="#44B28A"></path>
        <path d="M28.4174918,20.3758079 C29.8342435,19.9196651 30.6096581,18.4117365 30.1493255,17.0076333 C29.6889929,15.6037762 28.1672139,14.835419 26.7504622,15.2915619 L5.29012506,22.2033317 C3.9662344,22.677681 3.22260114,24.0945778 3.61763303,25.4546413 C4.02979704,26.8732603 5.55033462,27.7383079 6.95640979,27.2853635 C7.00979248,27.2681413 28.4174918,20.3758079 28.4174918,20.3758079" id="Fill-5" fill="#DC015B"></path>
        <path d="M9.76284943,26.3819103 C11.1597378,25.9321643 12.9601,25.3525135 14.8920567,24.7305452 C14.4381797,23.3463706 13.8529565,21.5621484 13.2252754,19.6475294 L8.09581982,21.2996325 L9.76284943,26.3819103 Z" id="Fill-7" fill="#4C2B47"></path>
        <path d="M20.5707333,22.9021849 C22.5098904,22.2777563 24.312239,21.6976135 25.6999405,21.2508198 C25.2458153,19.8663992 24.6608403,18.081931 24.0329109,16.1668198 L18.9034554,17.818923 L20.5707333,22.9021849 Z" id="Fill-9" fill="#CB1517"></path>
        <path d="M24.9058048,9.66631667 C26.3225565,9.21017381 27.0979711,7.70224524 26.6376385,6.29814206 C26.1773059,4.89428492 24.6555269,4.12592778 23.2387752,4.58207063 L1.77843804,11.4938405 C0.45454738,11.9681897 -0.289085877,13.3850865 0.105946014,14.74515 C0.518110023,16.163769 2.03864761,17.0288167 3.44472278,16.5758722 C3.49810547,16.55865 24.9058048,9.66631667 24.9058048,9.66631667" id="Fill-11" fill="#80CBDE"></path>
        <path d="M6.25011959,15.6727389 C7.64700797,15.2229929 9.44786674,14.643096 11.38032,14.0211278 C10.750156,12.0993738 10.1644362,10.3134294 9.71353872,8.9381119 L4.58308998,10.5904611 L6.25011959,15.6727389 Z" id="Fill-13" fill="#139078"></path>
        <path d="M17.0579786,12.1930135 C18.9976323,11.5685849 20.8002292,10.988196 22.188179,10.5414024 C21.558015,8.61915635 20.9720469,6.83271984 20.5211494,5.45740238 L15.3907007,7.10975159 L17.0579786,12.1930135 Z" id="Fill-15" fill="#68862C"></path>
        <path d="M50.1860333,8.36156111 C51.1350036,8.77194206 51.204277,9.07972778 50.4621335,10.4818627 C49.7028579,11.918196 49.5131631,12.0038151 48.5813248,11.6273865 C47.4076506,11.1316325 45.9064797,10.75545 44.9401289,10.75545 C43.3525526,10.75545 42.2997964,11.3198468 42.2997964,12.1745611 C42.2997964,14.9960532 51.39422,13.4741008 51.39422,19.4930214 C51.39422,22.519704 48.7710196,24.5374103 44.8365913,24.5374103 C42.7658396,24.5374103 40.2119125,23.8534421 38.4517736,22.9642833 C37.5718282,22.519704 37.5199353,22.2633389 38.2792109,20.8270056 C38.934949,19.5614183 39.1420241,19.4246246 40.0909945,19.8180294 C41.5924137,20.4677992 43.4906027,20.9637992 44.7678146,20.9637992 C46.2170925,20.9637992 47.1834433,20.3821802 47.1834433,19.5274659 C47.1834433,16.7915929 37.9340856,18.0911325 37.9340856,12.2601802 C37.9340856,9.16510079 40.5399057,7.09621984 44.4398214,7.09621984 C46.2689854,7.09621984 48.5813248,7.64339444 50.1860333,8.36156111" id="Fill-17" fill="#42454D"></path>
        <path d="M57.5205911,1.21401905 L57.5205911,23.6481778 C57.5205911,23.9904079 57.1583337,24.3493683 56.6406458,24.3493683 L54.2592813,24.3493683 C53.7415934,24.3493683 53.3790877,23.9904079 53.3790877,23.6481778 L53.3790877,1.21401905 C53.3790877,0.102693651 53.6897005,9.84126982e-05 55.4498394,9.84126982e-05 C57.4515661,9.84126982e-05 57.5205911,0.136892063 57.5205911,1.21401905" id="Fill-19" fill="#42454D"></path>
        <path d="M63.4740519,19.4247476 C63.4740519,20.5705175 64.4577831,21.3398587 65.9415736,21.3398587 C67.7362251,21.3398587 69.3583139,20.4848984 70.3075326,19.0315889 L70.3075326,17.5268587 C69.3583139,17.1676524 68.20202,16.9624619 67.1668925,16.9624619 C64.9580907,16.9624619 63.4740519,18.0056365 63.4740519,19.4247476 M74.449036,13.8334302 L74.449036,23.4943587 C74.449036,24.0073349 74.0865303,24.3665413 73.5690907,24.3665413 L71.2219904,24.3665413 C70.6869221,24.3665413 70.3075326,23.9731365 70.3420451,23.4431841 L70.3765576,22.4000095 C69.0995941,23.8021444 67.2704301,24.5375333 65.4410178,24.5375333 C61.8864756,24.5375333 59.5048629,22.5026048 59.5048629,19.458946 C59.5048629,16.227319 62.1970884,14.0555968 66.2350542,14.0386206 C67.7709859,14.0386206 69.1683708,14.3122079 70.3075326,14.7737635 L70.3075326,13.6621921 C70.3075326,11.8838746 68.8922706,10.8239698 66.493774,10.8239698 C65.372241,10.8239698 63.9917399,11.2685492 62.887339,11.9010968 C62.0416579,12.3798746 61.8345827,12.3456762 60.9201248,10.9949619 C60.0227991,9.64400159 60.0570633,9.38763651 60.9201248,8.8404619 C62.5767262,7.78006508 64.8200405,7.09609683 66.8907923,7.09609683 C71.5326032,7.09609683 74.449036,9.59282698 74.449036,13.8334302" id="Fill-21" fill="#42454D"></path>
        <path d="M90.6018677,8.39580873 C91.4644326,8.8915627 91.4991934,9.16515 90.5499747,10.6187056 C89.6528973,11.9866421 89.4974667,12.0720151 88.5484964,11.5932373 C87.823485,11.2170548 86.6674394,10.8922929 85.7182207,10.8922929 C82.7330112,10.8922929 80.7484166,12.8416024 80.7484166,15.7826659 C80.7484166,18.8433008 82.7330112,20.8952056 85.7182207,20.8952056 C86.7538449,20.8952056 88.0479405,20.5020468 88.8933733,20.0402452 C89.7561866,19.5444913 89.9461296,19.5786897 90.8605875,20.8952056 C91.6888882,22.1263484 91.671756,22.4171579 90.9296125,22.9301341 C89.6010043,23.836269 87.4957401,24.5374595 85.649444,24.5374595 C80.1274394,24.5374595 76.4343506,21.0319992 76.4343506,15.7826659 C76.4343506,10.5672849 80.1274394,7.09626905 85.6837082,7.09626905 C87.3748221,7.09626905 89.3594166,7.66041984 90.6018677,8.39580873" id="Fill-23" fill="#42454D"></path>
        <path d="M108.617929,22.2290175 C109.308179,23.100954 109.032079,23.4089857 107.306453,24.0245571 C105.546314,24.6571048 105.304726,24.6229063 104.683501,23.8193667 L99.7482091,17.2874698 L97.5394073,19.4075254 L97.5394073,23.6481286 C97.5394073,23.9903587 97.1771499,24.349319 96.659462,24.349319 L94.2780975,24.349319 C93.7604096,24.349319 93.3979039,23.9903587 93.3979039,23.6481286 L93.3979039,1.21396984 C93.3979039,0.102644444 93.7085166,4.92063491e-05 95.4686556,4.92063491e-05 C97.4703822,4.92063491e-05 97.5394073,0.136842857 97.5394073,1.21396984 L97.5394073,13.9702238 L104.303863,7.54067619 C105.046006,6.83973175 105.460157,6.89115238 106.788765,7.76308889 C108.255672,8.70366825 108.359209,8.96003333 107.651578,9.64400159 L102.612749,14.5001762 L108.617929,22.2290175 Z" id="Fill-25" fill="#42454D"></path>
    </g>
</svg>