<?xml version="1.0" encoding="utf-8"?>
<svg version="1.1" xmlns="http://www.w3.org/2000/svg" xmlns:xlink="http://www.w3.org/1999/xlink" width="300px" height="108px" viewBox="125 -29 300 108">
<path d="M407.2-0.6c-5.2,0-9.7,2.4-12.8,7.1c-3.1,4.6-4.8,11-4.8,18.6s1.7,14,4.8,18.6c3.1,4.6,7.6,7.1,12.8,7.1
	s9.7-2.4,12.8-7.1c3.1-4.6,4.8-11,4.8-18.6s-1.7-14-4.8-18.6C416.8,1.8,412.4-0.6,407.2-0.6L407.2-0.6L407.2-0.6z M407.2,44.3
	c-2.5,0-4.5-1.4-6.1-4.3c-1.9-3.5-2.9-8.8-2.9-15s1-11.5,2.9-15c1.6-2.9,3.6-4.3,6.1-4.3c2.5,0,4.5,1.4,6.1,4.3
	c1.9,3.5,2.9,8.8,2.9,15s-1,11.5-2.9,15C411.6,42.9,409.7,44.3,407.2,44.3L407.2,44.3L407.2,44.3z M293.5,18v22.1
	c0,5.8,4.8,10.5,10.7,10.5c5.1,0,9-2.5,10.4-3.6c0.1-0.1,0.2-0.1,0.3,0c0.1,0,0.2,0.1,0.2,0.2l0.9,2.8h6.3V18h-8.2v23.9
	c0,0.1-0.1,0.2-0.2,0.3c-1.5,0.8-4.6,2.1-7.6,2.1c-2.6,0-4.7-2.1-4.7-4.6V18H293.5L293.5,18L293.5,18z M375.2,50h8.2V27.9
	c0-5.8-4.8-10.5-10.7-10.5c-4.3,0-7.8,1.8-9.5,2.9c-0.1,0.1-0.2,0.1-0.3,0s-0.2-0.2-0.2-0.3V0h-8.2v50h8.2V26.1
	c0-0.1,0.1-0.2,0.2-0.3c1.5-0.8,4.6-2.1,7.6-2.1c1.3,0,2.4,0.5,3.3,1.4c0.9,0.9,1.4,2,1.4,3.3L375.2,50L375.2,50L375.2,50z
	 M328.1,24.4h5c0.2,0,0.3,0.1,0.3,0.3v17.6c0,4.6,3.8,8.4,8.5,8.4c1.7,0,3.4-0.2,5-0.7v-5.8c-0.9,0.1-2,0.1-2.8,0.1
	c-1.4,0-2.5-1.1-2.5-2.5V24.7c0-0.2,0.1-0.3,0.3-0.3h5V18h-5c-0.2,0-0.3-0.1-0.3-0.3V7.2h-8.2v10.5c0,0.2-0.1,0.3-0.3,0.3h-5V24.4
	L328.1,24.4L328.1,24.4z M280.4,50h8.5L276,5.4c-1-3.6-4.4-6.1-8.1-6.1s-7.1,2.5-8.1,6.1L246.8,50h8.5l3.7-12.9
	c0-0.1,0.2-0.2,0.3-0.2h17.1c0.1,0,0.3,0.1,0.3,0.2L280.4,50L280.4,50L280.4,50z M274.4,30.5h-13c-0.1,0-0.2,0-0.2-0.1
	c-0.1-0.1-0.1-0.2,0-0.3l6.5-22.5c0-0.1,0.2-0.2,0.3-0.2s0.3,0.1,0.3,0.2l6.5,22.5c0,0.1,0,0.2,0,0.3
	C274.6,30.5,274.5,30.5,274.4,30.5L274.4,30.5L274.4,30.5z"/>
<path d="M202.6,58.3L191.7,25l28.6-20.6h-35.4L174-28.9l0,0h35.4l10.9,33.3l0,0l0,0C226.7,23.7,220.2,45.7,202.6,58.3
	L202.6,58.3L202.6,58.3z M145.3,58.3L145.3,58.3L174,79l28.7-20.6L174,37.7L145.3,58.3L145.3,58.3L145.3,58.3z M127.6,4.4L127.6,4.4
	c-6.7,20.4,1.1,42,17.7,54l0,0L156.3,25L127.6,4.4l35.4,0L174-28.9l0,0h-35.4L127.6,4.4L127.6,4.4L127.6,4.4z"/>
</svg>
