<?xml version="1.0" encoding="UTF-8"?>
<svg width="300px" height="108px" viewBox="0 0 300 108" version="1.1" xmlns="http://www.w3.org/2000/svg" xmlns:xlink="http://www.w3.org/1999/xlink">
    <!-- Generator: Sketch 41.2 (35397) - http://www.bohemiancoding.com/sketch -->
    <title>Logo</title>
    <desc>Created with Sketch.</desc>
    <defs></defs>
    <g id="Mockup" stroke="none" stroke-width="1" fill="none" fill-rule="evenodd">
        <g id="01-Main-Desktop" transform="translate(-323.000000, -3553.000000)">
            <g id="Media-Resources" transform="translate(234.000000, 3267.000000)">
                <g id="Blue" transform="translate(0.000000, 240.000000)">
                    <g id="Logo" transform="translate(89.000000, 46.000000)">
                        <path d="M282.153896,28.3564286 C276.908442,28.3564286 272.472078,30.8031429 269.324026,35.4310714 C266.194805,40.0313571 264.540909,46.4528571 264.540909,54 C264.540909,61.5471429 266.194805,67.9686429 269.324026,72.5682857 C272.472078,77.1968571 276.908442,79.6429286 282.153896,79.6429286 C287.399351,79.6429286 291.835714,77.1968571 294.983766,72.5682857 C298.112338,67.9686429 299.766234,61.5471429 299.766234,54 C299.766234,46.4528571 298.112338,40.0313571 294.983766,35.4310714 C291.835714,30.8031429 287.399351,28.3564286 282.153896,28.3564286 L282.153896,28.3564286 L282.153896,28.3564286 Z M282.153896,73.2889286 C279.646104,73.2889286 277.664935,71.8842857 276.095455,68.994 C274.2,65.5026429 273.155844,60.1778571 273.155844,54 C273.155844,47.8221429 274.2,42.4967143 276.095455,39.006 C277.664935,36.1157143 279.646104,34.7104286 282.153896,34.7104286 C284.661039,34.7104286 286.642857,36.1157143 288.212338,39.006 C290.107792,42.4967143 291.151299,47.8215 291.151299,54 C291.151299,60.1785 290.107792,65.5039286 288.212338,68.994 C286.642857,71.8842857 284.661039,73.2889286 282.153896,73.2889286 L282.153896,73.2889286 L282.153896,73.2889286 Z M168.474026,47.0391429 L168.474026,69.0968571 C168.474026,74.9121429 173.253247,79.6429286 179.127273,79.6429286 C184.250649,79.6429286 188.121429,77.1267857 189.546753,76.0442143 C189.625974,75.9837857 189.72987,75.9657857 189.825325,75.996 C189.920779,76.0262143 189.994805,76.1007857 190.024026,76.1959286 L190.883766,78.9814286 L197.231818,78.9814286 L197.231818,47.0391429 L189.074675,47.0391429 L189.074675,70.9238571 C189.074675,71.0363571 189.01039,71.1398571 188.90974,71.1919286 C187.375974,71.9749286 184.35,73.2895714 181.318831,73.2895714 C178.735065,73.2895714 176.631169,71.208 176.631169,68.6487857 L176.631169,47.0391429 L168.474026,47.0391429 L168.474026,47.0391429 L168.474026,47.0391429 Z M250.153896,78.9807857 L258.311688,78.9807857 L258.311688,56.9230714 C258.311688,51.1077857 253.532468,46.3763571 247.658442,46.3763571 C243.334416,46.3763571 239.865584,48.2168571 238.183117,49.3135714 C238.088961,49.3746429 237.969481,49.3797857 237.871429,49.3270714 C237.773377,49.2743571 237.711039,49.1727857 237.711039,49.0615714 L237.711039,29.0192143 L229.553896,29.0192143 L229.553896,78.9807857 L237.711039,78.9807857 L237.711039,55.0954286 C237.711039,54.9829286 237.775325,54.8794286 237.876623,54.828 C239.40974,54.0443571 242.436364,52.7303571 245.466883,52.7303571 C246.718831,52.7303571 247.896104,53.2131429 248.781169,54.0893571 C249.666234,54.9655714 250.153247,56.1317143 250.153247,57.3705 L250.153247,78.9807857 L250.153896,78.9807857 L250.153896,78.9807857 Z M203.111688,53.3925 L208.076623,53.3925 C208.244805,53.3925 208.381169,53.5275 208.381169,53.694 L208.381169,71.2658571 C208.381169,75.8847857 212.177273,79.6422857 216.842857,79.6422857 C218.534416,79.6422857 220.203247,79.4005714 221.808442,78.9235714 L221.808442,73.1545714 C220.872078,73.2362143 219.795455,73.2889286 219.034416,73.2889286 C217.657792,73.2889286 216.538312,72.18 216.538312,70.8177857 L216.538312,53.6933571 C216.538312,53.5268571 216.674675,53.3918571 216.842857,53.3918571 L221.808442,53.3918571 L221.808442,47.0385 L216.842857,47.0385 C216.674675,47.0385 216.538312,46.9035 216.538312,46.737 L216.538312,36.1896429 L208.381169,36.1896429 L208.381169,46.737 C208.381169,46.9035 208.244805,47.0385 208.076623,47.0385 L203.111688,47.0385 L203.111688,53.3925 L203.111688,53.3925 L203.111688,53.3925 Z M155.429221,78.9807857 L163.914935,78.9807857 L151.00974,34.425 C149.975325,30.852 146.630519,28.3564286 142.875974,28.3564286 C139.121429,28.3564286 135.776623,30.852 134.741558,34.425 L121.836364,78.9807857 L130.322727,78.9807857 L134.057792,66.0844286 C134.095455,65.9552143 134.214935,65.8665 134.350649,65.8665 L151.401299,65.8665 C151.537013,65.8665 151.657143,65.9552143 151.694156,66.0844286 L155.429221,78.9807857 L155.429221,78.9807857 L155.429221,78.9807857 Z M149.387013,59.5131429 L136.366234,59.5131429 C136.270779,59.5131429 136.180519,59.4687857 136.122727,59.3922857 C136.065584,59.3177143 136.047403,59.2193571 136.073377,59.1287143 L142.583766,36.6505714 C142.621429,36.5213571 142.740909,36.4326429 142.876623,36.4326429 C143.012338,36.4326429 143.131818,36.5213571 143.168831,36.6505714 L149.67987,59.1287143 C149.705844,59.22 149.687662,59.3177143 149.62987,59.3922857 C149.572727,59.4687857 149.482468,59.5131429 149.387013,59.5131429 L149.387013,59.5131429 L149.387013,59.5131429 Z" id="Shape" fill="#16214D"></path>
                        <path d="M77.6331169,87.3392143 L66.6915584,53.9980714 L95.3331169,33.3977143 L59.9292208,33.3977143 L48.987013,0.0578571429 L48.9837662,0.0488571429 L84.3928571,0.0488571429 L95.3376623,33.3945 L95.3383117,33.3938571 L95.3474026,33.3887143 C101.703247,52.7335714 95.1571429,74.736 77.6331169,87.3392143 L77.6331169,87.3392143 L77.6331169,87.3392143 Z M20.3383117,87.3392143 L20.3292208,87.3456429 L48.9779221,107.951143 L77.6331169,87.3398571 L48.987013,66.7337143 L20.3383117,87.3392143 L20.3383117,87.3392143 L20.3383117,87.3392143 Z M2.63116883,33.3893571 L2.63116883,33.3893571 C-4.05974026,53.7814286 3.70714286,75.3891429 20.3324675,87.3430714 L20.3350649,87.3327857 L31.2779221,53.9935714 L2.64285714,33.3970714 L38.0383117,33.3970714 L48.9811688,0.0572142857 L48.9837662,0.0482142857 L13.5727273,0.0482142857 L2.63116883,33.3893571 L2.63116883,33.3893571 L2.63116883,33.3893571 Z" id="Shape" fill="#EB5424"></path>
                    </g>
                </g>
            </g>
        </g>
    </g>
</svg>