<?xml version="1.0" encoding="utf-8"?>
<svg version="1.1" xmlns="http://www.w3.org/2000/svg" xmlns:xlink="http://www.w3.org/1999/xlink" width="168px" height="60px" viewBox="59 -5 168 60">
<path d="M101.4,16.3c0.3,0.2,0.6,0.4,0.8,0.6c0,0,0,0,0.1,0h0l5.9-2.5c0,0,0.1-0.1,0.1-0.1c0,0,0-0.1,0-0.1
	l-5.5-5.4c0,0-0.1,0-0.1,0h0c0,0-0.1,0-0.1,0.1L101.4,16.3C101.3,16.2,101.4,16.3,101.4,16.3z M89.2,11.3c0.3,0.4,0.5,0.9,0.5,1.4
	c0,0,0,0.1,0.1,0.1l8.7,3.7h0c0,0,0.1,0,0.1,0c0.3-0.2,0.6-0.4,0.9-0.5c0,0,0.1,0,0.1-0.1l1.4-8.8c0,0,0-0.1,0-0.1l-5.4-5.4
	c0,0,0,0-0.1,0s-0.1,0-0.1,0.1l-6.1,9.5C89.2,11.3,89.2,11.3,89.2,11.3z M119,25l-9.3-9.3c0,0-0.1,0-0.1,0h0l-6.3,2.7
	c0,0-0.1,0.1-0.1,0.1c0,0,0,0.1,0.1,0.1l15.6,6.6h0c0,0,0.1,0,0.1,0l0.1-0.1C119,25.1,119,25,119,25z M117.4,26.5l-15-6.4h0
	c0,0-0.1,0-0.1,0c-0.4,0.6-1,0.9-1.7,1c0,0-0.1,0-0.1,0.1l-1.6,9.9c0,0,0,0.1,0,0.1c0.6,0.4,0.9,1.1,1,1.8c0,0.1,0,0.1,0.1,0.1
	l9.1,1.9h0c0,0,0.1,0,0.1,0l8.3-8.2C117.5,26.6,117.5,26.6,117.4,26.5C117.5,26.5,117.5,26.5,117.4,26.5z M97.6,18.1l-8.2-3.5h0
	c0,0-0.1,0-0.1,0.1c-0.6,0.9-1.5,1.4-2.5,1.4c-0.2,0-0.3,0-0.5-0.1h0c0,0-0.1,0-0.1,0.1l-6.7,10.5c0,0,0,0.1,0,0.1c0,0,0.1,0,0.1,0
	h0l18-7.7c0,0,0.1-0.1,0.1-0.1v-0.1v-0.1c0-0.2,0-0.3,0.1-0.4C97.6,18.1,97.6,18.1,97.6,18.1z M107.4,36.4l-8-1.6h0c0,0-0.1,0-0.1,0
	c-0.3,0.4-0.7,0.7-1.1,0.9c0,0-0.1,0.1-0.1,0.1l-1.9,11.7c0,0.1,0,0.1,0.1,0.1h0.1c0,0,0.1,0,0.1,0l11-11c0,0,0-0.1,0-0.1
	C107.5,36.4,107.5,36.4,107.4,36.4z M96.3,35.6c-0.8-0.3-1.3-1-1.5-1.8c0,0,0-0.1-0.1-0.1L80,30.7c0,0,0,0,0,0c0,0-0.1,0-0.1,0.1
	c-0.1,0.1-0.1,0.2-0.2,0.3c0,0,0,0.1,0,0.1l13.4,19.5c0,0,0,0,0.1,0s0.1,0,0.1,0l0.8-0.8c0,0,0,0,0-0.1L96.3,35.6
	C96.4,35.6,96.4,35.6,96.3,35.6z M80.3,28.9C80.3,28.9,80.3,29,80.3,28.9L95,32h0c0,0,0.1,0,0.1-0.1c0.4-0.8,1.2-1.3,2.1-1.3
	c0.1,0,0.1,0,0.1-0.1l1.6-9.7c0,0,0-0.1-0.1-0.1c-0.1-0.1-0.2-0.2-0.3-0.3c0,0-0.1,0-0.1,0h0l-18.1,7.7c-0.1,0-0.1,0.1-0.1,0.1
	C80.2,28.5,80.3,28.7,80.3,28.9z M74.1,31.3C74,31.2,74,31.1,73.9,31c0,0-0.1-0.1-0.1-0.1h0l-6.3,2.7c0,0-0.1,0-0.1,0.1s0,0.1,0,0.1
	l3.1,3.1c0,0,0.1,0,0.1,0c0,0,0.1,0,0.1-0.1L74.1,31.3C74.1,31.4,74.1,31.4,74.1,31.3z M78.3,32.3C78.3,32.3,78.2,32.3,78.3,32.3
	l-0.1-0.1c-0.5,0.2-0.9,0.3-1.4,0.3c-0.4,0-0.7-0.1-1.1-0.2h0c0,0-0.1,0-0.1,0.1l-3.7,5.7l0,0c0,0,0,0.1,0,0.1L88.7,55
	c0,0,0.1,0,0.1,0c0,0,0.1,0,0.1,0l3-2.9c0,0,0-0.1,0-0.1L78.3,32.3z M75.9,25.7C76,25.8,76,25.8,75.9,25.7l0.1,0.1
	c0.3-0.1,0.5-0.1,0.8-0.1c0.3,0,0.6,0.1,0.9,0.1h0c0,0,0.1,0,0.1-0.1l6.8-10.6c0,0,0-0.1,0-0.1c-0.5-0.6-0.8-1.3-0.8-2.1
	c0-0.2,0-0.5,0.1-0.7c0-0.1,0-0.1-0.1-0.1c-0.9-0.4-8.5-3.6-8.5-3.6h0c0,0-0.1,0-0.1,0l-6.5,6.5c0,0,0,0.1,0,0.1L75.9,25.7z
	 M76.7,7.3c0,0,7.7,3.3,8.1,3.4h0c0,0,0,0,0.1,0c0.5-0.4,1.2-0.7,1.9-0.7c0.3,0,0.7,0.1,1,0.2h0c0,0,0.1,0,0.1-0.1l6.3-9.8
	c0,0,0-0.1,0-0.1l-5.2-5.2c0,0,0,0-0.1,0s-0.1,0-0.1,0L76.7,7.1C76.6,7.2,76.6,7.2,76.7,7.3C76.6,7.3,76.6,7.3,76.7,7.3z M73.7,27.6
	C73.7,27.6,73.7,27.5,73.7,27.6c0.2-0.4,0.5-0.6,0.7-0.9c0,0,0-0.1,0-0.1c-0.1-0.1-7-10.1-7-10.1c0,0,0,0-0.1-0.1c0,0-0.1,0-0.1,0
	l-8,8c0,0,0,0.1,0,0.1s0,0.1,0.1,0.1L73.7,27.6C73.6,27.6,73.6,27.6,73.7,27.6z M73,29.3C73,29.3,73,29.2,73,29.3l-12.6-2.7
	c0,0,0,0,0,0s-0.1,0-0.1,0.1s0,0.1,0,0.1l5.6,5.5c0,0,0.1,0,0.1,0h0l6.9-2.9C73,29.4,73,29.3,73,29.3z"/>
<path d="M181,10.1h4.1v26.3H181V10.1z M139.3,17.5c-2.2,0-3.9,0.8-5.3,2.5l-0.1-2.1H130v18.5h4.1V23.2
	c0.8-1.5,2-2.3,3.7-2.3c1.1,0,1.9,0.3,2.4,0.9c0.5,0.6,0.7,1.4,0.7,2.6v12h4.1V24.1C145,19.7,143.1,17.5,139.3,17.5z M156.9,17.5
	c-1.6,0-3,0.4-4.2,1.2c-1.3,0.8-2.2,1.9-3,3.4c-0.7,1.5-1,3.1-1,4.9v0.5c0,2.7,0.8,5,2.4,6.6c1.6,1.7,3.7,2.5,6.3,2.5
	c1.5,0,2.9-0.3,4.1-0.9s2.2-1.5,2.9-2.6l-2.2-2.1c-1.2,1.5-2.7,2.3-4.6,2.3c-1.3,0-2.4-0.5-3.3-1.3c-0.9-0.9-1.4-2.1-1.5-3.6h11.9
	v-1.7c0-2.9-0.7-5.2-2-6.8C161.2,18.3,159.3,17.5,156.9,17.5z M160.6,25.4h-7.8c0.2-1.4,0.6-2.5,1.3-3.3c0.7-0.8,1.6-1.2,2.7-1.2
	s2,0.4,2.6,1.1s1,1.8,1.1,3.2L160.6,25.4L160.6,25.4z M173.8,32.8c-0.3-0.3-0.4-0.8-0.4-1.5V20.9h3.2v-3.1h-3.2v-4.5h-4.1v4.5h-3
	v3.1h3v10.5c0,3.5,1.6,5.3,4.7,5.3c0.9,0,1.8-0.1,2.7-0.4v-3.2c-0.5,0.1-1,0.2-1.4,0.2C174.6,33.3,174.1,33.1,173.8,32.8z
	 M191.3,17.9h4.1v18.5h-4.1V17.9z M218.5,30.4l-3.8-12.6h-4.4l6.4,18.4l-0.6,1.6c-0.3,0.9-0.7,1.5-1.2,1.9c-0.5,0.4-1.3,0.6-2.3,0.6
	l-0.8-0.1v3.2c0.7,0.2,1.4,0.3,2,0.3c2.6,0,4.5-1.6,5.7-4.7l7.2-21.3h-4.4L218.5,30.4z M203.4,11.4c-1.1,1.1-1.7,2.7-1.7,4.8v1.7
	H199v3.1h2.8v15.4h4.1V20.9h3.7v-3.1h-3.7v-1.6c0-2,1-3.1,2.9-3.1c0.6,0,1.1,0.1,1.6,0.1l0.1-3.3c-0.8-0.2-1.6-0.3-2.3-0.3
	C206.1,9.7,204.5,10.3,203.4,11.4z M195.4,9.7v3.6h-4.1V9.7H195.4z"/>
</svg>
