<?xml version="1.0" encoding="utf-8"?>
<!-- Generator: Adobe Illustrator 19.1.0, SVG Export Plug-In . SVG Version: 6.00 Build 0)  -->
<!DOCTYPE svg PUBLIC "-//W3C//DTD SVG 1.1//EN" "http://www.w3.org/Graphics/SVG/1.1/DTD/svg11.dtd">
<svg version="1.1" id="Layer_1" xmlns:sketch="http://www.bohemiancoding.com/sketch/ns"
	 xmlns="http://www.w3.org/2000/svg" xmlns:xlink="http://www.w3.org/1999/xlink" x="0px" y="0px" viewBox="34 -2 87 22"
	 enable-background="new 34 -2 87 22" xml:space="preserve">
<title>webflow--blue</title>
<desc>Created with Sketch.</desc>
<g id="Page-1" sketch:type="MSPage">
	<g id="webflow--blue" sketch:type="MSArtboardGroup">
		<path id="Fill-4" sketch:type="MSShapeGroup" fill="#323B40" d="M86.5-1.9l-2.1,17l0,0l-0.4,2.1c0.1,0,0.1,0,0.2,0v0
			c2.3,0,3.9-2,4.2-4.5L89.5,3C89.9,0,88.1-1.9,86.5-1.9L86.5-1.9z M116.4,7.3c0,0-1.5,4.6-1.6,4.9c0-0.4-1.1-8.6-1.1-8.6
			c-2.5,0-3.8,1.8-4.5,3.6c0,0-1.8,4.6-1.9,5c0-0.4-0.3-4.9-0.3-4.9c-0.1-2.3-2.2-3.7-3.9-3.7l2,12.4c2.6,0,4-1.8,4.7-3.6
			c0,0,1.6-4,1.6-4.2c0,0.2,1.1,7.8,1.1,7.8c2.6,0,4-1.6,4.8-3.4l3.6-9C118.4,3.7,117.1,5.4,116.4,7.3L116.4,7.3z M98.3,9.7
			c-0.2,1.5-0.8,3.8-2.7,3.8c-1.8,0-1.6-2.7-1.4-4c0.2-1.4,1-3.3,2.6-3.3C98.4,6.2,98.5,8,98.3,9.7L98.3,9.7z M97.1,3.4
			c-2.9,0-5.6,2.1-6.5,5.5c-0.8,3.4,0.4,7.3,4.7,7.3c4.3,0,6.7-4.1,6.7-7.6C102.1,5.3,99.8,3.4,97.1,3.4L97.1,3.4z M84.1,3.7h-2.5
			l0-0.1c0.2-1.6,0.6-2.5,1.8-2.6c0.9-0.1,1.3-0.5,1.4-1c0.1-0.4,0.3-1.7,0.3-1.7c-5,0-6.6,2.1-7,5.5l0,0.1l0,0
			c-0.8,0-1.7,0.9-1.9,2.1l-0.1,0.4h1.7l-1.4,11.6l-0.4,2.1c0.1,0,0.1,0,0.2,0c2.4-0.1,3.9-1.9,4.2-4.6l1.1-9.1h0.8
			c0.8,0,1.7-0.8,1.8-2.1L84.1,3.7L84.1,3.7z M71.3,9.8c-0.4,2.2-1.6,3.7-2.8,3.7c-1.2,0-1.7-0.5-1.7-0.5c0.2-1.9,0.4-3.1,0.8-4.1
			c0.4-1,1.5-2.6,2.5-2.6C71.2,6.2,71.7,7.6,71.3,9.8L71.3,9.8z M71.6,3.4c-1.6,0-2.8,0.9-3.9,2.2l0,0l0.9-7.5
			c-2.1,0-3.9,1.9-4.2,4.6L62.9,16c1.2,0,2.5-0.4,3.2-1.3c0.6,0.8,1.6,1.5,2.9,1.5c3.6,0,6.1-4.2,6.1-8.1
			C75.1,4.5,73.4,3.4,71.6,3.4L71.6,3.4z M47.3,7.3c0,0-1.5,4.6-1.6,4.9c0-0.4-1.1-8.6-1.1-8.6c-2.5,0-3.8,1.8-4.5,3.6
			c0,0-1.8,4.6-1.9,5c0-0.4-0.3-4.9-0.3-4.9C37.8,5,35.7,3.7,34,3.7l2,12.4c2.6,0,4-1.8,4.7-3.6c0,0,1.6-4,1.6-4.2
			c0,0.2,1.1,7.8,1.1,7.8c2.6,0,4-1.6,4.8-3.4l3.6-9C49.3,3.7,48,5.4,47.3,7.3L47.3,7.3z M58.7,6.9c0,0.5-0.2,1.3-3.7,1.8
			c0.7-2.6,2.1-2.8,2.7-2.8C58.4,5.9,58.8,6.4,58.7,6.9L58.7,6.9z M62.1,6.6c0-1.6-1.5-3.2-4.1-3.2c-3,0-6.2,2.2-6.7,6.5
			c-0.5,4.4,2.2,6.3,4.9,6.3c2.7,0,4.2-1.1,5.6-2.5c-1.3-1.6-2.9-0.8-3.2-0.7c-0.3,0.2-0.8,0.4-1.7,0.4c-1.1,0-2.1-0.5-2.1-2.4
			C61.6,10.3,62.1,8.2,62.1,6.6L62.1,6.6z"/>
	</g>
</g>
</svg>
