<svg width="35px" height="35px" viewBox="2 3 35 35" version="1.1" xmlns="http://www.w3.org/2000/svg" xmlns:xlink="http://www.w3.org/1999/xlink">
    <g id="Group-18" stroke="none" stroke-width="1" fill="none" fill-rule="evenodd" transform="translate(2.000000, 3.000000)" stroke-linecap="round" stroke-linejoin="round">
        <path d="M8.3153913,21.2270435 C8.3153913,21.2270435 24.9708261,4.52595652 26.0482174,3.45008696 C27.6612609,1.83704348 34.118,0.761173913 34.118,0.761173913 C34.118,0.761173913 33.0421304,7.2163913 31.4275652,8.83095652 C29.2758261,10.9826957 13.671913,26.585087 13.671913,26.585087 L8.3153913,21.2270435 Z" id="Stroke-1" stroke="#F25C54" stroke-width="1.5"></path>
        <path d="M10.4619565,19.061913 L15.826087,24.4321304" id="Stroke-3" stroke="#F25C54" stroke-width="1.5"></path>
        <path d="M21.7435217,18.5165217 C21.7435217,19.5923913 21.7435217,23.8943478 21.2048261,25.508913 C20.8639565,26.5315217 19.7911304,27.9984783 19.0515652,28.7380435 L13.6722174,34.1173913 L14.6704783,25.5865217" id="Stroke-5" stroke="#F25C54" stroke-width="1.5"></path>
        <path d="M16.3631087,13.1353478 C15.2887609,13.1353478 10.9381087,13.0896957 9.32354348,13.6268696 C8.30245652,13.9692609 6.8781087,15.0877391 6.14006522,15.8257826 C4.02028261,17.9455652 0.760717391,21.2051304 0.760717391,21.2051304 L9.34484783,20.1551304" id="Stroke-7" stroke="#F25C54" stroke-width="1.5"></path>
        <path d="M10.444913,26.5843261 C11.5223043,27.6601957 11.0733913,29.1849783 9.90621739,30.3521522 C8.421,31.8358478 1.29773913,33.6010652 1.29773913,33.6010652 C1.29773913,33.6010652 3.04165217,26.4565 4.52686957,24.9697609 C5.70926087,23.7888913 7.21730435,23.3567174 8.29317391,24.432587" id="Stroke-9" stroke="#F25C54" stroke-width="1.5"></path>
    </g>
</svg>