<?xml version="1.0" encoding="utf-8"?>
<!-- Generator: Adobe Illustrator 19.0.0, SVG Export Plug-In . SVG Version: 6.00 Build 0)  -->
<svg version="1.1" id="Ebene_1" xmlns="http://www.w3.org/2000/svg" xmlns:xlink="http://www.w3.org/1999/xlink" x="0px" y="0px"
	 width="130px" height="130px" viewBox="0 0 130 130" style="enable-background:new 0 0 130 130;" xml:space="preserve">
<style type="text/css">
	.st0{fill:none;}
	.st1{fill-rule:evenodd;clip-rule:evenodd;fill:#1F8CEB;}
</style>
<rect x="-499.83" y="-262.17" class="st0" width="1120" height="600"/>
<rect x="-499.83" y="-262.17" class="st0" width="1120" height="600"/>
<rect x="-499.83" y="-262.17" class="st0" width="1120" height="600"/>
<g id="XMLID_60_">
	<path id="XMLID_18_" class="st1" d="M61.17,105.76c0-0.14-1.17-0.22-1.9-0.22c-3.16,0-5.88,1.31-7.91,3.41L25.68,94.18
		c0.04-0.14,0.14-0.35,0.18-0.35h35.31v-6h-35.3c-0.24-1-0.63-1.73-1.18-2.67c-0.55-0.94-1.21-1.64-1.96-2.36L56.4,24.56
		c0.99,0.28,1.79,0.47,2.86,0.47c0.74,0,1.9-0.06,1.9-0.2V2.86c0-0.05-0.64-0.09-1.1-0.09c-6.16,0-11.03,4.98-11.03,11.15
		c0,1.1,0.22,2.17,0.52,3.17L23.87,31.94c-0.72-0.76-1.55-1.43-2.5-1.99c-5.33-3.07-12.16-1.25-15.23,4.09
		c-3.07,5.33-1.26,12.17,4.07,15.23c0.95,0.55,1.95,0.94,2.95,1.18v29.7c-1,0.24-1.98,0.63-2.92,1.18c-5.33,3.1-7.14,9.9-4.08,15.23
		c3.07,5.33,9.87,7.15,15.24,4.09c0.94-0.55,1.78-1.21,2.5-1.96l25.71,14.84c-0.29,1-0.45,2.06-0.45,3.15
		c0,6.16,4.74,11.15,10.91,11.15c0.45,0,1.1-0.04,1.1-0.09V105.76z M17.87,80.29c-0.15-0.04-0.71-0.08-0.71-0.12V50.43
		c2-0.71,5.66-2.51,7.23-5.24c1.57-2.73,1.99-5.84,1.19-8.64l25.84-14.88c0.1,0.11,0.11,0.21,0.22,0.32L17.87,80.29z"/>
	<path id="XMLID_15_" class="st1" d="M112.06,7.83H69.17v15.66c2,0,3,1.7,3,3.8v55.09c0,2.1-1,3.8-3,3.8v13.3
		c23,0,35.47-10.38,35.59-10.48c1.59-1.37,4.03-1.18,5.39,0.41c1.37,1.59,1.12,3.99-0.47,5.36c-0.59,0.5-14.52,12.31-40.52,12.31
		v14.76h42.89c7.87,0,14.11-5.92,14.11-13.79V22.56C126.17,14.7,119.93,7.83,112.06,7.83z M92.17,79.97c0,2.1-1.9,3.8-4,3.8
		c-2.1,0-4-1.7-4-3.8V29.21c0-2.1,1.9-3.8,4-3.8c2.1,0,4,1.7,4,3.8V79.97z M110.17,70.98c0,2.1-1.4,3.8-3.5,3.8
		c-2.1,0-3.5-1.7-3.5-3.8V36.81c0-2.1,1.4-3.8,3.5-3.8c2.1,0,3.5,1.7,3.5,3.8V70.98z"/>
</g>
<rect x="-499.83" y="-262.17" class="st0" width="1120" height="600"/>
</svg>
