<svg id="Layer_1" data-name="Layer 1" xmlns="http://www.w3.org/2000/svg" viewBox="0 0 165.13 108.44"><defs><style>.cls-1{fill:#e1e5e4;}.cls-2{fill:#dce7e7;}.cls-3{fill:#6e7f82;}.cls-4{fill:#b3baba;}.cls-5{fill:#cdd1d1;}.cls-6{fill:#98b1b8;}.cls-7{fill:#8ba0a5;}.cls-8{fill:#eaf4f4;}.cls-9{fill:#ccd6d6;}.cls-10{fill:#bfc6c6;}.cls-11{fill:#d4d8d9;}.cls-12{fill:#c5d5d8;}.cls-13{fill:#79bc66;}.cls-14{fill:#3f825b;}</style></defs><title>Step_1</title><rect class="cls-1" x="164.05" y="2.1" width="1.09" height="12.17"/><rect class="cls-2" width="164.05" height="107.07"/><polygon class="cls-3" points="0 107.07 1.67 108.44 3.33 108.44 1.67 107.07 0 107.07"/><rect class="cls-4" x="24.68" y="107.07" width="140.45" height="1.38"/><polygon class="cls-1" points="162.93 0 164.03 2.1 165.13 2.1 164.03 0 162.93 0"/><polygon class="cls-5" points="162.93 11.84 164.03 13.62 165.13 13.62 164.03 11.84 162.93 11.84"/><polygon class="cls-3" points="24.68 107.07 26.35 108.44 28.02 108.44 26.35 107.07 24.68 107.07"/><rect class="cls-6" width="26.35" height="107.07"/><rect class="cls-5" x="164.05" y="13.62" width="1.09" height="94.82"/><polygon class="cls-4" points="162.96 107.07 164.04 108.44 165.13 108.44 164.04 107.07 162.96 107.07"/><rect class="cls-7" width="26.35" height="20.33"/><rect class="cls-7" y="99.73" width="26.35" height="7.34"/><rect class="cls-8" width="164.05" height="11.83"/><rect class="cls-8" x="33.99" y="31.65" width="105.55" height="58.58"/><rect class="cls-9" x="26.35" y="11.83" width="137.7" height="8.5"/><rect class="cls-10" x="26.35" y="11.83" width="137.7" height="1.32"/><rect class="cls-10" x="143.29" y="5.26" width="6.93" height="1.32"/><rect class="cls-11" x="13.17" y="5.01" width="13.17" height="1.82"/><rect class="cls-6" x="37.53" y="34.93" width="4.56" height="1.95"/><rect class="cls-6" x="37.53" y="39.17" width="6.32" height="1.95"/><rect class="cls-6" x="63.89" y="34.93" width="6.32" height="1.95"/><rect class="cls-6" x="63.89" y="42.84" width="6.32" height="1.95"/><rect class="cls-6" x="63.89" y="47.65" width="2.87" height="1.95"/><rect class="cls-6" x="63.89" y="51.66" width="4.67" height="1.95"/><rect class="cls-6" x="37.53" y="43.5" width="10.35" height="1.95"/><rect class="cls-6" x="37.53" y="47.65" width="7.83" height="1.95"/><rect class="cls-6" x="37.53" y="51.75" width="9.64" height="1.95"/><rect class="cls-12" x="4.48" y="31.65" width="12.18" height="1.95"/><rect class="cls-12" x="4.48" y="35.64" width="6.09" height="1.95"/><rect class="cls-12" x="4.48" y="39.63" width="12.18" height="1.95"/><rect class="cls-12" x="4.48" y="43.54" width="8.7" height="1.95"/><rect class="cls-12" x="4.48" y="53.79" width="4.93" height="1.95"/><rect class="cls-12" x="4.48" y="57.9" width="8.7" height="1.95"/><rect class="cls-12" x="4.48" y="62" width="12.18" height="1.95"/><rect class="cls-12" x="4.48" y="82.65" width="6.83" height="1.95"/><rect class="cls-12" x="4.48" y="86.76" width="12.18" height="1.95"/><rect class="cls-12" x="4.48" y="66.03" width="9.53" height="1.95"/><rect class="cls-12" x="4.48" y="70.13" width="12.18" height="1.95"/><rect class="cls-9" x="78.96" y="34.93" width="1.95" height="1.95"/><rect class="cls-9" x="78.96" y="42.84" width="1.95" height="1.95"/><rect class="cls-9" x="78.96" y="39.17" width="1.95" height="1.95"/><rect class="cls-9" x="78.96" y="47.65" width="1.95" height="1.95"/><rect class="cls-9" x="78.96" y="51.66" width="1.95" height="1.95"/><rect class="cls-9" x="84.09" y="35.13" width="1.95" height="1.95"/><rect class="cls-9" x="84.09" y="43.04" width="1.95" height="1.95"/><rect class="cls-9" x="84.09" y="39.38" width="1.95" height="1.95"/><rect class="cls-9" x="84.09" y="47.85" width="1.95" height="1.95"/><rect class="cls-9" x="84.09" y="51.86" width="1.95" height="1.95"/><rect class="cls-9" x="94.71" y="35.13" width="1.95" height="1.95"/><rect class="cls-9" x="94.71" y="43.04" width="1.95" height="1.95"/><rect class="cls-9" x="94.71" y="39.38" width="1.95" height="1.95"/><rect class="cls-9" x="94.71" y="47.85" width="1.95" height="1.95"/><rect class="cls-9" x="94.71" y="51.86" width="1.95" height="1.95"/><rect class="cls-6" x="102.18" y="35.13" width="3.49" height="1.95"/><rect class="cls-6" x="102.18" y="43.04" width="3.49" height="1.95"/><rect class="cls-6" x="102.18" y="39.38" width="3.49" height="1.95"/><rect class="cls-6" x="102.18" y="47.85" width="3.49" height="1.95"/><rect class="cls-6" x="102.18" y="51.86" width="3.49" height="1.95"/><circle class="cls-13" cx="7.89" cy="5.92" r="3.41"/><circle class="cls-9" cx="139.53" cy="5.92" r="2.12"/><rect class="cls-3" x="1.67" y="107.07" width="24.68" height="1.38"/><polygon class="cls-4" points="163.66 107.53 164.24 107.53 165.07 108.44 163.95 108.44 163.66 107.53"/><rect class="cls-6" x="37.73" y="25.02" width="9.79" height="1.95"/><rect class="cls-6" x="71.64" y="25.02" width="14.13" height="1.95"/><rect class="cls-14" x="53" y="25.02" width="6.15" height="1.95"/></svg>