<?xml version="1.0" encoding="UTF-8" standalone="no"?>
<svg width="40px" height="40px" viewBox="0 0 40 40" version="1.1" xmlns="http://www.w3.org/2000/svg" xmlns:xlink="http://www.w3.org/1999/xlink">
    <!-- Generator: Sketch 42 (36781) - http://www.bohemiancoding.com/sketch -->
    <title>Group 33</title>
    <desc>Created with Sketch.</desc>
    <defs></defs>
    <g id="Page-1" stroke="none" stroke-width="1" fill="none" fill-rule="evenodd">
        <g id="page" transform="translate(-845.000000, -2079.000000)">
            <g id="info" transform="translate(520.000000, 2076.000000)">
                <g id="Group-29" transform="translate(291.000000, 3.000000)">
                    <g id="Group-33" transform="translate(34.000000, 0.000000)">
                        <rect id="Rectangle-9" fill-opacity="0.200000003" fill="#1CBF32" x="0" y="0" width="40" height="40" rx="20"></rect>
                        <g id="Group-27" transform="translate(2.000000, 6.000000)" stroke="#27AE60" stroke-width="1.5" stroke-linecap="round" stroke-linejoin="round">
                            <path d="M34.9729938,24.60872 C34.9729938,26.27992 33.6281232,27.63512 31.9661112,27.63512 L3.40430301,27.63512 C1.74388065,27.63512 0.397420384,26.27992 0.397420384,24.60872 L0.397420384,3.42632 C0.397420384,1.75512 1.74388065,0.39992 3.40430301,0.39992 L31.9661112,0.39992 C33.6281232,0.39992 34.9729938,1.75512 34.9729938,3.42632 L34.9729938,24.60872 Z" id="Stroke-1"></path>
                            <path d="M0.397420384,8 L34.9729938,8" id="Stroke-3"></path>
                            <path d="M6.41054977,4.18264 C6.41054977,4.60104 6.07433212,4.93944 5.6586304,4.93944 C5.24372352,4.93944 4.90750587,4.60104 4.90750587,4.18264 C4.90750587,3.76424 5.24372352,3.42584 5.6586304,3.42584 C6.07433212,3.42584 6.41054977,3.76424 6.41054977,4.18264 Z" id="Stroke-5"></path>
                            <path d="M10.9203968,4.18264 C10.9203968,4.60104 10.5841792,4.93944 10.1684774,4.93944 C9.75357056,4.93944 9.41735291,4.60104 9.41735291,4.18264 C9.41735291,3.76424 9.75357056,3.42584 10.1684774,3.42584 C10.5841792,3.42584 10.9203968,3.76424 10.9203968,4.18264 Z" id="Stroke-7"></path>
                            <path d="M15.4302438,4.18264 C15.4302438,4.60104 15.0940262,4.93944 14.6783245,4.93944 C14.2634176,4.93944 13.9272,4.60104 13.9272,4.18264 C13.9272,3.76424 14.2634176,3.42584 14.6783245,3.42584 C15.0940262,3.42584 15.4302438,3.76424 15.4302438,4.18264 Z" id="Stroke-9"></path>
                            <polyline id="Stroke-11" points="7.91383211 14.01744 11.6718393 17.79984 7.91383211 21.58304"></polyline>
                            <path d="M16.9336057,18 L22.9465761,18" id="Stroke-13"></path>
                        </g>
                    </g>
                </g>
            </g>
        </g>
    </g>
</svg>