<?xml version="1.0" encoding="UTF-8" standalone="no"?>
<svg width="21px" height="22px" viewBox="0 0 21 22" version="1.1" xmlns="http://www.w3.org/2000/svg" xmlns:xlink="http://www.w3.org/1999/xlink">
    <!-- Generator: Sketch 42 (36781) - http://www.bohemiancoding.com/sketch -->
    <title>Fill 1</title>
    <desc>Created with Sketch.</desc>
    <defs></defs>
    <g id="Page-1" stroke="none" stroke-width="1" fill="none" fill-rule="evenodd" fill-opacity="0.2">
        <g id="create-step-1" transform="translate(-535.000000, -408.000000)" fill="#000000">
            <path d="M535,418.816554 C535,423.59536 537.929553,427.649077 541.994262,429.079997 C542.50596,429.178932 542.692432,428.844941 542.692432,428.558093 C542.692432,428.301789 542.683642,427.621189 542.678619,426.718814 C539.833826,427.372189 539.2336,425.268639 539.2336,425.268639 C538.768363,424.018991 538.097818,423.686327 538.097818,423.686327 C537.169226,423.015688 538.168137,423.028968 538.168137,423.028968 C539.194673,423.105328 539.734625,424.143823 539.734625,424.143823 C540.646893,425.796518 542.127994,425.319103 542.711268,425.042215 C542.80419,424.343687 543.067887,423.866935 543.360466,423.596688 C541.089528,423.323784 538.70181,422.395512 538.70181,418.250826 C538.70181,417.070235 539.100496,416.10478 539.754717,415.348484 C539.649238,415.074916 539.298269,413.975333 539.854545,412.485982 C539.854545,412.485982 540.713445,412.19515 542.667318,413.594861 C543.482897,413.354493 544.358121,413.234973 545.227695,413.230325 C546.096013,413.234973 546.971238,413.354493 547.788072,413.594861 C549.740689,412.19515 550.597706,412.485982 550.597706,412.485982 C551.155865,413.975333 550.804897,415.074916 550.699418,415.348484 C551.354894,416.10478 551.751068,417.070235 551.751068,418.250826 C551.751068,422.406136 549.359583,423.320464 547.081112,423.588056 C547.448404,423.922047 547.775515,424.582063 547.775515,425.591342 C547.775515,427.03687 547.762958,428.203517 547.762958,428.558093 C547.762958,428.847597 547.946918,429.184244 548.466151,429.078669 C552.527092,427.645093 555.454762,423.594032 555.454762,418.816554 C555.454762,412.842549 550.875216,408 545.226439,408 C539.578918,408 535,412.842549 535,418.816554 Z" id="Fill-1"></path>
        </g>
    </g>
</svg>