<?xml version="1.0" encoding="UTF-8" standalone="no"?>
<svg width="109px" height="20px" viewBox="0 0 109 20" version="1.1" xmlns="http://www.w3.org/2000/svg" xmlns:xlink="http://www.w3.org/1999/xlink">
    <!-- Generator: Sketch 42 (36781) - http://www.bohemiancoding.com/sketch -->
    <title>deploy copy</title>
    <desc>Created with Sketch.</desc>
    <defs></defs>
    <g id="Page-1" stroke="none" stroke-width="1" fill="none" fill-rule="evenodd">
        <g id="page" transform="translate(-496.000000, -2368.000000)">
            <g id="how-to-" transform="translate(0.000000, 2275.000000)">
                <g id="deploy-copy" transform="translate(496.000000, 93.000000)">
                    <rect id="Rectangle-path" fill="#E00097" fill-rule="nonzero" x="0" y="0" width="109" height="20" rx="3"></rect>
                    <path d="M32.932,15.604 C31.312,15.604 30.244,15.088 30.244,14.032 C30.244,13.564 30.568,13.132 31.18,12.796 L31.18,12.748 C30.868,12.556 30.58,12.256 30.58,11.764 C30.58,11.38 30.856,10.948 31.288,10.66 L31.288,10.612 C30.868,10.312 30.532,9.784 30.532,9.088 C30.532,7.732 31.66,6.964 32.956,6.964 C33.304,6.964 33.604,7.012 33.88,7.108 L36.292,7.108 L36.292,8.164 L34.936,8.164 C35.14,8.392 35.32,8.752 35.32,9.136 C35.32,10.444 34.276,11.14 32.956,11.14 C32.692,11.14 32.368,11.08 32.056,10.972 C31.816,11.116 31.696,11.284 31.696,11.524 C31.696,11.908 32.08,12.076 32.812,12.076 L34.012,12.076 C35.536,12.076 36.328,12.484 36.328,13.516 C36.328,14.68 35.008,15.604 32.932,15.604 Z M32.956,10.264 C33.568,10.264 34.072,9.832 34.072,9.088 C34.072,8.368 33.568,7.924 32.956,7.924 C32.344,7.924 31.84,8.368 31.84,9.088 C31.84,9.832 32.344,10.264 32.956,10.264 Z M33.1,14.692 C34.252,14.692 34.996,14.248 34.996,13.744 C34.996,13.288 34.6,13.168 33.808,13.168 L32.872,13.168 C32.488,13.168 32.212,13.144 31.972,13.084 C31.552,13.324 31.396,13.576 31.396,13.852 C31.396,14.38 32.008,14.692 33.1,14.692 Z M38.26,13 L39.652,13 L39.652,9.748 C40.252,8.608 41.044,8.188 41.848,8.188 C42.292,8.188 42.532,8.248 42.916,8.368 L43.204,7.204 C42.856,7.036 42.544,6.964 42.064,6.964 C41.044,6.964 40.156,7.492 39.556,8.44 L39.52,8.44 L39.4,7.108 L38.26,7.108 L38.26,13 Z M46.72,13.144 C45.568,13.144 44.752,12.448 44.752,11.416 C44.752,10.096 45.916,9.436 48.82,9.232 C48.772,8.572 48.376,8.08 47.416,8.08 C46.756,8.08 46.096,8.368 45.484,8.704 L44.98,7.78 C45.688,7.36 46.66,6.964 47.668,6.964 C49.3,6.964 50.2,7.864 50.2,9.508 L50.2,13 L49.072,13 L48.964,12.268 L48.928,12.268 C48.304,12.748 47.512,13.144 46.72,13.144 Z M47.14,12.064 C47.728,12.064 48.28,11.776 48.82,11.344 L48.82,10.096 C46.708,10.24 46.084,10.672 46.084,11.308 C46.084,11.836 46.552,12.064 47.14,12.064 Z M52.084,15.328 L52.084,7.108 L53.224,7.108 L53.332,7.78 L53.368,7.78 C53.872,7.312 54.58,6.964 55.252,6.964 C56.788,6.964 57.664,8.14 57.664,9.964 C57.664,11.98 56.404,13.144 55.048,13.144 C54.508,13.144 53.908,12.892 53.44,12.448 L53.404,12.448 L53.476,13.48 L53.476,15.328 L52.084,15.328 Z M54.76,12.004 C55.6,12.004 56.236,11.308 56.236,9.976 C56.236,8.8 55.828,8.104 54.868,8.104 C54.424,8.104 53.956,8.32 53.476,8.812 L53.476,11.464 C53.908,11.86 54.4,12.004 54.76,12.004 Z M59.284,13 L60.676,13 L60.676,8.98 C61.216,8.428 61.612,8.152 62.188,8.152 C62.992,8.152 63.292,8.584 63.292,9.532 L63.292,13 L64.684,13 L64.684,9.352 C64.684,7.828 64.06,6.964 62.704,6.964 C61.804,6.964 61.144,7.432 60.628,7.972 L60.592,7.972 L60.676,6.712 L60.676,4.528 L59.284,4.528 L59.284,13 Z M70.324,15.328 L70.324,13.384 L70.396,12.364 L70.36,12.364 C69.916,12.808 69.292,13.144 68.656,13.144 C67.144,13.144 66.136,12.004 66.136,10.06 C66.136,8.14 67.396,6.964 68.74,6.964 C69.424,6.964 69.952,7.216 70.468,7.732 L70.504,7.732 L70.624,7.108 L71.716,7.108 L71.716,15.328 L70.324,15.328 Z M68.992,12.004 C69.484,12.004 69.916,11.776 70.324,11.296 L70.324,8.644 C69.904,8.248 69.496,8.104 69.064,8.104 C68.248,8.104 67.564,8.812 67.564,10.048 C67.564,11.32 68.092,12.004 68.992,12.004 Z M77.512,13.144 C78.196,13.144 78.604,13.024 79.18,12.808 L78.856,11.788 C78.484,11.944 78.16,12.016 77.848,12.016 C77.26,12.016 76.792,11.716 76.792,10.924 L76.792,4.528 L73.444,4.528 L73.444,5.62 L75.412,5.62 L75.412,10.852 C75.412,12.304 76.144,13.144 77.512,13.144 Z M80.836,9.544 L86.164,9.544 L86.164,8.536 L80.836,8.536 L80.836,9.544 Z M89.908,13.144 C90.784,13.144 91.444,12.712 91.996,12.064 L92.044,12.064 L92.152,13 L93.28,13 L93.28,7.108 L91.9,7.108 L91.9,11.08 C91.372,11.728 90.976,11.956 90.424,11.956 C89.608,11.956 89.32,11.524 89.32,10.576 L89.32,7.108 L87.94,7.108 L87.94,10.756 C87.94,12.28 88.54,13.144 89.908,13.144 Z M95.284,15.328 L95.284,7.108 L96.424,7.108 L96.532,7.78 L96.568,7.78 C97.072,7.312 97.78,6.964 98.452,6.964 C99.988,6.964 100.864,8.14 100.864,9.964 C100.864,11.98 99.604,13.144 98.248,13.144 C97.708,13.144 97.108,12.892 96.64,12.448 L96.604,12.448 L96.676,13.48 L96.676,15.328 L95.284,15.328 Z M97.96,12.004 C98.8,12.004 99.436,11.308 99.436,9.976 C99.436,8.8 99.028,8.104 98.068,8.104 C97.624,8.104 97.156,8.32 96.676,8.812 L96.676,11.464 C97.108,11.86 97.6,12.004 97.96,12.004 Z" id="graphql-up" fill="#FFFFFF"></path>
                    <path d="M18.4976782,12.6182364 L15.8487513,8.83517681 C15.5683768,8.98764412 15.2481606,9.07407407 14.9081247,9.07407407 C14.5966814,9.07407407 14.3018648,9.00156828 14.0390589,8.87222548 L11.4539292,12.5641732 C11.7924476,12.9290591 12,13.4213239 12,13.962963 C12,15.0879875 11.1045695,16 10,16 C8.8954305,16 8,15.0879875 8,13.962963 C8,12.8379385 8.8954305,11.9259259 10,11.9259259 C10.2134749,11.9259259 10.4191382,11.9599909 10.6120357,12.023075 L13.2773576,8.21660093 C13.044852,7.88374361 12.9081247,7.4766532 12.9081247,7.03703704 C12.9081247,5.91201255 13.8035552,5 14.9081247,5 C16.0126942,5 16.9081247,5.91201255 16.9081247,7.03703704 C16.9081247,7.44575246 16.7899431,7.82635391 16.5864866,8.14532521 L19.3186113,12.0472036 C19.531277,11.9687201 19.7607318,11.9259259 20,11.9259259 C21.1045695,11.9259259 22,12.8379385 22,13.962963 C22,15.0879875 21.1045695,16 20,16 C18.8954305,16 18,15.0879875 18,13.962963 C18,13.4476328 18.1878793,12.9769969 18.4976782,12.6182364 Z" id="Combined-Shape" fill="#FFFFFF"></path>
                </g>
            </g>
        </g>
    </g>
</svg>