<?xml version="1.0" encoding="UTF-8" standalone="no"?>
<svg width="40px" height="40px" viewBox="0 0 40 40" version="1.1" xmlns="http://www.w3.org/2000/svg" xmlns:xlink="http://www.w3.org/1999/xlink">
    <!-- Generator: Sketch 42 (36781) - http://www.bohemiancoding.com/sketch -->
    <title>Group 32</title>
    <desc>Created with Sketch.</desc>
    <defs>
        <polygon id="path-1" points="9.25646293e-06 28.9654515 25.9580573 28.9654515 25.9580573 2.21938776e-05 9.25646293e-06 2.21938776e-05"></polygon>
    </defs>
    <g id="Page-1" stroke="none" stroke-width="1" fill="none" fill-rule="evenodd">
        <g id="page" transform="translate(-701.000000, -2079.000000)">
            <g id="info" transform="translate(520.000000, 2076.000000)">
                <g id="Group-34" transform="translate(148.000000, 3.000000)">
                    <g id="Group-32" transform="translate(33.000000, 0.000000)">
                        <g id="Group-20" fill="#1CBF32" fill-opacity="0.200000003">
                            <g id="Group-2">
                                <g id="Group-19">
                                    <g id="Group-26">
                                        <g id="Group-40">
                                            <rect id="Rectangle-9" x="0" y="0" width="40" height="40" rx="20"></rect>
                                        </g>
                                    </g>
                                </g>
                            </g>
                        </g>
                        <g id="Group-31" transform="translate(7.000000, 6.000000)">
                            <mask id="mask-2" fill="white">
                                <use xlink:href="#path-1"></use>
                            </mask>
                            <g id="Clip-2"></g>
                            <path d="M14.9045559,24.6512059 C14.4290315,24.1307594 13.7424527,23.8037696 12.9790659,23.8037696 C12.2454785,23.8037696 11.5833352,24.1060503 11.1107908,24.5914304 L5.09741547,21.1437594 C5.10590831,21.1140936 5.11387966,21.0842798 5.12140401,21.0543181 L20.8367278,21.0543181 C20.8508825,21.1109865 20.8663037,21.1672849 20.8842579,21.2229176 L14.9045559,24.6512059 Z M11.1107908,4.37399158 C11.1336619,4.39744311 11.1569799,4.42045077 11.180745,4.44308852 L3.32434957,17.9559788 C3.29276218,17.9468793 3.26102579,17.9382977 3.2290659,17.9303819 L3.2290659,11.0350401 C3.88867622,10.8713232 4.48332378,10.4530426 4.85015473,9.82221862 C5.21691117,9.19132066 5.28433238,8.47075944 5.09734097,7.8216625 L11.1107908,4.37399158 Z M20.8607163,7.82173648 C20.6737249,8.47083342 20.7411461,9.19132066 21.1079771,9.82214464 C21.4747335,10.4530426 22.0693811,10.8713232 22.7289169,11.0350401 L22.7289169,17.9303819 C22.6964355,17.9384457 22.6640287,17.9471753 22.6318453,17.9564967 L14.7758968,4.44449413 C14.8001089,4.4214125 14.8239484,4.39796097 14.8472665,4.37399158 L20.8607163,7.82173648 Z M5.12475645,19.8240375 C5.06754155,19.5908538 4.97710029,19.3615911 4.85015473,19.1432773 C4.72410315,18.9265171 4.5707851,18.7354278 4.39765043,18.5704533 L12.2533009,5.05889464 C12.4837249,5.12532832 12.7270372,5.1616523 12.9790659,5.1616523 C13.2303496,5.1616523 13.4730659,5.12555026 13.702894,5.0594125 L21.5589914,18.5718589 C21.3864527,18.7364635 21.2335817,18.9271089 21.1079771,19.1432773 C20.980957,19.3615911 20.8905158,19.5908538 20.8333754,19.8240375 L5.12475645,19.8240375 Z M24.6581318,18.198336 C24.4367966,18.071461 24.204361,17.9812798 23.9679026,17.9245375 L23.9679026,11.0408105 C24.2044355,10.9841421 24.4369456,10.893887 24.6584298,10.766864 C25.9012149,10.0543666 26.3271232,8.47579005 25.609404,7.24136658 C24.8917593,6.00694311 23.3021089,5.58392781 22.0593238,6.29649923 C21.8378395,6.42344821 21.6428768,6.5782875 21.4751805,6.75332321 L15.471788,3.3114227 C15.5406246,3.07964464 15.5781719,2.83455026 15.5781719,2.5806523 C15.5781719,1.15558342 14.4144298,2.21938776e-05 12.9790659,2.21938776e-05 C11.5436275,2.21938776e-05 10.3799599,1.15558342 10.3799599,2.5806523 C10.3799599,2.83455026 10.4175072,3.07964464 10.4862693,3.3114227 L4.48295129,6.75332321 C4.31518052,6.5782875 4.12021777,6.42344821 3.89880802,6.29649923 C2.65602292,5.58392781 1.06637249,6.00694311 0.348653295,7.24136658 C-0.369065903,8.47579005 0.0569169054,10.0543666 1.29970201,10.766864 C1.52111175,10.893887 1.75362178,10.9841421 1.99022923,11.0408105 L1.99022923,17.9245375 C1.75377077,17.9812798 1.52133524,18.071461 1.3,18.198336 C0.0569169054,18.9110554 -0.369065903,20.4896319 0.348653295,21.7240554 C1.06637249,22.9585528 2.65602292,23.3814941 3.89910602,22.6687747 C4.12044126,22.5418997 4.31532951,22.3871344 4.48302579,22.2120987 L10.4862693,25.6539992 C10.4174327,25.8856293 10.3799599,26.1306497 10.3799599,26.3844737 C10.3799599,27.8098385 11.5436275,28.9654737 12.9790659,28.9654737 C14.4144298,28.9654737 15.5781719,27.8098385 15.5781719,26.3844737 C15.5781719,26.1017977 15.5316848,25.8299967 15.4471289,25.5755069 L21.4190086,22.1516574 C21.5986991,22.3516242 21.81251,22.5274737 22.0589513,22.6687747 C23.3021089,23.3814941 24.8917593,22.9585528 25.609404,21.7240554 C26.3271232,20.4896319 25.9012149,18.9110554 24.6581318,18.198336 L24.6581318,18.198336 Z" id="Fill-1" fill="#27AE60" mask="url(#mask-2)"></path>
                        </g>
                    </g>
                </g>
            </g>
        </g>
    </g>
</svg>