<?xml version="1.0" encoding="UTF-8" standalone="no"?>
<svg width="226px" height="47px" viewBox="0 0 226 47" version="1.1" xmlns="http://www.w3.org/2000/svg" xmlns:xlink="http://www.w3.org/1999/xlink">
    <!-- Generator: Sketch 42 (36781) - http://www.bohemiancoding.com/sketch -->
    <title>Group 11</title>
    <desc>Created with Sketch.</desc>
    <defs></defs>
    <g id="Page-1" stroke="none" stroke-width="1" fill="none" fill-rule="evenodd">
        <g id="buttons" transform="translate(-1215.000000, -844.000000)">
            <g id="Group-11" transform="translate(1215.000000, 844.000000)">
                <rect id="Rectangle-5" fill="#E00097" x="0" y="0" width="226" height="47" rx="5"></rect>
                <path d="M72.364,35.208 C69.124,35.208 66.988,34.176 66.988,32.064 C66.988,31.128 67.636,30.264 68.86,29.592 L68.86,29.496 C68.236,29.112 67.66,28.512 67.66,27.528 C67.66,26.76 68.212,25.896 69.076,25.32 L69.076,25.224 C68.236,24.624 67.564,23.568 67.564,22.176 C67.564,19.464 69.82,17.928 72.412,17.928 C73.108,17.928 73.708,18.024 74.26,18.216 L79.084,18.216 L79.084,20.328 L76.372,20.328 C76.78,20.784 77.14,21.504 77.14,22.272 C77.14,24.888 75.052,26.28 72.412,26.28 C71.884,26.28 71.236,26.16 70.612,25.944 C70.132,26.232 69.892,26.568 69.892,27.048 C69.892,27.816 70.66,28.152 72.124,28.152 L74.524,28.152 C77.572,28.152 79.156,28.968 79.156,31.032 C79.156,33.36 76.516,35.208 72.364,35.208 Z M72.412,24.528 C73.636,24.528 74.644,23.664 74.644,22.176 C74.644,20.736 73.636,19.848 72.412,19.848 C71.188,19.848 70.18,20.736 70.18,22.176 C70.18,23.664 71.188,24.528 72.412,24.528 Z M72.7,33.384 C75.004,33.384 76.492,32.496 76.492,31.488 C76.492,30.576 75.7,30.336 74.116,30.336 L72.244,30.336 C71.476,30.336 70.924,30.288 70.444,30.168 C69.604,30.648 69.292,31.152 69.292,31.704 C69.292,32.76 70.516,33.384 72.7,33.384 Z M83.02,30 L85.804,30 L85.804,23.496 C87.004,21.216 88.588,20.376 90.196,20.376 C91.084,20.376 91.564,20.496 92.332,20.736 L92.908,18.408 C92.212,18.072 91.588,17.928 90.628,17.928 C88.588,17.928 86.812,18.984 85.612,20.88 L85.54,20.88 L85.3,18.216 L83.02,18.216 L83.02,30 Z M99.94,30.288 C97.636,30.288 96.004,28.896 96.004,26.832 C96.004,24.192 98.332,22.872 104.14,22.464 C104.044,21.144 103.252,20.16 101.332,20.16 C100.012,20.16 98.692,20.736 97.468,21.408 L96.46,19.56 C97.876,18.72 99.82,17.928 101.836,17.928 C105.1,17.928 106.9,19.728 106.9,23.016 L106.9,30 L104.644,30 L104.428,28.536 L104.356,28.536 C103.108,29.496 101.524,30.288 99.94,30.288 Z M100.78,28.128 C101.956,28.128 103.06,27.552 104.14,26.688 L104.14,24.192 C99.916,24.48 98.668,25.344 98.668,26.616 C98.668,27.672 99.604,28.128 100.78,28.128 Z M110.668,34.656 L110.668,18.216 L112.948,18.216 L113.164,19.56 L113.236,19.56 C114.244,18.624 115.66,17.928 117.004,17.928 C120.076,17.928 121.828,20.28 121.828,23.928 C121.828,27.96 119.308,30.288 116.596,30.288 C115.516,30.288 114.316,29.784 113.38,28.896 L113.308,28.896 L113.452,30.96 L113.452,34.656 L110.668,34.656 Z M116.02,28.008 C117.7,28.008 118.972,26.616 118.972,23.952 C118.972,21.6 118.156,20.208 116.236,20.208 C115.348,20.208 114.412,20.64 113.452,21.624 L113.452,26.928 C114.316,27.72 115.3,28.008 116.02,28.008 Z M125.068,30 L127.852,30 L127.852,21.96 C128.932,20.856 129.724,20.304 130.876,20.304 C132.484,20.304 133.084,21.168 133.084,23.064 L133.084,30 L135.868,30 L135.868,22.704 C135.868,19.656 134.62,17.928 131.908,17.928 C130.108,17.928 128.788,18.864 127.756,19.944 L127.684,19.944 L127.852,17.424 L127.852,13.056 L125.068,13.056 L125.068,30 Z M147.148,34.656 L147.148,30.768 L147.292,28.728 L147.22,28.728 C146.332,29.616 145.084,30.288 143.812,30.288 C140.788,30.288 138.772,28.008 138.772,24.12 C138.772,20.28 141.292,17.928 143.98,17.928 C145.348,17.928 146.404,18.432 147.436,19.464 L147.508,19.464 L147.748,18.216 L149.932,18.216 L149.932,34.656 L147.148,34.656 Z M144.484,28.008 C145.468,28.008 146.332,27.552 147.148,26.592 L147.148,21.288 C146.308,20.496 145.492,20.208 144.628,20.208 C142.996,20.208 141.628,21.624 141.628,24.096 C141.628,26.64 142.684,28.008 144.484,28.008 Z M161.524,30.288 C162.892,30.288 163.708,30.048 164.86,29.616 L164.212,27.576 C163.468,27.888 162.82,28.032 162.196,28.032 C161.02,28.032 160.084,27.432 160.084,25.848 L160.084,13.056 L153.604,13.056 L153.604,15.24 L157.324,15.24 L157.324,25.704 C157.324,28.608 158.788,30.288 161.524,30.288 Z M168.172,23.088 L178.828,23.088 L178.828,21.072 L168.172,21.072 L168.172,23.088 Z M186.316,30.288 C188.068,30.288 189.388,29.424 190.492,28.128 L190.588,28.128 L190.804,30 L193.06,30 L193.06,18.216 L190.3,18.216 L190.3,26.16 C189.244,27.456 188.452,27.912 187.348,27.912 C185.716,27.912 185.14,27.048 185.14,25.152 L185.14,18.216 L182.38,18.216 L182.38,25.512 C182.38,28.56 183.58,30.288 186.316,30.288 Z M197.068,34.656 L197.068,18.216 L199.348,18.216 L199.564,19.56 L199.636,19.56 C200.644,18.624 202.06,17.928 203.404,17.928 C206.476,17.928 208.228,20.28 208.228,23.928 C208.228,27.96 205.708,30.288 202.996,30.288 C201.916,30.288 200.716,29.784 199.78,28.896 L199.708,28.896 L199.852,30.96 L199.852,34.656 L197.068,34.656 Z M202.42,28.008 C204.1,28.008 205.372,26.616 205.372,23.952 C205.372,21.6 204.556,20.208 202.636,20.208 C201.748,20.208 200.812,20.64 199.852,21.624 L199.852,26.928 C200.716,27.72 201.7,28.008 202.42,28.008 Z" id="graphql-up" fill="#FFFFFF"></path>
                <g id="Group-10" transform="translate(17.000000, 10.000000)" fill="#FFFFFF">
                    <circle id="Oval" cx="17.2703117" cy="5" r="5"></circle>
                    <rect id="Rectangle-6" transform="translate(10.392190, 13.962775) rotate(-325.000000) translate(-10.392190, -13.962775) " x="9.14218995" y="1.46277473" width="2.5" height="25"></rect>
                    <circle id="Oval" transform="translate(5.000000, 22.000000) scale(-1, 1) translate(-5.000000, -22.000000) " cx="5" cy="22" r="5"></circle>
                    <rect id="Rectangle-6" transform="translate(24.392190, 13.962775) scale(-1, 1) rotate(-325.000000) translate(-24.392190, -13.962775) " x="23.14219" y="1.46277473" width="2.5" height="25"></rect>
                    <circle id="Oval" transform="translate(30.000000, 22.000000) scale(-1, 1) translate(-30.000000, -22.000000) " cx="30" cy="22" r="5"></circle>
                </g>
            </g>
        </g>
    </g>
</svg>