<?xml version="1.0" encoding="utf-8"?>
<!-- Generator: Adobe Illustrator 19.2.1, SVG Export Plug-In . SVG Version: 6.00 Build 0)  -->
<svg version="1.1" id="Layer_1" xmlns="http://www.w3.org/2000/svg" xmlns:xlink="http://www.w3.org/1999/xlink" x="0px" y="0px"
	 viewBox="0 0 519.5 520" style="enable-background:new 0 0 519.5 520;" xml:space="preserve">
<style type="text/css">
	.st0{fill:#36AD64;}
</style>
<path class="st0" d="M428.7,323.7V195.4C447,192.2,461,176.2,461,157c0-21.5-17.5-39-39-39c-11.7,0-22.2,5.2-29.4,13.4L279.7,66.2
	c1.3-3.8,2-7.9,2-12.2c0-21.5-17.5-39-39-39s-39,17.5-39,39c0,4.1,0.7,8.1,1.9,11.9L93,130.9c-7.1-7.8-17.4-12.7-28.8-12.7
	c-21.5,0-39,17.5-39,39c0,18.7,13.2,34.3,30.8,38.1v129.1c-17.6,3.8-30.8,19.4-30.8,38.1c0,21.5,17.5,39,39,39
	c11.4,0,21.6-4.9,28.7-12.7l112.7,65.1c-1,3.5-1.6,7.2-1.6,11.1c0,21.5,17.5,39,39,39s39-17.5,39-39c0-4.1-0.6-8.1-1.8-11.8
	l112.4-64.9c7.1,7.8,17.4,12.7,28.7,12.7c21.5,0,39-17.5,39-39C460.3,343,446.7,327.2,428.7,323.7z M422,132c13.8,0,25,11.2,25,25
	s-11.2,25-25,25s-25-11.2-25-25S408.2,132,422,132z M385.4,143.4c-1.6,4.2-2.4,8.8-2.4,13.6c0,19,13.7,34.9,31.7,38.3v128.3
	c-2.6,0.5-5.2,1.2-7.6,2.1L267.6,84c2-1.6,3.8-3.5,5.4-5.5L385.4,143.4z M382.9,355.6H102.5c-1.6-8.8-6.1-16.6-12.6-22.3L230,90.9
	c4,1.4,8.3,2.1,12.7,2.1c4.5,0,8.7-0.8,12.7-2.1l139.8,242.2C388.8,338.8,384.3,346.7,382.9,355.6z M242.7,29c13.8,0,25,11.2,25,25
	s-11.2,25-25,25s-25-11.2-25-25S228.9,29,242.7,29z M212.1,78.2c1.7,2.1,3.6,4,5.6,5.8L78,326c-2.6-1-5.3-1.7-8.1-2.1V195.7
	c18.8-2.8,33.2-19,33.2-38.6c0-5.1-1-10-2.8-14.4L212.1,78.2z M39.2,157.2c0-13.8,11.2-25,25-25s25,11.2,25,25s-11.2,25-25,25
	S39.2,171,39.2,157.2z M64.2,387.5c-13.8,0-25-11.2-25-25s11.2-25,25-25s25,11.2,25,25S78,387.5,64.2,387.5z M243,490
	c-13.8,0-25-11.2-25-25s11.2-25,25-25c13.8,0,25,11.2,25,25S256.8,490,243,490z M273.6,440.9c-7.1-9-18.2-14.9-30.6-14.9
	c-12.6,0-23.9,6-31,15.4L100.4,377c0.9-2.4,1.7-4.8,2.1-7.4h280.6c0.5,2.4,1.2,4.7,2,6.9L273.6,440.9z M421.3,387
	c-13.8,0-25-11.2-25-25s11.2-25,25-25s25,11.2,25,25S435.1,387,421.3,387z"/>
</svg>
