<?xml version="1.0" encoding="utf-8"?>
<!-- Generator: Adobe Illustrator 19.2.1, SVG Export Plug-In . SVG Version: 6.00 Build 0)  -->
<svg version="1.1" id="Layer_1" xmlns="http://www.w3.org/2000/svg" xmlns:xlink="http://www.w3.org/1999/xlink" x="0px" y="0px"
	 viewBox="0 0 525 525" style="enable-background:new 0 0 525 525;" xml:space="preserve">
<style type="text/css">
	.st0{fill:#36AD64;}
</style>
<g>
	<path class="st0" d="M518.9,155.1c-3.5-25.2-16.4-37.7-16.9-38.3l-4.9-4.7l-87.2,87.2c-7.2,7.2-14.4,10.2-21.3,8.9
		c-5.3-1-8.7-4.3-8.7-4.3l-23-23l0,0l-22.5-22.5c0,0-3-3.2-4.2-8.2c-1.6-7.1,1.3-14.4,8.8-21.8l87.2-87.2l-4.7-4.9
		c-0.5-0.5-13-13.4-38.3-16.9c-32.5-4.5-70,7.7-111.5,36.5C261,63.1,252,70.9,244.4,79H128.8c-27.3,0-49.6,22.2-49.6,49.6v243.1
		l-38.7,38.7c-1.5,1.4-22.1,22.1-22.4,49.4C18,474.7,24,488.6,35.8,501l0,0c0.2,0.2,0.5,0.5,0.7,0.7s0.5,0.5,0.7,0.7l0,0
		C49.5,514.1,63.1,520,77.9,520c0.2,0,0.3,0,0.5,0c27.3-0.2,48-20.9,49.4-22.4l36.6-36.6h247.3c27.3,0,49.6-22.2,49.6-49.6V291.8
		c7.4-7.2,14.5-15.6,21.2-25.3C511.2,225,523.4,187.5,518.9,155.1z M93.2,128.6c0-19.6,16-35.6,35.6-35.6h103.8
		c-20.8,27.9-27.8,57.4-29.5,80.4c-2.5,34.4,5.8,60.9,7.1,64.7l0.5,2.2L93.2,357.7V128.6z M411.6,447H178.4l119.5-119.5l2.2,0.5
		c3.8,1.3,30.3,9.6,64.7,7.1c23.6-1.7,53.9-9.1,82.4-31v107.4C447.2,431,431.3,447,411.6,447z M364.3,321.1
		c-33.6,2.6-59.7-6.3-60-6.4l-10.9-2.5L117.8,487.8l-0.1,0.1c-0.2,0.2-17.9,18-39.6,18.2c-0.1,0-0.2,0-0.2,0
		c-11.2,0-21.8-4.8-31.5-14.3c-9.5-9.8-14.3-20.5-14.3-31.7c0.1-21.7,18-39.4,18.2-39.6L226,244.8l-2.2-10.1l-0.2-0.8
		c-0.1-0.3-8.9-26-6.5-59.4c3.3-44.6,24.3-80.7,62.5-107.1c47.4-32.8,80.8-36.7,100.5-34.3c12.1,1.5,20.6,5.6,25.6,8.7L329,118.4
		c-21.5,21.5-12.4,42-4.6,49.9l23,23l0,0l22.5,22.5c0.6,0.6,6.1,5.9,15,7.9c8.3,1.9,21.1,1.2,34.8-12.5l76.7-76.7
		c3.2,5.1,7.2,13.6,8.7,25.6c2.5,19.7-1.5,53.1-34.3,100.5C444.6,296.6,408.7,317.7,364.3,321.1z"/>
	<path class="st0" d="M67.6,438.5c-9.2,9.2-9.2,24.2,0,33.5c4.6,4.6,10.7,6.9,16.7,6.9s12.1-2.3,16.7-6.9c4.5-4.5,6.9-10.4,6.9-16.7
		c0-6.3-2.5-12.3-6.9-16.7C91.8,429.3,76.8,429.3,67.6,438.5z M91.2,462.1L91.2,462.1c-3.8,3.8-9.9,3.8-13.7,0s-3.8-9.9,0-13.7
		c1.9-1.9,4.4-2.8,6.8-2.8s5,0.9,6.8,2.8c1.8,1.8,2.8,4.3,2.8,6.8S93,460.3,91.2,462.1z"/>
</g>
</svg>
