<?xml version="1.0" encoding="utf-8"?>
<!-- Generator: Adobe Illustrator 19.0.0, SVG Export Plug-In . SVG Version: 6.00 Build 0)  -->
<svg version="1.1" id="Ebene_1" xmlns="http://www.w3.org/2000/svg" xmlns:xlink="http://www.w3.org/1999/xlink" x="0px" y="0px"
	 width="78px" height="78px" viewBox="0 0 78 78" style="enable-background:new 0 0 78 78;" xml:space="preserve">
<style type="text/css">
	.st0{fill:url(#XMLID_189_);}
	.st1{fill:url(#XMLID_190_);}
	.st2{fill:#FFFFFF;}
</style>
<g id="XMLID_1_">
	
		<radialGradient id="XMLID_189_" cx="189.2828" cy="-492.7628" r="37.9929" gradientTransform="matrix(0 -1.9825 -1.8439 0 -887.4177 458.1106)" gradientUnits="userSpaceOnUse">
		<stop  offset="0" style="stop-color:#FFDD55"/>
		<stop  offset="0.1" style="stop-color:#FFDD55"/>
		<stop  offset="0.5" style="stop-color:#FF543E"/>
		<stop  offset="1" style="stop-color:#C837AB"/>
	</radialGradient>
	<path id="XMLID_183_" class="st0" d="M39.01,1c-15.86,0-20.5,0.02-21.41,0.09c-3.26,0.27-5.28,0.78-7.49,1.88
		c-1.7,0.84-3.04,1.82-4.37,3.2c-2.41,2.5-3.87,5.58-4.4,9.24C1.09,17.19,1.02,17.56,1,26.63C1,29.66,1,33.64,1,38.99
		C1,54.84,1.02,59.48,1.1,60.38c0.26,3.17,0.76,5.16,1.81,7.34c2.01,4.17,5.85,7.31,10.37,8.48c1.57,0.4,3.3,0.63,5.52,0.73
		C19.74,76.97,29.33,77,38.93,77s19.2-0.01,20.11-0.06c2.57-0.12,4.07-0.32,5.72-0.75c4.55-1.18,8.32-4.26,10.37-8.5
		c1.03-2.13,1.55-4.2,1.79-7.2C76.98,59.84,77,49.4,77,38.98c0-10.43-0.02-20.85-0.07-21.5c-0.24-3.05-0.76-5.1-1.83-7.27
		c-0.87-1.78-1.84-3.1-3.25-4.46c-2.51-2.4-5.59-3.86-9.25-4.39C60.82,1.09,60.46,1.02,51.38,1H39.01z"/>
	
		<radialGradient id="XMLID_190_" cx="145.0648" cy="-394.0316" r="37.9929" gradientTransform="matrix(0.1739 0.869 3.5818 -0.7174 1374.3795 -402.2488)" gradientUnits="userSpaceOnUse">
		<stop  offset="0" style="stop-color:#3771C8"/>
		<stop  offset="0.128" style="stop-color:#3771C8"/>
		<stop  offset="1" style="stop-color:#6600FF;stop-opacity:0"/>
	</radialGradient>
	<path id="XMLID_178_" class="st1" d="M39.01,1c-15.86,0-20.5,0.02-21.41,0.09c-3.26,0.27-5.28,0.78-7.49,1.88
		c-1.7,0.84-3.04,1.82-4.37,3.2c-2.41,2.5-3.87,5.58-4.4,9.24C1.09,17.19,1.02,17.56,1,26.63C1,29.66,1,33.64,1,38.99
		C1,54.84,1.02,59.48,1.1,60.38c0.26,3.17,0.76,5.16,1.81,7.34c2.01,4.17,5.85,7.31,10.37,8.48c1.57,0.4,3.3,0.63,5.52,0.73
		C19.74,76.97,29.33,77,38.93,77s19.2-0.01,20.11-0.06c2.57-0.12,4.07-0.32,5.72-0.75c4.55-1.18,8.32-4.26,10.37-8.5
		c1.03-2.13,1.55-4.2,1.79-7.2C76.98,59.84,77,49.4,77,38.98c0-10.43-0.02-20.85-0.07-21.5c-0.24-3.05-0.76-5.1-1.83-7.27
		c-0.87-1.78-1.84-3.1-3.25-4.46c-2.51-2.4-5.59-3.86-9.25-4.39C60.82,1.09,60.46,1.02,51.38,1H39.01z"/>
	<path id="XMLID_154_" class="st2" d="M38.99,10.94c-7.62,0-8.58,0.03-11.57,0.17c-2.99,0.14-5.03,0.61-6.81,1.3
		c-1.85,0.72-3.41,1.68-4.97,3.24c-1.56,1.56-2.52,3.13-3.24,4.97c-0.7,1.78-1.17,3.82-1.3,6.81c-0.13,2.99-0.17,3.95-0.17,11.57
		s0.03,8.58,0.17,11.57c0.14,2.99,0.61,5.03,1.3,6.81c0.72,1.85,1.68,3.41,3.24,4.97c1.56,1.56,3.12,2.52,4.97,3.24
		c1.79,0.69,3.82,1.17,6.81,1.3c2.99,0.14,3.95,0.17,11.57,0.17c7.62,0,8.57-0.03,11.57-0.17c2.99-0.14,5.03-0.61,6.81-1.3
		c1.84-0.72,3.41-1.68,4.97-3.24c1.56-1.56,2.52-3.13,3.24-4.97c0.69-1.78,1.16-3.82,1.3-6.81c0.13-2.99,0.17-3.95,0.17-11.57
		s-0.04-8.58-0.17-11.57c-0.14-2.99-0.61-5.03-1.3-6.81c-0.72-1.85-1.68-3.41-3.24-4.97c-1.56-1.56-3.12-2.52-4.97-3.24
		c-1.79-0.69-3.83-1.17-6.82-1.3C47.56,10.97,46.61,10.94,38.99,10.94L38.99,10.94z M36.48,16c0.75,0,1.58,0,2.52,0
		c7.49,0,8.38,0.03,11.34,0.16c2.74,0.13,4.22,0.58,5.21,0.97c1.31,0.51,2.24,1.12,3.22,2.1c0.98,0.98,1.59,1.92,2.1,3.23
		c0.38,0.99,0.84,2.47,0.97,5.21c0.13,2.96,0.16,3.85,0.16,11.34s-0.03,8.38-0.16,11.34c-0.13,2.74-0.58,4.22-0.97,5.21
		c-0.51,1.31-1.12,2.24-2.1,3.22c-0.98,0.98-1.91,1.59-3.22,2.1c-0.99,0.39-2.47,0.84-5.21,0.97C47.37,61.97,46.49,62,38.99,62
		c-7.49,0-8.38-0.03-11.34-0.16c-2.74-0.13-4.22-0.58-5.21-0.97c-1.31-0.51-2.24-1.12-3.23-2.1c-0.98-0.98-1.59-1.92-2.1-3.23
		c-0.38-0.99-0.84-2.47-0.97-5.21c-0.13-2.96-0.16-3.85-0.16-11.34s0.03-8.38,0.16-11.34c0.13-2.74,0.58-4.22,0.97-5.21
		c0.51-1.31,1.12-2.25,2.1-3.23c0.98-0.98,1.92-1.59,3.23-2.1c0.99-0.39,2.47-0.84,5.21-0.97C30.25,16.03,31.25,16,36.48,16
		L36.48,16z M53.97,20.66c-1.86,0-3.37,1.51-3.37,3.37c0,1.86,1.51,3.37,3.37,3.37s3.37-1.51,3.37-3.37S55.83,20.66,53.97,20.66
		L53.97,20.66z M38.99,24.59c-7.96,0-14.41,6.45-14.41,14.41s6.45,14.41,14.41,14.41c7.96,0,14.41-6.45,14.41-14.41
		S46.95,24.59,38.99,24.59L38.99,24.59z M38.99,29.65c5.16,0,9.35,4.19,9.35,9.35c0,5.17-4.19,9.35-9.35,9.35
		c-5.17,0-9.35-4.19-9.35-9.35C29.64,33.84,33.83,29.65,38.99,29.65z"/>
</g>
</svg>
