<?xml version="1.0" encoding="utf-8"?>
<!-- Generator: Adobe Illustrator 19.0.0, SVG Export Plug-In . SVG Version: 6.00 Build 0)  -->
<svg version="1.1" id="Ebene_1" xmlns="http://www.w3.org/2000/svg" xmlns:xlink="http://www.w3.org/1999/xlink" x="0px" y="0px"
	 width="78px" height="78px" viewBox="0 0 78 78" style="enable-background:new 0 0 78 78;" xml:space="preserve">
<style type="text/css">
	.st0{fill:#C5D7DD;}
	.st1{fill:#33363A;}
	.st2{fill-rule:evenodd;clip-rule:evenodd;fill:none;}
	.st3{fill-rule:evenodd;clip-rule:evenodd;fill:#D8E5EA;}
	.st4{fill-rule:evenodd;clip-rule:evenodd;fill:#FF8F8F;}
	.st5{fill-rule:evenodd;clip-rule:evenodd;fill:#FF1A1A;}
	.st6{fill-rule:evenodd;clip-rule:evenodd;fill:#FFFFFF;}
	.st7{fill-rule:evenodd;clip-rule:evenodd;fill:#33363A;}
	.st8{fill-rule:evenodd;clip-rule:evenodd;fill:#A7BBC1;}
	.st9{fill-rule:evenodd;clip-rule:evenodd;fill:#93FF5A;}
	.st10{fill-rule:evenodd;clip-rule:evenodd;fill:#65E529;}
</style>
<g id="XMLID_1_">
	<g id="XMLID_292_">
		<path id="XMLID_237_" class="st0" d="M18.01,76C9.18,76,2,68.82,2,59.99V18.01C2,9.18,9.18,2,18.01,2h41.98
			C68.82,2,76,9.18,76,18.01v41.98C76,68.82,68.82,76,59.99,76H18.01z"/>
		<g id="XMLID_232_">
			<path id="XMLID_233_" class="st1" d="M59.99,3C68.27,3,75,9.73,75,18.01v41.98C75,68.27,68.27,75,59.99,75H18.01
				C9.73,75,3,68.27,3,59.99V18.01C3,9.73,9.73,3,18.01,3H59.99 M59.99,1H18.01C8.62,1,1,8.61,1,18.01v41.98
				C1,69.38,8.61,77,18.01,77h41.98C69.38,77,77,69.39,77,59.99V18.01C77,8.62,69.39,1,59.99,1L59.99,1z"/>
		</g>
	</g>
	<path id="XMLID_286_" class="st2" d="M1,18.01C1,8.61,8.62,1,18.01,1h41.98C69.39,1,77,8.62,77,18.01v41.98
		C77,69.39,69.38,77,59.99,77H18.01C8.61,77,1,69.38,1,59.99V18.01z"/>
	<path id="XMLID_170_" class="st3" d="M19.09,48c0,12,9.02,20.2,20.15,20.2S59.39,60,59.39,48C59.39,48,22.71,48,19.09,48z"/>
	<path id="XMLID_262_" class="st4" d="M39.24,18.24c12.3,0,22.26,9.99,22.26,22.32s-9.97,22.32-22.26,22.32s-22.26-9.99-22.26-22.32
		S26.95,18.24,39.24,18.24"/>
	<path id="XMLID_257_" class="st5" d="M61.5,40.56c0,9.44-9.97,17.1-22.26,17.1S16.98,50,16.98,40.56c0-9.44,9.97-17.09,22.26-17.09
		S61.5,31.12,61.5,40.56"/>
	<path id="XMLID_252_" class="st6" d="M16.98,40.56c0,12.33,9.97,22.32,22.26,22.32S61.5,52.89,61.5,40.56H16.98z"/>
	<path id="XMLID_247_" class="st3" d="M39.24,57.65c12.3,0,22.26-7.66,22.26-17.1H16.98C16.98,50,26.95,57.65,39.24,57.65"/>
	<path id="XMLID_240_" class="st7" d="M39.24,63.89c-12.83,0-23.27-10.47-23.27-23.34c0-12.87,10.44-23.33,23.27-23.33
		s23.27,10.47,23.27,23.33C62.52,53.43,52.07,63.89,39.24,63.89 M39.24,19.26c-11.72,0-21.25,9.56-21.25,21.3
		c0,11.75,9.53,21.3,21.25,21.3s21.25-9.56,21.25-21.3C60.49,28.81,50.96,19.26,39.24,19.26"/>
	<path id="XMLID_235_" class="st7" d="M61.11,41.57H17.5c-0.55,0-0.99-0.46-0.99-1.02c0-0.56,0.44-1.02,0.99-1.02h43.61
		c0.55,0,0.99,0.46,0.99,1.02C62.1,41.12,61.66,41.57,61.11,41.57"/>
	<path id="XMLID_230_" class="st8" d="M39.24,35.73c4.07,0,7.36,3.3,7.36,7.38c0,4.08-3.3,7.38-7.36,7.38
		c-4.07,0-7.36-3.3-7.36-7.38C31.88,39.04,35.17,35.73,39.24,35.73"/>
	<path id="XMLID_225_" class="st6" d="M39.24,33.23c4.07,0,7.36,3.3,7.36,7.38c0,4.08-3.3,7.38-7.36,7.38
		c-4.07,0-7.36-3.3-7.36-7.38C31.88,36.53,35.17,33.23,39.24,33.23"/>
	<path id="XMLID_220_" class="st3" d="M34.04,45.83c-2.87-2.88-2.87-7.56,0-10.44c2.88-2.88,7.54-2.88,10.41,0"/>
	<path id="XMLID_213_" class="st7" d="M39.24,49c-2.24,0-4.34-0.87-5.92-2.46c-3.26-3.27-3.26-8.6,0-11.87
		c1.58-1.59,3.69-2.46,5.92-2.46c2.24,0,4.34,0.87,5.92,2.46c1.58,1.59,2.45,3.69,2.45,5.94c0,2.24-0.87,4.35-2.45,5.94
		C43.58,48.13,41.48,49,39.24,49 M39.24,34.24c-1.7,0-3.29,0.66-4.49,1.86c-2.47,2.48-2.47,6.52,0,9c1.2,1.2,2.79,1.86,4.49,1.86
		s3.29-0.66,4.49-1.86c1.2-1.2,1.86-2.8,1.86-4.5c0-1.7-0.66-3.3-1.86-4.5C42.53,34.9,40.94,34.24,39.24,34.24"/>
	<path id="XMLID_208_" class="st7" d="M39.24,70.48c-0.56,0-1.01-0.44-1.01-0.98v-6.27c0-0.54,0.45-0.98,1.01-0.98
		s1.01,0.44,1.01,0.98v6.27C40.25,70.05,39.8,70.48,39.24,70.48"/>
	<path id="XMLID_203_" class="st7" d="M68.69,60.51h-6.5c-0.56,0-1.01-0.46-1.01-1.02s0.45-1.02,1.01-1.02h6.5
		c0.56,0,1.01,0.46,1.01,1.02S69.25,60.51,68.69,60.51"/>
	<path id="XMLID_198_" class="st7" d="M68.69,64.47h-6.5c-0.56,0-1.01-0.46-1.01-1.02c0-0.56,0.45-1.02,1.01-1.02h6.5
		c0.56,0,1.01,0.46,1.01,1.02C69.7,64.02,69.25,64.47,68.69,64.47"/>
	<path id="XMLID_193_" class="st7" d="M68.69,68.44h-6.5c-0.56,0-1.01-0.46-1.01-1.02s0.45-1.02,1.01-1.02h6.5
		c0.56,0,1.01,0.46,1.01,1.02S69.25,68.44,68.69,68.44"/>
	<path id="XMLID_188_" class="st7" d="M39.24,76.5c-0.56,0-1.01-0.4-1.01-0.89v-1.86c0-0.49,0.45-0.89,1.01-0.89s1.01,0.4,1.01,0.89
		v1.86C40.25,76.1,39.8,76.5,39.24,76.5"/>
	<path id="XMLID_183_" class="st8" d="M14.12,11.33c2.39,0,4.32,1.94,4.32,4.34c0,2.39-1.94,4.34-4.32,4.34
		c-2.39,0-4.32-1.94-4.32-4.34C9.8,13.28,11.73,11.33,14.12,11.33"/>
	<path id="XMLID_178_" class="st9" d="M14.12,9.18c2.39,0,4.32,1.94,4.32,4.34c0,2.39-1.94,4.34-4.32,4.34
		c-2.39,0-4.32-1.94-4.32-4.34C9.8,11.12,11.73,9.18,14.12,9.18"/>
	<path id="XMLID_173_" class="st10" d="M11.06,16.59c-1.69-1.69-1.69-4.44,0-6.13c1.69-1.69,4.43-1.69,6.12,0"/>
	<path id="XMLID_166_" class="st7" d="M14.12,18.87c-1.43,0-2.77-0.56-3.77-1.57c-2.08-2.09-2.08-5.48,0-7.57
		c1.01-1.01,2.35-1.57,3.78-1.57c1.43,0,2.77,0.56,3.77,1.57c1.01,1.01,1.56,2.36,1.56,3.78s-0.56,2.77-1.56,3.78
		C16.89,18.31,15.55,18.87,14.12,18.87 M14.12,10.2c-0.88,0-1.72,0.35-2.34,0.97c-1.29,1.29-1.29,3.4,0,4.7
		c0.63,0.63,1.46,0.97,2.34,0.97c0.88,0,1.72-0.35,2.34-0.97c0.63-0.63,0.97-1.46,0.97-2.35s-0.34-1.72-0.97-2.35
		C15.84,10.54,15.01,10.2,14.12,10.2"/>
</g>
</svg>
