<?xml version="1.0" encoding="utf-8"?>
<!-- Generator: Adobe Illustrator 19.0.0, SVG Export Plug-In . SVG Version: 6.00 Build 0)  -->
<svg version="1.1" id="Ebene_1" xmlns="http://www.w3.org/2000/svg" xmlns:xlink="http://www.w3.org/1999/xlink" x="0px" y="0px"
	 width="78px" height="78px" viewBox="0 0 78 78" style="enable-background:new 0 0 78 78;" xml:space="preserve">
<style type="text/css">
	.st0{fill-rule:evenodd;clip-rule:evenodd;fill:#4A90E2;}
	.st1{fill:#FFFFFF;}
</style>
<path id="XMLID_173_" class="st0" d="M1,18.01C1,8.61,8.62,1,18.01,1h41.98C69.39,1,77,8.62,77,18.01v41.98
	C77,69.39,69.38,77,59.99,77H18.01C8.61,77,1,69.38,1,59.99V18.01z"/>
<path id="XMLID_167_" class="st1" d="M35.18,36.51l-2.13-2.11l13.14-13.28c0.28-0.28,0.67-0.44,1.07-0.44l0,0
	c0.4,0,0.78,0.16,1.07,0.45l3.24,3.27l-2.13,2.11l-2.17-2.2L35.18,36.51z"/>
<path id="XMLID_166_" class="st1" d="M26.05,57.11L26.05,57.11c-0.4,0-0.78-0.16-1.07-0.45l-11.88-12c-0.58-0.58-0.58-1.53,0-2.11
	l5.94-6c0.28-0.28,0.67-0.45,1.07-0.45h0c0.4,0,0.78,0.16,1.07,0.44l2.97,3l-2.13,2.11l-1.9-1.92l-3.83,3.87l9.77,9.87l1.31-1.32
	l2.13,2.11l-2.37,2.4C26.83,56.95,26.45,57.11,26.05,57.11z"/>
<path id="XMLID_189_" class="st1" d="M36.65,57.11c-0.4,0-0.78-0.16-1.07-0.45l-11.88-12c-0.58-0.58-0.58-1.53,0-2.11l5.94-6
	c0.56-0.57,1.57-0.57,2.13,0l4.87,4.93l20.14-20.36c0.56-0.57,1.57-0.57,2.13,0l5.94,6c0.58,0.58,0.58,1.53,0,2.11L37.72,56.67
	C37.43,56.95,37.05,57.11,36.65,57.11z M26.88,43.61l9.77,9.87l25.03-25.3l-3.83-3.87L37.72,44.66c-0.28,0.29-0.67,0.45-1.07,0.45
	l0,0c-0.4,0-0.78-0.16-1.07-0.45l-4.87-4.93L26.88,43.61z"/>
</svg>
