<?xml version="1.0" encoding="utf-8"?>
<!-- Generator: Adobe Illustrator 19.0.0, SVG Export Plug-In . SVG Version: 6.00 Build 0)  -->
<svg version="1.1" id="Ebene_1" xmlns="http://www.w3.org/2000/svg" xmlns:xlink="http://www.w3.org/1999/xlink" x="0px" y="0px"
	 width="48px" height="55px" viewBox="0 -2 48 55" style="enable-background:new 0 -2 48 55;" xml:space="preserve">
<style type="text/css">
	.st0{fill:#FFFFFF;}
</style>
<path id="XMLID_93_" class="st0" d="M6.07,16.78c-1.69,0-3.06,1.37-3.06,3.05v12.76c0,1.69,1.37,3.05,3.06,3.05s3.06-1.36,3.06-3.05
	V19.83C9.13,18.15,7.76,16.78,6.07,16.78z M30.75,5.32l2.14-3.88c0.11-0.2,0.04-0.46-0.17-0.58c-0.21-0.11-0.47-0.04-0.58,0.17
	l-2.16,3.93c-1.82-0.8-3.85-1.26-6-1.25c-2.14,0-4.18,0.45-5.98,1.25l-2.16-3.91c-0.11-0.21-0.37-0.28-0.57-0.17
	c-0.21,0.11-0.28,0.37-0.17,0.57l2.14,3.88c-4.2,2.16-7.04,6.26-7.03,10.98h27.57C37.78,11.58,34.95,7.48,30.75,5.32z M17.72,11.32
	c-0.63,0-1.15-0.52-1.15-1.15c0-0.63,0.52-1.15,1.15-1.15c0.64,0,1.16,0.52,1.16,1.15C18.88,10.81,18.36,11.32,17.72,11.32z
	 M30.27,11.32c-0.64,0-1.16-0.51-1.16-1.15c0-0.63,0.52-1.15,1.16-1.15c0.63,0,1.15,0.52,1.15,1.15
	C31.43,10.81,30.91,11.32,30.27,11.32z M10.32,17.36v19.78c0,1.8,1.46,3.25,3.27,3.25h2.22v6.75c0,1.68,1.37,3.05,3.06,3.05
	s3.06-1.37,3.06-3.05v-6.75h4.13v6.75c0,1.68,1.37,3.05,3.06,3.05c1.69,0,3.06-1.37,3.06-3.05v-6.75h2.23c1.8,0,3.27-1.45,3.27-3.25
	V17.36L10.32,17.36z M44.99,19.83c0-1.68-1.37-3.05-3.06-3.05c-1.69,0-3.06,1.37-3.06,3.05v12.76c0,1.68,1.37,3.05,3.06,3.05
	c1.69,0,3.06-1.36,3.06-3.05V19.83z"/>
</svg>
