<?xml version="1.0" encoding="utf-8"?>
<!-- Generator: Adobe Illustrator 19.0.0, SVG Export Plug-In . SVG Version: 6.00 Build 0)  -->
<svg version="1.1" id="Ebene_1" xmlns="http://www.w3.org/2000/svg" xmlns:xlink="http://www.w3.org/1999/xlink" x="0px" y="0px"
	 width="48px" height="55px" viewBox="0 0 48 55" style="enable-background:new 0 0 48 55;" xml:space="preserve">
<style type="text/css">
	.st0{fill-rule:evenodd;clip-rule:evenodd;fill:#A4C439;}
</style>
<path id="XMLID_93_" class="st0" d="M6.07,18.78c-1.69,0-3.06,1.37-3.06,3.05l0,12.76c0,1.69,1.37,3.05,3.06,3.05
	c1.69,0,3.06-1.36,3.06-3.05l0-12.76C9.13,20.15,7.76,18.78,6.07,18.78z M30.75,7.32l2.14-3.88c0.11-0.2,0.04-0.46-0.17-0.58
	c-0.21-0.11-0.47-0.04-0.58,0.17l-2.16,3.93c-1.82-0.8-3.85-1.26-6-1.25c-2.14,0-4.18,0.45-5.98,1.25l-2.16-3.91
	c-0.11-0.21-0.37-0.28-0.57-0.17c-0.21,0.11-0.28,0.37-0.17,0.57l2.14,3.88c-4.2,2.16-7.04,6.26-7.03,10.98l27.57,0
	C37.78,13.58,34.95,9.48,30.75,7.32z M17.72,13.32c-0.63,0-1.15-0.52-1.15-1.15c0-0.63,0.52-1.15,1.15-1.15
	c0.64,0,1.16,0.52,1.16,1.15C18.88,12.81,18.36,13.32,17.72,13.32z M30.27,13.32c-0.64,0-1.16-0.51-1.16-1.15
	c0-0.63,0.52-1.15,1.16-1.15c0.63,0,1.15,0.52,1.15,1.15C31.43,12.81,30.91,13.32,30.27,13.32z M10.32,19.36l0,19.78
	c0,1.8,1.46,3.25,3.27,3.25l2.22,0l0,6.75c0,1.68,1.37,3.05,3.06,3.05c1.69,0,3.06-1.37,3.06-3.05l0-6.75l4.13,0l0,6.75
	c0,1.68,1.37,3.05,3.06,3.05c1.69,0,3.06-1.37,3.06-3.05l0-6.75l2.23,0c1.8,0,3.27-1.45,3.27-3.25l0-19.78L10.32,19.36z
	 M44.99,21.83c0-1.68-1.37-3.05-3.06-3.05c-1.69,0-3.06,1.37-3.06,3.05l0,12.76c0,1.68,1.37,3.05,3.06,3.05
	c1.69,0,3.06-1.36,3.06-3.05L44.99,21.83z"/>
</svg>
