<?xml version="1.0" encoding="UTF-8"?>
<svg width="48px" height="48px" viewBox="0 0 48 48" version="1.1" xmlns="http://www.w3.org/2000/svg" xmlns:xlink="http://www.w3.org/1999/xlink">
    <!-- Generator: Sketch 41.2 (35397) - http://www.bohemiancoding.com/sketch -->
    <title>apollo</title>
    <desc>Created with Sketch.</desc>
    <defs></defs>
    <g id="Page-1" stroke="none" stroke-width="1" fill="none" fill-rule="evenodd">
        <g id="apollo" transform="translate(24.000000, 24.000000) scale(1, -1) translate(-24.000000, -24.000000) " fill="#112B49">
            <polygon id="Shape" points="26.9703896 36.2543377 21.1742338 36.2543377 12.8057143 14.534961 18.048 14.534961 19.416 18.2144416 27.3235325 18.2144416 25.8916364 22.2850909 20.6858182 22.2850909 24.0723117 31.6304416 30.0969351 14.534961 35.3392208 14.534961"></polygon>
            <path d="M47.0265974,30.4463377 C47.0125714,30.5205195 46.9923117,30.5918961 46.9655065,30.6607792 C46.958961,30.6844675 46.9368312,30.729039 46.9368312,30.729039 C46.7476364,31.1395325 46.3334026,31.4253506 45.8515325,31.4253506 C45.1913766,31.4253506 44.6562078,30.8901818 44.6562078,30.230026 C44.6562078,30.0956883 44.6792727,29.9672727 44.7201039,29.846961 L44.716987,29.8457143 C45.2440519,27.9671688 45.5167792,26.0047792 45.5167792,24 C45.5167792,18.2527792 43.2785455,12.8493506 39.2147532,8.78524675 C35.1506494,4.72083117 29.7472208,2.48290909 24,2.48290909 C18.2527792,2.48290909 12.849039,4.72114286 8.78524675,8.78524675 C4.72083117,12.8493506 2.48290909,18.2527792 2.48290909,24 C2.48290909,29.7472208 4.72114286,35.1506494 8.78524675,39.2147532 C12.849039,43.2791688 18.2527792,45.5167792 24,45.5167792 C29.1322597,45.5167792 33.988987,43.7308052 37.8635844,40.454961 C37.7332987,40.1236364 37.6606753,39.763013 37.6606753,39.3852468 C37.6606753,37.7713247 38.9691429,36.4631688 40.5827532,36.4631688 C42.1966753,36.4631688 43.5051429,37.7713247 43.5051429,39.3852468 C43.5051429,40.9991688 42.1966753,42.3073247 40.5827532,42.3073247 C40.2308571,42.3073247 39.8932987,42.2452987 39.5803636,42.1312208 C35.3959481,45.7309091 29.9529351,47.9080519 24,47.9080519 C10.7959481,47.9080519 0.0922597403,37.2040519 0.0922597403,24 C0.0922597403,10.7959481 10.7959481,0.0919480519 24,0.0919480519 C37.2037403,0.0919480519 47.9077403,10.7959481 47.9077403,24 C47.9077403,26.2335584 47.5994805,28.3954286 47.0265974,30.4463377 Z" id="Shape"></path>
        </g>
    </g>
</svg>