<?xml version="1.0" encoding="utf-8"?>
<!-- Generator: Adobe Illustrator 19.0.0, SVG Export Plug-In . SVG Version: 6.00 Build 0)  -->
<svg version="1.1" id="Ebene_1" xmlns="http://www.w3.org/2000/svg" xmlns:xlink="http://www.w3.org/1999/xlink" x="0px" y="0px"
	 width="55px" height="50px" viewBox="0 0 55 50" style="enable-background:new 0 0 55 50;" xml:space="preserve">
<style type="text/css">
	.st0{fill-rule:evenodd;clip-rule:evenodd;fill:#3999C6;}
	.st1{fill-rule:evenodd;clip-rule:evenodd;fill:#FCD116;}
	.st2{fill-rule:evenodd;clip-rule:evenodd;fill:#FF8C00;}
</style>
<g id="XMLID_94_">
	<path id="XMLID_459_" class="st0" d="M52.29,25.31c0.47-0.47,0.39-1.33,0-1.79l-2.43-2.42L39.03,10.65c-0.47-0.47-1.18-0.47-1.73,0
		c-0.47,0.47-0.63,1.33,0,1.79l11.38,11.07c0.47,0.47,0.47,1.33,0,1.79L37.07,36.77c-0.47,0.47-0.47,1.33,0,1.79
		c0.47,0.47,1.33,0.39,1.73,0l10.75-10.6l0.08-0.08L52.29,25.31z"/>
	<path id="XMLID_454_" class="st0" d="M2.71,25.31c-0.47-0.47-0.39-1.33,0-1.79l2.43-2.42l10.83-10.45c0.47-0.47,1.18-0.47,1.73,0
		c0.47,0.47,0.63,1.33,0,1.79L6.55,23.52c-0.47,0.47-0.47,1.33,0,1.79l11.38,11.46c0.47,0.47,0.47,1.33,0,1.79
		c-0.47,0.47-1.33,0.39-1.73,0L5.22,28.12l-0.08-0.08L2.71,25.31z"/>
	<polygon id="XMLID_449_" class="st1" points="39.74,2 24.44,2 16.2,25.08 26.24,25.16 18.4,48 40.05,17.52 29.54,17.52 	"/>
	<polygon id="XMLID_418_" class="st2" points="29.54,17.52 39.74,2 31.74,2 23.26,21.18 33.31,21.26 18.4,48 40.05,17.52 	"/>
</g>
</svg>
