<?xml version="1.0" encoding="utf-8"?>
<!-- Generator: Adobe Illustrator 19.0.0, SVG Export Plug-In . SVG Version: 6.00 Build 0)  -->
<svg version="1.1" id="Ebene_1" xmlns="http://www.w3.org/2000/svg" xmlns:xlink="http://www.w3.org/1999/xlink" x="0px" y="0px"
	 width="55px" height="50px" viewBox="3 0 55 50" style="enable-background:new 3 0 55 50;" xml:space="preserve">
<style type="text/css">
	.st0{fill:#FFFFFF;}
</style>
<g id="XMLID_94_">
	<path id="XMLID_459_" class="st0" d="M55.29,25.31c0.47-0.47,0.39-1.33,0-1.79l-2.43-2.42L42.03,10.65c-0.47-0.47-1.18-0.47-1.73,0
		c-0.47,0.47-0.63,1.33,0,1.79l11.38,11.07c0.47,0.47,0.47,1.33,0,1.79L40.07,36.77c-0.47,0.47-0.47,1.33,0,1.79
		c0.47,0.47,1.33,0.39,1.73,0l10.75-10.6l0.08-0.08L55.29,25.31z"/>
	<path id="XMLID_454_" class="st0" d="M5.71,25.31c-0.47-0.47-0.39-1.33,0-1.79l2.43-2.42l10.83-10.45c0.47-0.47,1.18-0.47,1.73,0
		c0.47,0.47,0.63,1.33,0,1.79L9.55,23.52c-0.47,0.47-0.47,1.33,0,1.79l11.38,11.46c0.47,0.47,0.47,1.33,0,1.79
		c-0.47,0.47-1.33,0.39-1.73,0L8.22,28.12l-0.08-0.08L5.71,25.31z"/>
	<polygon id="XMLID_449_" class="st0" points="42.74,2 27.44,2 19.2,25.08 29.24,25.16 21.4,48 43.05,17.52 32.54,17.52 	"/>
</g>
</svg>
