<?xml version="1.0" encoding="utf-8"?>
<!-- Generator: Adobe Illustrator 19.0.0, SVG Export Plug-In . SVG Version: 6.00 Build 0)  -->
<svg version="1.1" id="Ebene_1" xmlns="http://www.w3.org/2000/svg" xmlns:xlink="http://www.w3.org/1999/xlink" x="0px" y="0px"
	 width="25px" height="33px" viewBox="0 0 25 33" style="enable-background:new 0 0 25 33;" xml:space="preserve">
<style type="text/css">
	.st0{clip-path:url(#XMLID_264_);}
	.st1{clip-path:url(#XMLID_265_);fill:#FFC24A;}
	.st2{clip-path:url(#XMLID_266_);}
	.st3{clip-path:url(#XMLID_267_);fill:#FFA712;}
	.st4{clip-path:url(#XMLID_268_);}
	.st5{clip-path:url(#XMLID_269_);fill:#F4BD62;}
	.st6{clip-path:url(#XMLID_270_);}
	.st7{clip-path:url(#XMLID_271_);fill:#FFA50E;}
	.st8{clip-path:url(#XMLID_272_);}
	.st9{clip-path:url(#XMLID_273_);fill:#F6820C;}
	.st10{clip-path:url(#XMLID_274_);}
	.st11{clip-path:url(#XMLID_275_);fill:#FDE068;}
	.st12{clip-path:url(#XMLID_276_);}
	.st13{clip-path:url(#XMLID_277_);fill:#FCCA3F;}
	.st14{clip-path:url(#XMLID_278_);}
	.st15{clip-path:url(#XMLID_279_);fill:#EEAB37;}
</style>
<g id="XMLID_2_">
	<g id="XMLID_167_">
		<defs>
			<path id="XMLID_127_" d="M0.64,26.27L0.84,26l9.32-17.28l0.02-0.18L6.07,1C5.73,0.37,4.76,0.53,4.65,1.23L0.64,26.27z"/>
		</defs>
		<clipPath id="XMLID_264_">
			<use xlink:href="#XMLID_127_"  style="overflow:visible;"/>
		</clipPath>
		<g id="XMLID_169_" class="st0">
			<defs>
				<rect id="XMLID_128_" x="-418.32" y="-6932.49" width="1024" height="10350"/>
			</defs>
			<clipPath id="XMLID_265_">
				<use xlink:href="#XMLID_128_"  style="overflow:visible;"/>
			</clipPath>
			<rect id="XMLID_129_" x="-4.36" y="-4.4" class="st1" width="19.54" height="35.66"/>
		</g>
	</g>
	<g id="XMLID_162_">
		<defs>
			<path id="XMLID_124_" d="M0.76,26.06l0.15-0.28l9.23-17.1l-4.1-7.57C5.69,0.49,4.83,0.65,4.72,1.35L0.76,26.06z"/>
		</defs>
		<clipPath id="XMLID_266_">
			<use xlink:href="#XMLID_124_"  style="overflow:visible;"/>
		</clipPath>
		<g id="XMLID_164_" class="st2">
			<defs>
				<rect id="XMLID_125_" x="-418.32" y="-6932.49" width="1024" height="10350"/>
			</defs>
			<clipPath id="XMLID_267_">
				<use xlink:href="#XMLID_125_"  style="overflow:visible;"/>
			</clipPath>
			<rect id="XMLID_126_" x="-4.24" y="-4.28" class="st3" width="19.37" height="35.34"/>
		</g>
	</g>
	<g id="XMLID_157_">
		<defs>
			<path id="XMLID_121_" d="M13.18,14.24l3.06-3.06l-3.06-5.71c-0.29-0.54-1.1-0.54-1.39,0l-1.64,3.05v0.26L13.18,14.24z"/>
		</defs>
		<clipPath id="XMLID_268_">
			<use xlink:href="#XMLID_121_"  style="overflow:visible;"/>
		</clipPath>
		<g id="XMLID_159_" class="st4">
			<defs>
				<rect id="XMLID_122_" x="-418.32" y="-6932.49" width="1024" height="10350"/>
			</defs>
			<clipPath id="XMLID_269_">
				<use xlink:href="#XMLID_122_"  style="overflow:visible;"/>
			</clipPath>
			<rect id="XMLID_123_" x="5.15" y="0.07" class="st5" width="16.09" height="19.17"/>
		</g>
	</g>
	<g id="XMLID_152_">
		<defs>
			<path id="XMLID_118_" d="M13.12,14.11l2.98-2.98L13.12,5.6c-0.28-0.53-0.97-0.58-1.25-0.05l-1.64,3.09L10.18,8.8L13.12,14.11z"/>
		</defs>
		<clipPath id="XMLID_270_">
			<use xlink:href="#XMLID_118_"  style="overflow:visible;"/>
		</clipPath>
		<g id="XMLID_154_" class="st6">
			<defs>
				<rect id="XMLID_119_" x="-418.32" y="-6932.49" width="1024" height="10350"/>
			</defs>
			<clipPath id="XMLID_271_">
				<use xlink:href="#XMLID_119_"  style="overflow:visible;"/>
			</clipPath>
			<rect id="XMLID_120_" x="5.18" y="0.18" class="st7" width="15.92" height="18.93"/>
		</g>
	</g>
	<g id="XMLID_147_">
		<defs>
			<polygon id="XMLID_115_" points="0.64,26.27 0.73,26.18 1.06,26.05 12.99,14.44 13.14,14.04 10.16,8.5 			"/>
		</defs>
		<clipPath id="XMLID_272_">
			<use xlink:href="#XMLID_115_"  style="overflow:visible;"/>
		</clipPath>
		<g id="XMLID_149_" class="st8">
			<defs>
				<rect id="XMLID_116_" x="-418.32" y="-6932.49" width="1024" height="10350"/>
			</defs>
			<clipPath id="XMLID_273_">
				<use xlink:href="#XMLID_116_"  style="overflow:visible;"/>
			</clipPath>
			<rect id="XMLID_117_" x="-4.36" y="3.5" class="st9" width="22.5" height="27.76"/>
		</g>
	</g>
	<g id="XMLID_142_">
		<defs>
			<path id="XMLID_112_" d="M13.56,32.12l10.8-5.88L21.27,7.7c-0.1-0.58-0.83-0.81-1.25-0.39L0.64,26.27l10.73,5.85
				C12.06,32.49,12.88,32.49,13.56,32.12"/>
		</defs>
		<clipPath id="XMLID_274_">
			<use xlink:href="#XMLID_112_"  style="overflow:visible;"/>
		</clipPath>
		<g id="XMLID_144_" class="st10">
			<defs>
				<rect id="XMLID_113_" x="-418.32" y="-6932.49" width="1024" height="10350"/>
			</defs>
			<clipPath id="XMLID_275_">
				<use xlink:href="#XMLID_113_"  style="overflow:visible;"/>
			</clipPath>
			<rect id="XMLID_114_" x="-4.36" y="2.09" class="st11" width="33.72" height="35.31"/>
		</g>
	</g>
	<g id="XMLID_137_">
		<defs>
			<path id="XMLID_6_" d="M24.26,26.19L21.2,7.79c-0.1-0.58-0.7-0.81-1.12-0.4L0.76,26.23l10.62,5.8c0.67,0.37,1.49,0.37,2.17,0
				L24.26,26.19z"/>
		</defs>
		<clipPath id="XMLID_276_">
			<use xlink:href="#XMLID_6_"  style="overflow:visible;"/>
		</clipPath>
		<g id="XMLID_139_" class="st12">
			<defs>
				<rect id="XMLID_110_" x="-418.32" y="-6932.49" width="1024" height="10350"/>
			</defs>
			<clipPath id="XMLID_277_">
				<use xlink:href="#XMLID_110_"  style="overflow:visible;"/>
			</clipPath>
			<rect id="XMLID_111_" x="-4.24" y="2.18" class="st13" width="33.5" height="35.12"/>
		</g>
	</g>
	<g id="XMLID_132_">
		<defs>
			<path id="XMLID_3_" d="M13.56,31.95c-0.68,0.37-1.5,0.37-2.18,0L0.73,26.18l-0.09,0.09l10.73,5.85c0.68,0.37,1.5,0.37,2.18,0
				l10.8-5.88l-0.03-0.16L13.56,31.95z"/>
		</defs>
		<clipPath id="XMLID_278_">
			<use xlink:href="#XMLID_3_"  style="overflow:visible;"/>
		</clipPath>
		<g id="XMLID_134_" class="st14">
			<defs>
				<rect id="XMLID_4_" x="-418.32" y="-6932.49" width="1024" height="10350"/>
			</defs>
			<clipPath id="XMLID_279_">
				<use xlink:href="#XMLID_4_"  style="overflow:visible;"/>
			</clipPath>
			<rect id="XMLID_5_" x="-4.36" y="21.08" class="st15" width="33.72" height="16.32"/>
		</g>
	</g>
</g>
</svg>
