<?xml version="1.0" encoding="utf-8"?>
<!-- Generator: Adobe Illustrator 19.0.0, SVG Export Plug-In . SVG Version: 6.00 Build 0)  -->
<svg version="1.1" id="Ebene_1" xmlns="http://www.w3.org/2000/svg" xmlns:xlink="http://www.w3.org/1999/xlink" x="0px" y="0px"
	 width="30px" height="40px" viewBox="-39.5 30.5 30 40" style="enable-background:new -39.5 30.5 30 40;" xml:space="preserve">
<style type="text/css">
	.st0{clip-path:url(#SVGID_2_);}
	.st1{clip-path:url(#SVGID_4_);fill:#FFC24A;}
	.st2{clip-path:url(#SVGID_6_);}
	.st3{clip-path:url(#SVGID_8_);fill:#FFA712;}
	.st4{clip-path:url(#SVGID_10_);}
	.st5{clip-path:url(#SVGID_12_);fill:#F4BD62;}
	.st6{clip-path:url(#SVGID_14_);}
	.st7{clip-path:url(#SVGID_16_);fill:#FFA50E;}
	.st8{clip-path:url(#SVGID_18_);}
	.st9{clip-path:url(#SVGID_20_);fill:#F6820C;}
	.st10{clip-path:url(#SVGID_22_);}
	.st11{clip-path:url(#SVGID_24_);fill:#FDE068;}
	.st12{clip-path:url(#SVGID_26_);}
	.st13{clip-path:url(#SVGID_28_);fill:#FCCA3F;}
	.st14{clip-path:url(#SVGID_30_);}
	.st15{clip-path:url(#SVGID_32_);fill:#EEAB37;}
</style>
<g>
	<defs>
		<path id="SVGID_1_" d="M-38.05,61.66l0.23-0.31l10.65-19.74l0.02-0.21l-4.7-8.62c-0.39-0.72-1.5-0.54-1.63,0.27L-38.05,61.66z"/>
	</defs>
	<clipPath id="SVGID_2_">
		<use xlink:href="#SVGID_1_"  style="overflow:visible;"/>
	</clipPath>
	<g class="st0">
		<defs>
			<rect id="SVGID_3_" x="-907.29" y="-6532.77" width="2000" height="10032"/>
		</defs>
		<clipPath id="SVGID_4_">
			<use xlink:href="#SVGID_3_"  style="overflow:visible;"/>
		</clipPath>
		<rect x="-43.05" y="27.33" class="st1" width="20.9" height="39.33"/>
	</g>
</g>
<g>
	<defs>
		<path id="SVGID_5_" d="M-37.92,61.43l0.17-0.32l10.54-19.54l-4.69-8.65c-0.39-0.71-1.38-0.53-1.51,0.27L-37.92,61.43z"/>
	</defs>
	<clipPath id="SVGID_6_">
		<use xlink:href="#SVGID_5_"  style="overflow:visible;"/>
	</clipPath>
	<g class="st2">
		<defs>
			<rect id="SVGID_7_" x="-907.29" y="-6532.77" width="2000" height="10032"/>
		</defs>
		<clipPath id="SVGID_8_">
			<use xlink:href="#SVGID_7_"  style="overflow:visible;"/>
		</clipPath>
		<rect x="-42.92" y="27.47" class="st3" width="20.71" height="38.96"/>
	</g>
</g>
<g>
	<defs>
		<path id="SVGID_9_" d="M-23.72,47.92l3.5-3.5l-3.5-6.52c-0.33-0.62-1.26-0.62-1.59,0l-1.87,3.48v0.3L-23.72,47.92z"/>
	</defs>
	<clipPath id="SVGID_10_">
		<use xlink:href="#SVGID_9_"  style="overflow:visible;"/>
	</clipPath>
	<g class="st4">
		<defs>
			<rect id="SVGID_11_" x="-907.29" y="-6532.77" width="2000" height="10032"/>
		</defs>
		<clipPath id="SVGID_12_">
			<use xlink:href="#SVGID_11_"  style="overflow:visible;"/>
		</clipPath>
		<rect x="-32.18" y="32.43" class="st5" width="16.96" height="20.48"/>
	</g>
</g>
<g>
	<defs>
		<path id="SVGID_13_" d="M-23.79,47.77l3.4-3.4l-3.4-6.32c-0.32-0.6-1.11-0.66-1.43-0.06l-1.88,3.54l-0.06,0.18L-23.79,47.77z"/>
	</defs>
	<clipPath id="SVGID_14_">
		<use xlink:href="#SVGID_13_"  style="overflow:visible;"/>
	</clipPath>
	<g class="st6">
		<defs>
			<rect id="SVGID_15_" x="-907.29" y="-6532.77" width="2000" height="10032"/>
		</defs>
		<clipPath id="SVGID_16_">
			<use xlink:href="#SVGID_15_"  style="overflow:visible;"/>
		</clipPath>
		<rect x="-32.15" y="32.57" class="st7" width="16.76" height="20.21"/>
	</g>
</g>
<g>
	<defs>
		<polygon id="SVGID_17_" points="-38.05,61.66 -37.95,61.56 -37.58,61.41 -23.94,48.15 -23.77,47.69 -27.17,41.36 		"/>
	</defs>
	<clipPath id="SVGID_18_">
		<use xlink:href="#SVGID_17_"  style="overflow:visible;"/>
	</clipPath>
	<g class="st8">
		<defs>
			<rect id="SVGID_19_" x="-907.29" y="-6532.77" width="2000" height="10032"/>
		</defs>
		<clipPath id="SVGID_20_">
			<use xlink:href="#SVGID_19_"  style="overflow:visible;"/>
		</clipPath>
		<rect x="-43.05" y="36.36" class="st9" width="24.28" height="30.3"/>
	</g>
</g>
<g>
	<defs>
		<path id="SVGID_21_" d="M-23.29,68.35l12.34-6.72l-3.52-21.19c-0.11-0.66-0.94-0.93-1.43-0.45l-22.15,21.67l12.27,6.69
			C-25.01,68.77-24.06,68.77-23.29,68.35"/>
	</defs>
	<clipPath id="SVGID_22_">
		<use xlink:href="#SVGID_21_"  style="overflow:visible;"/>
	</clipPath>
	<g class="st10">
		<defs>
			<rect id="SVGID_23_" x="-907.29" y="-6532.77" width="2000" height="10032"/>
		</defs>
		<clipPath id="SVGID_24_">
			<use xlink:href="#SVGID_23_"  style="overflow:visible;"/>
		</clipPath>
		<rect x="-43.05" y="34.75" class="st11" width="37.1" height="38.92"/>
	</g>
</g>
<g>
	<defs>
		<path id="SVGID_25_" d="M-11.06,61.57l-3.5-21.03c-0.11-0.66-0.8-0.93-1.28-0.46l-22.07,21.54l12.13,6.62
			c0.77,0.42,1.71,0.42,2.48,0L-11.06,61.57z"/>
	</defs>
	<clipPath id="SVGID_26_">
		<use xlink:href="#SVGID_25_"  style="overflow:visible;"/>
	</clipPath>
	<g class="st12">
		<defs>
			<rect id="SVGID_27_" x="-907.29" y="-6532.77" width="2000" height="10032"/>
		</defs>
		<clipPath id="SVGID_28_">
			<use xlink:href="#SVGID_27_"  style="overflow:visible;"/>
		</clipPath>
		<rect x="-42.91" y="34.85" class="st13" width="36.86" height="38.71"/>
	</g>
</g>
<g>
	<defs>
		<path id="SVGID_29_" d="M-23.29,68.15c-0.78,0.42-1.72,0.42-2.5,0l-12.17-6.59l-0.1,0.1l12.27,6.69c0.78,0.42,1.72,0.42,2.5,0
			l12.34-6.72l-0.03-0.18L-23.29,68.15z"/>
	</defs>
	<clipPath id="SVGID_30_">
		<use xlink:href="#SVGID_29_"  style="overflow:visible;"/>
	</clipPath>
	<g class="st14">
		<defs>
			<rect id="SVGID_31_" x="-907.29" y="-6532.77" width="2000" height="10032"/>
		</defs>
		<clipPath id="SVGID_32_">
			<use xlink:href="#SVGID_31_"  style="overflow:visible;"/>
		</clipPath>
		<rect x="-43.05" y="56.45" class="st15" width="37.1" height="17.22"/>
	</g>
</g>
</svg>
