<?xml version="1.0" encoding="utf-8"?>
<!-- Generator: Adobe Illustrator 19.0.0, SVG Export Plug-In . SVG Version: 6.00 Build 0)  -->
<svg version="1.1" id="Ebene_1" xmlns="http://www.w3.org/2000/svg" xmlns:xlink="http://www.w3.org/1999/xlink" x="0px" y="0px"
	 width="31px" height="31px" viewBox="-9 10 31 31" style="enable-background:new -9 10 31 31;" xml:space="preserve">
<style type="text/css">
	.st0{fill:#FFFFFF;}
</style>
<path class="st0" d="M6.5,11.42C-1.51,11.42-8,17.89-8,25.86c0,6.38,4.15,11.78,9.92,13.69c0.73,0.13,0.99-0.31,0.99-0.7
	c0-0.34-0.01-1.25-0.02-2.45C-1.15,37.27-2,34.47-2,34.47c-0.66-1.67-1.61-2.11-1.61-2.11c-1.32-0.89,0.1-0.88,0.1-0.88
	c1.46,0.1,2.22,1.49,2.22,1.49c1.29,2.21,3.39,1.57,4.22,1.2c0.13-0.93,0.51-1.57,0.92-1.93c-3.22-0.36-6.6-1.6-6.6-7.13
	c0-1.58,0.57-2.86,1.49-3.87c-0.15-0.38-0.65-1.84,0.14-3.83c0,0,1.22-0.39,3.99,1.48c1.16-0.32,2.4-0.48,3.63-0.49
	c1.23,0.01,2.47,0.17,3.63,0.49c2.77-1.87,3.98-1.48,3.98-1.48c0.79,1.99,0.29,3.45,0.14,3.82c0.93,1.01,1.49,2.3,1.49,3.87
	c0,5.54-3.39,6.76-6.62,7.12c0.52,0.45,0.98,1.33,0.98,2.67c0,1.93-0.02,3.49-0.02,3.96c0,0.39,0.26,0.84,1,0.69
	c5.77-1.9,9.92-7.31,9.92-13.68C21,17.89,14.51,11.42,6.5,11.42"/>
</svg>
