<?xml version="1.0" encoding="utf-8"?>
<!-- Generator: Adobe Illustrator 19.0.0, SVG Export Plug-In . SVG Version: 6.00 Build 0)  -->
<svg version="1.1" id="Ebene_1" xmlns="http://www.w3.org/2000/svg" xmlns:xlink="http://www.w3.org/1999/xlink" x="0px" y="0px"
	 width="50px" height="50px" viewBox="0 0 50 50" style="enable-background:new 0 0 50 50;" xml:space="preserve">
<style type="text/css">
	.st0{fill:#FFFFFF;}
</style>
<path class="st0" d="M47.75,22.86L38.19,5.89c-0.75-1.33-2.13-2.15-3.63-2.15H15.43c-1.5,0-2.88,0.82-3.63,2.15L2.24,22.86
	c-0.75,1.33-0.75,2.96,0,4.29l9.57,16.96c0.75,1.33,2.13,2.15,3.63,2.16h19.12c1.5,0,2.88-0.82,3.63-2.15l9.56-16.97
	C48.5,25.82,48.5,24.19,47.75,22.86z M17.93,34.54l-3.86-3.95V19.41l3.86-3.95l1.93,1.97l-2.89,2.97v9.2l2.89,2.96L17.93,34.54z
	 M20.91,26.4c-0.75,0-1.37-0.63-1.37-1.4s0.62-1.4,1.37-1.4c0.76,0,1.37,0.63,1.37,1.4S21.67,26.4,20.91,26.4z M25,26.4
	c-0.75,0-1.37-0.63-1.37-1.4s0.62-1.4,1.37-1.4s1.37,0.63,1.37,1.4S25.76,26.4,25,26.4z M29.09,26.4c-0.76,0-1.37-0.63-1.37-1.4
	s0.61-1.4,1.37-1.4c0.75,0,1.37,0.63,1.37,1.4S29.85,26.4,29.09,26.4z M35.91,30.59l-3.86,3.95l-1.92-1.98l2.89-2.96v-9.2
	l-2.89-2.96l1.92-1.98l3.86,3.95V30.59z"/>
</svg>
