<?xml version="1.0" encoding="utf-8"?>
<!-- Generator: Adobe Illustrator 19.0.0, SVG Export Plug-In . SVG Version: 6.00 Build 0)  -->
<svg version="1.1" id="Ebene_1" xmlns="http://www.w3.org/2000/svg" xmlns:xlink="http://www.w3.org/1999/xlink" x="0px" y="0px"
	 width="50px" height="50px" viewBox="0 0 50 50" style="enable-background:new 0 0 50 50;" xml:space="preserve">
<style type="text/css">
	.st0{fill-rule:evenodd;clip-rule:evenodd;fill:#0E62C2;}
	.st1{fill-rule:evenodd;clip-rule:evenodd;fill:#0851B0;}
	.st2{fill-rule:evenodd;clip-rule:evenodd;fill:#FFFFFF;}
</style>
<g id="XMLID_94_">
	<path id="XMLID_462_" class="st0" d="M11.81,44.11L2.24,27.15c-0.75-1.33-0.75-2.96,0-4.29l9.56-16.97
		c0.75-1.33,2.13-2.15,3.63-2.15h19.13c1.5,0,2.88,0.82,3.63,2.15l9.56,16.97c0.75,1.33,0.75,2.96,0,4.29l-9.56,16.97
		c-0.75,1.33-2.13,2.15-3.63,2.15H15.44C13.94,46.26,12.56,45.44,11.81,44.11"/>
	<path id="XMLID_450_" class="st1" d="M35.95,19.5l-1.36,1.4l0.3,8.8l-1.26,1.87l-0.73-0.75h0.67v-3.06l-3.22-3.29l-2.31,1.18
		l0.07,0.26l-8.19-8.39l-3.94,2.04l-0.48,4.13l1.36,7.55l1.98,1.98l-0.85,1.4l11.35,11.63h5.23c1.5,0,2.88-0.82,3.63-2.15
		l7.97-14.15L35.95,19.5z"/>
	<polygon id="XMLID_438_" class="st2" points="17.93,34.54 19.86,32.56 16.97,29.6 16.97,20.4 19.86,17.43 17.93,15.46 14.07,19.41 
		14.07,30.59 	"/>
	<path id="XMLID_433_" class="st2" d="M20.91,23.6c0.76,0,1.37,0.63,1.37,1.4c0,0.77-0.61,1.4-1.37,1.4c-0.75,0-1.37-0.63-1.37-1.4
		C19.54,24.23,20.16,23.6,20.91,23.6"/>
	<path id="XMLID_428_" class="st2" d="M25,23.6c0.75,0,1.37,0.63,1.37,1.4c0,0.77-0.61,1.4-1.37,1.4c-0.75,0-1.37-0.63-1.37-1.4
		C23.63,24.23,24.25,23.6,25,23.6"/>
	<path id="XMLID_423_" class="st2" d="M29.09,23.6c0.75,0,1.37,0.63,1.37,1.4c0,0.77-0.61,1.4-1.37,1.4c-0.76,0-1.37-0.63-1.37-1.4
		C27.72,24.23,28.33,23.6,29.09,23.6"/>
	<polygon id="XMLID_418_" class="st2" points="32.05,15.46 30.13,17.44 33.02,20.4 33.02,29.6 30.13,32.56 32.05,34.54 35.91,30.59 
		35.91,19.41 	"/>
</g>
</svg>
