<svg version="1.1" id="Ebene_1" xmlns="http://www.w3.org/2000/svg" xmlns:xlink="http://www.w3.org/1999/xlink" x="0px" y="0px"
	 width="30px" height="40px" viewBox="-39.5 30.5 30 40" style="enable-background:new -39.5 30.5 30 40;" xml:space="preserve">
<style type="text/css">
	.st0{fill-rule:evenodd;clip-rule:evenodd;fill:#27AE60;}
</style>
<path class="st0" d="M-11.8,45.03c-1.62-0.88-3.66,0.27-3.99,0.47l-7,3.84c-1.03-0.79-2.51-0.76-3.5,0.08
	c-0.99,0.84-1.22,2.25-0.55,3.34c0.68,1.1,2.07,1.57,3.3,1.12c1.24-0.45,1.97-1.68,1.74-2.94l6.98-3.83l0.04-0.03
	c0.46-0.28,1.52-0.7,2.02-0.43c0.36,0.2,0.56,0.85,0.58,1.81h-0.01v8.46c0,0.79-0.44,1.52-1.14,1.91l-10.04,5.6
	c-0.71,0.39-1.58,0.39-2.29,0l-10.04-5.6c-0.71-0.4-1.14-1.12-1.14-1.91v-11.2c0-0.79,0.44-1.52,1.14-1.91l9.08-5.07
	c0.86,0.96,2.31,1.18,3.45,0.54c1.13-0.65,1.63-1.98,1.18-3.17s-1.72-1.91-3.01-1.7c-1.3,0.21-2.26,1.28-2.28,2.55l-9.37,5.23
	c-1.31,0.73-2.11,2.07-2.12,3.53v11.2c0,1.46,0.81,2.8,2.11,3.53l10.04,5.6c1.31,0.73,2.91,0.73,4.22,0l10.04-5.6
	c1.3-0.73,2.11-2.07,2.11-3.53V48.8h0.01C-10.19,46.89-10.72,45.62-11.8,45.03z"/>
</svg>
