<?xml version="1.0" encoding="utf-8"?>
<!-- Generator: Adobe Illustrator 19.0.0, SVG Export Plug-In . SVG Version: 6.00 Build 0)  -->
<svg version="1.1" id="Ebene_1" xmlns="http://www.w3.org/2000/svg" xmlns:xlink="http://www.w3.org/1999/xlink" x="0px" y="0px"
	 width="26px" height="29px" viewBox="0 0 26 29" style="enable-background:new 0 0 26 29;" xml:space="preserve">
<style type="text/css">
	.st0{clip-path:url(#XMLID_111_);}
	.st1{clip-path:url(#XMLID_112_);fill:#27AE60;}
</style>
<g id="XMLID_2_">
	<defs>
		<path id="XMLID_3_" d="M24.11,9.72c-1.42-0.77-3.2,0.24-3.49,0.41l-6.13,3.36c-0.9-0.69-2.19-0.66-3.06,0.07
			c-0.87,0.73-1.07,1.96-0.48,2.92c0.59,0.96,1.81,1.37,2.89,0.98c1.08-0.39,1.72-1.47,1.52-2.57l6.11-3.35l0.04-0.02
			c0.4-0.25,1.33-0.61,1.77-0.37c0.31,0.17,0.49,0.74,0.51,1.58h-0.01v7.4c0,0.69-0.38,1.33-1,1.67L14,26.71
			c-0.62,0.34-1.38,0.34-2,0l-8.78-4.9c-0.62-0.35-1-0.98-1-1.67v-9.8c0-0.69,0.38-1.33,1-1.67l7.95-4.43
			c0.76,0.84,2.02,1.04,3.01,0.47c0.99-0.57,1.42-1.73,1.03-2.78c-0.39-1.04-1.5-1.67-2.64-1.49c-1.14,0.18-1.97,1.12-1.99,2.23
			l-8.2,4.58c-1.14,0.64-1.85,1.81-1.85,3.09v9.8c0,1.28,0.7,2.45,1.85,3.09l8.78,4.9c1.14,0.64,2.55,0.64,3.69,0l8.78-4.9
			c1.14-0.64,1.84-1.82,1.85-3.09v-7.12h0.01C25.52,11.34,25.06,10.23,24.11,9.72z"/>
	</defs>
	<clipPath id="XMLID_111_">
		<use xlink:href="#XMLID_3_"  style="overflow:visible;"/>
	</clipPath>
	<g id="XMLID_4_" class="st0">
		<defs>
			<rect id="XMLID_5_" x="-212.01" y="-6934.6" width="1024" height="10350"/>
		</defs>
		<clipPath id="XMLID_112_">
			<use xlink:href="#XMLID_5_"  style="overflow:visible;"/>
		</clipPath>
		<rect id="XMLID_6_" x="-4.48" y="-4.6" class="st1" width="34.96" height="38.2"/>
	</g>
</g>
</svg>
