<svg width="54px" height="60px" viewBox="142 0 54 60" version="1.1" xmlns="http://www.w3.org/2000/svg" xmlns:xlink="http://www.w3.org/1999/xlink">
    <path d="M173.826046,6.8758924 L186.163408,13.9990808 C186.510806,13.6311018 186.91659,13.3061954 187.376926,13.0388151 C189.935659,11.5679265 193.199193,12.4412666 194.685404,15 C196.156292,17.5587334 195.282952,20.8222676 192.724219,22.308478 C192.267402,22.5710794 191.787632,22.7589611 191.299295,22.8758724 L191.299295,37.1278197 C191.782345,37.2449778 192.256859,37.4316677 192.708897,37.691522 C195.282952,39.1777324 196.156292,42.4412666 194.670082,45 C193.199193,47.5587334 189.920337,48.4320736 187.361604,46.961185 C186.852187,46.6683464 186.409573,46.3038465 186.038962,45.8876344 L173.776853,52.9673737 C173.952144,53.4970452 174.046997,54.0636275 174.046997,54.652707 C174.046997,57.5944843 171.656803,60 168.699704,60 C165.742605,60 163.352411,57.609806 163.352411,54.652707 C163.352411,54.1270749 163.427931,53.619355 163.568732,53.1397869 L151.234653,46.0184944 C150.890965,46.3792483 150.490797,46.6980695 150.037804,46.961185 C147.463749,48.4320736 144.200215,47.5587334 142.729326,45 C141.258437,42.4412666 142.131777,39.1777324 144.690511,37.691522 C145.142918,37.4314556 145.617358,37.244673 146.100112,37.1275331 L146.100112,22.8758724 C145.611776,22.7589611 145.132006,22.5710794 144.675189,22.308478 C142.116456,20.8375894 141.243115,17.5587334 142.714004,15 C144.184893,12.4412666 147.463749,11.5679265 150.022482,13.0388151 C150.480314,13.3047411 150.884186,13.6275691 151.230326,13.9930802 L163.571016,6.86797033 C163.428748,6.38612135 163.352411,5.87576008 163.352411,5.34729316 C163.352411,2.39019407 165.742605,0 168.699704,0 C171.656803,0 174.046997,2.39019407 174.046997,5.34729316 C174.046997,5.87865721 173.96982,6.39171653 173.826046,6.8758924 Z M172.153679,9.07057176 L184.520422,16.2107237 C184.138146,17.5533216 184.278448,19.0420126 185.028788,20.3472932 C185.781575,21.6568288 187.007922,22.52491 188.368931,22.863218 L188.368931,37.1329973 C188.299573,37.1500228 188.23056,37.1684228 188.161937,37.1881858 L172.010095,9.21319551 C172.058849,9.16656045 172.106719,9.11901009 172.153679,9.07057176 Z M164.618791,9.21642911 L148.467222,37.190947 C148.397392,37.1706685 148.32716,37.1518067 148.256572,37.1343732 L148.256572,22.863218 C149.617581,22.52491 150.843928,21.6568288 151.596715,20.3472932 C152.34854,19.0394314 152.48791,17.547433 152.102807,16.2027603 L164.466064,9.06462108 C164.515952,9.11623881 164.566872,9.16685248 164.618791,9.21642911 Z M169.80684,10.4837562 L185.954751,38.4519389 C185.593351,38.7965032 185.27486,39.1979917 185.013467,39.6527068 C184.753612,40.1047451 184.566922,40.5792589 184.449764,41.0623085 L152.176026,41.0623085 C152.058886,40.5795545 151.872103,40.1051141 151.612037,39.6527068 C151.34961,39.2009009 151.03177,38.8016425 150.67218,38.4585594 L166.823163,10.485057 C167.295856,10.6214931 167.795636,10.6945863 168.312752,10.6945863 C168.831509,10.6945863 169.332819,10.6210284 169.80684,10.4837562 Z M172.267246,51.0502499 L184.553703,43.9564523 C184.516843,43.8406893 184.483903,43.7237053 184.454942,43.6057202 L152.169185,43.6057202 C152.152065,43.6750401 152.133567,43.7440171 152.113703,43.8126068 L164.460439,50.9412075 C165.432583,49.9323145 166.798323,49.3054138 168.312752,49.3054138 C169.881021,49.3054138 171.289842,49.9776823 172.267246,51.0502499 Z" id="Shape" stroke="none" fill="#E00097" fill-rule="evenodd"></path>
</svg>