<?xml version="1.0" encoding="utf-8"?>
<!-- Generator: Adobe Illustrator 19.0.0, SVG Export Plug-In . SVG Version: 6.00 Build 0)  -->
<svg version="1.1" id="Ebene_1" xmlns="http://www.w3.org/2000/svg" xmlns:xlink="http://www.w3.org/1999/xlink" x="0px" y="0px"
	 width="52px" height="40px" viewBox="1 6 52 40" style="enable-background:new 1 6 52 40;" xml:space="preserve">
<style type="text/css">
	.st0{fill:#FFFFFF;}
</style>
<g id="XMLID_66_">
	<path id="XMLID_183_" class="st0" d="M4.8,13.17c0,0.53-0.32,0.92-0.87,0.92c-0.46,0-0.8-0.39-0.8-0.92c0-0.51,0.37-0.92,0.85-0.92
		C4.48,12.24,4.8,12.66,4.8,13.17z M3.53,40.89h0.86v-21.2H3.53V40.89z"/>
	<path id="XMLID_176_" class="st0" d="M33.04,25.78c0,10.69-5.88,15.55-12.32,15.55c-6.58,0-11.9-5.26-11.9-15.11
		c0-10.12,5.51-15.55,12.36-15.55C27.9,10.67,33.04,16.02,33.04,25.78 M9.7,26c0,8.11,3.89,14.4,11.07,14.4
		c7.23,0,11.37-6.49,11.37-14.49c0-7.42-3.32-14.2-10.9-14.2C13.66,11.71,9.7,18.09,9.7,26"/>
	<path id="XMLID_171_" class="st0" d="M36.2,38.59c1.44,0.97,3.94,1.91,6.08,1.91c4.07,0,7.69-2.87,7.69-7.1
		c0-3.93-2.41-5.97-6.51-7.73c-3.66-1.57-6.96-3.28-6.96-7.48c0-4.37,3.41-7.47,8.05-7.47c2.5,0,4.38,0.71,5.25,1.33l-0.33,0.75
		c-0.74-0.53-2.76-1.2-4.94-1.2c-4.9,0-7.04,3.74-7.04,6.49c0,3.8,2.92,5.07,6.69,6.88c4.38,2.16,6.7,4.07,6.7,8.23
		c0,4.46-3.15,8.08-8.75,8.08c-2.32,0-4.99-0.79-6.3-1.81L36.2,38.59z"/>
</g>
</svg>
