<?xml version="1.0" encoding="utf-8"?>
<!-- Generator: Adobe Illustrator 19.0.0, SVG Export Plug-In . SVG Version: 6.00 Build 0)  -->
<svg version="1.1" id="Ebene_1" xmlns="http://www.w3.org/2000/svg" xmlns:xlink="http://www.w3.org/1999/xlink" x="0px" y="0px"
	 width="27px" height="27px" viewBox="0 0 27 27" style="enable-background:new 0 0 27 27;" xml:space="preserve">
<style type="text/css">
	.st0{clip-path:url(#SVGID_2_);}
	.st1{clip-path:url(#XMLID_332_);fill:#169CEE;}
</style>
<g id="XMLID_2_">
	<g>
		<defs>
			<path id="SVGID_1_" d="M15.68,16.55H9.25c-0.94,0-1.48,0.55-1.48,1.35c0,0.71,0.5,1.21,1.22,1.21c0.84,0,1.32-0.55,1.36-1.35
				h1.86c-0.1,1.94-1.36,2.98-3.25,2.98c-1.77,0-3.08-1.15-3.08-2.86c0-1.79,1.38-3.03,3.46-3.03h6.36c2.15,0,3.78-1.52,3.78-3.55
				c0-2.06-1.46-3.51-3.54-3.51c-2.06,0-3.73,1.44-3.73,4.11v1.75h-1.88v-1.75c0-3.53,2.36-5.82,5.64-5.82c3.13,0,5.4,2.15,5.4,5.2
				C21.41,14.33,18.97,16.55,15.68,16.55 M13.5,26.04c7.31,0,13.07-5.55,13.07-12.54S20.81,0.96,13.5,0.96S0.43,6.53,0.43,13.5
				C0.43,20.49,6.19,26.04,13.5,26.04"/>
		</defs>
		<clipPath id="SVGID_2_">
			<use xlink:href="#SVGID_1_"  style="overflow:visible;"/>
		</clipPath>
		<g class="st0">
			<defs>
				<rect id="XMLID_5_" x="-621.84" y="-6935.04" width="1024" height="10350"/>
			</defs>
			<clipPath id="XMLID_332_">
				<use xlink:href="#XMLID_5_"  style="overflow:visible;"/>
			</clipPath>
			<rect id="XMLID_6_" x="-4.57" y="-4.04" class="st1" width="36.15" height="35.08"/>
		</g>
	</g>
</g>
</svg>
