<?xml version="1.0" encoding="utf-8"?>
<!-- Generator: Adobe Illustrator 19.0.0, SVG Export Plug-In . SVG Version: 6.00 Build 0)  -->
<svg version="1.1" id="Ebene_1" xmlns="http://www.w3.org/2000/svg" xmlns:xlink="http://www.w3.org/1999/xlink" x="0px" y="0px"
	 width="30px" height="40px" viewBox="-39.5 30.5 30 40" style="enable-background:new -39.5 30.5 30 40;" xml:space="preserve">
<style type="text/css">
	.st0{fill-rule:evenodd;clip-rule:evenodd;fill:#169CEE;}
</style>
<path class="st0" d="M-22.08,53.89h-7.13c-1.04,0-1.64,0.61-1.64,1.5c0,0.79,0.56,1.35,1.35,1.35c0.93,0,1.46-0.61,1.51-1.5h2.07
	c-0.11,2.16-1.51,3.31-3.6,3.31c-1.96,0-3.42-1.28-3.42-3.18c0-1.98,1.54-3.36,3.85-3.36h7.06c2.38,0,4.2-1.68,4.2-3.94
	c0-2.28-1.62-3.9-3.93-3.9c-2.29,0-4.14,1.6-4.14,4.56v1.94h-2.09v-1.94c0-3.92,2.62-6.46,6.26-6.46c3.47,0,6,2.39,6,5.78
	C-15.72,51.42-18.43,53.89-22.08,53.89 M-24.5,64.42c8.11,0,14.51-6.16,14.51-13.92s-6.4-13.92-14.51-13.92s-14.51,6.18-14.51,13.92
	C-39.01,58.26-32.61,64.42-24.5,64.42"/>
</svg>
