<?xml version="1.0" encoding="utf-8"?>
<!-- Generator: Adobe Illustrator 19.0.0, SVG Export Plug-In . SVG Version: 6.00 Build 0)  -->
<svg version="1.1" id="Ebene_1" xmlns="http://www.w3.org/2000/svg" xmlns:xlink="http://www.w3.org/1999/xlink" x="0px" y="0px"
	 width="65px" height="40px" viewBox="0 0 65 40" style="enable-background:new 0 0 65 40;" xml:space="preserve">
<style type="text/css">
	.st0{fill-rule:evenodd;clip-rule:evenodd;fill:#F26B00;}
</style>
<path id="XMLID_5_" class="st0" d="M57.43,26.31c-2.65,0-4.88,1.73-5.57,4.09H24.98c-2.53,0-4.59-2-4.59-4.46
	c0-2.46,2.06-4.46,4.59-4.46h14.67c4.28,0,7.77-3.39,7.77-7.55s-3.48-7.55-7.77-7.55H13.11c-0.73-2.3-2.94-3.96-5.54-3.96
	c-3.2,0-5.8,2.52-5.8,5.64s2.6,5.64,5.8,5.64c2.7,0,4.96-1.79,5.61-4.22h26.48c2.53,0,4.59,2,4.59,4.46c0,2.46-2.06,4.46-4.59,4.46
	H24.98c-4.28,0-7.77,3.39-7.77,7.55s3.48,7.55,7.77,7.55h26.88c0.69,2.36,2.92,4.09,5.57,4.09c3.2,0,5.8-2.52,5.8-5.64
	S60.63,26.31,57.43,26.31z"/>
</svg>
