<?xml version="1.0" encoding="utf-8"?>
<!-- Generator: Adobe Illustrator 19.0.0, SVG Export Plug-In . SVG Version: 6.00 Build 0)  -->
<svg version="1.1" id="Ebene_1" xmlns="http://www.w3.org/2000/svg" xmlns:xlink="http://www.w3.org/1999/xlink" x="0px" y="0px"
	 width="24px" height="25px" viewBox="0 0 24 25" style="enable-background:new 0 0 24 25;" xml:space="preserve">
<style type="text/css">
	.st0{clip-path:url(#XMLID_448_);}
	.st1{clip-path:url(#XMLID_449_);fill:#00ACA1;}
</style>
<g id="XMLID_2_">
	<g>
		<defs>
			<polygon id="XMLID_3_" points="18.77,0.87 18.77,2.55 0.71,2.55 0.71,4.45 0.71,6.92 0.71,8.59 2.28,8.59 2.28,10.27 0.71,10.27 
				0.71,12.16 0.71,14.63 5.23,14.63 20.34,14.63 20.34,16.41 18.77,16.41 18.77,18.08 0.71,18.08 0.71,19.98 0.71,22.45 
				0.71,24.13 5.23,24.13 5.23,22.45 23.29,22.45 23.29,16.41 21.72,16.41 21.72,14.63 23.29,14.63 23.29,10.27 19.88,10.27 
				3.66,10.27 3.66,8.59 5.23,8.59 5.23,6.92 23.29,6.92 23.29,0.87 			"/>
		</defs>
		<clipPath id="XMLID_448_">
			<use xlink:href="#XMLID_3_"  style="overflow:visible;"/>
		</clipPath>
		<g class="st0">
			<defs>
				<rect id="XMLID_4_" x="-827.02" y="-6937.27" width="1024" height="10350"/>
			</defs>
			<clipPath id="XMLID_449_">
				<use xlink:href="#XMLID_4_"  style="overflow:visible;"/>
			</clipPath>
			<rect id="XMLID_5_" x="-4.29" y="-4.13" class="st1" width="32.58" height="33.25"/>
		</g>
	</g>
</g>
</svg>
