<?xml version="1.0" encoding="utf-8"?>
<!-- Generator: Adobe Illustrator 19.0.0, SVG Export Plug-In . SVG Version: 6.00 Build 0)  -->
<svg version="1.1" id="Ebene_1" xmlns="http://www.w3.org/2000/svg" xmlns:xlink="http://www.w3.org/1999/xlink" x="0px" y="0px"
	 width="30px" height="40px" viewBox="-39.5 30.5 30 40" style="enable-background:new -39.5 30.5 30 40;" xml:space="preserve">
<style type="text/css">
	.st0{fill-rule:evenodd;clip-rule:evenodd;fill:#00ACA1;}
</style>
<polygon class="st0" points="-16.76,37.21 -16.76,39.13 -37.4,39.13 -37.4,41.29 -37.4,44.12 -37.4,46.03 -35.61,46.03 
	-35.61,47.95 -37.4,47.95 -37.4,50.11 -37.4,52.94 -32.24,52.94 -14.96,52.94 -14.96,54.97 -16.76,54.97 -16.76,56.88 -37.4,56.88 
	-37.4,59.05 -37.4,61.87 -37.4,63.79 -32.24,63.79 -32.24,61.87 -11.6,61.87 -11.6,54.97 -13.39,54.97 -13.39,52.94 -11.6,52.94 
	-11.6,47.95 -15.49,47.95 -34.04,47.95 -34.04,46.03 -32.24,46.03 -32.24,44.12 -11.6,44.12 -11.6,37.21 "/>
</svg>
