<?xml version="1.0" encoding="utf-8"?>
<!-- Generator: Adobe Illustrator 19.0.0, SVG Export Plug-In . SVG Version: 6.00 Build 0)  -->
<svg version="1.1" id="Ebene_1" xmlns="http://www.w3.org/2000/svg" xmlns:xlink="http://www.w3.org/1999/xlink" x="0px" y="0px"
	 width="69px" height="31px" viewBox="10 10 69 31" style="enable-background:new 10 10 69 31;" xml:space="preserve">
<style type="text/css">
	.st0{fill:#FFFFFF;}
</style>
<g>
	<path class="st0" d="M35.99,34.13h-2.54v-1.47c-0.96,1.1-1.78,1.66-2.67,1.66c-0.78,0-1.32-0.37-1.6-1.03
		c-0.17-0.4-0.28-1.04-0.28-1.96v-10.7h2.54v10.02v0.94c0.06,0.38,0.22,0.51,0.54,0.51c0.49,0,0.93-0.42,1.47-1.18V20.64h2.54V34.13
		z"/>
	<path class="st0" d="M27.02,25.05c0-1.44-0.29-2.53-0.8-3.21c-0.68-0.92-1.74-1.3-2.81-1.3c-1.21,0-2.13,0.38-2.81,1.3
		c-0.52,0.68-0.8,1.78-0.8,3.22v4.8c0,1.43,0.25,2.42,0.77,3.1c0.68,0.92,1.77,1.41,2.84,1.41s2.19-0.49,2.86-1.41
		c0.51-0.68,0.75-1.67,0.75-3.1C27.03,29.85,27.03,25.05,27.02,25.05z M24.48,30.12c0.13,1.34-0.28,2-1.07,2
		c-0.79,0-1.2-0.66-1.07-2v-5.34c-0.13-1.34,0.28-1.96,1.07-1.96c0.79,0,1.21,0.63,1.07,1.96V30.12z"/>
	<path class="st0" d="M16.98,26.78v7.35h-2.67v-7.35c0,0-2.77-9.01-3.35-10.69h2.81l1.88,7.04l1.87-7.04h2.81L16.98,26.78z"/>
	<path class="st0" d="M62.15,22.78c-0.4,0-0.86,0.21-1.26,0.61v8.1c0.41,0.4,0.86,0.61,1.26,0.61c0.7,0,1.01-0.51,1.01-1.85V24.5
		C63.16,23.17,62.84,22.78,62.15,22.78"/>
	<path class="st0" d="M72.14,24.39c0-1.24-0.32-1.61-1.12-1.61c-0.81,0-1.15,0.34-1.15,1.59v1.48h2.28L72.14,24.39L72.14,24.39z"/>
	<path class="st0" d="M77.62,17.56c0,0-0.39-2.74-1.59-3.94c-1.52-1.58-3.22-1.59-4-1.68c-5.59-0.4-13.98-0.4-13.98-0.4h-0.02
		c0,0-8.39,0-13.98,0.4c-0.78,0.09-2.48,0.1-4,1.68c-1.2,1.21-1.59,3.94-1.59,3.94s-0.4,3.21-0.4,6.43v3.01
		c0,3.21,0.4,6.43,0.4,6.43s0.39,2.74,1.59,3.94c1.52,1.58,3.52,1.53,4.41,1.7c3.2,0.31,13.59,0.4,13.59,0.4s8.4-0.01,13.99-0.41
		c0.78-0.09,2.49-0.1,4-1.68c1.2-1.21,1.59-3.94,1.59-3.94s0.4-3.21,0.4-6.43v-3.01C78.03,20.76,77.62,17.56,77.62,17.56z
		 M46.83,34.13h-2.68V18.76h-2.81v-2.53h8.43v2.54h-2.94V34.13z M56.47,34.13h-2.54v-1.47c-0.96,1.1-1.78,1.66-2.67,1.66
		c-0.78,0-1.32-0.37-1.6-1.03c-0.17-0.4-0.28-1.04-0.28-1.96V20.77h2.54v9.89v0.94c0.06,0.38,0.22,0.51,0.54,0.51
		c0.49,0,0.93-0.42,1.47-1.18V20.77h2.54C56.48,20.77,56.48,34.13,56.47,34.13z M65.71,30.12c0,1.23-0.11,2.11-0.27,2.67
		c-0.32,0.99-1.03,1.51-1.99,1.51c-0.86,0-1.74-0.52-2.55-1.52v1.35h-2.41V16.22h2.41v5.84c0.78-0.96,1.67-1.51,2.56-1.51
		c0.96,0,1.61,0.56,1.94,1.56c0.16,0.54,0.32,1.4,0.32,2.67L65.71,30.12L65.71,30.12z M71.04,32.1c0.6,0,0.94-0.32,1.08-0.97
		c0.02-0.13,0.02-0.71,0.02-1.68h2.54v0.38c0,0.78-0.06,1.33-0.09,1.57c-0.08,0.54-0.27,1.02-0.57,1.45
		c-0.67,0.97-1.66,1.45-2.93,1.45c-1.27,0-2.23-0.46-2.93-1.37c-0.51-0.67-0.84-1.66-0.84-3.08v-4.68c0-1.43,0.3-2.53,0.82-3.21
		c0.7-0.91,1.67-1.4,2.9-1.4c1.22,0,2.18,0.48,2.86,1.4c0.51,0.68,0.79,1.72,0.79,3.15v2.73h-4.82v2.4
		C69.85,31.48,70.21,32.1,71.04,32.1z"/>
</g>
</svg>
