<?xml version="1.0" encoding="utf-8"?>
<!-- Generator: Adobe Illustrator 19.0.0, SVG Export Plug-In . SVG Version: 6.00 Build 0)  -->
<svg version="1.1" id="Ebene_1" xmlns="http://www.w3.org/2000/svg" xmlns:xlink="http://www.w3.org/1999/xlink" x="0px" y="0px"
	 width="72px" height="21px" viewBox="0 0 72 21" style="enable-background:new 0 0 72 21;" xml:space="preserve">
<style type="text/css">
	.st0{fill-rule:evenodd;clip-rule:evenodd;fill:#FFFFFF;}
</style>
<path id="XMLID_15_" class="st0" d="M16.46,0.34H2.12c-1,0-1.8,0.81-1.8,1.83v16.66c0,1.02,0.8,1.83,1.8,1.83h14.34
	c1,0,1.8-0.81,1.8-1.83V2.17C18.26,1.15,17.46,0.34,16.46,0.34z M17.26,18.83c0,0.46-0.35,0.81-0.8,0.81H2.12
	c-0.45,0-0.8-0.36-0.8-0.81V2.17c0-0.46,0.35-0.81,0.8-0.81h14.34c0.45,0,0.8,0.36,0.8,0.81V18.83z M4.81,17.61l2.25-2.03
	l-2.25-2.03V17.61z M12.91,9.38c-0.4-0.41-1.15-0.91-2.4-0.91c-1.35,0-2.75,0.36-3.75,0.71V3.39h-2v8.79l1.4-0.66
	c0,0,2.3-1.07,4.3-1.07c1,0,1.25,0.56,1.25,1.07v6.1h2v-6.1C13.76,11.36,13.76,10.25,12.91,9.38z M10.26,6.69h2
	c0.9-1.07,1.35-2.13,1.5-3.3h-2C11.56,4.56,11.06,5.62,10.26,6.69z M65.49,11.47V6.99h2v4.47c0,1.02,0.35,1.52,1.15,1.52
	c0.8,0,1.1-0.46,1.1-1.52V6.99h1.95v4.52c0,1.98-0.95,3.15-3.1,3.15C66.44,14.61,65.49,13.45,65.49,11.47z M57.09,6.99h2v2.74
	l2.05-2.74h2.3l-2.5,2.95l2.7,4.57h-2.25l-1.75-3l-0.55,0.66v2.34h-2V6.99z M47.59,10.7c0-2.74,1.85-3.91,3.65-3.91
	s3.65,1.17,3.65,3.91s-1.85,3.91-3.65,3.91S47.59,13.5,47.59,10.7z M52.84,10.7c0-1.37-0.6-2.24-1.65-2.24
	c-1.05,0-1.65,0.86-1.65,2.24s0.6,2.29,1.65,2.29C52.24,12.99,52.84,12.13,52.84,10.7z M39.55,6.99h2.9c1.9,0,3.05,0.66,3.05,2.44
	c0,1.17-0.5,1.88-1.45,2.18l1.55,2.9h-2.1l-1.45-2.59H41.5v2.59h-1.95V6.99z M42.4,10.35c0.8,0,1.2-0.25,1.2-0.86
	c0-0.61-0.35-0.86-1.2-0.86h-0.85v1.73H42.4z M31.9,6.99h5.3v1.68h-3.3v1.22h2.35v1.57H33.9v1.37h3.45v1.63H31.9V6.99z M22.86,6.99
	h2v2.79h2.45V6.99h2v7.52h-2v-3.05h-2.45v3.05h-2V6.99z"/>
</svg>
