<?xml version="1.0" encoding="utf-8"?>
<!-- Generator: Adobe Illustrator 19.0.0, SVG Export Plug-In . SVG Version: 6.00 Build 0)  -->
<svg version="1.1" id="Ebene_1" xmlns="http://www.w3.org/2000/svg" xmlns:xlink="http://www.w3.org/1999/xlink" x="0px" y="0px"
	 width="68px" height="25px" viewBox="0 0 68 25" style="enable-background:new 0 0 68 25;" xml:space="preserve">
<style type="text/css">
	.st0{fill-rule:evenodd;clip-rule:evenodd;fill:#FFFFFF;}
</style>
<g id="XMLID_14_">
	<path id="XMLID_30_" class="st0" d="M49.3,17.14h1.65V6.44H49.3V17.14z M32.53,9.45c-0.88,0-1.57,0.33-2.13,1.02l-0.04-0.85h-1.57
		v7.53h1.65v-5.37c0.32-0.61,0.8-0.94,1.49-0.94c0.44,0,0.76,0.12,0.97,0.37c0.2,0.24,0.28,0.57,0.28,1.06v4.88h1.65v-5.01
		C34.82,10.34,34.06,9.45,32.53,9.45z M39.61,9.45c-0.64,0-1.21,0.16-1.69,0.49c-0.52,0.33-0.88,0.77-1.21,1.38
		c-0.28,0.61-0.4,1.26-0.4,1.99v0.2c0,1.1,0.32,2.03,0.97,2.69c0.64,0.69,1.49,1.02,2.53,1.02c0.6,0,1.17-0.12,1.65-0.37
		c0.48-0.24,0.88-0.61,1.17-1.06l-0.88-0.85c-0.48,0.61-1.09,0.94-1.85,0.94c-0.52,0-0.97-0.2-1.33-0.53
		c-0.36-0.37-0.56-0.85-0.6-1.47h4.79v-0.69c0-1.18-0.28-2.12-0.8-2.77C41.34,9.77,40.57,9.45,39.61,9.45z M41.1,12.66h-3.14
		c0.08-0.57,0.24-1.02,0.52-1.34c0.28-0.33,0.64-0.49,1.09-0.49s0.8,0.16,1.05,0.45c0.24,0.28,0.4,0.73,0.44,1.3L41.1,12.66z
		 M46.41,15.67c-0.12-0.12-0.16-0.33-0.16-0.61v-4.23h1.29V9.57h-1.29V7.74H44.6v1.83h-1.21v1.26h1.21v4.27
		c0,1.42,0.64,2.16,1.89,2.16c0.36,0,0.72-0.04,1.09-0.16v-1.3c-0.2,0.04-0.4,0.08-0.56,0.08C46.73,15.88,46.53,15.8,46.41,15.67z
		 M53.44,17.14h1.65V9.61h-1.65V17.14z M64.38,14.7l-1.53-5.13h-1.77l2.57,7.49l-0.24,0.65c-0.12,0.37-0.28,0.61-0.48,0.77
		c-0.2,0.16-0.52,0.24-0.92,0.24l-0.32-0.04v1.3c0.28,0.08,0.56,0.12,0.8,0.12c1.05,0,1.81-0.65,2.29-1.91l2.9-8.67h-1.77
		L64.38,14.7z M58.31,6.97c-0.44,0.45-0.68,1.1-0.68,1.95v0.69h-1.09v1.26h1.13v6.27h1.65v-6.31h1.49V9.57h-1.49V8.92
		c0-0.81,0.4-1.26,1.17-1.26c0.24,0,0.44,0.04,0.64,0.04l0.04-1.34c-0.32-0.08-0.64-0.12-0.92-0.12C59.4,6.27,58.75,6.52,58.31,6.97
		z M53.44,7.74h1.65V6.27h-1.65V7.74z"/>
	<path id="XMLID_15_" class="st0" d="M17.29,8.96C17.29,8.96,17.25,8.92,17.29,8.96l0.48-3.01c0-0.04,0.04-0.04,0.04-0.04h0.04
		l2.21,2.2v0.04l-0.04,0.04L17.65,9.2h-0.04C17.53,9.12,17.41,9.04,17.29,8.96z M12.38,6.92l0.04-0.04l2.45-3.87
		c0-0.04,0-0.04,0.04-0.04h0.04l2.17,2.2v0.04L16.57,8.8c0,0.04-0.04,0.04-0.04,0.04c-0.12,0.04-0.24,0.12-0.36,0.2h-0.04l-3.5-1.51
		c-0.04,0-0.04-0.04-0.04-0.04C12.59,7.29,12.51,7.09,12.38,6.92z M24.37,12.5c0,0,0,0.04,0.04,0.04l-0.04,0.04h-0.04L18.06,9.9
		c-0.04,0-0.04-0.04-0.04-0.04l0.04-0.04l2.53-1.1h0.04L24.37,12.5z M23.73,13.11c0.04,0.04,0.04,0.04,0.04,0.12l-3.34,3.34h-0.04
		l-3.66-0.77c-0.04,0-0.04,0-0.04-0.04c-0.04-0.28-0.16-0.57-0.4-0.73v-0.04l0.64-4.03c0-0.04,0.04-0.04,0.04-0.04
		c0.28-0.04,0.52-0.16,0.68-0.41h0.04L23.73,13.11z M15.76,9.69l0.08,0.08C15.8,9.81,15.8,9.85,15.8,9.94v0.04v0.04l-0.04,0.04
		l-7.24,3.13H8.48v-0.04l2.69-4.27c0-0.04,0.04-0.04,0.04-0.04c0.08,0.04,0.12,0.04,0.2,0.04c0.4,0,0.76-0.2,1.01-0.57
		c0-0.04,0.04-0.04,0.04-0.04L15.76,9.69z M19.7,17.14c0.04,0,0.04,0,0.04,0.04v0.04l-4.42,4.48h-0.04h-0.04
		c-0.04,0-0.04,0-0.04-0.04l0.76-4.76L16,16.85c0.16-0.08,0.32-0.2,0.44-0.37h0.04L19.7,17.14z M15.24,16.81l-0.88,5.78v0.04
		l-0.32,0.33h-0.04h-0.04l-5.39-7.94v-0.04c0.04-0.04,0.04-0.08,0.08-0.12c0-0.04,0.04-0.04,0.04-0.04l5.91,1.22
		c0.04,0,0.04,0.04,0.04,0.04C14.72,16.41,14.92,16.69,15.24,16.81z M8.81,14.09c0-0.08-0.04-0.16-0.04-0.28c0,0,0-0.04,0.04-0.04
		l7.28-3.13h0.04c0.04,0.04,0.08,0.08,0.12,0.12c0.04,0,0.04,0.04,0.04,0.04l-0.64,3.95c0,0.04,0,0.04-0.04,0.04
		c-0.36,0-0.68,0.2-0.84,0.53c0,0.04-0.04,0.04-0.04,0.04L8.81,14.09C8.81,14.13,8.81,14.09,8.81,14.09z M6.31,15.06
		C6.31,15.1,6.31,15.1,6.31,15.06L4.95,17.3c0,0.04-0.04,0.04-0.04,0.04H4.86l-1.25-1.26v-0.04C3.62,16,3.66,16,3.66,16l2.53-1.1
		l0.04,0.04C6.27,14.98,6.27,15.02,6.31,15.06z M7.04,12.78l-2.9-4.31V8.43l2.61-2.65H6.8c0,0,3.06,1.3,3.42,1.47
		c0.04,0,0.04,0,0.04,0.04c-0.04,0.08-0.04,0.2-0.04,0.28c0,0.33,0.12,0.61,0.32,0.85v0.04L7.8,12.78c0,0.04-0.04,0.04-0.04,0.04
		c-0.12,0-0.24-0.04-0.36-0.04c-0.12,0-0.2,0-0.32,0.04L7.04,12.78C7.08,12.83,7.08,12.83,7.04,12.78z M6.15,13.56
		C6.11,13.56,6.11,13.56,6.15,13.56l-5.79-1.22c-0.04,0-0.04-0.04-0.04-0.04v-0.04L3.54,9h0.04l0.04,0.04c0,0,2.77,4.07,2.81,4.11
		v0.04C6.35,13.31,6.23,13.4,6.15,13.56C6.15,13.52,6.15,13.56,6.15,13.56z M5.87,14.25c0,0,0,0.04-0.04,0.04l-2.77,1.18H3.02
		l-2.25-2.24v-0.04c0-0.04,0.04-0.04,0.04-0.04L5.87,14.25C5.87,14.21,5.87,14.25,5.87,14.25z M12.2,24.71h-0.02l-6.76-6.84v-0.04
		l1.49-2.32c0-0.04,0.04-0.04,0.04-0.04c0.16,0.04,0.28,0.08,0.44,0.08c0.2,0,0.36-0.04,0.56-0.12L8,15.47c-0.04,0,0,0,0,0
		l5.47,8.02v0.04l-1.21,1.18h-0.02H12.2z M12.28,0.29h0.02l2.09,2.12v0.04l-2.53,3.99c0,0.04-0.04,0.04-0.04,0.04
		c-0.12-0.04-0.28-0.08-0.4-0.08c-0.28,0-0.56,0.12-0.76,0.28h-0.04C10.45,6.64,7.36,5.3,7.36,5.3c-0.04,0-0.04,0,0,0
		c-0.04-0.04-0.04-0.04,0-0.08l4.87-4.92h0.02H12.28z"/>
</g>
</svg>
