<?xml version="1.0" encoding="utf-8"?>
<!-- Generator: Adobe Illustrator 19.0.0, SVG Export Plug-In . SVG Version: 6.00 Build 0)  -->
<svg version="1.1" id="Ebene_1" xmlns="http://www.w3.org/2000/svg" xmlns:xlink="http://www.w3.org/1999/xlink" x="0px" y="0px"
	 width="190px" height="40.5px" viewBox="0 0 190 40.5" style="enable-background:new 0 0 190 40.5;" xml:space="preserve">
<style type="text/css">
	.st0{fill:#FFFFFF;}
</style>
<g>
	<path class="st0" d="M18.12,25.93c0-4.54-4.44-6.28-8.13-7.81c-2.06-0.85-5.39-2.06-5.39-4.47c0-1.81,1.85-3.26,4.61-3.26
		c3.09,0,4.79,1.81,5,3.73h3.19c0-3.16-3.02-6.78-8.09-6.78c-4.33,0-8.02,2.63-8.02,6.53c0,4.33,4.51,6.07,8.06,7.49
		c3.34,1.35,5.47,2.34,5.47,4.61c0,2.59-2.73,3.55-4.9,3.55c-3.02,0-5.89-1.81-6.1-4.61H0.62c0,3.94,3.76,7.67,9.26,7.67
		C14.25,32.57,18.12,30.19,18.12,25.93z"/>
	<path class="st0" d="M34.8,14.65l-5.22,14.69h-0.39l-5.36-14.69H20.6l6.46,17.74h1.46l-0.53,1.46c-0.6,1.63-1.1,3.12-2.98,3.12
		c-1.1,0-1.88-0.5-2.13-0.67l-1.38,2.16c0.5,0.6,1.99,1.21,3.66,1.21c4.33,0,5.43-3.97,6.32-6.6l6.53-18.42H34.8z"/>
	<path class="st0" d="M53.43,27.32c0-3.66-3.3-4.58-6-5.29c-1.74-0.46-3.41-1.03-3.41-2.66c0-1.46,1.28-2.38,2.91-2.38
		c1.88,0,3.26,1.21,3.26,2.52h2.87c0-2.45-2.16-5.04-6.14-5.04c-3.26,0-5.86,1.77-5.86,4.93c0,3.55,3.3,4.51,5.71,5.15
		c1.95,0.53,3.69,1.1,3.69,2.91c0,1.74-1.56,2.56-3.23,2.56c-1.95,0-3.83-1.14-3.83-3.34h-2.87c0,3.23,2.66,5.89,6.74,5.89
		C50.77,32.57,53.43,30.62,53.43,27.32z"/>
	<path class="st0" d="M65.71,29.27c-0.32,0.25-0.71,0.5-1.42,0.5c-1.21,0-2.27-0.75-2.27-3.02v-9.51h4.26v-2.59h-4.29V9.32h-2.63
		v3.19c0,1.45-0.99,2.45-2.38,2.45h-1.1v2.31h3.09v9.76c0,3.23,1.88,5.54,4.97,5.54c1.63,0,2.59-0.67,3.12-1.14L65.71,29.27z"/>
	<path class="st0" d="M77.24,17.09c2.66,0,4.44,1.92,4.86,4.65H72.06C72.63,18.9,74.62,17.09,77.24,17.09z M77.28,14.47
		c-4.44,0-8.41,3.41-8.41,8.91c0,5.54,3.97,9.19,8.45,9.19c3.23,0,6.28-1.92,7.63-5.15h-3.26c-0.85,1.38-2.34,2.27-4.37,2.27
		c-3.05,0-5.11-2.06-5.39-5.36h13.41C85.69,17.63,81.54,14.47,77.28,14.47z"/>
	<path class="st0" d="M108.16,14.47c-2.73,0-4.47,1.53-5.43,2.84h-0.6c-1.03-1.45-2.63-2.84-4.97-2.84c-2.34,0-3.87,1.38-4.54,2.16
		h-0.5l-0.6-1.99h-2.06v17.74h3.12V22.28c0-3.26,1.99-5.11,4.29-5.11c3.05,0,3.48,3.23,3.48,6.67v8.55h3.12V22.03
		c0.11-3.12,2.06-4.86,4.29-4.86c3.05,0,3.48,3.23,3.48,6.67v8.55h3.12v-9.62C114.37,17.88,112.24,14.47,108.16,14.47z"/>
	<path class="st0" d="M121.14,32.57c1.17,0,2.13-0.96,2.13-2.13c0-1.21-0.96-2.13-2.13-2.13c-1.17,0-2.13,0.92-2.13,2.13
		C119.01,31.61,119.97,32.57,121.14,32.57z"/>
	<path class="st0" d="M137.82,29.44c-5.18,0-8.8-4.01-8.8-9.48s3.62-9.48,8.76-9.48c5.18,0,8.8,4.01,8.8,9.48
		S143.01,29.44,137.82,29.44z M137.82,32.57c6.49,0,12.1-5.32,12.1-12.6s-5.64-12.6-12.14-12.6c-6.49,0-12.14,5.32-12.14,12.6
		S131.29,32.57,137.82,32.57z"/>
	<path class="st0" d="M162.2,14.47c-2.95,0-4.54,1.42-5.22,2.2h-0.43l-0.64-2.02h-2.06v17.74h3.12V22.28c0-3.12,2.13-5.11,4.79-5.11
		c3.51,0,4.05,3.51,4.05,6.67v8.55h3.12v-9.62C168.95,17.84,166.71,14.47,162.2,14.47z"/>
	<path class="st0" d="M181.26,17.09c2.66,0,4.44,1.92,4.86,4.65h-10.04C176.65,18.9,178.64,17.09,181.26,17.09z M181.3,14.47
		c-4.44,0-8.41,3.41-8.41,8.91c0,5.54,3.98,9.19,8.45,9.19c3.23,0,6.28-1.92,7.63-5.15h-3.27c-0.85,1.38-2.34,2.27-4.36,2.27
		c-3.05,0-5.11-2.06-5.39-5.36h13.42C189.71,17.63,185.56,14.47,181.3,14.47z"/>
</g>
</svg>
